<?xml version="1.0" encoding="UTF-8"?>
<svg version="1.1" xmlns="http://www.w3.org/2000/svg" width="1024" height="1024">
<path d="M0 0 C1.15431624 0.94809853 2.30087452 1.90576354 3.4375 2.875 C3.99050781 3.28621094 4.54351562 3.69742188 5.11328125 4.12109375 C21.99329422 17.19825322 29.08935283 38.103062 34.4375 57.875 C35.76201172 57.07835938 35.76201172 57.07835938 37.11328125 56.265625 C51.88094244 47.52077203 66.36724306 42.28224139 83.765625 45.48828125 C96.16358034 49.17196693 104.83941792 56.91969391 111.4375 67.875 C116.59351516 77.707401 118.62255278 88.90222207 115.63671875 99.796875 C97.50063835 138.93590762 32.62273011 160.75899472 -4.375 177.75 C-19.55752925 184.73024094 -34.30005659 191.61177582 -47.5625 201.875 C-49.02420806 202.94180974 -50.48937756 204.00388482 -51.95703125 205.0625 C-61.30730342 211.82065481 -70.36086335 218.76143462 -78.96582031 226.45019531 C-80.55859572 227.871516 -82.16525652 229.27584473 -83.7734375 230.6796875 C-95.28243405 240.83921746 -110.05876904 255.29906274 -111.83984375 271.37890625 C-112.08763208 278.02954507 -110.90334942 282.30457516 -106.33203125 287.32421875 C-99.38220935 293.72511254 -90.23336029 296.97186663 -81.2109375 299.30859375 C-80.40303772 299.51910873 -79.59513794 299.72962372 -78.76275635 299.94651794 C-67.41477226 302.79042942 -55.84937478 304.55115845 -44.3125 306.4375 C1.60575883 313.97015088 1.60575883 313.97015088 9.4375 323.875 C11.3354652 328.06633983 11.57226529 330.23227325 10.625 334.75 C6.03840202 344.84822413 -4.35704646 350.77229235 -13.20288086 356.73876953 C-23.08016848 363.05963935 -23.08016848 363.05963935 -30.125 372.0625 C-30.73266775 375.61799054 -30.73266775 375.61799054 -29.5625 378.875 C-27.92073591 379.60083255 -26.2480902 380.25774162 -24.5625 380.875 C-23.72074219 381.205 -22.87898437 381.535 -22.01171875 381.875 C-7.9483088 386.96726725 6.71153076 387.25645492 21.5 387.1875 C22.31976318 387.18567719 23.13952637 387.18385437 23.98413086 387.18197632 C110.83065838 386.86031475 209.15650841 359.25631131 288.4375 301.875 C289.04722656 301.41867187 289.65695312 300.96234375 290.28515625 300.4921875 C295.57757634 296.40443592 299.57377049 291.55710744 301.625 285.1875 C301.7307119 281.7563822 301.7307119 281.7563822 299.4375 279.125 C282.61540461 266.50842846 252.72013777 269.49607862 233.125 272.0625 C211.06545462 275.11307047 211.06545462 275.11307047 191.30859375 284.4921875 C189.4375 285.875 189.4375 285.875 187.4375 285.875 C187.4375 287.525 187.4375 289.175 187.4375 290.875 C194.00397069 293.62944504 200.42313784 294.93440796 207.4375 296.0625 C209.02884766 296.32836914 209.02884766 296.32836914 210.65234375 296.59960938 C213.24629626 297.03193479 215.84122744 297.4568749 218.4375 297.875 C218.4375 298.205 218.4375 298.535 218.4375 298.875 C204.90235117 299.87101621 191.53635074 300.44122821 178 299.0625 C177.26668457 298.99248779 176.53336914 298.92247559 175.77783203 298.8503418 C169.57222561 298.14320441 162.54167407 297.00188945 158.4375 291.875 C158.25210001 287.1473003 159.48781095 284.40776711 162.4375 280.875 C185.14584979 257.07006994 224.94350453 245.12258107 257.11767578 243.71386719 C289.42393354 243.35355878 328.18771682 243.24900579 354.1875 265.4375 C359.35776605 270.5121813 362.90072309 275.19714116 363.46484375 282.71875 C363.28629777 296.7983758 355.25836722 306.84150267 345.82373047 316.45361328 C344.54989981 317.75974961 343.30652599 319.09540853 342.06640625 320.43359375 C334.95412037 327.9296792 326.83807613 333.91852213 318.4375 339.875 C317.82777344 340.308125 317.21804688 340.74125 316.58984375 341.1875 C249.95718658 388.05002812 165.79203077 414.68543972 28.75 438.1875 C27.95627991 438.26899292 27.16255981 438.35048584 26.3447876 438.43444824 C7.41073295 440.34735808 -11.40876086 441.08319237 -30.4375 441.0625 C-31.98553818 441.06159363 -31.98553818 441.06159363 -33.56484985 441.06066895 C-65.69633752 441.00976266 -98.71586358 439.67779611 -129.5625 429.875 C-130.79355469 429.48441406 -132.02460938 429.09382813 -133.29296875 428.69140625 C-140.56343641 426.13963106 -148.62699965 422.75171832 -152.7734375 415.86328125 C-154.05073566 412.64474281 -153.96380308 410.31474072 -153.5625 406.875 C-149.30950962 397.22982539 -140.57666537 390.89081246 -132.25 384.9375 C-130.56156361 383.70961992 -128.87405441 382.4804638 -127.1875 381.25 C-126.38699219 380.66734375 -125.58648437 380.0846875 -124.76171875 379.484375 C-113.02646165 371.37414933 -113.02646165 371.37414933 -105.4375 359.75 C-105.6051459 355.89414421 -106.93935513 354.64829121 -109.5625 351.875 C-120.39145713 346.17741145 -134.64587966 346.19181375 -146.5625 344.875 C-191.61469207 339.82280793 -191.61469207 339.82280793 -202.5625 328.875 C-207.64848241 321.34982194 -208.36496099 314.78604941 -207.5625 305.875 C-202.88627171 285.18159722 -189.00201743 267.74230123 -175.5625 251.875 C-175.08490234 251.30716797 -174.60730469 250.73933594 -174.11523438 250.15429688 C-163.82896472 237.93363344 -163.82896472 237.93363344 -158.10546875 232.4140625 C-156.49106426 230.80374511 -155.03374022 229.11677054 -153.5625 227.375 C-145.90987824 218.50767637 -137.3991976 210.0951201 -128.44921875 202.54296875 C-126.04748902 200.41970044 -123.81545437 198.1552216 -121.5625 195.875 C-118.0507345 192.32581843 -114.47241099 188.95531543 -110.6796875 185.7109375 C-108.15650545 183.5229383 -105.70695481 181.26206887 -103.25 179 C-98.53762504 174.68965983 -93.68219013 170.65549075 -88.6796875 166.6875 C-86.48712867 165.04810514 -86.48712867 165.04810514 -85.5625 162.875 C-106.8900448 171.80512987 -124.95168586 183.18836301 -142.5546875 198.19921875 C-143.06225586 198.6276709 -143.56982422 199.05612305 -144.09277344 199.49755859 C-145.60798644 200.84405271 -145.60798644 200.84405271 -146.82128906 202.50634766 C-149.09044719 205.34068329 -150.69415126 206.68091402 -154.29760742 207.48632812 C-157.73623376 207.79153943 -161.11024467 207.88103622 -164.5625 207.875 C-165.77212402 207.87419434 -166.98174805 207.87338867 -168.22802734 207.87255859 C-172.07224941 207.82303641 -175.90818238 207.7062285 -179.75 207.5625 C-180.42681824 207.5382193 -181.10363647 207.5139386 -181.80096436 207.48892212 C-221.81472079 206.02882851 -221.81472079 206.02882851 -231.5625 196.875 C-232.28291787 193.1928642 -231.77272749 191.32412237 -230.1875 187.9375 C-222.1023 177.10049509 -206.38433077 171.73973074 -193.5625 169.875 C-184.86435309 169.22375413 -174.08549123 168.51085068 -166.8125 174.2578125 C-164.73853018 176.94101096 -165.32569661 179.61895341 -165.5625 182.875 C-165.8925 183.535 -166.2225 184.195 -166.5625 184.875 C-160.24059914 181.46639382 -160.24059914 181.46639382 -156.25 175.8125 C-156.65778999 171.97927409 -157.95358692 170.68326524 -160.5625 167.875 C-171.76976528 160.408865 -185.18077085 157.6112697 -198.01904297 154.22753906 C-218.32751268 148.82262767 -218.32751268 148.82262767 -223.6875 140.625 C-225.31638299 133.64407292 -224.45127336 127.0768028 -220.90234375 120.8125 C-212.95327524 109.31763708 -200.93720283 104.39067482 -187.5625 101.875 C-182.13824897 100.93978431 -176.92125474 100.72271764 -171.4375 100.75 C-170.65246094 100.74613281 -169.86742187 100.74226563 -169.05859375 100.73828125 C-166.88970664 100.74193873 -164.72976417 100.79537637 -162.5625 100.875 C-161.15871094 100.91947266 -161.15871094 100.91947266 -159.7265625 100.96484375 C-156.31533694 102.39952887 -155.43648207 105.33791529 -154.0625 108.5625 C-152.33200766 112.49957706 -150.6710851 115.93070737 -147.84375 119.20703125 C-145.5625 121.875 -145.5625 121.875 -145.5625 123.875 C-144.98371094 124.13667969 -144.40492188 124.39835938 -143.80859375 124.66796875 C-141.43306959 125.94455478 -139.66125255 127.42483225 -137.625 129.1875 C-126.0579452 138.3759233 -111.81737929 139.98681847 -97.5625 138.875 C-79.14362286 136.3165784 -64.4716266 125.96571387 -53.3203125 111.49609375 C-47.42564811 102.70649419 -44.44142499 93.45610521 -45.5625 82.875 C-48.25977344 73.35767767 -53.49314838 66.58691249 -60.5625 59.875 C-60.2325 59.215 -59.9025 58.555 -59.5625 57.875 C-48.63984941 57.26517459 -40.31166721 57.24213991 -31.5078125 64.58984375 C-28.2390641 67.68905125 -25.6390026 70.844142 -23.5625 74.875 C-25.75117619 65.6787202 -28.99608825 58.05898822 -36.9375 52.5 C-38.46021535 51.59242131 -40.00136917 50.71478072 -41.5625 49.875 C-42.16578125 49.5346875 -42.7690625 49.194375 -43.390625 48.84375 C-51.22472862 45.16512743 -61.82524446 45.54023032 -69.875 48.3125 C-77.78078045 52.02742359 -84.00155803 57.92871793 -87.5625 65.875 C-86.91023437 65.69582031 -86.25796875 65.51664062 -85.5859375 65.33203125 C-81.39004025 64.31090581 -78.42110532 63.65239862 -74.1875 64.75 C-70.51951022 67.71932506 -68.6985346 70.35639048 -67.5625 74.875 C-66.45046374 86.3584765 -67.05321386 96.3089612 -74.3125 105.75 C-78.378284 110.1364947 -84.50844571 113.51078818 -90.53271484 114.05200195 C-108.4253342 114.54132942 -122.58108189 112.06278758 -136.375 99.6875 C-144.91485284 90.57284937 -148.11955039 78.64376026 -147.8671875 66.48828125 C-146.38821378 48.9491698 -138.47687119 33.44542471 -127.5625 19.875 C-127.04558594 19.194375 -126.52867187 18.51375 -125.99609375 17.8125 C-97.12107267 -18.08226305 -37.08859606 -27.15542678 0 0 Z " fill="#000000" transform="translate(283.5625,30.125)"/>
<path d="M0 0 C1.19512207 0.16628906 2.39024414 0.33257812 3.62158203 0.50390625 C59.31076539 8.51994224 122.4454194 22.34113251 166 60 C166.91072266 60.69416016 166.91072266 60.69416016 167.83984375 61.40234375 C183.09252583 73.20971412 192.34948215 92.26037378 195 111 C197.08993401 147.25231688 178.86057438 179.20847543 156 206 C155.14587855 207.03802959 154.29307345 208.07714334 153.44140625 209.1171875 C147.39925949 216.41807024 140.94756842 223.23344546 134.25 229.9375 C133.06204834 231.12666016 133.06204834 231.12666016 131.85009766 232.33984375 C127.05601338 237.08880487 122.1296553 241.61718843 117 246 C115.99076511 246.87746581 114.98164144 247.75505957 113.97265625 248.6328125 C105.24350222 256.10824911 96.21168073 263.13010092 87 270 C86.27119629 270.54446777 85.54239258 271.08893555 84.79150391 271.64990234 C73.54204392 280.01552287 61.95401971 287.68153641 50 295 C49.3390332 295.40702148 48.67806641 295.81404297 47.99707031 296.23339844 C37.84288184 302.47448388 27.47937093 308.32409974 17 314 C16.12843262 314.4734082 15.25686523 314.94681641 14.35888672 315.43457031 C-50.46513631 350.46520876 -122.24748676 370.39716484 -195.9375 372.625 C-196.66534698 372.64745789 -197.39319397 372.66991577 -198.14309692 372.6930542 C-217.11255177 373.25241223 -236.10858428 372.92667102 -255 371 C-252.22716671 368.22716671 -249.90668504 368.24489102 -246.0546875 367.5546875 C-244.58709889 367.28450164 -243.11957235 367.01397852 -241.65209961 366.74316406 C-240.87462372 366.60237427 -240.09714783 366.46158447 -239.29611206 366.31652832 C-175.21984895 354.63120186 -115.09778519 332.09787893 -57 303 C-63.4809319 304.06753148 -69.88242855 305.39406904 -76.27734375 306.8828125 C-122.91283682 317.7286293 -169.89838324 325.61641183 -217.5625 330.25 C-218.34361145 330.3272229 -219.1247229 330.4044458 -219.92950439 330.48400879 C-251.07194555 333.51765866 -282.17974792 334.3787797 -313.45094681 334.31785583 C-316.35929748 334.31241241 -319.26764001 334.31004746 -322.17599487 334.3079834 C-349.69731692 334.2775536 -377.08596113 333.91999814 -404.49914551 331.24401855 C-407.16781475 330.98362563 -409.83723685 330.73211681 -412.50683594 330.48144531 C-440.65791963 327.81879096 -440.65791963 327.81879096 -453 326 C-453 325.67 -453 325.34 -453 325 C-451.85974365 324.95512451 -450.7194873 324.91024902 -449.54467773 324.86401367 C-364.97575168 321.4798037 -285.08061461 306.58559443 -208.5390625 268.63183594 C-206.83943359 267.79120605 -206.83943359 267.79120605 -205.10546875 266.93359375 C-203.62276489 266.1919397 -203.62276489 266.1919397 -202.11010742 265.43530273 C-195.97864686 262.60565703 -189.67462972 260.52029467 -183.19140625 258.64453125 C-181.64880583 258.19108169 -180.10633156 257.73720282 -178.56396484 257.28295898 C-177.75191589 257.04455292 -176.93986694 256.80614685 -176.10321045 256.56051636 C-141.04720536 246.23959795 -106.0932066 235.18944814 -72 222 C-70.16115234 221.289646 -70.16115234 221.289646 -68.28515625 220.56494141 C-50.28311517 213.58368814 -32.56614354 206.01800591 -15 198 C-14.12843262 197.60748047 -13.25686523 197.21496094 -12.35888672 196.81054688 C19.52441988 182.43739256 62.98988468 161.55832924 78 128 C80.58047134 120.14639157 80.04012438 111.16637022 76.5625 103.75 C67.56914339 87.92757587 52.78196068 78.12467897 37 70 C36.32163086 69.65050293 35.64326172 69.30100586 34.94433594 68.94091797 C-8.40597616 46.93468555 -59.66242411 38.73575667 -107.875 38.8125 C-108.5872171 38.81310425 -109.2994342 38.8137085 -110.03323364 38.81433105 C-171.33036588 38.95406292 -247.21071378 54.12823185 -294.6328125 96.34375 C-298.12618495 99.89798259 -300.4459429 102.4360853 -300.5 107.5625 C-300.335 108.696875 -300.17 109.83125 -300 111 C-299.030625 111.28875 -298.06125 111.5775 -297.0625 111.875 C-294 113 -294 113 -293 115 C-301.46861316 117.82287105 -311.22710896 117.208689 -320.0625 117.25 C-321.72249023 117.2809375 -321.72249023 117.2809375 -323.41601562 117.3125 C-330.30891446 117.34507129 -336.6305715 116.82908716 -343 114 C-345.25 111.75 -345.25 111.75 -346 109 C-345.0331733 99.1383677 -335.95055501 91.46697638 -328.859375 85.33203125 C-308.71568476 68.90336585 -286.18470903 56.57911908 -263 45 C-262.20674316 44.59942383 -261.41348633 44.19884766 -260.59619141 43.78613281 C-214.5644355 20.64763146 -162.92804011 6.80018979 -112 0 C-111.33385681 -0.0898114 -110.66771362 -0.1796228 -109.98138428 -0.27215576 C-73.86783549 -5.0698198 -36.07071491 -5.06675603 0 0 Z " fill="#000000" transform="translate(707,184)"/>
<path d="M0 0 C4.97610415 4.90476215 8.1350895 8.38877121 8.4375 15.5 C8.35261745 23.37521454 5.36230294 28.32754752 0.13671875 34.03515625 C-12.51087376 45.97306421 -31.24083666 46.4545559 -47.68920898 48.22949219 C-64.61310895 49.63300612 -64.61310895 49.63300612 -80 56 C-79.25524434 60.4780821 -77.26891119 61.68680788 -73.71484375 64.23828125 C-70.99976491 66.00015255 -68.23219539 67.61549705 -65.42651367 69.2265625 C-52.6867016 76.58240833 -52.6867016 76.58240833 -49 83 C-48.12206595 86.30913602 -48.32274687 87.71847361 -49.90625 90.71484375 C-56.68128476 100.1544501 -71.05335757 103.23520455 -81.5 106.9375 C-100.40390604 112.79982898 -100.40390604 112.79982898 -114 126 C-115.09852642 130.17900961 -114.74955793 133.43250341 -112.88671875 137.328125 C-107.89972999 145.23203171 -101.12686927 151.27872504 -93.5 156.5625 C-92.78005859 157.06644287 -92.06011719 157.57038574 -91.31835938 158.08959961 C-83.2996082 163.61642421 -74.94756266 168.59146964 -66.60546875 173.609375 C-54.64276118 180.81508962 -42.95292893 188.31719401 -32 197 C-31.24074219 197.59296875 -30.48148438 198.1859375 -29.69921875 198.796875 C-23.74224889 203.68809696 -17.94007316 210.0739692 -16.69140625 217.9453125 C-16.35150576 223.69272085 -17.61410824 227.27169686 -21.05859375 231.875 C-43.06267206 255.95994688 -89.67854436 260.7335575 -119.9296875 267.25390625 C-120.58470938 267.39519203 -121.23973125 267.53647781 -121.91460228 267.68204498 C-129.15415059 269.24232654 -136.39695904 270.78564539 -143.64477539 272.30712891 C-154.7749699 274.65864659 -165.85371373 277.06737744 -176.80078125 280.17578125 C-178.03211037 280.52451546 -178.03211037 280.52451546 -179.28831482 280.8802948 C-186.35694515 282.96191334 -194.16388973 285.40641643 -200 290 C-200.95106183 293.11263492 -200.95106183 293.11263492 -201 296 C-190.16510289 305.42302356 -173.79425433 308.23752898 -160.25 311.9375 C-149.57523566 314.85556533 -138.99145771 317.84575592 -128.59765625 321.6640625 C-127.83056335 321.94559677 -127.06347046 322.22713104 -126.27313232 322.51719666 C-117.44988481 325.84394772 -108.25811817 329.71415367 -102.93359375 337.8984375 C-101.24010847 341.7105508 -101.06791969 344.95149848 -102 349 C-103.25875145 352.04054575 -104.94033943 354.44458987 -107 357 C-107.48855469 357.62390625 -107.97710938 358.2478125 -108.48046875 358.890625 C-138.96011821 393.20638595 -206.07729338 404.6466587 -249 410 C-249.99128906 410.13148438 -250.98257813 410.26296875 -252.00390625 410.3984375 C-283.40524104 413.94606922 -283.40524104 413.94606922 -294 406 C-296 404 -296 404 -296.5 400.5 C-296.19478883 391.08932216 -288.39680862 383.91496073 -282.26953125 377.54296875 C-278.76336653 373.61437455 -277 371.34934846 -277 366 C-291.56546599 364.82325679 -304.56517955 369.59258665 -318.28637695 373.90917969 C-340.83852359 380.98792189 -363.53580792 386.07959202 -387 389 C-388.19866699 389.15098145 -389.39733398 389.30196289 -390.63232422 389.45751953 C-417.69121275 392.70626836 -444.78845869 392.32174084 -472 392 C-468.93343647 389.95562431 -466.89195469 389.33851583 -463.34326172 388.49462891 C-462.17300446 388.21272705 -461.00274719 387.9308252 -459.79702759 387.64038086 C-457.88269424 387.18804077 -457.88269424 387.18804077 -455.9296875 386.7265625 C-454.58806749 386.40430949 -453.24662998 386.08129586 -451.90536499 385.75756836 C-449.04913012 385.06852892 -446.19232842 384.38191922 -443.33508301 383.69708252 C-416.33100045 377.21552829 -389.47344065 370.43111025 -363 362 C-361.96921326 361.67189331 -361.96921326 361.67189331 -360.91760254 361.3371582 C-321.75145708 350.42896247 -321.75145708 350.42896247 -291 326 C-289.68291229 323.02080135 -289.68291229 323.02080135 -290 320 C-292.70190738 315.07376209 -295.4000155 312.76538959 -300.3125 310.125 C-300.91698975 309.7940332 -301.52147949 309.46306641 -302.14428711 309.12207031 C-304.08737542 308.06388133 -306.04136313 307.02909806 -308 306 C-308.67224609 305.64583008 -309.34449219 305.29166016 -310.03710938 304.92675781 C-310.71064453 304.57194336 -311.38417969 304.21712891 -312.078125 303.8515625 C-312.74416748 303.4994873 -313.41020996 303.14741211 -314.09643555 302.78466797 C-315.37300484 302.11285614 -316.65295995 301.44742485 -317.93676758 300.78955078 C-328.24656125 295.41971976 -328.24656125 295.41971976 -330 290 C-330.5443957 285.82629961 -330.06863796 282.97407578 -327.4921875 279.5625 C-322.20729418 274.02858029 -315.58130533 270.6239846 -308.6328125 267.6171875 C-307.58394363 267.16199989 -307.58394363 267.16199989 -306.5138855 266.69761658 C-299.18247054 263.57102754 -291.69990795 261.02512795 -284.125 258.5625 C-282.60090719 258.05991378 -281.07698732 257.55680289 -279.55322266 257.05322266 C-270.20752443 253.97582003 -260.83393122 250.98792642 -251.453125 248.01953125 C-195.98961195 234.23906821 -195.98961195 234.23906821 -152.83984375 201.03125 C-150.74396589 196.45842557 -150.8528409 192.90887483 -152.19921875 188.1015625 C-153.37156009 185.02488132 -154.99237081 182.59810837 -157 180 C-157.89912109 178.80890625 -157.89912109 178.80890625 -158.81640625 177.59375 C-161.05234326 174.93782482 -163.34818634 172.90865887 -166.0625 170.75 C-167.02929688 169.97398437 -167.99609375 169.19796875 -168.9921875 168.3984375 C-169.98476563 167.60695313 -170.97734375 166.81546875 -172 166 C-175.68106065 163.01724354 -179.34306493 160.01224743 -183 157 C-183.74507812 156.40445313 -184.49015625 155.80890625 -185.2578125 155.1953125 C-191.87011619 149.73953341 -197.84035347 142.5794682 -199.37109375 133.89453125 C-199.60894514 126.43719049 -197.07659184 120.74637619 -192.3671875 115.01171875 C-185.24439063 108.04752667 -175.99384482 103.45165459 -167.45898438 98.453125 C-163.95486993 96.38238541 -160.49732244 94.24590823 -157.0625 92.0625 C-156.00160156 91.39347656 -154.94070313 90.72445312 -153.84765625 90.03515625 C-150.89694891 87.92635169 -148.49231893 85.62739216 -146 83 C-145.401875 82.4225 -144.80375 81.845 -144.1875 81.25 C-142.19136916 77.46785735 -142.16101639 74.15145167 -143 70 C-147.40091539 62.68071785 -154.76564794 58.68247971 -161.9375 54.5 C-181.8243166 42.85953434 -181.8243166 42.85953434 -184.71875 33.12890625 C-185.5605254 26.75713414 -183.72619393 21.50513903 -180 16.375 C-159.66301944 -7.33068286 -124.81180286 -16.68428407 -94.85546875 -19.40234375 C-64.84322299 -21.62209445 -24.48869432 -20.05171834 0 0 Z " fill="#000000" transform="translate(1005,471)"/>
<path d="M0 0 C0.9178125 0.1753125 1.835625 0.350625 2.78125 0.53125 C10.95055029 2.41647314 18.40658692 5.68456436 23 13 C28.33772177 23.86607647 26.33079541 34.8418792 22.68896484 46.02490234 C9.09345565 84.99998009 -19.512532 116.35000473 -54 138 C-54.67514648 138.28254639 -55.35029297 138.56509277 -56.04589844 138.85620117 C-58.55196525 140.32308311 -59.1909478 141.69574701 -60.4453125 144.296875 C-61.09342896 145.60144653 -61.09342896 145.60144653 -61.75463867 146.93237305 C-62.43296753 148.32709839 -62.43296753 148.32709839 -63.125 149.75 C-67.71110507 158.8380685 -72.76006635 166.9757375 -79 175 C-79.68835938 175.89847656 -80.37671875 176.79695312 -81.0859375 177.72265625 C-92.7213434 192.60033929 -105.77325283 205.84442151 -121 217 C-121.56638184 217.41604492 -122.13276367 217.83208984 -122.71630859 218.26074219 C-157.74422448 243.60949509 -199.24434451 254.48010047 -242.0625 254.375 C-242.87105438 254.37478851 -243.67960876 254.37457703 -244.51266479 254.37435913 C-274.07548012 254.2982379 -316.36030996 253.64134167 -339.046875 232.34375 C-343.21604667 227.340744 -344.57321697 223.02180074 -344.34375 216.64453125 C-343.21084009 207.92884932 -338.63693927 201.47743717 -333 195 C-332.34128906 194.13117188 -331.68257813 193.26234375 -331.00390625 192.3671875 C-328.80544427 189.72903313 -326.92828409 187.80098454 -324 186 C-319.44904935 185.63770365 -315.39070422 186.880531 -311 188 C-308.11427396 188.56585596 -305.21674588 189.03966403 -302.3125 189.5 C-301.52367432 189.62705322 -300.73484863 189.75410645 -299.92211914 189.88500977 C-254.60784866 196.85405342 -206.3470215 193.15138946 -163 178 C-164.30142944 178.0611499 -164.30142944 178.0611499 -165.62915039 178.12353516 C-247.77558623 181.78024079 -328.80568789 160.9923971 -390.875 104.75 C-391.75800781 103.93015625 -392.64101563 103.1103125 -393.55078125 102.265625 C-395.68387867 100.29242483 -397.85358987 98.38705297 -400.0625 96.5 C-411.26950294 86.73980276 -420.67029227 75.50875511 -430 64 C-428.515 63.505 -428.515 63.505 -427 63 C-424.8289418 64.12435346 -422.85764972 65.3001286 -420.8125 66.625 C-395.27957676 82.48881997 -368.28775397 94.94148152 -340 105 C-339.13906738 105.31420898 -338.27813477 105.62841797 -337.39111328 105.95214844 C-261.7979077 133.48600019 -179.22952513 129.43928771 -106.359375 95.8984375 C-86.51744392 86.91571735 -86.51744392 86.91571735 -73.2109375 70.9296875 C-72.74669496 68.7258168 -72.74669496 68.7258168 -74.9375 66.4375 C-87.65755865 56.31337168 -109.50476129 57.20424836 -125 56 C-122.66929229 53.66929229 -121.49921079 53.47805683 -118.328125 52.7734375 C-117.36487305 52.55067139 -116.40162109 52.32790527 -115.40917969 52.09838867 C-114.36665039 51.85967041 -113.32412109 51.62095215 -112.25 51.375 C-79.37784115 43.47199745 -45.58039269 28.96579233 -19.46484375 7.08203125 C-13.14425807 1.80439235 -8.59060891 -1.84861204 0 0 Z " fill="#000000" transform="translate(755,512)"/>
<path d="M0 0 C-0.680625 0.268125 -1.36125 0.53625 -2.0625 0.8125 C-24.3558231 9.19487905 -24.3558231 9.19487905 -41.6875 24.4375 C-43.32421126 28.880002 -44.024268 32.33837082 -43 37 C-35.66834288 52.73189585 -13.08655098 60.08849727 2.0625 65.625 C13.85949705 69.82244679 25.79788832 73.2054067 38 76 C38.72977051 76.16725586 39.45954102 76.33451172 40.21142578 76.50683594 C102.19120875 90.2867064 166.25344541 74.10248838 223 49 C223.9502002 48.58202148 224.90040039 48.16404297 225.87939453 47.73339844 C230.92965068 45.51096286 235.97005751 43.26802316 241 41 C239.56385518 45.33223796 237.26206008 48.468332 234.3125 51.875 C233.83264648 52.4323584 233.35279297 52.9897168 232.85839844 53.56396484 C210.54026188 79.09766572 185.93674628 93.99255773 153.796875 104.3359375 C124.92349112 113.63050199 99.64105064 125.24121498 78 147 C77.10667969 147.89332031 76.21335937 148.78664063 75.29296875 149.70703125 C58.47949121 167.34697773 49.39140192 188.84735864 49.58251953 213.31274414 C50.31145302 237.47986927 60.37183762 261.85527713 75.75 280.42578125 C77 282 77 282 77 283 C51.24857395 284.66138233 26.70699179 271.34938493 7.7578125 255.07421875 C-10.27861252 238.16054308 -20.17230373 213.39332993 -21.2578125 188.9921875 C-21.97891643 163.93046661 -15.22684085 142.59868334 -3 121 C-3.58676514 120.84031738 -4.17353027 120.68063477 -4.77807617 120.51611328 C-23.03727662 115.46430071 -42.20919993 109.33476315 -57 97 C-57.82242187 96.31421875 -58.64484375 95.6284375 -59.4921875 94.921875 C-62.06884725 92.68198233 -64.54510102 90.37241438 -67 88 C-67.77472656 87.26265625 -68.54945313 86.5253125 -69.34765625 85.765625 C-79.38518737 75.50427243 -85.42195475 62.68500504 -85.27734375 48.3203125 C-84.480842 38.78472815 -78.2709445 30.89478091 -71.5 24.5 C-54.46542041 10.26117202 -31.30313078 3.69169799 -9.8125 0.0625 C-9.05243652 -0.06592285 -8.29237305 -0.1943457 -7.50927734 -0.32666016 C-2.26776809 -1.13388405 -2.26776809 -1.13388405 0 0 Z " fill="#000000" transform="translate(384,724)"/>
<path d="M0 0 C1.24664297 2.97809154 1.47794394 4.82007591 0.25 7.8515625 C-5.36298348 17.63530453 -14.59433514 24.40074642 -23.3671875 31.1640625 C-29.07484197 35.58160975 -34.52363571 40.30177862 -40 45 C-40.79664063 45.66 -41.59328125 46.32 -42.4140625 47 C-46.73233763 50.62282258 -50.17711614 54.08271844 -53 59 C-52.96877472 61.84977164 -52.96877472 61.84977164 -52 64 C-46.7832144 66.11536863 -42.22525169 66.34522238 -36.6875 66.3125 C-35.7394751 66.31121094 -34.7914502 66.30992187 -33.81469727 66.30859375 C-25.9918385 66.20938971 -18.27775667 65.51148978 -10.49926758 64.71157837 C2.62119031 63.36515838 15.620486 62.66883115 28.8125 62.625 C29.58973419 62.61750732 30.36696838 62.61001465 31.16775513 62.60229492 C44.55307977 62.4956092 56.59838637 63.09182728 66.8125 72.625 C69.95749159 76.72982668 70.36005526 80.93884583 70 86 C68.79186652 91.63156402 67.10405989 97.08804205 65.0625 102.47265625 C62.30228358 109.78457571 61.29326537 117.95838857 64.5 125.3125 C71.2653076 136.58023645 83.7957599 140.83640858 95.90771484 143.89038086 C108.91582907 146.94945613 122.15620004 148.85830757 135.37304688 150.76953125 C162.44246228 154.75470735 162.44246228 154.75470735 168.91015625 161.3046875 C170.48081369 163.7479324 170.89452032 166.05943942 170.60546875 168.93359375 C165.49206006 186.38516278 139.36152566 197.64853657 124.9375 205.8125 C124.16986328 206.25134521 123.40222656 206.69019043 122.61132812 207.14233398 C120.77543411 208.15988534 118.89128926 209.08953719 117 210 C116.34 209.67 115.68 209.34 115 209 C116.66575159 207.47816445 118.33265671 205.9575915 120 204.4375 C120.50039795 203.97931885 121.0007959 203.5211377 121.51635742 203.04907227 C124.38759086 200.4294678 127.31264324 197.90728499 130.3125 195.4375 C135.32838512 191.06150146 139.05649266 185.99702331 141.0625 179.625 C141.2091263 177.0441318 141.2091263 177.0441318 140 175.25 C134.54997801 171.84373625 128.42989844 171.61466993 122.1875 171.625 C121.28314209 171.62443604 120.37878418 171.62387207 119.44702148 171.62329102 C106.08468459 171.81812072 92.77170214 173.39981062 79.48855591 174.76026917 C25.68425965 180.2666635 25.68425965 180.2666635 10 171 C6.40358665 168.04343933 4.40945593 165.2283678 2.9375 160.8125 C3.05815989 153.45224692 5.48621151 146.57357301 7.75 139.625 C8.93119228 135.72519056 9.4119559 132.95347651 8 129 C5.46310049 125.30035488 2.15075805 123.76840679 -2.046875 122.54296875 C-28.18176847 117.73774363 -57.87415883 127.48709353 -83.20849609 133.02661133 C-117.86665076 140.58055359 -117.86665076 140.58055359 -132.3125 140.375 C-133.17810547 140.38660156 -134.04371094 140.39820313 -134.93554688 140.41015625 C-141.01953264 140.38222671 -145.5298076 139.4701924 -150 135 C-151.58073165 126.34757414 -148.11173709 119.71600389 -143.45385742 112.65673828 C-141.79949701 110.34357945 -140.09994421 108.0734627 -138.375 105.8125 C-137.13407162 104.15498008 -135.89318675 102.49742759 -134.65234375 100.83984375 C-133.43513643 99.22638096 -132.21769763 97.61309278 -131 96 C-118.58918648 81.56993115 -118.58918648 81.56993115 -115 64 C-118.19172285 61.87218476 -119.1359571 61.73705479 -122.81640625 61.65625 C-123.74517578 61.62660156 -124.67394531 61.59695313 -125.63085938 61.56640625 C-127.58919071 61.52204698 -129.54752405 61.4777765 -131.50585938 61.43359375 C-132.89708008 61.38912109 -132.89708008 61.38912109 -134.31640625 61.34375 C-135.16662354 61.32505859 -136.01684082 61.30636719 -136.89282227 61.28710938 C-139 61 -139 61 -141 59 C-141.81239549 54.8364731 -140.85244609 52.29388305 -138.6875 48.8125 C-117.2998191 19.20640468 -77.41939659 2.46504742 -42.46875 -3.4765625 C-9.37755876 -8.47005307 -9.37755876 -8.47005307 0 0 Z " fill="#000000" transform="translate(176,509)"/>
<path d="M0 0 C1.17755859 0.23944839 1.17755859 0.23944839 2.37890625 0.48373413 C13.73180846 2.81485498 24.86761301 5.71933878 36 8.9375 C32.66181182 10.0061512 30.08297106 9.87176997 26.625 9.4140625 C25.56692139 9.28040283 24.50884277 9.14674316 23.41870117 9.0090332 C22.29052979 8.86167725 21.1623584 8.71432129 20 8.5625 C11.73478334 7.54562198 3.50773042 6.64237077 -4.8125 6.25 C-5.55564453 6.21406738 -6.29878906 6.17813477 -7.06445312 6.14111328 C-52.49135711 4.28017944 -116.09296581 8.68434235 -155 34.9375 C-157.18891761 36.76223909 -157.18891761 36.76223909 -157.5 39.3125 C-157.23028457 42.12420737 -157.23028457 42.12420737 -154.8125 44 C-131.72736802 57.15377085 -97.77084114 55.6849054 -72 57.9375 C-72 58.5975 -72 59.2575 -72 59.9375 C-72.95213379 60.07736328 -73.90426758 60.21722656 -74.88525391 60.36132812 C-158.71850779 72.7647902 -236.23084414 99.32056781 -396 183.9375 C-396.74507813 184.58203125 -397.49015625 185.2265625 -398.2578125 185.890625 C-402.73578927 190.0500846 -406.44930883 194.72101389 -407.26171875 200.94140625 C-407.07601197 205.93594135 -404.93370994 209.38327375 -401.5234375 212.92578125 C-387.70393943 223.94287336 -368.97145294 227.74495582 -352.09716797 231.23901367 C-350.73615967 231.52869019 -350.73615967 231.52869019 -349.34765625 231.82421875 C-348.53304932 231.99139404 -347.71844238 232.15856934 -346.87915039 232.33081055 C-346.25903076 232.53101807 -345.63891113 232.73122559 -345 232.9375 C-344.67 233.5975 -344.34 234.2575 -344 234.9375 C-432.84772027 236.19295692 -432.84772027 236.19295692 -456 218.9375 C-460.20789953 214.81894017 -463.12774181 211.4477761 -463.375 205.4375 C-463.2035504 194.58941603 -456.24587416 187.30909122 -449 179.9375 C-448.47696289 179.39399902 -447.95392578 178.85049805 -447.41503906 178.29052734 C-443.36045066 174.1344031 -439.12413806 170.44475073 -434.5 166.9375 C-433.77498291 166.38698975 -433.04996582 165.83647949 -432.30297852 165.26928711 C-402.52897773 143.0128706 -369.16820997 125.31056712 -335.95043945 108.80981445 C-333.06424549 107.37586721 -330.18132171 105.93550955 -327.29882812 104.49414062 C-316.54369382 99.12704131 -305.74491109 93.86067947 -294.88356018 88.71165466 C-261.53412428 74.31897055 -261.53412428 74.31897055 -239 47.9375 C-237.7088235 41.78040213 -239.27047845 37.33996681 -242.49609375 32.07421875 C-244.38310959 29.39318585 -246.42866035 26.93589725 -248.66796875 24.54296875 C-251.60934644 20.99778919 -252.59950429 17.67894339 -252.41796875 13.01953125 C-251.58076666 8.84916945 -249.29088642 6.50245559 -246 3.9375 C-228.04570249 -6.96332349 -205.36034311 -8.77768715 -185 -11.0625 C-183.43983154 -11.24256592 -183.43983154 -11.24256592 -181.84814453 -11.42626953 C-121.53537117 -18.01209067 -59.23371005 -12.09919789 0 0 Z " fill="#000000" transform="translate(680,91.0625)"/>
</svg>
