<?xml version="1.0" encoding="UTF-8"?>
<svg version="1.1" xmlns="http://www.w3.org/2000/svg" width="1024" height="1024">
<path d="M0 0 C5.88426537 0.35903975 11.23601663 1.7790155 16.84692383 3.51269531 C18.11428879 3.89588676 18.11428879 3.89588676 19.40725708 4.28681946 C22.17615533 5.12655478 24.9417767 5.97647311 27.70703125 6.828125 C29.63895634 7.42011527 31.5708973 8.01205376 33.50285339 8.60394287 C37.53987312 9.84299073 41.57497763 11.08807909 45.60913086 12.33642578 C50.78014674 13.93518659 55.95803727 15.51034208 61.13792896 17.08006668 C65.12489187 18.29265816 69.10660219 19.52182045 73.08704185 20.75563812 C74.99455504 21.34383686 76.90397872 21.92587657 78.81528664 22.50162506 C81.48262527 23.30691712 84.14171543 24.13526531 86.80004883 24.96972656 C87.98528893 25.31911034 87.98528893 25.31911034 89.19447327 25.67555237 C92.56771583 26.7584359 94.66562189 27.57788789 96.89353943 30.3903656 C97.44123741 31.68213463 97.44123741 31.68213463 98 33 C98.49660126 34.15560173 98.49660126 34.15560173 99.00323486 35.33454895 C99.44877716 36.54723701 99.44877716 36.54723701 99.90332031 37.78442383 C100.42366852 39.18964043 100.42366852 39.18964043 100.95452881 40.62324524 C101.32531555 41.64089462 101.69610229 42.65854401 102.078125 43.70703125 C102.47710999 44.79014084 102.87609497 45.87325043 103.28717041 46.98918152 C104.61345565 50.59501754 105.93189129 54.20366777 107.25 57.8125 C107.94956153 59.72055753 108.64987318 61.62833875 109.35018921 63.53611946 C116.98309731 84.33508066 124.47751188 105.18355269 131.94747925 126.04147339 C138.37972421 144.00072882 144.88516461 161.92970563 151.49969482 179.82281494 C152.79790484 183.33550846 154.09394705 186.84899341 155.38916016 190.36279297 C155.81018005 191.50493256 156.23119995 192.64707214 156.66497803 193.82382202 C157.50768473 196.11011754 158.3503365 198.39643332 159.19293213 200.68276978 C161.34806388 206.52837801 163.50814098 212.37208938 165.67626953 218.21289062 C167.85007125 224.07163842 170.00808299 229.9359877 172.15536499 235.80450439 C172.9599543 237.9950247 173.7700809 240.18352013 174.58609009 242.36981201 C175.70476806 245.36902698 176.8038312 248.3747444 177.8984375 251.3828125 C178.23057755 252.25919373 178.56271759 253.13557495 178.90492249 254.03851318 C181.06528251 260.0653599 181.39087234 264.37690252 179.03540039 270.51269531 C178.64344482 271.27678711 178.25148926 272.04087891 177.84765625 272.828125 C177.40647461 273.69961182 176.96529297 274.57109863 176.51074219 275.46899414 C175.7938623 276.84559204 175.7938623 276.84559204 175.0625 278.25 C174.31661621 279.71070923 174.31661621 279.71070923 173.55566406 281.20092773 C172.0495647 284.14059816 170.52826392 287.07179967 169 290 C168.58540527 290.79486816 168.17081055 291.58973633 167.74365234 292.40869141 C165.76784818 296.18623097 163.77702798 299.95563978 161.78125 303.72265625 C158.39563584 310.12669479 155.07392883 316.56381184 151.75 323 C151.43284027 323.61411743 151.11568054 324.22823486 150.78890991 324.86096191 C150.47080353 325.47693237 150.15269714 326.09290283 149.82495117 326.72753906 C149.17888231 327.97852007 148.53280481 329.22949662 147.88671875 330.48046875 C147.56535446 331.10277374 147.24399017 331.72507874 146.91288757 332.36624146 C144.68384143 336.68100873 142.44757445 340.99197412 140.20703125 345.30078125 C134.04451918 357.15509194 127.90896596 369.01691064 122 381 C127.32859205 375.29292852 132.60350302 369.58729661 137.5 363.5 C141.13499389 358.98222187 144.9671029 354.72181484 148.9140625 350.48046875 C151.90441358 347.24788253 154.73786329 343.93294134 157.5 340.5 C161.12941024 335.98916156 164.95430593 331.73395082 168.89648438 327.50024414 C172.83724806 323.24196829 176.50297634 318.81153146 180.125 314.27734375 C181.67212586 312.39823047 183.24046341 310.67705831 185 309 C190.13266869 310.55547754 194.80611432 312.71631648 199.609375 315.0625 C200.41739563 315.45445557 201.22541626 315.84641113 202.05792236 316.25024414 C203.75647022 317.07547019 205.45410782 317.90257215 207.15087891 318.73144531 C209.7527181 320.00132663 212.35855209 321.26272423 214.96484375 322.5234375 C216.61743392 323.3276188 218.26978616 324.13228927 219.921875 324.9375 C221.0921524 325.50319702 221.0921524 325.50319702 222.28607178 326.08032227 C227.77027653 328.77027653 227.77027653 328.77027653 230 331 C230.51438427 333.72532177 230.51438427 333.72532177 230.8926239 337.2676239 C230.96445871 337.91776217 231.03629351 338.56790043 231.11030513 339.23773986 C231.34980388 341.42549055 231.57658964 343.61437385 231.8034668 345.8034668 C231.97213491 347.36881818 232.14155602 348.93408858 232.31167603 350.49928284 C232.77225067 354.758973 233.2215914 359.0197802 233.66851401 363.2809217 C234.13745441 367.73853184 234.61503659 372.19521733 235.09126282 376.65205383 C235.89019055 384.14261733 236.68167597 391.63394041 237.46899414 399.12573242 C238.37873461 407.7813946 239.30098752 416.43565507 240.22983998 425.08928555 C241.02688803 432.51800253 241.81718732 439.94741494 242.60186893 447.37744838 C243.07054385 451.81524469 243.54151429 456.25276421 244.01852989 460.68967247 C244.46712736 464.86585237 244.90722484 469.04284389 245.3408699 473.22060204 C245.50116052 474.75152246 245.66436488 476.28214112 245.83073997 477.81241226 C246.0579453 479.90667917 246.27442578 482.00179628 246.48832703 484.09745789 C246.61201503 485.26830272 246.73570303 486.43914755 246.86313915 487.64547253 C247.0712265 492.74579707 246.8885932 497.51195961 243.76953125 501.69921875 C243.07077881 502.66081909 243.07077881 502.66081909 242.35791016 503.6418457 C241.8479248 504.31691162 241.33793945 504.99197754 240.8125 505.6875 C239.71141574 507.19471099 238.61119007 508.70254951 237.51171875 510.2109375 C236.93470215 510.99436523 236.35768555 511.77779297 235.76318359 512.58496094 C232.82004863 516.61618374 229.97687032 520.71646868 227.125 524.8125 C225.94044643 526.50674977 224.75554803 528.20075849 223.5703125 529.89453125 C222.98024414 530.73838379 222.39017578 531.58223633 221.78222656 532.45166016 C218.85623267 536.6354306 215.9280169 540.81764524 213 545 C211.83332241 546.66665902 210.66665575 548.33332569 209.5 550 C202.5 560 202.5 560 200.74755859 562.50341797 C199.58894244 564.15863015 198.43041281 565.81390291 197.27197266 567.46923828 C194.23286512 571.81167681 191.19195536 576.15283868 188.1484375 580.4921875 C187.51679687 581.39324219 186.88515625 582.29429687 186.234375 583.22265625 C185.02920379 584.94179753 183.82350729 586.66057073 182.6171875 588.37890625 C181.79734375 589.54873047 181.79734375 589.54873047 180.9609375 590.7421875 C180.44885742 591.47147461 179.93677734 592.20076172 179.40917969 592.95214844 C178.13731619 594.80044902 176.92788698 596.67587362 175.7265625 598.5703125 C175.15679688 599.37210938 174.58703125 600.17390625 174 601 C173.34 601 172.68 601 172 601 C171.80273315 599.9684227 171.60546631 598.9368454 171.40222168 597.87400818 C169.51346951 588.06932569 167.51790255 578.2915415 165.42046356 568.52931118 C164.34572339 563.51086784 163.30781433 558.49073433 162.35546875 553.44750977 C158.52353984 527.69969434 158.52353984 527.69969434 143.30883789 508.09246826 C139.22678587 505.80032453 135.10544571 503.85751129 130.75463867 502.13217163 C127.05458691 500.61143002 123.85123893 498.59219789 120.53125 496.38671875 C118.52130722 495.15287354 116.51091005 493.91976813 114.5 492.6875 C104.97150518 486.83659445 95.4673695 480.94928355 86 475 C77.8857715 483.02666489 70.33529844 491.46434464 63.1796875 500.3515625 C61.02242601 502.97275119 58.78689 505.49154281 56.5 508 C53.38541332 511.41739372 50.4081338 514.9052235 47.5 518.5 C43.88967558 522.96276213 40.11572071 527.22719533 36.25 531.46875 C33.92137947 534.0884481 31.70437053 536.7751531 29.5 539.5 C26.5918662 543.0947765 23.61458668 546.58260628 20.5 550 C15.79283037 555.16881849 11.37750662 560.55113421 7 566 C5.94247575 567.128285 5.94247575 567.128285 4.86358738 568.27936363 C2.56585345 571.63380709 2.66803844 573.08795795 3.13963318 577.07315063 C3.2678993 578.22080524 3.39616543 579.36845985 3.52831841 580.55089188 C3.68397333 581.68909756 3.83962826 582.82730324 4 584 C4.13049303 584.98368938 4.26098606 585.96737877 4.39543343 586.98087692 C4.81686064 589.93707662 5.28441667 592.88259208 5.76586914 595.82958984 C6.02943459 597.48343185 6.02943459 597.48343185 6.29832458 599.17068481 C6.67632952 601.53844884 7.05670196 603.90583593 7.43925667 606.27286911 C8.04502258 610.02200099 8.64411962 613.7721468 9.24156189 617.52261353 C10.617211 626.15037927 12.00232605 634.77661319 13.38829803 643.40272522 C14.76400971 651.96542162 16.13553428 660.52875947 17.4996624 669.09331131 C18.08914736 672.78268345 18.68508902 676.47097537 19.28126526 680.15927124 C19.64234107 682.42172184 20.00311094 684.68422129 20.36352539 686.94677734 C20.53026764 687.96717102 20.69700989 688.9875647 20.86880493 690.03887939 C21.6673284 695.09613213 22.18641692 699.87994509 22 705 C16.85257548 701.38585087 12.36553446 697.49209149 7.98046875 692.98828125 C5.53908283 690.53726461 2.95367741 688.30138728 0.33203125 686.046875 C-2.66270063 683.41833312 -5.57975602 680.71073282 -8.5 678 C-11.96270951 674.78823993 -15.4264917 671.5889648 -19 668.5 C-22.57352088 665.41102433 -26.0370559 662.21152218 -29.5 659 C-35.66437 653.26712109 -35.66437 653.26712109 -42.03808594 647.77001953 C-44 646 -44 646 -45.55273438 644.03369141 C-52.58261553 635.95929411 -62.15527007 636.27889229 -72.13998413 635.40539551 C-88.88589062 633.89560355 -103.12545582 632.13357296 -117.67988586 623.37542725 C-121.30524874 621.22621277 -125.00168798 619.22450808 -128.7265625 617.25390625 C-129.94627495 616.60818413 -129.94627495 616.60818413 -131.19062805 615.94941711 C-137.1780921 612.83151288 -143.27093784 610.09095225 -149.48046875 607.44921875 C-172.51730735 597.47303846 -186.09857609 589.2686158 -195.45751953 565.67675781 C-198.01141677 559.58912051 -201.33784603 553.96459074 -204.625 548.25 C-205.85876844 546.03829579 -207.08926593 543.82476361 -208.31640625 541.609375 C-212.61418546 533.89100787 -216.93134926 526.18349377 -221.25830078 518.48144531 C-222.32278813 516.58467574 -223.38157141 514.6846915 -224.43408203 512.78125 C-225.50057819 510.88703045 -226.60223227 509.01227802 -227.73388672 507.15625 C-228.28447754 506.228125 -228.83506836 505.3 -229.40234375 504.34375 C-230.15052368 503.12461914 -230.15052368 503.12461914 -230.91381836 501.88085938 C-233.59623747 494.76632904 -231.77059768 485.60562077 -231.1965332 478.13720703 C-231.11012573 476.98313354 -231.02371826 475.82906006 -230.93469238 474.64001465 C-230.13245375 464.05334948 -229.26378176 453.47194846 -228.37089252 442.89258003 C-227.77336541 435.79892247 -227.1985979 428.70491574 -226.68041992 421.60498047 C-226.22633541 415.38342715 -225.72976046 409.16697294 -225.18251294 402.95289505 C-224.89509291 399.67362336 -224.63429609 396.39584948 -224.41164589 393.11145401 C-222.85579979 370.51619427 -222.85579979 370.51619427 -216.30062389 364.40424919 C-213.64908788 362.3356974 -210.92089727 360.67213259 -208 359 C-206.59242871 357.90284577 -205.19978841 356.78524315 -203.84375 355.625 C-202.73110931 354.74753109 -201.61663944 353.87237456 -200.5 353 C-199.9328125 352.55011719 -199.365625 352.10023438 -198.78125 351.63671875 C-195.63711765 349.16944822 -192.44205301 347.02267975 -189 345 C-187.50168199 345.99887867 -186.00336986 346.99776618 -184.50508118 347.99668884 C-183.16035658 348.89312024 -181.81553557 349.78940702 -180.47062683 350.68556213 C-176.73143451 353.1774241 -172.99402052 355.67188656 -169.25976562 358.17114258 C-162.68954247 362.56514924 -156.11994118 366.95102809 -149.44921875 371.19140625 C-133.76915415 381.20497321 -133.76915415 381.20497321 -127.9609375 389.2890625 C-125.69765409 392.41798419 -123.14265113 395.19558141 -120.5 398 C-116.21746136 402.59598528 -112.21467072 407.35547211 -108.2734375 412.25 C-103.76475586 417.70380047 -99.00352251 422.99647749 -94 428 C-99.61 413.48 -105.22 398.96 -111 384 C-106.50048241 382.8751206 -106.50048241 382.8751206 -103.10522461 383.98803711 C-101.97901955 384.34852394 -101.97901955 384.34852394 -100.83006287 384.71629333 C-100.02891556 384.98393997 -99.22776825 385.25158661 -98.40234375 385.52734375 C-97.57166885 385.79511124 -96.74099396 386.06287872 -95.88514709 386.33876038 C-93.23266952 387.19531442 -90.58496353 388.06558375 -87.9375 388.9375 C-85.28585826 389.80376861 -82.63331984 390.66706299 -79.97914124 391.52552795 C-78.32812276 392.06025005 -76.6786726 392.59984384 -75.0309906 393.14476013 C-71.91596546 394.15918514 -69.29842491 395 -66 395 C-66.49287003 394.68252304 -66.98574005 394.36504608 -67.49354553 394.03794861 C-72.7171901 390.66791708 -77.92310453 387.27166167 -83.12036133 383.86108398 C-85.05068431 382.59902981 -86.98513868 381.34326748 -88.92407227 380.09448242 C-101.1087313 372.23962193 -111.64846148 364.12064475 -121.5463562 353.51907349 C-123.36785483 351.61558772 -125.30139073 349.88794404 -127.3125 348.1875 C-133.08905309 343.29676822 -138.27111848 337.77022821 -143.578125 332.3828125 C-147.18884244 328.7388676 -150.7708293 325.12855813 -154.6875 321.8125 C-155.62021729 320.97936279 -155.62021729 320.97936279 -156.57177734 320.12939453 C-157.96436763 318.90818274 -159.37159509 317.70234201 -160.81719971 316.54437256 C-174.02686238 305.86651901 -174.02686238 305.86651901 -174.94433594 298.74707031 C-175.0371137 293.79811259 -174.18740614 288.99083908 -173.375 284.125 C-173.12455422 282.24524568 -172.88352227 280.36421824 -172.65087891 278.48217773 C-172.25884829 275.33595298 -171.85799762 272.19239224 -171.42733765 269.05119324 C-170.06418717 259.065415 -169.09580041 249.06230134 -168.1875 239.02734375 C-168.03629579 237.36795781 -167.88506081 235.70857468 -167.73379517 234.04919434 C-167.43067194 230.71621625 -167.12879592 227.38312732 -166.82745361 224.04998779 C-166.16788573 216.76748821 -165.49767733 209.48613362 -164.79864502 202.20730782 C-164.65830557 200.7329369 -164.52061372 199.25831126 -164.38574219 197.7834301 C-164.19911266 195.74434027 -164.00368098 193.70627174 -163.80615234 191.66821289 C-163.69830414 190.52042862 -163.59045593 189.37264435 -163.4793396 188.19007874 C-162.77351998 183.49274066 -161.78478549 179.31997465 -158.42578125 175.8515625 C-157.67723877 175.06241455 -157.67723877 175.06241455 -156.91357422 174.25732422 C-156.12104248 173.44932373 -156.12104248 173.44932373 -155.3125 172.625 C-154.2167084 171.47466233 -153.12165202 170.32362384 -152.02734375 169.171875 C-151.50124512 168.62337891 -150.97514648 168.07488281 -150.43310547 167.50976562 C-148.69293759 165.67651211 -147.02474391 163.78981068 -145.375 161.875 C-142.63218779 158.7040415 -139.82577384 155.59731967 -137 152.5 C-134.15475772 149.38092989 -131.3280042 146.25244609 -128.5625 143.0625 C-125.13299081 139.11410526 -121.59123177 135.27142542 -118.04931641 131.42431641 C-114.91468711 128.01383111 -111.84266155 124.55832184 -108.80859375 121.05859375 C-105.7222052 117.54557698 -102.55371222 114.10700182 -99.40234375 110.65234375 C-97.43058156 108.47539004 -95.48634663 106.28161326 -93.5625 104.0625 C-90.13299081 100.11410526 -86.59123177 96.27142542 -83.04931641 92.42431641 C-79.91468711 89.01383111 -76.84266155 85.55832184 -73.80859375 82.05859375 C-70.7222052 78.54557698 -67.55371222 75.10700182 -64.40234375 71.65234375 C-62.43058156 69.47539004 -60.48634663 67.28161326 -58.5625 65.0625 C-55.13299081 61.11410526 -51.59123177 57.27142542 -48.04931641 53.42431641 C-44.91468711 50.01383111 -41.84266155 46.55832184 -38.80859375 43.05859375 C-35.7222052 39.54557698 -32.55371222 36.10700182 -29.40234375 32.65234375 C-27.43058156 30.47539004 -25.48634663 28.28161326 -23.5625 26.0625 C-20.13878174 22.12077235 -16.60367488 18.28393868 -13.06689453 14.4440918 C-9.76547906 10.85332978 -6.52632399 7.21632657 -3.33984375 3.5234375 C-2.27112096 2.30827165 -1.1442894 1.1442894 0 0 Z M75 75 C75 78 75 78 75 78 Z M73 78 C66.50244162 85.88090952 60.07704495 93.78843893 54 102 C49.96602338 107.44973444 45.80626211 112.76279244 41.5 118 C36.64733613 123.9029803 32.00466274 129.92601876 27.45361328 136.0637207 C23.53849456 141.32712215 19.47893828 146.45861653 15.36132812 151.56445312 C12.16924387 155.52631916 9.02857697 159.52136239 5.9375 163.5625 C2.5722149 167.96212521 -0.82186395 172.33664259 -4.25 176.6875 C-8.45596938 182.02740232 -12.6408937 187.38320684 -16.8125 192.75 C-17.399104 193.50466553 -17.98570801 194.25933105 -18.59008789 195.03686523 C-20.39365681 197.3577045 -22.1968922 199.67880247 -24 202 C-28.11184756 207.29331103 -32.22496674 212.58561811 -36.34375 217.87353516 C-37.44054824 219.28171804 -38.53690852 220.69024215 -39.6328125 222.09912109 C-41.14887764 224.04694739 -42.66772991 225.99256378 -44.1875 227.9375 C-44.63311279 228.51081055 -45.07872559 229.08412109 -45.5378418 229.67480469 C-47.57138288 232.27121855 -49.64179254 234.6975881 -52 237 C-61.9292964 229.74245579 -71.8011046 222.41972308 -81.5625 214.9375 C-90.91216845 207.77412443 -100.41044749 200.83797151 -110 194 C-110 197.61849218 -109.24442241 198.34496406 -107.0625 201.1484375 C-106.42280273 201.97835205 -105.78310547 202.8082666 -105.12402344 203.66333008 C-104.4230957 204.55818115 -103.72216797 205.45303223 -103 206.375 C-101.52586827 208.28241809 -100.05191495 210.18997407 -98.578125 212.09765625 C-97.81822266 213.07621582 -97.05832031 214.05477539 -96.27539062 215.06298828 C-92.74033696 219.62593845 -89.24542776 224.21917143 -85.75 228.8125 C-85.15058594 229.59737793 -84.55117188 230.38225586 -83.93359375 231.19091797 C-82.67720668 232.8377401 -81.43923401 234.4987205 -80.21679688 236.17089844 C-78.534589 238.3177514 -76.88443268 240.1691532 -74.98632812 242.10253906 C-63.82396518 254.12459889 -63.34593077 268.34214635 -62.16930008 283.96687698 C-61.88414917 287.60178813 -61.53923839 291.23098987 -61.19897461 294.86108398 C-60.66693233 300.59818817 -60.16376277 306.33698779 -59.68310547 312.07861328 C-58.88086852 321.61463031 -57.87339948 331.12552501 -56.82739258 340.63739014 C-56.41482757 344.41445134 -56.02161644 348.19348779 -55.62890625 351.97265625 C-55.50588135 353.15093994 -55.38285645 354.32922363 -55.25610352 355.54321289 C-55.17158936 356.35395264 -55.0870752 357.16469238 -55 358 C-54.34 357.67 -53.68 357.34 -53 357 C-52.61887187 354.60342057 -52.37060659 352.29953366 -52.19384766 349.88500977 C-52.13170578 349.14014816 -52.0695639 348.39528656 -52.00553894 347.62785339 C-51.87108065 346.00378243 -51.74090383 344.37935279 -51.61442947 342.75464058 C-51.4128534 340.17593856 -51.19854991 337.59858809 -50.9805603 335.02122498 C-50.36284104 327.69051717 -49.76789242 320.35802235 -49.18261719 313.0246582 C-48.82395401 308.5419478 -48.44989293 304.06072475 -48.06690598 299.58003044 C-47.92461753 297.87785351 -47.78825845 296.17516936 -47.65816116 294.47201729 C-46.96731237 285.43549783 -46.17452275 277.20911124 -42 269 C-41.54947266 267.99783447 -41.09894531 266.99566895 -40.63476562 265.96313477 C-34.27363864 252.90588504 -27.48324617 240.42782435 -19.5 228.29443359 C-16.95032295 224.39439047 -14.47987829 220.44463714 -12 216.5 C-11.00036731 214.91643474 -10.00036753 213.33310115 -9 211.75 C-8.505 210.96625 -8.01 210.1825 -7.5 209.375 C-3 202.25 -3 202.25 -1.50073242 199.8762207 C-0.49821757 198.28886474 0.50422354 196.70146221 1.5065918 195.11401367 C3.96751963 191.21684605 6.42961712 187.32042899 8.89453125 183.42578125 C14.41653677 174.69730026 19.90837626 165.95078461 25.375 157.1875 C30.77839325 148.52679571 36.23359789 139.90112294 41.72558594 131.29638672 C46.69940749 123.49417649 51.61266275 115.65498903 56.5 107.79833984 C59.51596613 102.95386471 62.55208088 98.1256066 65.6484375 93.33203125 C66.49801025 92.01078247 66.49801025 92.01078247 67.36474609 90.6628418 C68.43128326 89.00762325 69.50424057 87.35651872 70.58447266 85.71020508 C71.05159668 84.98341553 71.5187207 84.25662598 72 83.5078125 C72.4125 82.87504395 72.825 82.24227539 73.25 81.59033203 C73.62125 80.80311768 73.62125 80.80311768 74 80 C73.67 79.34 73.34 78.68 73 78 Z " fill="#000000" transform="translate(493,41)"/>
<path d="M0 0 C1.15616821 0.65633423 1.15616821 0.65633423 2.33569336 1.32592773 C3.66370972 2.07688721 3.66370972 2.07688721 5.01855469 2.84301758 C5.97785889 3.39296387 6.93716309 3.94291016 7.92553711 4.50952148 C8.93704834 5.08524902 9.94855957 5.66097656 10.99072266 6.25415039 C18.76553739 10.69876566 26.47548989 15.24949127 34.17553711 19.82202148 C35.3305769 20.50291928 36.48585206 21.18341798 37.64135742 21.86352539 C43.06283334 25.06003445 48.44276608 28.29823243 53.73803711 31.70092773 C69.78417995 41.77554559 86.62983156 48.09914574 104.47558594 54.31396484 C105.46042465 54.66009827 106.44526337 55.00623169 107.45994568 55.362854 C109.32289937 56.01470964 111.18960534 56.65597137 113.06044006 57.28485107 C118.68072755 59.24554454 122.27469731 60.90316153 125.13305664 66.38085938 C125.50027832 67.30116943 125.8675 68.22147949 126.24584961 69.16967773 C126.68123047 70.2427417 127.11661133 71.31580566 127.56518555 72.42138672 C128.26949707 74.19751343 128.26949707 74.19751343 128.98803711 76.00952148 C129.77388624 77.95489942 130.56374374 79.89862273 131.3536377 81.84236145 C131.92647729 83.2526946 132.49813714 84.6635074 133.06872559 86.07475281 C136.46367388 94.4635096 139.96595754 102.80702688 143.46731567 111.15179443 C144.61508136 113.88939734 145.75980999 116.62825262 146.90380859 119.36743164 C150.38117774 127.68722793 153.87471003 135.99900416 157.4367981 144.28294373 C158.95311956 147.8095605 160.46197359 151.33935326 161.9708252 154.86917114 C162.68627397 156.53591605 163.40587238 158.20088629 164.12976074 159.86398315 C165.12775419 162.15701132 166.11196721 164.4555062 167.09350586 166.75561523 C167.39147568 167.42959351 167.6894455 168.10357178 167.9964447 168.79797363 C169.07501725 171.35435142 169.88964652 173.4264923 169.74658203 176.22509766 C168.63637066 178.3887674 167.49455993 179.30595989 165.49584961 180.68920898 C164.78501221 181.19057373 164.0741748 181.69193848 163.34179688 182.20849609 C162.17668579 183.00719116 162.17668579 183.00719116 160.98803711 183.82202148 C159.33235667 184.98634511 157.67743242 186.15174465 156.02319336 187.31811523 C155.16741699 187.91736816 154.31164062 188.51662109 153.42993164 189.1340332 C149.38439097 191.99138388 145.40526039 194.93653223 141.42553711 197.88452148 C139.83446377 199.05909886 138.24331754 200.2335775 136.65209961 201.40795898 C135.05566419 202.58753652 133.45931009 203.76722413 131.86303711 204.94702148 C121.82208825 212.36823644 111.76237307 219.75873954 101.63012695 227.05493164 C92.14162359 233.895673 82.74286737 240.85834239 73.33862305 247.81420898 C72.49847656 248.43553711 71.65833008 249.05686523 70.79272461 249.69702148 C69.96321289 250.31182373 69.13370117 250.92662598 68.27905273 251.56005859 C66.64431415 252.76340783 65.00248229 253.95718791 63.35327148 255.140625 C60.05379121 257.51513629 57.03176594 259.77804953 54.15209961 262.66186523 C51.60310615 265.13483608 50.32214699 266.09957107 46.86303711 266.94702148 C43.73179821 266.24264076 40.88674834 264.95661821 37.95678711 263.66577148 C36.64152794 263.11244644 36.64152794 263.11244644 35.29969788 262.54794312 C33.43048035 261.76042054 31.56437714 260.96547163 29.70120239 260.16375732 C26.04507793 258.59635824 22.36806852 257.08212637 18.69026184 255.56648254 C13.8872448 253.58378377 9.09475326 251.57588345 4.30053711 249.57202148 C2.22489356 248.70563324 0.14920922 247.83934268 -1.92651367 246.97314453 C-7.26213169 244.74602442 -12.59689013 242.5168536 -17.93133545 240.28692627 C-21.12421838 238.9523485 -24.31732722 237.61831262 -27.51049805 236.28442383 C-32.55947378 234.17517527 -37.60804572 232.06496363 -42.65621948 229.95379639 C-44.55420358 229.16005744 -46.45225413 228.36647734 -48.35037231 227.57305908 C-50.97485738 226.47579376 -53.59894473 225.37758333 -56.22290039 224.27905273 C-57.00075394 223.95398239 -57.77860748 223.62891205 -58.58003235 223.29399109 C-63.90737849 221.06181368 -63.90737849 221.06181368 -66.13696289 219.94702148 C-66.10666992 218.94026367 -66.07637695 217.93350586 -66.04516602 216.89624023 C-65.93095509 213.07925132 -65.81991214 209.26217513 -65.7097168 205.44506836 C-65.66204777 203.80832512 -65.61357482 202.17160505 -65.56420898 200.53491211 C-65.23713117 189.66791844 -65.06947978 178.81930056 -65.13696289 167.94702148 C-65.34327835 168.55423538 -65.54959381 169.16144928 -65.76216125 169.7870636 C-67.90932412 176.10078311 -70.0687399 182.41021391 -72.23535156 188.71728516 C-73.04254776 191.0723243 -73.84660304 193.42844244 -74.64746094 195.78564453 C-75.79849305 199.1717458 -76.96072881 202.55381852 -78.12524414 205.93530273 C-78.48161453 206.99163406 -78.83798492 208.04796539 -79.20515442 209.13630676 C-79.54528061 210.11709702 -79.8854068 211.09788727 -80.23583984 212.10839844 C-80.53118118 212.97221634 -80.82652252 213.83603424 -81.1308136 214.72602844 C-82.16895762 217.01764725 -83.24994689 218.31083766 -85.13696289 219.94702148 C-86.05735352 219.14780273 -86.97774414 218.34858398 -87.92602539 217.52514648 C-91.99310248 213.99536337 -96.06415766 210.47019295 -100.13696289 206.94702148 C-100.77166504 206.39771973 -101.40636719 205.84841797 -102.06030273 205.2824707 C-103.27031207 204.23636702 -104.48138524 203.1914924 -105.69360352 202.14794922 C-106.8635512 201.1395363 -108.03023366 200.1273226 -109.19360352 199.11132812 C-111.76072494 196.88788633 -114.27466066 194.85388904 -117.09399414 192.94702148 C-122.44393607 189.3125075 -124.63930553 186.62063886 -126.16503906 180.25952148 C-126.3262408 179.60380661 -126.48744253 178.94809174 -126.65352917 178.27250671 C-127.16531508 176.16771242 -127.65288784 174.05834601 -128.13696289 171.94702148 C-128.45948006 170.57691795 -128.78228358 169.20688178 -129.1053772 167.83691406 C-130.12108594 163.4843719 -131.09518845 159.1229839 -132.06274414 154.75952148 C-132.236845 153.97663757 -132.41094585 153.19375366 -132.59032249 152.387146 C-133.50719283 148.26258824 -134.4200667 144.13717019 -135.32958984 140.01098633 C-136.26504398 135.7711693 -137.21493817 131.53471914 -138.16792011 127.29881287 C-138.90433306 124.01311574 -139.62995445 120.72510255 -140.35268211 117.43637085 C-140.69829075 115.87265303 -141.0479394 114.3098221 -141.40181923 112.74795532 C-141.89443256 110.56926729 -142.37157344 108.38771347 -142.84521484 106.20483398 C-143.11960892 104.96878418 -143.39400299 103.73273438 -143.67671204 102.45922852 C-144.43573993 96.66703261 -143.44506944 91.94969879 -140.87915039 86.75952148 C-140.18692383 85.33833008 -140.18692383 85.33833008 -139.48071289 83.88842773 C-138.99602539 82.91776367 -138.51133789 81.94709961 -138.01196289 80.94702148 C-137.07094049 79.03080548 -136.13085299 77.1141301 -135.19165039 75.19702148 C-134.43259399 73.70924194 -134.43259399 73.70924194 -133.65820312 72.19140625 C-132.04871896 68.91229781 -132.04871896 68.91229781 -130.85205078 65.18505859 C-127.98353042 57.06583426 -124.71405666 52.74511736 -116.89868164 48.88842773 C-113.57456019 47.34274373 -110.20641203 45.92305983 -106.82446289 44.50952148 C-105.01999333 43.71138835 -103.21776886 42.90816175 -101.41772461 42.10009766 C-97.7581974 40.46338138 -94.08949065 38.85093178 -90.41088867 37.25756836 C-83.4749478 34.23982125 -76.65033516 30.99729241 -69.82415771 27.74084473 C-66.3943351 26.10871734 -62.95473782 24.49747732 -59.51586914 22.88452148 C-53.62567319 20.11829616 -47.73812998 17.34647687 -41.85180664 14.57202148 C-39.54451354 13.48485365 -37.23719485 12.39774015 -34.92987061 11.31063843 C-33.46951261 10.6224203 -32.00926264 9.93397289 -30.5491333 9.24526978 C-27.25823173 7.6931547 -23.96588283 6.14444629 -20.66870117 4.60571289 C-18.39313066 3.53698442 -16.12513094 2.45190825 -13.86694336 1.34692383 C-12.40538818 0.6443042 -12.40538818 0.6443042 -10.91430664 -0.07250977 C-10.08020264 -0.48218994 -9.24609863 -0.89187012 -8.38671875 -1.31396484 C-4.96577208 -2.43769849 -3.13957118 -1.54700908 0 0 Z " fill="#000000" transform="translate(315.136962890625,657.052978515625)"/>
<path d="M0 0 C1.9921875 1.56640625 1.9921875 1.56640625 3.875 3.5625 C4.56980469 4.29210937 5.26460937 5.02171875 5.98046875 5.7734375 C7.74708839 7.72116128 9.47599868 9.69145627 11.1875 11.6875 C14.44430063 15.48335728 17.9461273 18.98622176 21.5 22.5 C25.53299929 26.48775459 29.39402474 30.5149492 33.0625 34.84375 C36.30297491 38.45008499 39.79113639 41.8103425 43.23779297 45.21826172 C46.68870285 48.64526919 49.97889092 52.12882886 53.07539368 55.88383484 C55.02148424 58.10661665 55.02148424 58.10661665 57.56706238 60.23054504 C65.69427506 67.45098872 68.46927053 74.32216385 70.80078125 84.76171875 C71.17081807 86.28117952 71.54436892 87.79978824 71.92118835 89.31758118 C72.89864725 93.29381008 73.82932579 97.27951397 74.74969482 101.26928711 C75.67600016 105.24935624 76.64506748 109.21893161 77.61132812 113.18945312 C79.09694134 119.31128918 80.55508895 125.43895775 81.99462891 131.57177734 C83.23343173 136.84250229 84.52015279 142.09628924 85.87646484 147.33837891 C86.16023483 148.43793411 86.44400482 149.53748932 86.7363739 150.67036438 C87.25241556 152.65314323 87.77596621 154.63399253 88.30915833 156.61222839 C91.0179625 167.04370265 89.6406357 174.42278847 86.60546875 184.63671875 C86.25744705 185.83432327 85.90942535 187.0319278 85.55085754 188.26582336 C84.6278063 191.43088927 83.69479069 194.59280298 82.75787354 197.75378418 C82.1871005 199.6888544 81.62334843 201.62582289 81.06225586 203.5637207 C79.9805899 207.29880761 78.88874902 211.03075085 77.79296875 214.76171875 C77.29122383 216.48995125 77.29122383 216.48995125 76.77934265 218.25309753 C76.45923721 219.3280397 76.13913177 220.40298187 75.80932617 221.51049805 C75.53174973 222.45233444 75.25417328 223.39417084 74.96818542 224.36454773 C73.42911642 228.55397551 71.4440784 231.94646799 67.99609375 234.796875 C67.14011597 235.51556763 67.14011597 235.51556763 66.2668457 236.2487793 C65.66316162 236.74418213 65.05947754 237.23958496 64.4375 237.75 C63.16838194 238.81274147 61.90015745 239.87655093 60.6328125 240.94140625 C59.70130371 241.72088623 59.70130371 241.72088623 58.75097656 242.51611328 C56.38769488 244.51890554 54.09802249 246.59672461 51.8125 248.6875 C48.47772886 251.71712868 45.06712361 254.60608092 41.5625 257.4375 C36.78715598 261.29941675 32.26332315 265.37674224 27.74609375 269.53515625 C25.08124834 271.92707297 22.35168175 274.19254884 19.5625 276.4375 C13.45849507 281.35951554 7.72834843 286.65154204 2 292 C0.65604878 291.5605107 -0.68764301 291.12022807 -2.03125 290.6796875 C-2.89693604 290.39601318 -3.76262207 290.11233887 -4.65454102 289.82006836 C-6.57029179 289.18378597 -8.48222962 288.53591963 -10.39038086 287.87719727 C-14.74800275 286.37483302 -19.02387842 284.93477711 -23.53515625 283.97265625 C-30.17171087 282.39214882 -34.40474984 280.41099727 -38.1953125 274.5390625 C-40.8927571 269.82842436 -43.21989802 264.95341173 -45.52587891 260.04199219 C-47.90913949 255.12390227 -50.64586315 250.41961664 -53.375 245.6875 C-54.45325981 243.7885756 -55.5300623 241.88882303 -56.60546875 239.98828125 C-57.15251465 239.0235791 -57.69956055 238.05887695 -58.26318359 237.06494141 C-61.41307266 231.50636574 -64.55407838 225.94287409 -67.6875 220.375 C-68.28804199 219.31369873 -68.88858398 218.25239746 -69.50732422 217.15893555 C-70.06564941 216.16547119 -70.62397461 215.17200684 -71.19921875 214.1484375 C-71.69252686 213.27364746 -72.18583496 212.39885742 -72.6940918 211.49755859 C-73.97569536 209.0464828 -75.02098865 206.58500717 -76 204 C-76.71470459 204.1853833 -77.42940918 204.3707666 -78.16577148 204.56176758 C-85.75829573 206.49967017 -93.37640823 208.16682076 -101.0625 209.6875 C-102.7321582 210.02491211 -102.7321582 210.02491211 -104.43554688 210.36914062 C-105.49966797 210.58119141 -106.56378906 210.79324219 -107.66015625 211.01171875 C-108.61543213 211.20209717 -109.57070801 211.39247559 -110.55493164 211.58862305 C-113 212 -113 212 -116 212 C-115.39138145 206.81103603 -112.96967012 202.56081155 -110.6328125 197.97265625 C-110.19742157 197.10611923 -109.76203064 196.23958221 -109.31344604 195.3467865 C-107.92291903 192.58248299 -106.52411411 189.82246556 -105.125 187.0625 C-104.19085328 185.209263 -103.25725352 183.3557502 -102.32421875 181.50195312 C-100.23217253 177.34765092 -98.13540424 173.1957859 -96.03163147 169.04740906 C-95.1105873 167.21947512 -94.20748932 165.38252398 -93.30688477 163.54443359 C-92.030911 161.06018203 -90.82166574 159.47621843 -88.8125 157.5625 C-88.19632813 156.97339844 -87.58015625 156.38429688 -86.9453125 155.77734375 C-84.38761376 153.44049048 -81.79545912 151.14930583 -79.171875 148.88671875 C-76.73213712 146.76730616 -74.33420476 144.60542839 -71.9375 142.4375 C-71.08671875 141.68210937 -70.2359375 140.92671875 -69.359375 140.1484375 C-67.05398292 138.10319502 -67.05398292 138.10319502 -65.265625 136.1640625 C-56.88811439 127.66213341 -38.55289921 129.03558519 -27.1875 127.875 C-25.41598513 127.69170069 -23.6445005 127.50810893 -21.87304688 127.32421875 C-17.58237169 126.87944661 -13.29130911 126.43861182 -9 126 C-9.70886353 125.8556955 -10.41772705 125.71139099 -11.14807129 125.56271362 C-17.8694509 124.1834706 -24.57652412 122.74759173 -31.27228546 121.24925041 C-34.7146065 120.48099795 -38.15866039 119.7344141 -41.61621094 119.03759766 C-65.79987531 114.13863339 -65.79987531 114.13863339 -70.453125 108.69580078 C-72.62227172 105.36016188 -73.81805503 101.79125718 -75 98 C-75.87150522 96.35290417 -76.78306404 94.72575973 -77.75 93.1328125 C-78.500509 91.79716088 -79.25053374 90.461237 -80 89.125 C-80.39316406 88.42503906 -80.78632812 87.72507812 -81.19140625 87.00390625 C-82.12806523 85.33619637 -83.06410818 83.66814052 -84 82 C-83.60963412 88.56835945 -83.07026996 95.02107649 -81.89453125 101.5 C-78.56480343 120.68875406 -78.56480343 120.68875406 -82.80883789 126.73754883 C-84.60236975 128.79856346 -86.49285719 130.69957171 -88.50195312 132.55029297 C-90.54379363 134.52624618 -92.23503019 136.70355323 -93.95718384 138.95828247 C-97.11831176 143.09240011 -100.31464138 147.19191357 -103.65576172 151.18237305 C-113.51675716 163.27463026 -120.02817502 177.1145052 -126.80371094 191.05810547 C-128.40123341 194.33640623 -130.01793418 197.60522392 -131.6328125 200.875 C-134.77352762 207.2410907 -137.89365323 213.61705867 -141 220 C-141.99 220 -142.98 220 -144 220 C-145.59995565 215.1117756 -147.18434455 210.21887855 -148.75463867 205.32104492 C-149.29077087 203.65626451 -149.8311003 201.99282962 -150.37573242 200.33081055 C-151.15876132 197.93881815 -151.92646905 195.54236131 -152.69140625 193.14453125 C-152.93717911 192.4047554 -153.18295197 191.66497955 -153.43617249 190.90278625 C-155.92881496 182.97864331 -153.37270416 178.15052437 -150.23046875 170.8828125 C-149.84251129 169.97486435 -149.45455383 169.0669162 -149.05484009 168.13145447 C-147.77010526 165.1274072 -146.47874798 162.12625274 -145.1875 159.125 C-144.28229021 157.01120295 -143.3775945 154.89718568 -142.47338867 152.78295898 C-140.59070335 148.38195303 -138.70579403 143.98190956 -136.81933594 139.58251953 C-132.8797258 130.39037731 -128.96693773 121.18684545 -125.05426025 111.98321533 C-122.9954561 107.1407501 -120.93516104 102.29891932 -118.875 97.45703125 C-118.47306427 96.51224915 -118.07112854 95.56746704 -117.65701294 94.59405518 C-115.18506563 88.78383402 -112.71147455 82.9743155 -110.23677063 77.16526794 C-108.63953935 73.41547029 -107.0432301 69.66528059 -105.44711304 65.91500854 C-104.69689979 64.15288821 -103.94627601 62.3909426 -103.19522095 60.62918091 C-102.16684412 58.21678014 -101.1398929 55.80377737 -100.11328125 53.390625 C-99.81015015 52.6805278 -99.50701904 51.9704306 -99.19470215 51.23881531 C-98.03596896 48.51180468 -96.93748593 45.81245778 -96 43 C-94.04833984 41.73242188 -94.04833984 41.73242188 -91.4609375 40.46875 C-90.50002197 39.99373047 -89.53910645 39.51871094 -88.54907227 39.02929688 C-87.50162842 38.52462891 -86.45418457 38.01996094 -85.375 37.5 C-84.293396 36.96955078 -83.21179199 36.43910156 -82.09741211 35.89257812 C-78.73736009 34.24954956 -75.37009147 32.62232445 -72 31 C-71.01435059 30.52433594 -70.02870117 30.04867187 -69.01318359 29.55859375 C-63.34135892 26.82537191 -57.65803507 24.11684188 -51.97119141 21.41503906 C-47.79367516 19.42548408 -43.62357607 17.42063071 -39.45385742 15.41479492 C-37.33655227 14.39720416 -35.21824135 13.38170314 -33.09887695 12.3684082 C-28.1740968 10.01368585 -23.26132062 7.640675 -18.375 5.20703125 C-17.50584961 4.77986816 -16.63669922 4.35270508 -15.74121094 3.91259766 C-14.12955882 3.12003882 -12.52300665 2.31698661 -10.92285156 1.50146484 C-4.17804725 -1.78849742 -4.17804725 -1.78849742 0 0 Z " fill="#000000" transform="translate(784,625)"/>
<path d="M0 0 C30.2563293 -1.8964418 30.2563293 -1.8964418 41.51367188 7.78125 C42.86170038 9.00202617 44.19713462 10.23685548 45.51953125 11.48535156 C49.08715281 14.66909365 53.088717 17.19575728 57.07519531 19.81982422 C64.1546542 24.60812592 71.10402342 29.55500018 78.0144043 34.58325195 C83.48005963 38.5518947 89.01246448 42.40888774 94.59179688 46.21557617 C100.29150454 50.10838847 105.93135361 54.08242263 111.55395508 58.08569336 C116.49742189 61.59503827 121.51584618 64.97990621 126.57519531 68.31982422 C125.93585783 71.6127825 125.28806957 74.90402842 124.63769531 78.19482422 C124.42604736 79.26587402 124.21439941 80.33692383 123.99633789 81.44042969 C122.48340593 89.00560959 120.88546647 96.54831379 119.23925781 104.08544922 C119.03608444 105.01902252 118.83291107 105.95259583 118.62358093 106.91445923 C116.97508835 114.48745442 116.97508835 114.48745442 116.13723755 118.26409912 C115.54124587 120.95060477 114.95405441 123.63891286 114.36816406 126.32763672 C114.18714142 127.1309845 114.00611877 127.93433228 113.8196106 128.76202393 C112.03026673 137.04864493 112.22243992 142.69163452 116.16113281 150.21044922 C116.5333194 150.94765198 116.90550598 151.68485474 117.28897095 152.44439697 C118.49598934 154.82663306 119.72268777 157.19809066 120.95019531 159.56982422 C121.79247089 161.22224364 122.63361235 162.87524163 123.47363281 164.52880859 C127.78806544 173.00032765 132.17046524 181.436344 136.64453125 189.82470703 C140.85702901 197.76322933 144.90086327 205.78817636 148.93945312 213.81616211 C149.77621955 215.47786616 150.6150693 217.13852287 151.45605469 218.7980957 C152.63979711 221.1357047 153.81554669 223.4771658 154.98925781 225.81982422 C155.35121246 226.531427 155.71316711 227.24302979 156.08609009 227.97619629 C158.57519531 232.97684142 158.57519531 232.97684142 158.57519531 236.31982422 C157.65407959 236.79291016 156.73296387 237.26599609 155.78393555 237.75341797 C152.28870701 239.54896504 148.79427307 241.34605411 145.30004883 243.14355469 C143.80221034 243.91381681 142.30417102 244.68368856 140.8059082 245.453125 C139.35031591 246.20071017 137.89504468 246.9489208 136.44009399 247.69775391 C134.98493915 248.44629026 133.52886072 249.19303384 132.0718689 249.93798828 C128.43429722 251.80638038 124.83555279 253.71927927 121.27880859 255.73779297 C120.5973024 256.11935547 119.9157962 256.50091797 119.21363831 256.89404297 C117.9257676 257.61879246 116.64507407 258.35649632 115.37315369 259.10888672 C111.137437 261.47784065 111.137437 261.47784065 108.31835938 260.68554688 C105.67767937 258.61664436 103.47700796 256.1983281 101.26269531 253.69482422 C100.77559082 253.1535791 100.28848633 252.61233398 99.78662109 252.0546875 C96.59790826 248.50239587 93.44484423 244.91831891 90.31738281 241.31201172 C88.26019133 238.95961787 86.16922617 236.63947456 84.07519531 234.31982422 C79.27611739 228.99647728 74.53441581 223.63119083 69.89550781 218.16748047 C63.82721424 211.02961002 57.62417348 204.0581316 51.24316406 197.19873047 C47.00773181 192.62843242 42.9399334 187.92817759 38.90722656 183.17919922 C36.32985018 180.14473858 33.72840536 177.13186126 31.12060547 174.12353516 C29.66855135 172.42878385 28.25138361 170.71000164 26.83691406 168.98388672 C19.22950707 159.95849492 10.17970721 153.95990486 0.12890625 147.87451172 C-3.40859301 145.7208984 -6.91581057 143.51948814 -10.42480469 141.31982422 C-10.39974854 141.98729172 -10.37469238 142.65475922 -10.34887695 143.342453 C-10.08467408 150.40123044 -9.82601047 157.4601966 -9.5703125 164.51928711 C-9.47467725 167.1404312 -9.37771183 169.76152716 -9.27929688 172.38256836 C-8.69255464 188.03601287 -8.26948134 203.65481791 -8.42480469 219.31982422 C-11.48334544 215.78224181 -12.95238726 211.79025797 -14.54980469 207.46435547 C-14.84933548 206.67026276 -15.14886627 205.87617004 -15.45747375 205.05801392 C-16.10948897 203.32771504 -16.7586087 201.59632295 -17.40518188 199.86398315 C-19.16312738 195.15429295 -20.9416902 190.45238516 -22.71777344 185.74951172 C-23.09266403 184.75517624 -23.46755463 183.76084076 -23.85380554 182.7363739 C-28.80144731 169.63547994 -33.89848476 156.59210341 -38.99047852 143.54678345 C-40.17476777 140.51217496 -41.35654172 137.47659607 -42.53808594 134.44091797 C-43.06212761 133.10270493 -43.06212761 133.10270493 -43.59675598 131.73745728 C-44.24926465 130.05955502 -44.88897533 128.3766054 -45.51422119 126.68835449 C-46.38728956 124.32567735 -46.38728956 124.32567735 -47.46478271 122.13879395 C-50.57499561 114.99224013 -48.259144 109.63695449 -45.65136719 102.60888672 C-45.22124832 101.38292282 -44.79112946 100.15695892 -44.34797668 98.8938446 C-43.1863466 95.58370731 -41.9920771 92.28625523 -40.79114914 88.99020767 C-39.55040053 85.56695865 -38.34051496 82.13285228 -37.12817383 78.69946289 C-35.17546367 73.17920465 -33.20687254 67.66488521 -31.22705078 62.15429688 C-28.71102065 55.14611446 -26.25059041 48.1196253 -23.81933594 41.08154297 C-23.47574036 40.08779663 -23.13214478 39.09405029 -22.77813721 38.07019043 C-22.1194578 36.16451522 -21.46096267 34.2587763 -20.80267334 32.35296631 C-18.59104358 25.9543555 -16.3671584 19.56119456 -14.08172607 13.1885376 C-13.47800312 11.47115529 -12.91262228 9.74042043 -12.35107422 8.00878906 C-12.03638184 7.09436035 -11.72168945 6.17993164 -11.39746094 5.23779297 C-11.15390869 4.48651123 -10.91035645 3.73522949 -10.65942383 2.96118164 C-9.42480469 1.31982422 -9.42480469 1.31982422 -6.74975586 0.60961914 C-4.49921127 0.41346697 -2.2492901 0.21004919 0 0 Z " fill="#000000" transform="translate(120.4248046875,394.68017578125)"/>
<path d="M0 0 C6.88170505 -0.48231002 11.89922967 -0.1468479 17.69726562 3.8984375 C19.62022049 5.60272636 21.47835229 7.38217461 23.27539062 9.21875 C24.00826797 9.95202011 24.00826797 9.95202011 24.75595093 10.70010376 C37.30587719 23.59005077 40.74098123 40.13183388 44.61793518 57.18527222 C46.04219461 63.4496669 47.67888205 69.61526027 49.49414062 75.77734375 C49.73565353 76.60314438 49.97716644 77.42894501 50.22599792 78.2797699 C51.15146303 81.43975508 52.07936849 84.59896448 53.01748657 87.75521851 C53.64583541 89.88750923 54.25393649 92.02462299 54.85742188 94.1640625 C55.37912964 95.96254639 55.37912964 95.96254639 55.91137695 97.79736328 C57.08450516 104.57305326 55.24305822 111.00327196 53.39233398 117.50390625 C53.17760941 118.27560654 52.96288483 119.04730682 52.74165344 119.84239197 C52.03824499 122.36522273 51.32681756 124.88571403 50.61523438 127.40625 C50.12291927 129.16587612 49.63111073 130.92564403 49.13978577 132.68554688 C47.85102407 137.2966124 46.55542749 141.90572985 45.25836182 146.51446533 C43.93370487 151.22592647 42.61557115 155.93921148 41.296875 160.65234375 C38.7127343 169.88460153 36.12136386 179.11481293 33.52539062 188.34375 C33.19539062 188.34375 32.86539063 188.34375 32.52539062 188.34375 C31.33631409 182.53339065 31.20473531 176.72797557 30.99023438 170.8203125 C30.94725723 169.71899994 30.90428009 168.61768738 30.86000061 167.48300171 C30.72405704 163.9783779 30.59340239 160.47357988 30.46289062 156.96875 C30.37144296 154.58722615 30.27965001 152.20571553 30.1875 149.82421875 C29.96279564 143.99754322 29.742429 138.17071584 29.52539062 132.34375 C28.77443115 132.46492187 28.02347168 132.58609375 27.24975586 132.7109375 C23.82167486 133.26082633 20.39232318 133.80235691 16.96289062 134.34375 C15.78146484 134.53453125 14.60003906 134.7253125 13.3828125 134.921875 C7.70695237 135.812206 2.27356093 136.61385492 -3.47460938 136.34375 C-3.64485626 136.89568527 -3.81510315 137.44762054 -3.99050903 138.01628113 C-5.74554221 143.51334602 -7.88883476 148.6133538 -10.46679688 153.76953125 C-10.84913986 154.54669998 -11.23148285 155.32386871 -11.62541199 156.12458801 C-12.44073266 157.78109246 -13.25845043 159.43641895 -14.07839966 161.09063721 C-16.24027898 165.45383957 -18.38280453 169.8265178 -20.52539062 174.19921875 C-21.16555367 175.50463623 -21.16555367 175.50463623 -21.81864929 176.83642578 C-25.48884862 184.33682279 -29.04225173 191.88510223 -32.53710938 199.46875 C-33.30619629 201.13284912 -33.30619629 201.13284912 -34.09082031 202.83056641 C-36.04622974 207.06559493 -37.99770146 211.30237127 -39.93994141 215.54345703 C-41.31704947 218.54386787 -42.70688541 221.5380633 -44.09960938 224.53125 C-44.50187744 225.4176416 -44.90414551 226.3040332 -45.31860352 227.21728516 C-45.69235107 228.01569824 -46.06609863 228.81411133 -46.45117188 229.63671875 C-46.77166504 230.3330542 -47.0921582 231.02938965 -47.42236328 231.74682617 C-48.47460938 233.34375 -48.47460938 233.34375 -51.47460938 234.34375 C-53.99667293 230.19866382 -56.51730488 226.05270968 -59.03710938 221.90625 C-59.60659805 220.96927277 -59.60659805 220.96927277 -60.18759155 220.0133667 C-66.38457369 209.81491025 -72.54097776 199.59310576 -78.65063477 189.34204102 C-82.14773252 183.47886999 -82.14773252 183.47886999 -85.89257812 177.7734375 C-87.47460938 175.34375 -87.47460938 175.34375 -87.47460938 173.34375 C-97.37460937 175.65375 -107.27460937 177.96375 -117.47460938 180.34375 C-120.06590972 162.5007962 -122.62244915 144.65683765 -124.95278931 126.77786255 C-125.17409792 125.08381631 -125.39735689 123.39002361 -125.62265015 121.69650269 C-125.9398677 119.30620556 -126.24930097 116.91502234 -126.55664062 114.5234375 C-126.65014801 113.82782211 -126.7436554 113.13220673 -126.83999634 112.41551208 C-128.52328068 99.04443207 -128.52328068 99.04443207 -125.82226562 94.6640625 C-124.69111328 93.57738281 -124.69111328 93.57738281 -123.53710938 92.46875 C-120.167552 89.06233809 -117.02390256 85.65574216 -114.03710938 81.90625 C-110.17519262 77.13090598 -106.09786714 72.60707315 -101.93945312 68.08984375 C-99.5475364 65.42499834 -97.28206054 62.69543175 -95.03710938 59.90625 C-91.37954674 55.37138839 -87.5284391 51.08838817 -83.56298828 46.82666016 C-79.76062131 42.71595724 -76.23190346 38.42099416 -72.72070312 34.05859375 C-70.38630348 31.23701505 -67.95470339 28.53784288 -65.47460938 25.84375 C-61.36507731 21.37686732 -57.47959294 16.77743185 -53.67773438 12.046875 C-52.95070313 11.15484375 -52.22367188 10.2628125 -51.47460938 9.34375 C-51.07480865 8.76433151 -50.67500793 8.18491302 -50.26309204 7.5879364 C-48.28591047 4.91665577 -46.67447303 2.75742634 -43.46520996 1.65097046 C-41.11869331 1.34388547 -38.84884966 1.24475943 -36.48242188 1.22265625 C-35.6188205 1.18816879 -34.75521912 1.15368134 -33.865448 1.1181488 C-31.11016585 1.01594108 -28.35620615 0.96063743 -25.59960938 0.90625 C-23.78700423 0.84482499 -21.97449821 0.78039753 -20.16210938 0.71289062 C-16.60642816 0.58633385 -13.05364589 0.50286826 -9.49609375 0.453125 C-6.3143056 0.40552703 -3.1710071 0.26238655 0 0 Z " fill="#000000" transform="translate(884.474609375,410.65625)"/>
<path d="M0 0 C1.11119202 0.30458633 2.22238403 0.60917267 3.36724854 0.92298889 C5.70439387 1.5650312 8.04078846 2.20981195 10.37646484 2.85717773 C13.95341058 3.84773533 17.53311364 4.82779973 21.11328125 5.80664062 C23.38819193 6.43297263 25.66293743 7.059905 27.9375 7.6875 C29.00732117 7.98027328 30.07714233 8.27304657 31.17938232 8.57469177 C32.17431702 8.85160355 33.16925171 9.12851532 34.19433594 9.41381836 C35.50383209 9.77569496 35.50383209 9.77569496 36.83978271 10.1448822 C41.03410687 11.50304663 43.41335907 12.6652597 45.6484375 16.515625 C46.08027344 17.24402588 46.51210938 17.97242676 46.95703125 18.72290039 C47.40949219 19.50656982 47.86195313 20.29023926 48.328125 21.09765625 C49.30740888 22.74757238 50.28922185 24.39598978 51.2734375 26.04296875 C51.76489258 26.86700195 52.25634766 27.69103516 52.76269531 28.54003906 C54.81472414 31.91649599 56.99008609 35.2002406 59.203125 38.47265625 C60.01320778 39.67565539 60.82310115 40.87878208 61.6328125 42.08203125 C62.04370117 42.69240234 62.45458984 43.30277344 62.87792969 43.93164062 C65.3874148 47.67830004 67.8623467 51.44713234 70.328125 55.22265625 C70.81410156 55.9587915 71.30007813 56.69492676 71.80078125 57.45336914 C75.203125 62.67954172 75.203125 62.67954172 75.203125 64.91015625 C76.39035156 65.01328125 77.57757812 65.11640625 78.80078125 65.22265625 C85.50779738 65.96890212 92.05438652 67.47143131 98.640625 68.91015625 C99.91873047 69.1834375 101.19683594 69.45671875 102.51367188 69.73828125 C111.93229167 71.77473958 111.93229167 71.77473958 114.203125 72.91015625 C114.203125 81.82015625 114.203125 90.73015625 114.203125 99.91015625 C84.41393486 109.8398863 59.79148522 117.21199671 28.91674805 108.83959961 C25.41103962 107.962193 22.02920081 107.46246745 18.4453125 107.0390625 C14.38166152 106.40410624 13.49176069 106.19632848 10.45703125 103.1875 C9.89886719 102.08535156 9.34070313 100.98320313 8.765625 99.84765625 C8.18941406 98.76355469 7.61320313 97.67945313 7.01953125 96.5625 C6.60018311 95.70954346 6.60018311 95.70954346 6.17236328 94.83935547 C4.30846013 91.12939005 2.23553106 87.52975515 0.203125 83.91015625 C0.14777588 84.9995752 0.09242676 86.08899414 0.03540039 87.21142578 C-0.17174778 91.27069121 -0.3834233 95.32971029 -0.59643555 99.38867188 C-0.68783197 101.14218907 -0.7780165 102.89576989 -0.86694336 104.64941406 C-0.99531121 107.17661132 -1.12810063 109.7035443 -1.26171875 112.23046875 C-1.30030502 113.00883087 -1.3388913 113.78719299 -1.37864685 114.58914185 C-1.41861282 115.32945648 -1.4585788 116.06977112 -1.49975586 116.83251953 C-1.53306503 117.47649689 -1.56637421 118.12047424 -1.60069275 118.78396606 C-1.85319507 121.52054369 -2.32233155 124.20427642 -2.796875 126.91015625 C-12.67757996 129.53086805 -22.56137348 132.13955988 -32.44922543 134.73318481 C-37.04103936 135.93803465 -41.63171104 137.14691302 -46.2199707 138.36523438 C-50.6524582 139.5420311 -55.0876829 140.70793576 -59.52496529 141.86651611 C-61.21274129 142.30920053 -62.89951583 142.75572244 -64.58521843 143.20623779 C-66.95649227 143.83925772 -69.33104319 144.45822036 -71.70678711 145.07421875 C-72.39443649 145.26123352 -73.08208588 145.44824829 -73.79057312 145.64093018 C-81.26376606 147.54564715 -88.22521952 147.25208862 -95.76953125 145.73266602 C-96.40322128 145.60747589 -97.03691132 145.48228577 -97.68980408 145.353302 C-99.74810689 144.94442713 -101.80367568 144.52331433 -103.859375 144.1015625 C-105.30130246 143.81184798 -106.74336225 143.52279137 -108.18554688 143.23435974 C-111.1887687 142.63186714 -114.19075574 142.02367141 -117.19189453 141.41088867 C-121.04494952 140.624321 -124.90014312 139.8489059 -128.75621033 139.0772562 C-131.72499475 138.48250759 -134.69294248 137.88367446 -137.66061401 137.28339958 C-139.08306272 136.99585695 -140.50569061 136.70919926 -141.92849731 136.4234333 C-143.90624943 136.02522041 -145.88284561 135.6212792 -147.859375 135.21704102 C-148.98472656 134.98831802 -150.11007812 134.75959503 -151.26953125 134.52394104 C-153.796875 133.91015625 -153.796875 133.91015625 -154.796875 132.91015625 C-158.05178029 106.47513472 -158.05178029 106.47513472 -153.67333984 97.64404297 C-150.40403964 94.16897495 -146.02735048 92.76999115 -141.640625 91.13427734 C-136.24146236 88.8101529 -131.35297381 85.49643095 -126.38684082 82.3737793 C-124.02285724 80.89481923 -121.64224091 79.44486594 -119.25491333 78.00395203 C-117.54622163 76.96999706 -115.84653529 75.92120771 -114.14697266 74.87231445 C-110.796875 72.91015625 -110.796875 72.91015625 -107.33349609 71.26635742 C-101.29767914 68.50195916 -101.29767914 68.50195916 -97.78125 63.2175293 C-97.34514579 60.00974626 -97.12939693 56.82783112 -96.921875 53.59765625 C-95.85832586 46.39534967 -94.4559786 40.59167697 -88.46961975 35.98297119 C-81.68642252 31.31971495 -74.25815457 27.68823646 -66.90478516 24.0234375 C-60.94256575 21.0141154 -55.3067324 17.48016415 -49.64178467 13.95236206 C-46.75685913 12.16433652 -43.84738217 10.41765422 -40.94140625 8.6640625 C-37.25874255 6.42910143 -33.60707797 4.16139265 -29.99609375 1.8125 C-29.31087646 1.37494385 -28.62565918 0.9373877 -27.91967773 0.48657227 C-26.22792796 -0.59869702 -24.55053231 -1.70626292 -22.875 -2.81640625 C-15.83024258 -5.73086173 -7.02686894 -1.95107489 0 0 Z " fill="#000000" transform="translate(564.796875,845.08984375)"/>
<path d="M0 0 C2.00547061 0.6684902 4.01040484 1.33860691 6.01367188 2.01367188 C8.17988239 2.72913055 10.3542702 3.41998098 12.53320312 4.09570312 C40.51817346 12.85667451 40.51817346 12.85667451 47.73339844 24.88964844 C49.67000256 28.70417172 51.45195463 32.52819786 52.97387695 36.52734375 C53.92566733 39.05801805 53.92566733 39.05801805 55.56152344 41.28979492 C57.48359677 44.91113506 57.72359962 48.40994408 58.02734375 52.42578125 C58.10112747 53.26567596 58.17491119 54.10557068 58.25093079 54.97091675 C58.49202244 57.75055239 58.7149185 60.53132585 58.9375 63.3125 C59.10213242 65.25896019 59.26784123 67.20532961 59.43457031 69.15161133 C59.78566925 73.27661589 60.1288358 77.40217913 60.46630859 81.52832031 C60.91535101 87.00561894 61.38286755 92.48115215 61.85719299 97.95631409 C62.23441953 102.31113618 62.60752673 106.66630421 62.97952271 111.02157593 C63.15875431 113.11947346 63.33865733 115.21731375 63.51925659 117.31509399 C63.77204204 120.26573117 64.01958773 123.21676214 64.265625 126.16796875 C64.3778112 127.46382401 64.3778112 127.46382401 64.49226379 128.78585815 C64.68966163 131.18956179 64.85058571 133.5928895 65 136 C65.06245911 136.71873291 65.12491821 137.43746582 65.18927002 138.17797852 C65.55154878 145.10161471 63.29717158 150.8756369 60.890625 157.2890625 C60.45622604 158.48203445 60.02182709 159.67500641 59.57426453 160.90412903 C58.39429894 164.14416228 57.19694349 167.3775113 55.99631882 170.60993576 C54.74153416 173.9978601 53.50342253 177.39186337 52.26391602 180.78540039 C50.21188019 186.39806386 48.1511024 192.00744105 46.08447266 197.61474609 C43.12097169 205.65816662 40.18624136 213.71186762 37.26171875 221.76953125 C37.03436916 222.39584694 36.80701958 223.02216263 36.57278061 223.66745758 C35.45740625 226.74029921 34.34223366 229.81321401 33.22717285 232.88616943 C31.96567279 236.35992148 30.70166934 239.83275005 29.43652344 243.30517578 C29.04238251 244.38728333 28.64824158 245.46939087 28.24215698 246.58428955 C27.48932276 248.64997303 26.73571454 250.71537465 25.98123169 252.78045654 C24.42677616 257.04196755 22.88399875 261.30528364 21.40673828 265.59423828 C21.05948448 266.5963308 21.05948448 266.5963308 20.70521545 267.6186676 C20.12198212 269.31136079 19.54793033 271.00721045 18.97485352 272.70336914 C18 275 18 275 16 276 C13.82430263 275.26778876 11.68457566 274.42792677 9.56640625 273.54296875 C8.93266586 273.27994461 8.29892548 273.01692047 7.64598083 272.7459259 C6.30371688 272.18706135 4.96301772 271.62442607 3.6237793 271.05834961 C1.57749029 270.1938331 -0.47338009 269.34106801 -2.52539062 268.49023438 C-12.53694566 264.30870289 -12.53694566 264.30870289 -16 262 C-16.86940178 259.55850603 -17.55867357 257.23158359 -18.18212891 254.72631836 C-18.37990936 253.9708777 -18.57768982 253.21543703 -18.78146362 252.43710423 C-19.44082154 249.90739539 -20.08356063 247.37375505 -20.7265625 244.83984375 C-21.19104851 243.04526291 -21.65659604 241.25095652 -22.12313843 239.45690918 C-23.37723469 234.6228076 -24.61725752 229.78519957 -25.85437012 224.94672775 C-27.13656015 219.93991202 -28.42985858 214.93597007 -29.72265625 209.93188477 C-31.29185182 203.85625176 -32.8602709 197.78042861 -34.42340088 191.70323181 C-37.46588003 179.88213853 -40.55424466 168.0746791 -43.70881271 156.28300285 C-44.3265019 153.97278999 -44.94237265 151.66210092 -45.55752563 149.35121155 C-45.75422789 148.61236693 -45.95093014 147.87352232 -46.15359306 147.11228848 C-46.54074126 145.65796347 -46.92784364 144.20362627 -47.31489754 142.74927616 C-48.24422159 139.26074085 -49.17827649 135.77359999 -50.12237549 132.28903198 C-51.1580715 128.46589806 -52.17347629 124.63753592 -53.1875 120.80859375 C-53.49150726 119.70221558 -53.79551453 118.5958374 -54.10873413 117.45593262 C-56.10063209 109.8477042 -56.5189831 104.19607957 -52.69921875 97.05859375 C-51.98475586 95.70604492 -51.98475586 95.70604492 -51.25585938 94.32617188 C-50.73830078 93.37291016 -50.22074219 92.41964844 -49.6875 91.4375 C-49.15060547 90.42880859 -48.61371094 89.42011719 -48.06054688 88.38085938 C-43.93144751 80.64783198 -39.72208276 72.95727089 -35.50268555 65.27319336 C-31.91464619 58.72611456 -28.43510587 52.12844477 -25 45.5 C-19.61833201 35.1184178 -14.06086043 24.84003375 -8.42285156 14.59570312 C-7.3931654 12.71725025 -6.36988725 10.83528005 -5.35058594 8.95117188 C-4.80950195 7.95150391 -4.26841797 6.95183594 -3.7109375 5.921875 C-3.2164209 5.0050293 -2.7219043 4.08818359 -2.21240234 3.14355469 C-1 1 -1 1 0 0 Z " fill="#000000" transform="translate(579,551)"/>
<path d="M0 0 C5.60573154 1.43924133 10.97032845 3.46633328 16.36303711 5.54443359 C17.7512274 6.07243093 19.14493051 6.58615563 20.54370117 7.08544922 C22.58086247 7.81353645 24.59655189 8.58502084 26.61328125 9.36767578 C27.81621826 9.81691406 29.01915527 10.26615234 30.25854492 10.72900391 C34.583543 13.76794436 35.05442177 16.84184451 36.2578125 21.83642578 C36.53816849 22.87579285 36.81852448 23.91515991 37.1073761 24.98602295 C38.0950799 28.6604974 39.04086089 32.34477797 39.98046875 36.03173828 C40.32980614 37.39224007 40.67945694 38.75266141 41.02940369 40.11300659 C41.94377851 43.67037597 42.85448663 47.22867296 43.76422119 50.78723145 C45.22236923 56.48826858 46.68629381 62.18782538 48.14996147 67.88744736 C48.6572949 69.86512959 49.16313926 71.84318775 49.66871643 73.82131958 C49.97921432 75.03302826 50.28971222 76.24473694 50.60961914 77.49316406 C50.89636505 78.61386292 51.18311096 79.73456177 51.47854614 80.88922119 C52.09624647 83.22537905 52.76343907 85.52607312 53.48217773 87.83203125 C55.155662 94.31421486 53.87258655 98.53325965 50.93359375 104.38720703 C50.5903154 105.08661911 50.24703705 105.78603119 49.89335632 106.50663757 C49.16719145 107.97612858 48.4347897 109.44255221 47.6965332 110.90600586 C46.57018888 113.14917198 45.47684511 115.40649585 44.38476562 117.66650391 C43.67382115 119.09520837 42.96099415 120.52297794 42.24609375 121.94970703 C41.92191971 122.62568436 41.59774567 123.30166168 41.26374817 123.99812317 C39.83318212 126.77570559 38.86613462 128.55825584 35.97216797 129.8815918 C32.410227 129.82232223 29.22736731 129.00925963 25.83984375 128.00048828 C25.1413884 127.8016806 24.44293304 127.60287292 23.72331238 127.39804077 C21.50249804 126.76291014 19.28659192 126.1121826 17.0703125 125.46142578 C15.5686403 125.03075753 14.06668951 124.60105943 12.56445312 124.17236328 C1.66882885 121.04193396 1.66882885 121.04193396 -0.7421875 119.83642578 C2.37516782 82.90897441 2.37516782 82.90897441 16.22705078 70.74780273 C17.86672665 69.39746942 19.55695008 68.10882668 21.2578125 66.83642578 C20.74919678 67.06305908 20.24058105 67.28969238 19.71655273 67.52319336 C17.3763641 68.56560962 15.03584069 69.60727216 12.6953125 70.64892578 C11.89544922 71.00535156 11.09558594 71.36177734 10.27148438 71.72900391 C9.0871582 72.2559082 9.0871582 72.2559082 7.87890625 72.79345703 C7.09338379 73.15375 6.30786133 73.51404297 5.49853516 73.88525391 C3.2578125 74.83642578 3.2578125 74.83642578 -0.44140625 75.85595703 C-5.76856979 79.05225515 -7.47584342 84.19233091 -9.9921875 89.71142578 C-11.01689499 91.87612035 -12.04289216 94.04020499 -13.0703125 96.20361328 C-13.5127832 97.16380371 -13.95525391 98.12399414 -14.41113281 99.11328125 C-15.71898399 101.78895477 -17.17248401 104.30707573 -18.7421875 106.83642578 C-28.29776084 105.2529857 -37.73727564 103.14789487 -47.1796875 101.00512695 C-48.98801522 100.59723472 -50.79762479 100.19498864 -52.60839844 99.7980957 C-55.24192879 99.22056297 -57.87113799 98.62620809 -60.5 98.02783203 C-61.31340851 97.85272598 -62.12681702 97.67761993 -62.96487427 97.49720764 C-64.91644102 97.04284248 -66.83516414 96.45150498 -68.7421875 95.83642578 C-69.7421875 92.83642578 -69.7421875 92.83642578 -68.84936523 90.78686523 C-68.37958252 90.01560303 -67.9097998 89.24434082 -67.42578125 88.44970703 C-66.90822266 87.593125 -66.39066406 86.73654297 -65.85742188 85.85400391 C-65.30376953 84.96132813 -64.75011719 84.06865234 -64.1796875 83.14892578 C-63.65310547 82.27558594 -63.12652344 81.40224609 -62.58398438 80.50244141 C-61.00861436 77.92053143 -59.38245756 75.37746886 -57.7421875 72.83642578 C-57.31462158 72.12067383 -56.88705566 71.40492188 -56.4465332 70.66748047 C-52.14138019 64.06533911 -45.89926409 61.04984458 -39.0546875 57.46142578 C-36.80051304 56.24577715 -34.54659471 55.02965345 -32.29296875 53.81298828 C-30.80277222 53.02529053 -30.80277222 53.02529053 -29.2824707 52.22167969 C-26.61585418 50.81622648 -26.61585418 50.81622648 -23.7421875 48.83642578 C-23.46281069 46.49228789 -23.46281069 46.49228789 -23.72265625 43.77001953 C-24.14349077 32.0395996 -24.17384704 23.28150594 -16.0546875 14.21142578 C-14.25216321 12.28660004 -12.4231183 10.42405785 -10.51025391 8.60888672 C-8.18764179 6.28050175 -6.28245671 3.69151611 -4.38354492 1.01074219 C-2.7421875 -0.16357422 -2.7421875 -0.16357422 0 0 Z " fill="#000000" transform="translate(121.7421875,784.16357421875)"/>
<path d="M0 0 C11.59204364 0.34744688 23.29402088 2.46267384 34.75078487 4.16465092 C38.18481711 4.67331762 41.61816402 5.15503075 45.06420898 5.57543945 C70.45338511 8.70233663 70.45338511 8.70233663 77.05921936 16.74058533 C78.87499761 19.38969808 80.44367465 22.08529161 81.8946228 24.94918823 C83.82980521 28.5395417 86.32102563 31.73339116 88.75 35 C89.58144117 36.16430568 90.40988892 37.33075886 91.234375 38.5 C91.81703125 39.325 92.3996875 40.15 93 41 C91.41931799 45.28608007 88.15595316 47.72796605 84.75 50.5625 C84.13535889 51.08553711 83.52071777 51.60857422 82.88745117 52.14746094 C79.6842083 54.84998101 76.43371481 57.45382513 73.06640625 59.94921875 C72.43702148 60.42093506 71.80763672 60.89265137 71.15917969 61.37866211 C69.96246644 62.26733719 68.7539497 63.14041839 67.53222656 63.99438477 C59.95105812 69.62702879 58.46064089 80.75230985 55.8046875 89.3984375 C55.40806546 90.68266671 55.01117978 91.96681452 54.61404419 93.25088501 C53.57676522 96.60642356 52.54203981 99.96274293 51.50817871 103.31933594 C49.84712356 108.71208102 48.18390873 114.10415422 46.5173378 119.4951973 C45.93696593 121.37486465 45.3588342 123.2552232 44.7807312 125.1355896 C44.43011627 126.27082062 44.07950134 127.40605164 43.71826172 128.57568359 C43.40976288 129.5774765 43.10126404 130.57926941 42.78341675 131.61141968 C42 134 42 134 41 136 C34.70034046 135.02125398 29.10835761 132.12735932 23.3425293 129.53515625 C21.31282668 128.62514647 19.27690735 127.7302183 17.24023438 126.8359375 C15.94751172 126.25871855 14.65517984 125.68062348 13.36328125 125.1015625 C12.19063721 124.57900879 11.01799316 124.05645508 9.80981445 123.51806641 C7 122 7 122 5 119 C4.44094211 116.10614967 3.97813988 113.2575179 3.57958984 110.34106445 C3.38895714 109.01369011 3.38895714 109.01369011 3.19447327 107.65950012 C2.77563291 104.7284579 2.36803714 101.79597545 1.9609375 98.86328125 C1.67284803 96.82399839 1.38423599 94.78478929 1.09512329 92.74565125 C0.49016237 88.46660347 -0.10941974 84.18684654 -0.70507812 79.90649414 C-1.46718004 74.43220234 -2.24097633 68.959644 -3.01865578 63.48754597 C-3.61651082 59.27327122 -4.20886563 55.05823772 -4.79951096 50.84294701 C-5.08267213 48.82580587 -5.36734643 46.80887652 -5.65358353 44.79216957 C-6.05397237 41.96414662 -6.44712422 39.13520742 -6.83837891 36.3059082 C-6.95679642 35.4791156 -7.07521393 34.652323 -7.19721985 33.80047607 C-9.01285189 20.4890748 -9.01285189 20.4890748 -6.50390625 14.31640625 C-6.19259766 13.53458984 -5.88128906 12.75277344 -5.56054688 11.94726562 C-5.23119141 11.16029297 -4.90183594 10.37332031 -4.5625 9.5625 C-4.23701172 8.74845703 -3.91152344 7.93441406 -3.57617188 7.09570312 C-1.18545387 1.18545387 -1.18545387 1.18545387 0 0 Z " fill="#000000" transform="translate(103,633)"/>
<path d="M0 0 C3.9142274 1.30474247 4.28810153 2.74240151 6.29296875 6.29296875 C6.92009766 7.39229736 7.54722656 8.49162598 8.19335938 9.62426758 C8.85855634 10.81174104 9.52326155 11.9994901 10.1875 13.1875 C10.8632544 14.38409076 11.53968718 15.58029867 12.21679688 16.77612305 C13.22130485 18.55086296 14.22491273 20.32605852 15.22457886 22.10353088 C17.03599969 25.32065973 18.88385572 28.50871827 20.80078125 31.6640625 C21.18274658 32.29932861 21.56471191 32.93459473 21.95825195 33.58911133 C22.92297472 35.18507524 23.89852749 36.7744791 24.875 38.36328125 C26.27759696 41.65061788 25.99045589 42.58174425 25 46 C23.74626436 48.84710125 22.31873038 51.59480334 20.87890625 54.3515625 C20.46011703 55.16507172 20.04132782 55.97858093 19.60984802 56.81674194 C18.26651404 59.42252792 16.91458263 62.02374473 15.5625 64.625 C14.68759976 66.32002807 13.81324584 68.01533824 12.93945312 69.7109375 C8.18933903 78.91528708 3.38300204 88.08952394 -1.44871521 97.25125122 C-5.17171412 104.31417817 -8.84166205 111.403382 -12.5 118.5 C-14.10023578 121.59601939 -15.70224943 124.69111888 -17.30401611 127.78634644 C-18.73826245 130.55849359 -20.17071747 133.33153375 -21.59960938 136.10644531 C-22.9779045 138.78201292 -24.36292114 141.45397864 -25.75 144.125 C-26.14380859 144.89392578 -26.53761719 145.66285156 -26.94335938 146.45507812 C-28.66769683 149.76031257 -30.27689797 152.4592744 -33 155 C-36.0444059 144.71864095 -38.68211036 134.37950937 -41.14453125 123.9453125 C-41.42223138 122.77148325 -41.42223138 122.77148325 -41.70554161 121.57394028 C-42.6810051 117.44834265 -43.65216259 113.32175866 -44.61987305 109.19433594 C-45.61475784 104.95528385 -46.62557998 100.72019442 -47.63980579 96.48573494 C-48.42353938 93.20033898 -49.1951443 89.9121793 -49.96353722 86.62316513 C-50.33094957 85.06009122 -50.7029114 83.49807895 -51.07966042 81.93722916 C-51.60484988 79.75669333 -52.11257554 77.57275106 -52.61645508 75.38720703 C-52.90861404 74.15036163 -53.20077301 72.91351624 -53.50178528 71.63919067 C-54.23898961 66.25430943 -53.67744845 61.16219418 -51.78271484 56.02514648 C-51.53577881 55.35295074 -51.28884277 54.680755 -51.03442383 53.9881897 C-50.76267334 53.28954803 -50.49092285 52.59090637 -50.2109375 51.87109375 C-49.92001221 51.12314545 -49.62908691 50.37519714 -49.3293457 49.60458374 C-41.85242686 30.86189194 -35.48790869 19.33855159 -16.64941406 10.32275391 C-12.77600432 8.38890448 -9.29769343 5.96689788 -5.75 3.5 C-2.546875 1.34375 -2.546875 1.34375 0 0 Z " fill="#000000" transform="translate(930,612)"/>
<path d="M0 0 C4.75222602 0.18724804 9.49090891 0.4640245 14.234375 0.80810547 C16.16048672 0.94174987 18.08775029 1.05935425 20.015625 1.16455078 C38.39410261 2.23605717 38.39410261 2.23605717 44.1796875 6.15234375 C46.50598406 8.97121912 48.23075743 11.80445175 50 15 C51.15568743 16.62828813 52.31250208 18.25604944 53.49829102 19.86254883 C54.76937564 21.58881414 56.00678289 23.33515514 57.23828125 25.08984375 C60.43424208 29.62836767 63.68550887 34.12653319 66.9375 38.625 C67.7713623 39.78044312 67.7713623 39.78044312 68.62207031 40.95922852 C71.56935986 45.06574887 71.56935986 45.06574887 74.67407227 49.05224609 C76 51 76 51 76 54 C72.50792876 56.0534635 68.97796996 58.03134795 65.4375 60 C64.46619141 60.57234375 63.49488281 61.1446875 62.49414062 61.734375 C56.88210953 64.80545391 52.48663479 66.3390473 46.046875 66.20507812 C44.7301329 66.1811499 43.41339081 66.15722168 42.05674744 66.13256836 C40.70441737 66.09092871 39.35216218 66.04677504 38 66 C36.13831932 65.93727905 36.13831932 65.93727905 34.23902893 65.87329102 C30.4091752 65.72042882 26.58193232 65.5368875 22.75390625 65.34375 C21.36288457 65.27617343 19.97184719 65.20891928 18.58079529 65.14196777 C14.97557675 64.96760464 11.37058373 64.78895806 7.765625 64.60931396 C4.06458313 64.42567683 0.36333785 64.24623586 -3.33789062 64.06640625 C-10.55879525 63.71496599 -17.7794661 63.35898504 -25 63 C-24.18552912 58.5340106 -22.70895695 54.5732664 -20.9375 50.41015625 C-20.6299025 49.67669479 -20.32230499 48.94323334 -20.00538635 48.18754578 C-19.00771681 45.810772 -18.00383225 43.4366766 -17 41.0625 C-15.97344456 38.6204372 -14.94854388 36.17768423 -13.92372131 33.7348938 C-13.24369976 32.11428937 -12.56314892 30.49390694 -11.88206482 28.87374878 C-9.06990712 22.18155256 -6.30211296 15.47226221 -3.5625 8.75 C-3.19189453 7.8412915 -2.82128906 6.93258301 -2.43945312 5.99633789 C-1.62521933 3.99799942 -0.81240288 1.9990835 0 0 Z " fill="#000000" transform="translate(902,778)"/>
<path d="M0 0 C1.56621094 1.07507813 1.56621094 1.07507813 3.1640625 2.171875 C4.03853027 2.77999023 4.03853027 2.77999023 4.93066406 3.40039062 C7.90942616 5.46801956 10.90514679 7.51072799 13.89868164 9.55688477 C15.54703933 10.68390444 17.19466598 11.81199408 18.84155273 12.94116211 C25.15026595 17.2655963 31.49332747 21.53376525 37.875 25.75 C37.2086117 27.75009277 36.54188408 29.75007248 35.875 31.75 C35.59132568 32.72114746 35.30765137 33.69229492 35.01538086 34.69287109 C32.65460456 40.96169275 29.91343412 44.28859156 23.90559387 47.0370636 C19.80740891 48.68303686 15.6548137 50.06849568 11.4375 51.375 C10.55420013 51.65916779 9.67090027 51.94333557 8.76083374 52.2361145 C-5.22142515 56.65178995 -15.03989344 57.82816151 -28.79101562 52.02197266 C-35.37682135 49.50937396 -42.24854092 47.8665993 -49.05264282 46.05007935 C-53.06280522 44.97146108 -57.06046116 43.84879782 -61.05859375 42.7265625 C-62.43413482 42.3418574 -63.80970154 41.95724396 -65.18530273 41.57275391 C-66.64045288 41.16549072 -66.64045288 41.16549072 -68.125 40.75 C-68.125 37.08047549 -67.07600867 35.52202015 -65.2734375 32.33984375 C-64.66886719 31.26669922 -64.06429687 30.19355469 -63.44140625 29.08789062 C-62.80074219 27.96576172 -62.16007813 26.84363281 -61.5 25.6875 C-60.57380859 24.04491211 -60.57380859 24.04491211 -59.62890625 22.36914062 C-58.39327634 20.18532734 -57.13628304 18.01346287 -55.8581543 15.85424805 C-54.08842553 12.85019379 -54.08842553 12.85019379 -52.99536133 9.85864258 C-51.44267149 6.24146389 -50.06439278 3.58491322 -46.30749512 1.96755981 C-40.67869193 0.21192465 -34.88174966 -0.58641261 -29.0625 -1.4375 C-27.30079147 -1.73384553 -25.53970969 -2.03394269 -23.77929688 -2.33789062 C-7.30723239 -5.07032452 -7.30723239 -5.07032452 0 0 Z " fill="#000000" transform="translate(258.125,909.25)"/>
<path d="M0 0 C1.9067253 0.49654305 3.80536269 1.02503385 5.6953125 1.58203125 C6.66984375 1.84306641 7.644375 2.10410156 8.6484375 2.37304688 C11.04791417 3.0199646 13.43601186 3.6941072 15.8203125 4.39453125 C16.15839607 7.76907289 16.48992568 11.14422806 16.8203125 14.51953125 C16.91570312 15.47085938 17.01109375 16.4221875 17.109375 17.40234375 C17.19960938 18.33046875 17.28984375 19.25859375 17.3828125 20.21484375 C17.46660156 21.06320801 17.55039062 21.91157227 17.63671875 22.78564453 C17.83917658 25.66259186 17.84976971 28.51140716 17.8203125 31.39453125 C13.84224971 31.90357888 9.86271692 32.40010552 5.8828125 32.89453125 C4.76583984 33.03761719 3.64886719 33.18070313 2.49804688 33.328125 C-3.78440927 34.10191725 -9.85031034 34.55561826 -16.1796875 34.39453125 C-17.18434479 31.27100898 -18.18261677 28.14548272 -19.1796875 25.01953125 C-19.46585937 24.13007812 -19.75203125 23.240625 -20.046875 22.32421875 C-20.31757813 21.4734375 -20.58828125 20.62265625 -20.8671875 19.74609375 C-21.11855469 18.96057129 -21.36992187 18.17504883 -21.62890625 17.36572266 C-22.1796875 15.39453125 -22.1796875 15.39453125 -22.1796875 13.39453125 C-20.52485142 11.89575622 -18.80378238 10.46964652 -17.0546875 9.08203125 C-16.10335938 8.32277344 -15.15203125 7.56351563 -14.171875 6.78125 C-13.18445313 5.99363281 -12.19703125 5.20601562 -11.1796875 4.39453125 C-10.2928125 3.42773438 -9.4059375 2.4609375 -8.4921875 1.46484375 C-4.74450794 -0.87745597 -4.13706902 -0.80211492 0 0 Z " fill="#000000" transform="translate(328.1796875,956.60546875)"/>
</svg>
