<?xml version="1.0" encoding="UTF-8"?>
<svg version="1.1" xmlns="http://www.w3.org/2000/svg" width="1024" height="1024">
<path d="M0 0 C-3.08462187 3.25516586 -6.40477976 5.88811436 -10 8.5625 C-15.7429394 12.89804008 -21.05279536 17.56363815 -26.296875 22.484375 C-28.50616012 24.54041491 -30.74998383 26.50100272 -33.0625 28.4375 C-42.40551007 36.58367821 -50.21930624 46.40093283 -57.67675781 56.25292969 C-58.53253422 57.38280718 -59.39353218 58.50875694 -60.26074219 59.62988281 C-80.68593005 86.1129773 -93.37330495 115.91499486 -89.70703125 149.69970703 C-86.06058795 175.3375362 -74.78701637 199.16745758 -63.04345703 221.97070312 C-62.33692263 223.3447588 -61.63490064 224.72114251 -60.93701172 226.09960938 C-52.79541916 242.17264213 -43.49114922 257.55683259 -34.20361328 272.98388672 C-5.4705229 320.73479963 10.89437041 368.04669668 -2 424 C-2.18191895 424.82129395 -2.36383789 425.64258789 -2.55126953 426.48876953 C-5.53667379 439.71899268 -10.17486888 452.34459646 -15 465 C4.52380664 460.29982433 23.04634049 453.60422952 34.5625 436.0625 C41.60603035 422.92838753 41.03867683 407.52784712 41.28979492 393.02172852 C41.89611626 358.24193802 46.41910433 325.78876284 72.29101562 300.29394531 C84.53907874 288.66516628 103.27920772 276.68195224 120 273 C120.66 273.33 121.32 273.66 122 274 C121.47792969 274.53625 120.95585938 275.0725 120.41796875 275.625 C99.66187672 297.72605772 85.97699601 325.8562278 86.7578125 356.58984375 C88.42768942 394.21167478 110.77002291 427.23217669 129.73678589 458.35237122 C155.68260036 500.92635599 179.00984625 544.63359206 195 592 C195.25861816 592.74652832 195.51723633 593.49305664 195.78369141 594.26220703 C205.437181 622.40651106 207.40948487 653.04376067 207.3125 682.5625 C207.30976578 684.2877037 207.30976578 684.2877037 207.30697632 686.04776001 C207.26289881 702.55241708 206.92333129 718.71490571 204 735 C203.82839355 736.00772461 203.65678711 737.01544922 203.47998047 738.05371094 C194.84368523 787.95745087 175.06669826 834.60525562 143 874 C142.58218262 874.51401367 142.16436523 875.02802734 141.73388672 875.55761719 C126.36166317 894.36449076 109.45357586 911.42719624 90 926 C89.32485352 926.51030762 88.64970703 927.02061523 87.95410156 927.54638672 C34.47916601 967.7933119 -35.51017882 994.88194573 -103 996 C-102 994 -102 994 -100.33618164 993.25732422 C-99.61809326 993.0254541 -98.90000488 992.79358398 -98.16015625 992.5546875 C-97.35392822 992.28696533 -96.5477002 992.01924316 -95.71704102 991.7434082 C-94.84104248 991.4568335 -93.96504395 991.17025879 -93.0625 990.875 C-50.50018497 976.37641698 -10.95635205 949.17219125 15.7734375 912.67089844 C16.98657566 911.01828746 18.22538912 909.38775631 19.46875 907.7578125 C44.08291003 874.9827299 58.8722408 834.65362835 63 794 C63.16628906 792.50146484 63.16628906 792.50146484 63.3359375 790.97265625 C69.00619929 731.43490749 50.11248567 670.64220663 13 624 C12.5663916 623.44924805 12.1327832 622.89849609 11.68603516 622.33105469 C-0.00568784 607.59069567 -14.91265697 589.54367152 -32 581 C-31.3709375 581.8971875 -30.741875 582.794375 -30.09375 583.71875 C-20.07282856 598.22861916 -12.8025782 613.00596213 -8 630 C-7.65839844 631.18980469 -7.31679688 632.37960937 -6.96484375 633.60546875 C-4.78139852 642.91811656 -4.7174765 652.23330305 -4.6875 661.75 C-4.68186035 663.06508545 -4.6762207 664.3801709 -4.67041016 665.73510742 C-4.7282749 673.51693515 -4.85618762 681.46172606 -7 689 C-7.66 689.33 -8.32 689.66 -9 690 C-9.17015625 689.36723145 -9.3403125 688.73446289 -9.515625 688.08251953 C-13.30062418 674.16811762 -17.48121801 660.88539819 -24 648 C-24.34256836 647.3203418 -24.68513672 646.64068359 -25.03808594 645.94042969 C-36.18082854 624.2261009 -51.83480379 606.94918748 -71.24121094 592.32666016 C-80.94901979 585.00402921 -90.1893724 577.38268283 -99 569 C-100.16789063 567.92878906 -100.16789063 567.92878906 -101.359375 566.8359375 C-121.43858485 547.82477073 -137.28747676 517.9151952 -138.3359375 489.96875 C-138.6166693 469.99844099 -135.82588712 453.88894788 -127 436 C-126.55011719 435.04996094 -126.10023438 434.09992188 -125.63671875 433.12109375 C-120.01084209 421.98550897 -111.98359874 411.62265057 -103 403 C-137.5642878 406.36709762 -172.3221997 422.49336492 -200 443 C-200.90226318 443.66684814 -200.90226318 443.66684814 -201.82275391 444.34716797 C-208.66771991 449.4561595 -215.15580652 454.90053405 -221.4375 460.6875 C-221.99260254 461.19780762 -222.54770508 461.70811523 -223.11962891 462.23388672 C-227.38287525 466.23859936 -231.20325708 470.55551738 -235 475 C-235.53020752 475.60803467 -236.06041504 476.21606934 -236.60668945 476.8425293 C-266.31111249 511.00790455 -292.76571605 555.36436405 -290.875 602.125 C-289.06684913 622.48193451 -281.17240939 637.68461246 -271.01098633 655.06494141 C-258.53209837 676.45669798 -249.09980322 699.80832155 -253.6875 725.0625 C-255.36939181 731.04771498 -258.09882444 736.28939179 -263.625 739.4375 C-271.41865336 742.73989549 -280.07215079 742.83137472 -288 740 C-296.63397718 736.38306361 -302.65869756 730.73961255 -306.4375 722.125 C-309.8960525 711.43628387 -309.35909207 698.32689669 -305 688 C-314.18696908 694.22565221 -322.5610588 700.85103417 -330.52880859 708.58007812 C-331.87369879 709.87810026 -333.2423658 711.1513704 -334.61328125 712.421875 C-364.37933864 740.71624534 -381.79632368 784.28434011 -383 825 C-383.03996094 826.12664063 -383.07992187 827.25328125 -383.12109375 828.4140625 C-383.98920009 876.10884604 -365.27497457 920.31510755 -333 955 C-317.46848762 971.00701635 -298.70040351 983.41724897 -278.36962891 992.43823242 C-273.09937467 994.80125066 -273.09937467 994.80125066 -272 997 C-362.69759302 998.68162121 -447.74901707 973.36065404 -517 913 C-518.18335938 911.98486328 -518.18335938 911.98486328 -519.390625 910.94921875 C-531.89323812 899.99880079 -543.82764944 888.15099465 -554 875 C-554.92248149 873.87489057 -555.84850971 872.75268332 -556.77734375 871.6328125 C-569.2550768 856.50871873 -579.46325612 840.09859622 -589 823 C-589.5892627 821.95924316 -589.5892627 821.95924316 -590.19042969 820.89746094 C-633.38329717 744.34335054 -640.27239393 648.89311636 -617.55126953 564.96179199 C-613.34531254 549.99413594 -608.15839625 535.26961375 -602 521 C-601.67 521 -601.34 521 -601 521 C-601.01047363 521.91064209 -601.02094727 522.82128418 -601.03173828 523.75952148 C-601.57354189 547.48468599 -601.57354189 547.48468599 -599 571 C-598.84934082 571.8240332 -598.69868164 572.64806641 -598.54345703 573.49707031 C-592.339511 606.42983282 -577.14781947 634.00916434 -554 658 C-552.89591797 659.18142578 -552.89591797 659.18142578 -551.76953125 660.38671875 C-541.60852863 670.99191821 -525.96568483 685.07956271 -510.75 686.25 C-507.85595851 686.28274811 -507.85595851 686.28274811 -506 684 C-505.07000598 677.26977878 -506.44727912 671.12847093 -508.53515625 664.7734375 C-508.80328629 663.91970551 -509.07141632 663.06597351 -509.34767151 662.18637085 C-510.21357333 659.45131885 -511.10287751 656.72496055 -512 654 C-512.29445007 653.10285278 -512.58890015 652.20570557 -512.89227295 651.28137207 C-514.41659028 646.65247134 -515.95819821 642.02950529 -517.50683594 637.40869141 C-524.06736558 617.80025735 -530.22044662 598.35869155 -534 578 C-534.18481934 577.03320312 -534.36963867 576.06640625 -534.56005859 575.0703125 C-539.59276733 547.46449517 -538.91473755 516.55609435 -534 489 C-533.82839355 488.03400879 -533.65678711 487.06801758 -533.47998047 486.07275391 C-527.27823374 452.48134469 -513.08035853 421.90519172 -495.359375 392.890625 C-476.97828878 362.73562325 -460.62424149 330.97342819 -449.05078125 297.54296875 C-448 295 -448 295 -446 294 C-446.25394531 295.02996094 -446.50789062 296.05992187 -446.76953125 297.12109375 C-448.61443216 304.71298244 -450.32869587 312.30474056 -451.6875 320 C-451.80649658 320.66829834 -451.92549316 321.33659668 -452.0480957 322.02514648 C-459.01001059 362.6271144 -451.54026347 404.4160581 -433 441 C-432.90295776 439.77990234 -432.90295776 439.77990234 -432.80395508 438.53515625 C-430.82116486 414.32639396 -427.77690304 390.82752821 -419 368 C-418.74524902 367.33097656 -418.49049805 366.66195313 -418.22802734 365.97265625 C-411.79517572 349.42066688 -402.16450803 334.72834456 -391 321 C-390.24976563 320.05769531 -389.49953125 319.11539062 -388.7265625 318.14453125 C-384.12620757 312.42233538 -379.30091767 306.95082521 -374.33203125 301.546875 C-372.37594748 299.41058251 -370.45812303 297.25219343 -368.5625 295.0625 C-365.60115977 291.6531083 -362.55826526 288.32225484 -359.5 285 C-355.26265767 280.39168551 -351.07849351 275.74963801 -347 271 C-346.20335937 270.0821875 -345.40671875 269.164375 -344.5859375 268.21875 C-320.87412577 240.72054276 -303.5901756 214.73957138 -306 177 C-308.53459182 150.82095207 -322.93903934 126.76725857 -339.46875 107.0234375 C-341 105 -341 105 -342 102 C-337.10689563 103.4498087 -332.91018276 105.49562501 -328.5 108 C-327.45549683 108.59167969 -327.45549683 108.59167969 -326.38989258 109.1953125 C-319.23593383 113.32549996 -312.57234702 118.00740546 -306 123 C-305.11441406 123.66 -304.22882813 124.32 -303.31640625 125 C-266.1383141 153.97288155 -243.97387715 195.83135765 -237 242 C-232.46345307 281.79199734 -241.27702847 319.03475214 -258 355 C-251.07939375 349.59603725 -244.43416609 343.97536307 -238 338 C-237.39542969 337.44957031 -236.79085938 336.89914062 -236.16796875 336.33203125 C-211.79812426 313.21777594 -194.7314882 276.41225516 -193.5480957 242.9519043 C-193.30290174 227.90296918 -195.78472271 213.33929432 -198.42749023 198.57836914 C-199.59025341 191.3107274 -200.16358191 184.17804541 -200.203125 176.8203125 C-200.20882507 175.96807098 -200.21452515 175.11582947 -200.22039795 174.23776245 C-200.22978485 172.44107274 -200.23635658 170.6443663 -200.24023438 168.84765625 C-200.24985172 166.16634016 -200.28089916 163.4858216 -200.3125 160.8046875 C-200.54371821 123.39599274 -186.55998314 93.9680839 -160.57861328 67.546875 C-156.64764323 63.69493776 -152.36423583 60.34022519 -148 57 C-146.99453125 56.19046875 -145.9890625 55.3809375 -144.953125 54.546875 C-137.67340129 48.7195072 -130.08952376 43.75782796 -121.9921875 39.14306641 C-119.99200901 37.99541497 -118.01174233 36.81795477 -116.03125 35.63671875 C-83.21551345 16.38884123 -38.72871232 -1.57362714 0 0 Z " fill="#000000" transform="translate(712,17)"/>
<path d="M0 0 C0.99 0.495 0.99 0.495 2 1 C1.43152344 1.825 0.86304688 2.65 0.27734375 3.5 C-14.81972414 25.87466251 -22.01657364 50.64369972 -17.01879883 77.6965332 C-12.18434095 99.45288696 1.55583413 122.02882404 20.5625 134.1875 C23.85176678 136.04100519 23.85176678 136.04100519 27 137 C26.79318604 136.43079834 26.58637207 135.86159668 26.37329102 135.27514648 C25.42939641 132.66505656 24.49589209 130.05136317 23.5625 127.4375 C23.23701172 126.54224609 22.91152344 125.64699219 22.57617188 124.72460938 C17.57422733 110.64697163 17.55218009 96.32165842 23.53515625 82.4375 C24.9591849 79.5827097 26.42889015 76.77613585 28 74 C31.33476173 76.74146057 32.82001901 80.4376778 34.625 84.25 C45.19463253 105.85946187 59.14241102 126.41788542 77.6796875 142.0078125 C108.90730591 168.81940407 129.53130419 202.21506248 133 244 C134.76893863 274.09301554 128.1837683 302.78866645 108 326 C100.51840398 334.38299313 92.27421104 340.75852366 83 347 C111.92388509 341.29501301 137.53674932 324.53982828 154 300 C167.61450862 278.94305313 173.23488073 256.76435989 175 232 C175.66 232.33 176.32 232.66 177 233 C177.78060936 235.79921637 178.42767401 238.53142889 179 241.375 C179.26055176 242.65733521 179.26055176 242.65733521 179.52636719 243.96557617 C189.03492141 292.61886795 179.62133654 341.59289028 152.6484375 383.16796875 C148.59034476 389.1944034 143.83408753 394.59237666 139 400 C137.74939782 401.45781696 136.49930936 402.91607497 135.25 404.375 C105.21271985 438.30862545 61.91806125 457.3984844 18 465 C17.27393555 465.13132324 16.54787109 465.26264648 15.79980469 465.39794922 C-19.1560829 471.49769172 -59.69489436 467.26917875 -89.52246094 447.0246582 C-114.83446277 429.17195644 -133.89750693 401.48631099 -139.39794922 370.77832031 C-140.16186408 365.86483709 -140.63646427 360.95822339 -141 356 C-141.10828125 354.62714844 -141.10828125 354.62714844 -141.21875 353.2265625 C-142.3086287 324.43560022 -130.95252545 295.40311268 -112 274 C-108.13185923 269.86468682 -104.09711256 265.90704032 -100 262 C-99 265 -99 265 -100.109375 267.4609375 C-100.65078125 268.42257812 -101.1921875 269.38421875 -101.75 270.375 C-106.95772241 280.45054684 -109.49262333 290.75242187 -107 302 C-104.6403839 308.89358919 -101.18665319 314.08758909 -95 318 C-89.02726312 320.64248359 -83.36222341 321.52409554 -76.875 321.4375 C-75.63786255 321.42396484 -75.63786255 321.42396484 -74.37573242 321.41015625 C-54.54948973 320.85873588 -37.51344885 312.08894273 -24 298 C-23.40960938 297.40574219 -22.81921875 296.81148437 -22.2109375 296.19921875 C-5.72237142 278.4321275 1.146844 252.93705273 0.3828125 229.25 C-0.55224197 212.94829574 -7.36229285 199.14896813 -18 187 C-18.67804688 186.21238281 -19.35609375 185.42476562 -20.0546875 184.61328125 C-23.28645829 180.9375859 -26.58733826 177.37135735 -30.109375 173.97265625 C-45.95233473 158.67843136 -57.5738326 141.99754943 -58.3125 119.1875 C-57.8483815 96.11808051 -52.15622115 73.66265681 -42 53 C-41.45601563 51.88367188 -40.91203125 50.76734375 -40.3515625 49.6171875 C-30.9742809 31.34689706 -16.57194348 12.2953129 0 0 Z " fill="#000000" transform="translate(526,534)"/>
<path d="M0 0 C5.37909129 0.96485942 8.90593544 4.58720835 13 8 C13.81082031 8.67417969 14.62164063 9.34835938 15.45703125 10.04296875 C34.35548017 26.3819427 47.46385013 48.90575147 50 74 C51.5648797 96.64766476 46.9200539 115.62381929 32 133 C27.92697992 137.6745091 23.79861437 142.3383751 19.30419922 146.61279297 C14.91158218 150.81635158 11.61604659 155.16305818 8.5 160.375 C7.79943481 161.53008057 7.79943481 161.53008057 7.0847168 162.70849609 C2.51112893 170.45908425 -0.87653563 178.57837252 -4 187 C-7.83903742 183.61261404 -10.02412814 179.84404966 -12.375 175.375 C-12.7656665 174.6337085 -13.15633301 173.89241699 -13.55883789 173.12866211 C-25.10134811 150.49698723 -29.76578011 122.68370611 -22.38671875 97.9765625 C-17.41159443 83.1439398 -10.02802941 70.31742556 -0.90234375 57.70703125 C7.88614337 45.55620121 13.74852625 36.66463208 12 21 C10.39467734 14.18925237 6.92640094 9.13444224 2.48828125 3.8125 C1 2 1 2 0 0 Z " fill="#000000" transform="translate(750,127)"/>
<path d="M0 0 C1 3 1 3 -0.328125 6.00390625 C-0.96179152 7.19383593 -1.60285037 8.37984906 -2.25 9.5625 C-11.62838389 27.4786867 -11.70017545 45.20709729 -5.97412109 64.44702148 C-4.86399591 67.87019619 -3.71906822 71.27975436 -2.5625 74.6875 C2.06964558 88.71655059 6.41917042 103.12571201 7 118 C7.05994141 119.37091797 7.05994141 119.37091797 7.12109375 120.76953125 C7.72257533 147.76544003 -3.44514002 172.43777288 -21.75732422 191.86425781 C-25.42798123 195.65717226 -29.18698486 199.35065959 -33 203 C-34.39382688 198.81851937 -32.60316032 196.39595117 -30.8125 192.625 C-27.59358314 185.55649198 -24.96435054 178.5316556 -23 171 C-22.77441406 170.17113281 -22.54882812 169.34226562 -22.31640625 168.48828125 C-17.34966297 146.66886421 -22.67486711 127.32094815 -31.98706055 107.67529297 C-41.33851529 87.9025606 -44.73349051 66.07869287 -38.37890625 44.734375 C-33.69954916 32.06166856 -27.75859461 22.35736018 -18 13 C-17.29746094 12.31292969 -16.59492188 11.62585938 -15.87109375 10.91796875 C-11.06802698 6.46421593 -5.70153841 3.18959013 0 0 Z " fill="#000000" transform="translate(208,173)"/>
<path d="M0 0 C0.66 0.33 1.32 0.66 2 1 C1.67 1.94875 1.34 2.8975 1 3.875 C-2.22768861 15.63132567 1.98691267 24.76757964 7.75 35 C8.15734375 35.680625 8.5646875 36.36125 8.984375 37.0625 C13.67900827 46.01841577 11.19908388 58.0693077 9 67.4375 C4.68843161 86.20816046 7.96366468 102.33430706 15 120 C4.73055915 118.31648511 -4.67909129 107.3493132 -10.5625 99.3125 C-22.4579612 81.60266539 -27.10855291 61.8593439 -23.7890625 40.703125 C-20.65646383 26.00162235 -12.95731278 8.63820852 0 0 Z " fill="#000000" transform="translate(440,17)"/>
</svg>
