<?xml version="1.0" encoding="UTF-8"?>
<svg version="1.1" xmlns="http://www.w3.org/2000/svg" width="1024" height="1024">
<path d="M0 0 C0.66 0 1.32 0 2 0 C2.09724438 0.90057676 2.19448876 1.80115351 2.29467994 2.72902048 C4.72300185 25.12470391 7.37992758 47.48102904 10.25403798 69.82363367 C10.80356475 74.10091685 11.34953557 78.37865439 11.89602661 82.65632629 C12.9587394 90.97032968 14.02464019 99.2839211 15.09181913 107.59735228 C15.95850174 114.34929845 16.824024 121.10139246 17.68876076 127.8535881 C17.87485162 129.30663317 17.87485162 129.30663317 18.06470189 130.78903269 C18.31683686 132.75779276 18.56896999 134.72655307 18.82110129 136.69531362 C21.16881974 155.02624661 23.52030029 173.35669546 25.87306205 191.68698172 C27.89132719 207.41200403 29.90600567 223.13748266 31.91821289 238.86328125 C34.26335268 257.19101294 36.61088412 275.51843581 38.96210986 293.84538782 C39.21230604 295.79564068 39.46249828 297.74589404 39.71268654 299.69614792 C39.83575084 300.65544964 39.95881514 301.61475137 40.08560866 302.60312284 C40.95270402 309.36361072 41.81805493 316.12432058 42.68271446 322.88512039 C43.73305423 331.0974665 44.78594723 339.30948026 45.84219202 347.52106906 C46.38088543 351.70958457 46.91838399 355.89824448 47.45273399 360.08731651 C47.9410864 363.91553447 48.43277224 367.74330846 48.92719922 371.57074647 C49.10603409 372.95984222 49.28361679 374.34909984 49.45986482 375.73852618 C49.69833645 377.6170352 49.9416945 379.49492201 50.18534374 381.37276649 C50.31949505 382.41874713 50.45364636 383.46472776 50.59186286 384.54240477 C50.8753679 386.99626839 50.8753679 386.99626839 52 389 C53.02996094 388.27296875 54.05992187 387.5459375 55.12109375 386.796875 C55.80034912 386.31742432 56.47960449 385.83797363 57.17944336 385.34399414 C58.70769079 384.26518265 60.2358457 383.18624009 61.76391602 382.10717773 C65.60093256 379.39788929 69.43902586 376.69018049 73.28125 373.98828125 C80.51669533 368.89654574 87.71772091 363.76361707 94.875 358.5625 C101.79478501 353.53776607 108.81508137 348.68103486 115.88964844 343.87744141 C122.1293488 339.6277479 128.26202082 335.24468507 134.36889648 330.80688477 C141.4944062 325.62959197 148.68653082 320.55031348 155.89111328 315.48388672 C159.43041149 312.99351226 162.96500813 310.49648152 166.5 308 C170.73599447 305.00845651 174.97286609 302.01821172 179.21484375 299.03515625 C186.47235112 293.92767914 193.69579586 288.77954977 200.875 283.5625 C207.79478501 278.53776607 214.81508137 273.68103486 221.88964844 268.87744141 C228.12632365 264.62980824 234.2559297 260.24875676 240.36010742 255.81347656 C252.44810368 247.03138325 264.69486583 238.4744924 277 230 C277 233.49723623 276.51186452 233.94697448 274.32421875 236.51953125 C273.46147339 237.54771973 273.46147339 237.54771973 272.58129883 238.59667969 C271.95634521 239.32790039 271.3313916 240.05912109 270.6875 240.8125 C269.39187964 242.35433574 268.09762512 243.89732015 266.8046875 245.44140625 C266.15854492 246.2111377 265.51240234 246.98086914 264.84667969 247.77392578 C262.26850466 250.88177875 259.78464341 254.05762942 257.3125 257.25 C253.37462116 262.31524674 249.29716533 267.23374483 245.12426758 272.10644531 C241.81147705 275.99304483 238.63330454 279.96772818 235.5 284 C231.42605858 289.24197422 227.21979362 294.34432765 222.90966797 299.39331055 C219.5959129 303.27948455 216.3805778 307.22960252 213.20703125 311.23046875 C210.43126687 314.71368458 207.62308435 318.16985828 204.8125 321.625 C204.2570752 322.30796143 203.70165039 322.99092285 203.12939453 323.69458008 C201.98822213 325.09757779 200.8469451 326.50049041 199.70556641 327.90332031 C196.9688352 331.26762715 194.23451992 334.6338958 191.5 338 C190.42188107 339.32682785 189.34375605 340.65365075 188.265625 341.98046875 C186.04635939 344.71182122 183.8276805 347.44364896 181.609375 350.17578125 C176.20470691 356.83152992 170.79239361 363.48063627 165.359375 370.11328125 C160.78950586 375.70456154 156.2411831 381.313385 151.68945312 386.91943359 C148.96041309 390.28025428 146.23015975 393.6400889 143.5 397 C142.41666054 398.33332835 141.33332721 399.66666169 140.25 401 C133.75000001 408.99999999 133.75000001 408.99999999 132.1237793 411.00146484 C131.04446592 412.32987551 129.9652013 413.65832579 128.88598633 414.98681641 C126.11655377 418.39579923 123.34618165 421.80401176 120.57421875 425.2109375 C114.68568998 432.45006172 108.81424034 439.70098218 103 447 C112.5290225 448.56230964 122.07478271 449.73629792 131.67431641 450.75233459 C133.21897382 450.91808518 134.763603 451.08409916 136.30820656 451.25035089 C140.5176401 451.7026625 144.72746275 452.15125373 148.93736362 452.59919178 C153.49117033 453.08439043 158.04460216 453.57308414 162.5980835 454.06132507 C171.50454738 455.01574928 180.41135187 455.96695754 189.31827974 456.91704089 C199.70081148 458.02463359 210.08301139 459.13532162 220.46520257 460.24610119 C238.99541379 462.22851126 257.52594086 464.20795335 276.05664062 466.18579102 C294.01913772 468.10298393 311.98138176 470.02252632 329.94335938 471.94458008 C349.52448959 474.03989035 369.10574759 476.13399878 388.68723869 478.22593397 C390.77706783 478.44919575 392.86689695 478.6724576 394.95672607 478.89571953 C395.98483922 479.00555325 397.01295236 479.11538697 398.07222044 479.22854899 C405.30140934 480.00091686 412.5305111 480.77409699 419.75958252 481.54756355 C428.57477529 482.49069596 437.39011971 483.4323964 446.20565557 484.37231667 C450.69950081 484.85148483 455.19328004 485.33125005 459.68688202 485.81269455 C463.80714193 486.25411895 467.92759063 486.6937365 472.04819179 487.13196366 C473.53194512 487.29006972 475.01563099 487.44881052 476.49923825 487.60828138 C484.53014329 488.47110889 492.54086203 489.22227792 500.60964394 489.64307874 C501.39846144 489.76086276 502.18727894 489.87864677 503 490 C503.33 490.66 503.66 491.32 504 492 C503.16555028 492.07043026 502.33110057 492.14086053 501.4713645 492.21342504 C479.35918984 494.09208876 457.28978331 496.26391697 435.22489572 498.63071442 C430.77439367 499.10738872 426.32350175 499.58039905 421.87266541 500.05393982 C413.21485952 500.97565745 404.55741044 501.90068366 395.90009844 502.82702757 C388.86871814 503.57934346 381.83721188 504.33047177 374.80561829 505.08079147 C373.29388416 505.24210732 373.29388416 505.24210732 371.75160995 505.40668207 C369.70344876 505.6252365 367.65528738 505.84378916 365.60712582 506.06234007 C346.52180798 508.09901095 327.43690971 510.13959132 308.35215002 512.18148486 C290.88674569 514.05000921 273.42085268 515.91392086 255.95472437 517.77566464 C237.97030353 519.69268874 219.98618883 521.61255989 202.00241423 523.53563726 C199.97236902 523.75270918 197.94232335 523.9697768 195.91227722 524.18684006 C194.91368798 524.29361468 193.91509874 524.40038931 192.88624921 524.51039953 C185.84724195 525.26286144 178.80803769 526.01346256 171.76875305 526.76332474 C163.21604049 527.67444386 154.66362283 528.58827264 146.11158025 529.50566007 C141.74887847 529.97357846 137.38605041 530.44022621 133.02285576 530.90352821 C129.03546721 531.32695952 125.04847495 531.75393255 121.06177729 532.18381874 C119.61472991 532.33921089 118.16753887 532.49327183 116.72019893 532.64591499 C114.76357417 532.85246379 112.80749944 533.06420382 110.85146332 533.27625465 C109.21707314 533.45095486 109.21707314 533.45095486 107.54966497 533.62918437 C105.01528229 533.86159672 105.01528229 533.86159672 103 535 C103.70125 535.82242188 104.4025 536.64484375 105.125 537.4921875 C110.0996367 543.33998484 115.02133745 549.21490913 119.79296875 555.23046875 C122.56873295 558.71368435 125.37689901 562.16987203 128.1875 565.625 C128.74002441 566.30433594 129.29254883 566.98367188 129.86181641 567.68359375 C131.0000758 569.0829158 132.13842323 570.48216623 133.27685547 571.88134766 C134.98899189 573.98646524 136.69981969 576.09263866 138.41015625 578.19921875 C143.09819197 583.97319906 147.78700195 589.74635822 152.5 595.5 C157.78950668 601.9574452 163.04902661 608.43918576 168.31054688 614.91943359 C171.03958691 618.28025428 173.76984025 621.6400889 176.5 625 C177.58333946 626.33332835 178.66667279 627.66666169 179.75 629 C180.28625 629.66 180.8225 630.32 181.375 631 C199.25 653 199.25 653 200.87597656 655.0012207 C201.95603016 656.33050495 203.03610817 657.65976937 204.11621094 658.98901367 C206.87492773 662.38413329 209.63318009 665.77962852 212.390625 669.17578125 C217.08543759 674.95735602 221.78055907 680.73849273 226.5 686.5 C231.78950668 692.9574452 237.04902661 699.43918576 242.31054688 705.91943359 C244.50147155 708.61756367 246.69318637 711.31505115 248.88500977 714.01245117 C249.96109239 715.33677296 251.03710158 716.66115441 252.11303711 717.9855957 C254.88278262 721.39499565 257.65348948 724.80360757 260.42578125 728.2109375 C266.31426651 735.45000824 272.18982823 742.69779017 278 750 C277.67 750.66 277.34 751.32 277 752 C258.58333333 739 240.16666667 726 221.75 713 C221.04883057 712.50508057 220.34766113 712.01016113 219.62524414 711.50024414 C218.20767346 710.49955812 216.79019308 709.49874417 215.37280273 708.49780273 C211.84569428 706.00724549 208.31707783 703.51888408 204.78515625 701.03515625 C197.52764888 695.92767914 190.30420414 690.77954977 183.125 685.5625 C176.98498363 681.10398741 170.77759564 676.76245409 164.5 672.5 C157.45652097 667.71751516 150.5181538 662.8116295 143.63110352 657.80688477 C136.5055938 652.62959197 129.31346918 647.55031348 122.10888672 642.48388672 C117.85957924 639.49392482 113.61669567 636.49485255 109.37255859 633.49755859 C105.84548681 631.00714626 102.316985 628.5188188 98.78515625 626.03515625 C91.4663685 620.88464725 84.18045167 615.69421774 76.9375 610.4375 C68.72408881 604.47795996 60.39171377 598.70499342 52 593 C50.24482235 600.27630845 49.17601079 607.52954404 48.24334717 614.9524231 C47.99599552 616.8804459 47.99599552 616.8804459 47.74364686 618.84741867 C47.28853103 622.3957795 46.83860594 625.94478166 46.38956046 629.49391508 C45.90308437 633.33148106 45.41174312 637.1684245 44.92100525 641.00544739 C44.07089934 647.65758306 43.22385608 654.31010293 42.37889862 660.96289444 C41.15073936 670.63277705 39.91789374 680.30205774 38.68394879 689.97120355 C36.67323147 705.72810734 34.66624897 721.48548449 32.66162109 737.24316406 C30.729614 752.42993155 28.79593013 767.61648388 26.85986328 782.80273438 C26.68203985 784.19756505 26.68203985 784.19756505 26.50062403 785.62057413 C25.90499492 790.2925461 25.30933046 794.96451357 24.71364737 799.63647866 C23.54290328 808.81873543 22.37238174 818.00102056 21.20196533 827.18331909 C21.08814724 828.07625777 20.97432914 828.96919645 20.85706201 829.88919388 C19.19688953 842.91412924 17.5378101 855.9392035 15.87957764 868.96438599 C15.66938461 870.61530738 15.45919154 872.26622876 15.2489984 873.91715014 C14.34182084 881.04274126 13.43485308 888.16835886 12.52878915 895.29409168 C12.05607202 899.01169123 11.58320213 902.72927133 11.11022949 906.44683838 C11.0194993 907.15999055 10.9287691 907.87314271 10.83528951 908.60790555 C9.60343733 918.28790025 8.36220519 927.96664498 7.11340332 937.64447021 C6.69473119 940.89603583 6.27619682 944.14761916 5.85767412 947.39920402 C5.48636765 950.27679483 5.1121876 953.15400103 4.73778915 956.03119087 C3.62056175 964.6763626 2.59285905 973.29907392 2 982 C1.34 982 0.68 982 0 982 C-0.09868755 981.11176544 -0.19737511 980.22353088 -0.29905319 979.30838013 C-4.44983629 942.2397244 -9.25079525 905.2530762 -14.00183435 868.25779361 C-14.84592293 861.68486384 -15.68901446 855.11180684 -16.53145599 848.53866577 C-16.71318058 847.12078076 -16.71318058 847.12078076 -16.89857636 845.67425162 C-17.14483255 843.75284398 -17.39108714 841.83143614 -17.63734016 839.9100281 C-19.92593224 822.05408096 -22.21766226 804.19853767 -24.5104793 786.34313262 C-26.47646046 771.03232027 -28.43945121 755.72112682 -30.40039062 740.40966797 C-32.68852564 722.54339309 -34.97863878 704.67737351 -37.27181315 686.81174469 C-37.51581434 684.91073141 -37.75981232 683.00971772 -38.00380707 681.10870361 C-38.12381227 680.1737204 -38.24381747 679.23873718 -38.36745919 678.27542114 C-39.21228151 671.69212298 -40.0556648 665.10864139 -40.89847565 658.52508545 C-41.92182783 650.53148902 -42.94729596 642.53816756 -43.97553542 634.54519826 C-44.49973885 630.4698851 -45.0229581 626.39445187 -45.54356766 622.3186779 C-46.01946641 618.59314768 -46.49813098 614.86798392 -46.9790543 611.14309907 C-47.23559664 609.15037617 -47.4891488 607.15726902 -47.74261212 605.16415215 C-47.89478908 603.98989237 -48.04696604 602.81563259 -48.20375443 601.60578918 C-48.39961163 600.07953273 -48.39961163 600.07953273 -48.59942555 598.52244282 C-48.94805101 595.88330729 -48.94805101 595.88330729 -50 593 C-63.35338356 602.02736591 -63.35338356 602.02736591 -76.4375 611.4375 C-84.68880189 617.55816289 -93.12069403 623.41339063 -101.54833984 629.28759766 C-107.35878045 633.34599543 -113.14068824 637.44497728 -118.92773438 641.53662109 C-121.0177979 643.0125684 -123.11013089 644.48524322 -125.203125 645.95703125 C-132.46478281 651.06677614 -139.69206169 656.21759588 -146.875 661.4375 C-153.07537574 665.94092371 -159.34713637 670.32108331 -165.6875 674.625 C-171.96444834 678.88605423 -178.13866566 683.24891026 -184.23168945 687.76831055 C-191.89203756 693.43278885 -199.73305751 698.840218 -207.54833984 704.28759766 C-213.35878045 708.34599543 -219.14068824 712.44497728 -224.92773438 716.53662109 C-227.0177979 718.0125684 -229.11013089 719.48524322 -231.203125 720.95703125 C-239.34887727 726.68867021 -247.4470305 732.4804881 -255.51098633 738.32666016 C-261.94268406 742.98016179 -268.44681887 747.51929134 -275 752 C-275 747.81311276 -272.71857279 745.73456744 -270.1875 742.625 C-269.44632935 741.6983252 -269.44632935 741.6983252 -268.69018555 740.75292969 C-264.84419718 735.970871 -260.8955275 731.27711906 -256.91235352 726.60913086 C-253.59696301 722.72275315 -250.3813241 718.77133832 -247.20703125 714.76953125 C-244.43126687 711.28631542 -241.62308435 707.83014172 -238.8125 704.375 C-238.2570752 703.69203857 -237.70165039 703.00907715 -237.12939453 702.30541992 C-235.98822213 700.90242221 -234.8469451 699.49950959 -233.70556641 698.09667969 C-230.9688352 694.73237285 -228.23451992 691.3661042 -225.5 688 C-224.42188107 686.67317215 -223.34375605 685.34634925 -222.265625 684.01953125 C-220.04635939 681.28817878 -217.8276805 678.55635104 -215.609375 675.82421875 C-210.20470691 669.16847008 -204.79239361 662.51936373 -199.359375 655.88671875 C-194.78950586 650.29543846 -190.2411831 644.686615 -185.68945312 639.08056641 C-182.96041309 635.71974572 -180.23015975 632.3599111 -177.5 629 C-176.41666054 627.66667165 -175.33332721 626.33333831 -174.25 625 C-167.75 617 -161.25 609 -154.75 601 C-154.21342773 600.33959717 -153.67685547 599.67919434 -153.12402344 598.9987793 C-152.04396984 597.66949505 -150.96389183 596.34023063 -149.88378906 595.01098633 C-147.12507227 591.61586671 -144.36681991 588.22037148 -141.609375 584.82421875 C-136.20996268 578.17494246 -130.80330735 571.53197809 -125.375 564.90625 C-121.84875019 560.59123378 -118.33793063 556.26371744 -114.82543945 551.9375 C-110.2309121 546.28018647 -105.6196537 540.63681903 -101 535 C-110.14195639 533.34680686 -119.30707154 532.2238283 -128.54060364 531.24766541 C-130.0829774 531.081959 -131.62531801 530.91594369 -133.16762847 530.74964911 C-137.37541022 530.29686193 -141.58364844 529.84845335 -145.79197991 529.40080822 C-150.34247447 528.91598432 -154.89252898 528.42706223 -159.44264221 527.93867493 C-168.34518558 526.98378307 -177.24813115 526.03269319 -186.15122608 525.08295911 C-193.39112916 524.31056647 -200.63087794 523.53674242 -207.87051964 522.76190376 C-209.41856221 522.59622164 -209.41856221 522.59622164 -210.99787837 522.42719241 C-213.09473241 522.2027651 -215.19158603 521.97833388 -217.28843924 521.75389881 C-236.93467465 519.65123589 -256.58136232 517.55282433 -276.22821441 515.45593239 C-293.06499213 513.65886614 -309.90140508 511.85841572 -326.73754883 510.05541992 C-346.31091331 507.95929597 -365.88448171 505.86509348 -385.45839137 503.77406603 C-387.54827212 503.55080588 -389.63815268 503.32754404 -391.72803307 503.10428047 C-392.75615977 502.99444675 -393.78428648 502.88461303 -394.84356854 502.77145101 C-402.0683454 501.99950917 -409.29297814 501.22622765 -416.51755714 500.45243645 C-425.33116743 499.50849722 -434.14500685 498.56673171 -442.95913962 497.62768333 C-447.45125832 497.1490464 -451.94327273 496.66948366 -456.43501282 496.18730545 C-460.55593799 495.7449625 -464.67715355 495.30543167 -468.79860672 494.86803634 C-470.28044584 494.7102968 -471.76218123 494.5515786 -473.24379311 494.39171862 C-482.81983083 493.35924695 -492.38610269 492.57089307 -502 492 C-502 491.34 -502 490.68 -502 490 C-500.79190272 489.89435461 -500.79190272 489.89435461 -499.55939943 489.78657496 C-477.83168681 487.87554437 -456.14102834 485.70144452 -434.45482242 483.36928558 C-430.01990731 482.89295277 -425.58466013 482.41972893 -421.14945984 481.94606018 C-412.51963233 481.02392527 -403.89010688 480.09899411 -395.26069566 479.17297243 C-388.25074826 478.42078595 -381.24068991 477.66964143 -374.23055458 476.91920853 C-372.72364643 476.75789268 -372.72364643 476.75789268 -371.18629569 476.59331793 C-369.14466147 476.37476315 -367.10302702 476.1562105 -365.06139234 475.93765993 C-346.0318681 473.90048456 -327.00269256 471.86006731 -307.97363744 469.81851514 C-291.65156942 468.06746541 -275.32919175 466.31932617 -259.0065918 464.57324219 C-239.991569 462.53913967 -220.97674409 460.50320246 -201.9622286 458.46436274 C-199.93774875 458.24729253 -197.91326863 458.03022492 -195.88878822 457.81315994 C-194.89294953 457.70638532 -193.89711083 457.59961069 -192.87109521 457.48960047 C-185.85603696 456.73757067 -178.84083781 455.9868644 -171.8255825 455.23667526 C-163.2982411 454.32475525 -154.77111608 453.41084303 -146.244266 452.49433993 C-141.89544455 452.02696152 -137.5465301 451.56049769 -133.19734955 451.09647179 C-129.22040112 450.67213481 -125.24373958 450.24520932 -121.26729456 449.81618126 C-119.82619857 449.66116265 -118.38499886 449.50710475 -116.94368925 449.35408501 C-114.99042668 449.14657005 -113.03756831 448.93526091 -111.08473492 448.72374535 C-109.45522743 448.54904514 -109.45522743 448.54904514 -107.79280061 448.37081563 C-105.453188 448.06017229 -103.26851463 447.6369331 -101 447 C-101.99966797 445.83597656 -101.99966797 445.83597656 -103.01953125 444.6484375 C-107.9691344 438.85696637 -112.82570678 433.01656766 -117.5 427 C-121.57099099 421.7617102 -125.77341089 416.66218911 -130.08154297 411.61767578 C-133.49083126 407.62079022 -136.79403458 403.55282307 -140.05859375 399.4375 C-142.82628803 395.96256794 -145.64808384 392.53284715 -148.46484375 389.09765625 C-151.40348632 385.51093909 -154.32687196 381.91186437 -157.25 378.3125 C-157.80131592 377.63364746 -158.35263184 376.95479492 -158.9206543 376.25537109 C-160.0506661 374.86380819 -161.18062995 373.47220634 -162.31054688 372.08056641 C-165.03958691 368.71974572 -167.76984025 365.3599111 -170.5 362 C-171.58333946 360.66667165 -172.66667279 359.33333831 -173.75 358 C-174.28625 357.34 -174.8225 356.68 -175.375 356 C-206.25 318 -206.25 318 -207.87597656 315.9987793 C-208.95603016 314.66949505 -210.03610817 313.34023063 -211.11621094 312.01098633 C-213.87492773 308.61586671 -216.63318009 305.22037148 -219.390625 301.82421875 C-224.08543759 296.04264398 -228.78055907 290.26150727 -233.5 284.5 C-238.21828157 278.73990808 -242.91234845 272.96027956 -247.60546875 267.1796875 C-249.83525105 264.43327175 -252.06703722 261.68850692 -254.30078125 258.9453125 C-261.58139124 250.00118356 -268.80976775 241.0169399 -276 232 C-275.67 231.34 -275.34 230.68 -275 230 C-272.52083333 231.75 -270.04166667 233.5 -267.5625 235.25 C-266.79550781 235.79140625 -266.02851563 236.3328125 -265.23828125 236.890625 C-264.449375 237.4475 -263.66046875 238.004375 -262.84765625 238.578125 C-261.63553467 239.43374023 -261.63553467 239.43374023 -260.39892578 240.30664062 C-240.07446289 254.65332031 -240.07446289 254.65332031 -219.75 269 C-219.04883057 269.49491943 -218.34766113 269.98983887 -217.62524414 270.49975586 C-216.20767346 271.50044188 -214.79019308 272.50125583 -213.37280273 273.50219727 C-209.84569428 275.99275451 -206.31707783 278.48111592 -202.78515625 280.96484375 C-195.52765027 286.07231989 -188.30413676 291.22035849 -181.125 296.4375 C-174.92462426 300.94092371 -168.65286363 305.32108331 -162.3125 309.625 C-156.03555166 313.88605423 -149.86133434 318.24891026 -143.76831055 322.76831055 C-136.10796244 328.43278885 -128.26694249 333.840218 -120.45166016 339.28759766 C-114.64121955 343.34599543 -108.85931176 347.44497728 -103.07226562 351.53662109 C-100.9822021 353.0125684 -98.88986911 354.48524322 -96.796875 355.95703125 C-89.47393359 361.10980519 -82.18425449 366.30302229 -74.9375 371.5625 C-66.72408881 377.52204004 -58.39171377 383.29500658 -50 389 C-48.32697975 380.43275196 -47.12640063 371.83289595 -46.02661133 363.17602539 C-45.83681538 361.69923803 -45.64676579 360.22248325 -45.4564867 358.74575806 C-44.93779036 354.71445835 -44.42268861 350.68270651 -43.90820932 346.65086675 C-43.35133337 342.29183207 -42.79109537 337.93322931 -42.23129272 333.5745697 C-41.1362425 325.04419266 -40.04430406 316.51342007 -38.9534595 307.98250431 C-37.68108373 298.03271332 -36.40577333 288.08329913 -35.13039029 278.13389325 C-32.85303623 260.36708136 -30.57858518 242.59989902 -28.30566406 224.83251953 C-26.10434391 207.62484752 -23.90061184 190.41748654 -21.69433594 173.21044922 C-19.28865836 154.44822769 -16.88434164 135.68583271 -14.48235226 116.92313862 C-14.22565211 114.9179871 -13.96895128 112.91283567 -13.71224976 110.90768433 C-13.58597208 109.92128714 -13.45969441 108.93488994 -13.32959014 107.91860193 C-12.44357485 100.99830359 -11.55663119 94.07812461 -10.66934204 87.1579895 C-9.58591642 78.70785208 -8.50407114 70.25751402 -7.42416596 61.80692595 C-6.87409052 57.50269282 -6.32336723 53.19854548 -5.7707634 48.89463615 C-2.62781778 24.47725971 -2.62781778 24.47725971 0 0 Z " fill="#000000" transform="translate(510,14)"/>
<path d="M0 0 C2.20250779 -0.00218744 4.40451364 -0.02042595 6.60693359 -0.03930664 C21.50641018 -0.09931292 39.30495988 0.2585377 51.33740234 10.18530273 C55.60195195 15.02614282 56.77005077 17.91272953 56.66943359 24.27905273 C54.29807489 45.03541594 31.68247091 64.77139636 16.21240234 77.56030273 C14.25997926 79.10944755 12.30091467 80.65023762 10.33740234 82.18530273 C9.0426963 83.21991461 7.74845879 84.25511296 6.45458984 85.29077148 C-10.92630742 99.10798821 -29.09525898 111.65853412 -48.29589844 122.80932617 C-50.68362037 124.19752514 -53.06280943 125.59936943 -55.43994141 127.00561523 C-62.56548073 131.21786767 -62.56548073 131.21786767 -65.82128906 133.10717773 C-67.09712609 133.85420721 -68.36457572 134.61567694 -69.625 135.38842773 C-71.27010221 136.37964743 -72.9632586 137.29024713 -74.66259766 138.18530273 C-75.32259766 137.85530273 -75.98259766 137.52530273 -76.66259766 137.18530273 C-76.21045898 136.81880615 -75.75832031 136.45230957 -75.29248047 136.07470703 C-65.81765982 128.37791595 -56.50396806 120.60752669 -47.66259766 112.18530273 C-46.86466797 111.42862305 -46.06673828 110.67194336 -45.24462891 109.89233398 C-39.56058034 104.36481687 -34.56465003 98.40934914 -29.66259766 92.18530273 C-29.23769043 91.65324219 -28.8127832 91.12118164 -28.375 90.57299805 C-23.20307632 84.09237765 -18.33518751 77.66578839 -14.66259766 70.18530273 C-21.0931523 74.69486542 -27.23711516 79.4344013 -33.28759766 84.43530273 C-45.33501266 94.33906498 -58.0881798 103.48156649 -71.66259766 111.18530273 C-72.39365723 111.60134766 -73.1247168 112.01739258 -73.87792969 112.44604492 C-108.54743881 131.93054752 -157.33462499 149.89614483 -197.66259766 141.18530273 C-201.41729927 139.69636934 -204.05498721 138.24798093 -206.66259766 135.18530273 C-208.66563616 129.32011813 -207.50866868 124.26165441 -205.00634766 118.77514648 C-199.97860931 109.08505775 -193.59305013 101.39540256 -186.04492188 93.61450195 C-184.88346664 92.41366145 -183.74136354 91.19414573 -182.60400391 89.97045898 C-163.92729096 70.32978666 -137.83490628 54.79959678 -112.66259766 45.18530273 C-111.9876123 44.92555664 -111.31262695 44.66581055 -110.6171875 44.39819336 C-86.82556995 35.43275479 -61.39234868 32.27087941 -36.16748047 30.45776367 C-33.53703461 30.26110865 -33.53703461 30.26110865 -30.66259766 29.18530273 C-60.85538322 21.18307949 -93.65944574 21.87423432 -124.66259766 22.18530273 C-121.78328664 20.26576206 -119.91511273 19.5709307 -116.62353516 18.70483398 C-115.58583984 18.4313916 -114.54814453 18.15794922 -113.47900391 17.8762207 C-112.34333984 17.58634277 -111.20767578 17.29646484 -110.03759766 16.99780273 C-108.24515625 16.53978271 -108.24515625 16.53978271 -106.41650391 16.07250977 C-85.40085255 10.78883738 -64.31154062 6.35191514 -42.85009766 3.31030273 C-42.12024658 3.20675476 -41.39039551 3.10320679 -40.63842773 2.996521 C-27.07830642 1.09532158 -13.69745266 -0.00151621 0 0 Z M-25.66259766 49.18530273 C-26.46767687 51.33502209 -26.46767687 51.33502209 -26.66259766 53.18530273 C-19.09336669 56.96991822 -8.34375508 53.22094134 -0.6953125 50.87866211 C8.58129468 47.71440984 17.04466381 42.73045929 24.33740234 36.18530273 C25.09794922 35.53948242 25.85849609 34.89366211 26.64208984 34.22827148 C27.20154297 33.5540918 27.76099609 32.87991211 28.33740234 32.18530273 C28.20098857 29.9667202 28.20098857 29.9667202 27.33740234 28.18530273 C8.06355445 26.67691464 -12.86411622 34.39047697 -25.66259766 49.18530273 Z M-125.66259766 78.18530273 C-126.38962891 78.53995605 -127.11666016 78.89460937 -127.86572266 79.26000977 C-143.75714653 87.08949453 -162.86964792 97.89519534 -172.66259766 113.18530273 C-173.61427145 116.44669626 -173.61427145 116.44669626 -173.66259766 119.18530273 C-160.66254422 125.28056588 -141.24689723 117.47534561 -128.55175781 113.11743164 C-103.78004105 104.13385554 -68.80603603 90.60715408 -53.66259766 67.18530273 C-53.49593099 65.01863607 -53.49593099 65.01863607 -54.66259766 63.18530273 C-71.62436684 52.24222584 -109.95119371 70.4391002 -125.66259766 78.18530273 Z " fill="#000000" transform="translate(246.66259765625,569.814697265625)"/>
<path d="M0 0 C27.51401121 16.99959131 47.90581364 46.14510443 65 73 C65.4758252 73.7420166 65.95165039 74.4840332 66.44189453 75.24853516 C73.32627222 86.02417832 79.79420393 97.00995275 86 108.1875 C86.62285889 109.30930664 87.24571777 110.43111328 87.88745117 111.58691406 C89.61017107 114.71505377 91.31311411 117.85240572 93 121 C93.52207031 121.97404785 94.04414062 122.9480957 94.58203125 123.95166016 C95.04996094 124.85062012 95.51789063 125.74958008 96 126.67578125 C96.61875 127.85974487 96.61875 127.85974487 97.25 129.06762695 C97.4975 129.70531006 97.745 130.34299316 98 131 C97.67 131.66 97.34 132.32 97 133 C95.47816445 131.33424841 93.9575915 129.66734329 92.4375 128 C91.59058594 127.071875 90.74367188 126.14375 89.87109375 125.1875 C88.40004616 123.56883598 86.94920394 121.94051314 85.52880859 120.27709961 C80.42938574 114.31327565 74.94031175 108.75418358 69.39501953 103.2097168 C67.76172552 101.57424118 66.1366153 99.93092292 64.51171875 98.28710938 C57.98764967 91.72831479 51.27597202 85.72705566 44 80 C42.2062143 78.54427392 40.41426484 77.0862792 38.625 75.625 C35.54394601 73.1209996 32.44177066 70.98236261 29 69 C32.38323043 74.25007729 35.91675822 79.26597337 39.84448242 84.12182617 C74.33141131 126.8420989 91.12085663 180.73534179 86.6875 235.53515625 C85.43187592 246.37612486 83.20424075 258.39556199 76 267 C71.70229768 269.86513488 68.04196794 269.83422982 63 269 C59.63474487 267.41827555 56.88105058 265.33305414 54 263 C53.42894531 262.59007812 52.85789062 262.18015625 52.26953125 261.7578125 C17.45515314 235.13018839 -1.37289456 176.39861434 -7.15625 135.19140625 C-8.70869645 122.81675495 -9.58684432 110.35832929 -10.484375 97.921875 C-10.53726685 97.19584579 -10.59015869 96.46981659 -10.64465332 95.7217865 C-10.89367888 92.14071943 -11.05770338 88.58984993 -11 85 C-11.66 85 -12.32 85 -13 85 C-14.51089793 92.30890559 -15.83405717 99.63868477 -17.0625 107 C-17.32256836 108.52367187 -17.32256836 108.52367187 -17.58789062 110.078125 C-19.49003328 121.44725349 -20.16203849 132.47792659 -20.13037109 143.99389648 C-20.12503491 146.29743098 -20.13033166 148.60076846 -20.13671875 150.90429688 C-20.1402424 159.65597541 -19.84102867 168.2822301 -19 177 C-19.66 176.67 -20.32 176.34 -21 176 C-21.69314347 173.67558089 -22.25940405 171.41298003 -22.76953125 169.046875 C-22.9308252 168.32807159 -23.09211914 167.60926819 -23.25830078 166.86868286 C-23.78635266 164.49786808 -24.30040398 162.1243091 -24.8125 159.75 C-24.98985687 158.93823303 -25.16721375 158.12646606 -25.34994507 157.2901001 C-30.57068542 133.36609645 -34.62000608 109.38270405 -37 85 C-37.07202637 84.29343262 -37.14405273 83.58686523 -37.21826172 82.85888672 C-39.50396379 59.7290368 -42.69269578 23.88756902 -28.359375 3.58203125 C-19.93210647 -6.22556575 -10.89480777 -5.21950979 0 0 Z M-12 26 C-14.18119247 28.18119247 -13.3711278 33.16464463 -13.38500977 36.15942383 C-13.05190121 52.64379587 -5.69534032 68.34739088 5.203125 80.48828125 C6.99123951 82.32188855 6.99123951 82.32188855 10 82 C14.13368756 73.73262488 10.34439142 61.40242138 7.69335938 52.984375 C4.15171336 42.84828387 -1.39486671 33.60513329 -9 26 C-9.99 26 -10.98 26 -12 26 Z M18 110 C11.45616828 119.81574758 15.85486857 136.15762472 17.93359375 147.1015625 C23.60429196 174.85124111 33.76483699 215.41186959 57 234 C59.75574568 234.50549294 59.75574568 234.50549294 62 234 C71.10223302 218.22279609 62.8735472 190.75410726 58.53564453 174.45629883 C52.38153667 152.61013998 41.16832507 123.5305824 22 110 C20.68 110 19.36 110 18 110 Z " fill="#000000" transform="translate(618,707)"/>
<path d="M0 0 C6.14273628 4.66273387 12.14734669 9.49349293 18.1328125 14.35546875 C18.81972168 14.91105469 19.50663086 15.46664062 20.21435547 16.0390625 C21.54794084 17.11898196 22.87784855 18.20346251 24.20361328 19.29296875 C27.21810075 22.06122378 27.21810075 22.06122378 31 23 C25.53577155 14.15130855 19.83712646 5.87232518 13 -2 C12.3503125 -2.76054687 11.700625 -3.52109375 11.03125 -4.3046875 C8.74034222 -6.92160908 6.39006173 -9.47406708 4 -12 C3.4121875 -12.62181152 2.824375 -13.24362305 2.21875 -13.88427734 C-7.78429348 -24.37606079 -18.23534816 -33.53357346 -30 -42 C-29.67 -42.66 -29.34 -43.32 -29 -44 C6.05194008 -24.64923229 39.9967963 -3.1994241 69.65625 23.87890625 C71.79924312 25.81831503 73.98344638 27.69329299 76.1875 29.5625 C80.19441602 33.07355017 83.63795888 36.87261618 87 41 C87.81984375 42.00546875 88.6396875 43.0109375 89.484375 44.046875 C96.89280109 53.30912667 103.49115657 62.42142246 103.26953125 74.69140625 C102.7347605 79.271834 100.84604156 82.37167341 97.41015625 85.40234375 C68.23675119 105.69420478 16.34723297 94.11485301 -15.73352051 88.41656494 C-36.68450226 84.56590381 -57.4725007 79.67461761 -78 74 C-78 73.34 -78 72.68 -78 72 C-76.2065918 72.02356567 -76.2065918 72.02356567 -74.37695312 72.04760742 C-29.34628969 72.97992095 -29.34628969 72.97992095 15 66 C15.33 65.67 15.66 65.34 16 65 C14.46182617 64.85751831 14.46182617 64.85751831 12.89257812 64.7121582 C-48.11590132 58.99078927 -106.6396411 41.33416265 -147.63476562 -7.29394531 C-154.18380622 -15.47790376 -161.52968855 -25.32185033 -161.0625 -36.25 C-159.72860364 -40.9578695 -158.05130999 -42.35106655 -154 -45 C-111.00486419 -66.4975679 -33.82836845 -25.42562245 0 0 Z M-127 -24 C-126.23254742 -15.64329412 -120.35157641 -10.78327352 -114.29882812 -5.52099609 C-88.59672339 15.78247352 -52.11340235 33.10572647 -18.25 33.3125 C-17.47479004 33.31805908 -16.69958008 33.32361816 -15.90087891 33.3293457 C-12.08753814 33.27978329 -10.2425698 33.1617132 -7 31 C-8.27079298 22.39998242 -15.12637927 17.61654445 -21.75 12.6875 C-48.93884935 -6.96445545 -87.47007882 -27.22695265 -121.85546875 -26.37109375 C-124.29031282 -26.09874591 -124.29031282 -26.09874591 -127 -24 Z M20 42 C20.89988841 47.81070803 25.50797682 50.6761437 30 54 C41.49461264 61.38320626 54.89357986 67.17278076 68.75 67.125 C69.88695312 67.12886719 69.88695312 67.12886719 71.046875 67.1328125 C73.07999228 67.12062981 73.07999228 67.12062981 75 66 C74.53201643 61.78814784 72.10091911 59.59245431 69 57 C58.17083591 48.40926648 34.20002554 33.95331886 20 42 Z " fill="#000000" transform="translate(200,344)"/>
<path d="M0 0 C0.88558594 -0.01224609 1.77117187 -0.02449219 2.68359375 -0.03710938 C11.28739332 -0.05606048 18.54723274 0.76094994 25.5 6.1875 C28.1781634 8.8656634 28.22119442 10.42362471 28.5 14.1875 C26.54618147 25.91041117 20.13047389 34.37579617 12.5 43.1875 C11.96117187 43.84878906 11.42234375 44.51007813 10.8671875 45.19140625 C7.75139023 48.99676522 4.34940514 52.21781677 0.59765625 55.39453125 C-0.75383544 56.54971688 -2.08193482 57.73313951 -3.37890625 58.94921875 C-43.88449692 96.7597212 -95.09755284 108.41863949 -148.5 113.1875 C-144.7326443 114.86066713 -141.27315154 115.6604133 -137.1953125 116.22265625 C-135.35839844 116.47692383 -135.35839844 116.47692383 -133.484375 116.73632812 C-132.21078125 116.90583984 -130.9371875 117.07535156 -129.625 117.25 C-128.39007812 117.42337891 -127.15515625 117.59675781 -125.8828125 117.77539062 C-109.22850645 120.03933535 -92.83499777 120.32046709 -76.0625 120.25 C-73.9628917 120.24497197 -71.86328223 120.24041138 -69.76367188 120.23632812 C-64.67575168 120.22543267 -59.58788919 120.20824085 -54.5 120.1875 C-55.5 122.1875 -55.5 122.1875 -58.01489258 123.05371094 C-59.13017334 123.34020508 -60.2454541 123.62669922 -61.39453125 123.921875 C-62.64540527 124.24567139 -63.8962793 124.56946777 -65.18505859 124.90307617 C-66.56065765 125.24873984 -67.93647782 125.59352456 -69.3125 125.9375 C-70.00982239 126.11391022 -70.70714478 126.29032043 -71.42559814 126.47207642 C-190.14888397 156.48737975 -190.14888397 156.48737975 -228.0625 134.8125 C-231.54549116 132.36777893 -233.7391959 130.14930922 -235.5 126.1875 C-237.26195165 114.55127764 -232.47131911 105.88195113 -225.83618164 96.72045898 C-214.24946635 81.33720136 -199.87798103 68.50939142 -184.65112305 56.84423828 C-182.98394365 55.56022064 -181.32567901 54.26462377 -179.67114258 52.96435547 C-171.66767199 46.69750244 -163.41508061 40.91722998 -154.9375 35.3125 C-154.28658386 34.88029144 -153.63566772 34.44808289 -152.96502686 34.0027771 C-136.88788917 23.33468038 -120.38222793 13.52459813 -103.5 4.1875 C-103.17 4.8475 -102.84 5.5075 -102.5 6.1875 C-103.23863281 6.72117187 -103.97726562 7.25484375 -104.73828125 7.8046875 C-111.15293911 12.51583394 -117.15139788 17.42637345 -122.984375 22.859375 C-125.11140001 24.82786398 -127.27902538 26.70265946 -129.5 28.5625 C-142.69300851 40.08958891 -154.65822222 55.08807434 -163.5 70.1875 C-163.5 70.8475 -163.5 71.5075 -163.5 72.1875 C-161.64418582 70.77295024 -159.79002312 69.35635224 -157.9375 67.9375 C-157.35323242 67.49003418 -156.76896484 67.04256836 -156.16699219 66.58154297 C-152.4291641 63.70636678 -148.74287816 60.77694915 -145.0847168 57.80126953 C-104.70711432 25.03711518 -52.95844975 0.03854327 0 0 Z M-123.5 72.1875 C-125.80075262 74.95495084 -125.80075262 74.95495084 -125.25 77.8125 C-125.0025 78.59625 -124.755 79.38 -124.5 80.1875 C-111.20132309 86.83683845 -87.75462797 78.01771975 -74.78198242 73.84130859 C-51.53218594 65.92051782 -21.31846101 51.72088509 -7.0625 30.6875 C-5.27079755 27.49024089 -5.27079755 27.49024089 -5.77734375 25.03125 C-6.34078974 22.98812622 -6.34078974 22.98812622 -8.5 22.1875 C-46.83894797 18.01129317 -97.21334541 46.10661179 -123.5 72.1875 Z M-197.046875 101.42578125 C-203.54138476 105.69578742 -203.54138476 105.69578742 -207.4375 112.0625 C-207.458125 112.76375 -207.47875 113.465 -207.5 114.1875 C-200.28248786 117.79625607 -189.95084955 114.16945356 -182.63916016 111.92382812 C-172.5926868 108.46569486 -161.790365 103.02542461 -154.5 95.1875 C-153.23317752 92.56589238 -153.23317752 92.56589238 -152.5 90.1875 C-166.96874553 85.08418278 -185.04766341 93.33859332 -197.046875 101.42578125 Z " fill="#000000" transform="translate(947.5,295.8125)"/>
<path d="M0 0 C19.07830079 6.79058164 31.66933867 29.20947688 41 46 C41.4316748 46.76908691 41.86334961 47.53817383 42.30810547 48.33056641 C64.11371609 87.49087317 72.47863907 128.06518025 75.35400391 172.40649414 C75.46107666 174.02672485 75.46107666 174.02672485 75.5703125 175.6796875 C75.62977051 176.63601074 75.68922852 177.59233398 75.75048828 178.57763672 C75.92565662 181.13923672 75.92565662 181.13923672 77 184 C79.4937386 175.64534278 81.40969151 167.37541145 82.6875 158.75 C82.80649658 157.94788086 82.92549316 157.14576172 83.0480957 156.31933594 C84.60871391 145.270114 85.16438992 134.41000913 85.125 123.25 C85.12411377 122.59134949 85.12322754 121.93269897 85.12231445 121.25408936 C85.10736023 111.79985532 84.92470583 102.41218431 84 93 C84.66 93.33 85.32 93.66 86 94 C86.6933581 96.3972957 87.26006571 98.73395 87.76953125 101.171875 C87.9308252 101.91287445 88.09211914 102.6538739 88.25830078 103.41732788 C88.78620064 105.85956167 89.30026122 108.30443661 89.8125 110.75 C89.98985687 111.58577576 90.16721375 112.42155151 90.34994507 113.28265381 C96.76329202 143.52201308 102.11054631 174.03218753 103 205 C103.03287109 206.01368652 103.03287109 206.01368652 103.06640625 207.04785156 C103.63865049 227.10501224 103.96794625 252.52808847 91 269 C87.36737073 272.63262927 84.3597469 273.31345332 79.375 273.625 C61.4833685 272.98205413 46.12653407 255.64600559 34.5625 243.375 C9.09284696 215.39386498 -10.77482557 181.36391122 -28.4375 148.125 C-28.91646729 147.23312988 -29.39543457 146.34125977 -29.88891602 145.42236328 C-30.31615967 144.60493652 -30.74340332 143.78750977 -31.18359375 142.9453125 C-31.74904907 141.87047607 -31.74904907 141.87047607 -32.32592773 140.77392578 C-32.65959351 139.89583252 -32.65959351 139.89583252 -33 139 C-32.505 138.01 -32.505 138.01 -32 137 C-30.31129226 138.83223263 -28.62402822 140.66576277 -26.9375 142.5 C-26.23850586 143.25796875 -26.23850586 143.25796875 -25.52539062 144.03125 C-22.90030687 146.88848402 -20.32766345 149.77812928 -17.80078125 152.72265625 C-13.62284415 157.5116775 -9.1698095 162.01626312 -4.67675781 166.50854492 C-3.26080053 167.92668284 -1.85301711 169.35296665 -0.4453125 170.77929688 C5.72374176 176.96123913 12.15947534 182.57658908 19 188 C20.09287898 188.89866522 21.18339145 189.80023249 22.26953125 190.70703125 C26.71331159 194.38629024 31.09687609 197.95211216 36 201 C32.77412429 195.82976085 29.22837366 190.95560713 25.48681641 186.15161133 C-9.3803396 141.34492631 -27.49404799 87.42823119 -21.49609375 30.37890625 C-20.17914435 20.48574982 -18.03831357 9.43060866 -10.625 2.25 C-7.03654442 -0.36965008 -4.44327203 -0.77952141 0 0 Z M4 35 C-1.53437644 40.74723707 -0.31798742 49.48507882 -0.2109375 56.92578125 C0.85680024 91.17907166 14.64364166 130.68733402 38.046875 156.234375 C39.98404999 158.13349651 39.98404999 158.13349651 43 160 C45.09913261 159.92053297 45.09913261 159.92053297 47 159 C53.02882798 149.95675804 48.80275386 132.41743875 46.83642578 122.28808594 C40.76571647 93.11794349 30.46200624 55.18823793 7 35 C6.01 35 5.02 35 4 35 Z M55 188 C52.78075776 190.21924224 53.68852834 194.67263915 53.68530273 197.65991211 C53.99205875 213.2282337 60.851913 230.87789921 72 242 C74.10302011 243.22747317 74.10302011 243.22747317 76 244 C78.74391496 241.25608504 78.33160152 239.65326579 78.375 235.8125 C78.0639604 218.86084205 71.25599007 201.90306425 59.76171875 189.40625 C57.98491935 187.68807532 57.98491935 187.68807532 55 188 Z " fill="#000000" transform="translate(332,32)"/>
<path d="M0 0 C0.75073792 0.00432037 1.50147583 0.00864075 2.27496338 0.01309204 C45.05158033 0.29846461 87.17217291 9.91054877 128.1875 21.375 C128.1875 21.705 128.1875 22.035 128.1875 22.375 C127.60709961 22.36976318 127.02669922 22.36452637 126.42871094 22.35913086 C79.91070834 21.8147418 79.91070834 21.8147418 34.1875 29.375 C37.32085247 30.41945082 39.98170795 30.70465326 43.26953125 30.98828125 C44.5006665 31.09954346 45.73180176 31.21080566 47.00024414 31.32543945 C47.65251984 31.38398102 48.30479553 31.44252258 48.97683716 31.50283813 C105.10171484 36.6255719 160.47427718 57.95581368 197.59375 102.24609375 C203.68791959 110.05678778 211.39080963 120.00620874 211.1875 130.375 C209.99395161 134.77620969 208.87445297 136.82245087 205.3125 139.6875 C180.32435672 151.99666994 140.64665509 138.4923407 116.3125 130.3125 C90.02587553 121.10633468 65.82595469 107.87055496 44.1875 90.375 C42.93839844 89.37919922 42.93839844 89.37919922 41.6640625 88.36328125 C40.0666113 87.08893911 38.47151738 85.81163588 36.87890625 84.53125 C33.49318959 81.81874551 30.09338323 79.12461904 26.6875 76.4375 C26.07527588 75.95224854 25.46305176 75.46699707 24.83227539 74.96704102 C21.66336927 72.43757095 21.66336927 72.43757095 18.1875 70.375 C23.60912618 80.78452226 30.59752042 89.48727703 38.1875 98.375 C38.96222656 99.2825 39.73695313 100.19 40.53515625 101.125 C42.70540264 103.59137347 44.9254022 105.99250022 47.1875 108.375 C47.68830078 108.90303223 48.18910156 109.43106445 48.70507812 109.97509766 C55.54829872 117.13947293 62.54751867 123.78498298 70.48120117 129.73608398 C74.03175012 132.40070547 77.12775232 135.17850382 80.1875 138.375 C76.20343997 137.14701643 72.72302943 135.7100792 69.125 133.609375 C68.17439697 133.05620605 67.22379395 132.50303711 66.24438477 131.93310547 C65.23561279 131.33643066 64.22684082 130.73975586 63.1875 130.125 C62.13167725 129.50383301 61.07585449 128.88266602 59.98803711 128.24267578 C38.51056469 115.52632044 17.76414444 101.87210779 -1.8125 86.375 C-2.74449219 85.63765625 -3.67648437 84.9003125 -4.63671875 84.140625 C-11.63702207 78.50842661 -18.29221042 72.54902575 -24.8125 66.375 C-25.35197266 65.86952637 -25.89144531 65.36405273 -26.44726562 64.84326172 C-37.29972034 54.6188721 -51.69069815 40.64246413 -53.015625 24.97265625 C-53.17599925 16.29908245 -53.17599925 16.29908245 -49.8125 12.375 C-37.3760925 -0.0614075 -16.55581068 -0.18333382 0 0 Z M-23.8125 28.375 C-24.5571917 30.20464806 -24.5571917 30.20464806 -24.8125 32.375 C-17.82508776 44.11385256 0.32950282 50.46679788 12.8125 53.6875 C18.07774064 54.72296476 25.27717504 55.83016248 30.1875 53.375 C29.46891687 48.31069987 26.09431308 45.96433387 22.38671875 42.75390625 C8.94896962 32.76173382 -7.07197235 27.37390532 -23.8125 28.375 Z M57.1875 63.375 C56.99946675 66.04415497 56.89915014 67.84317963 58.19140625 70.2265625 C82.69930087 98.11273833 129.25905229 116.79477992 165.1875 121.375 C170.31137949 121.62733175 172.9917806 121.42643229 177.1875 118.375 C176.20914084 110.01447625 168.38305998 104.21688748 162.3125 99 C135.67079848 78.01966005 98.961872 60.4620938 64.34375 61.0390625 C61.75858203 61.44182418 59.57531287 62.32402602 57.1875 63.375 Z " fill="#000000" transform="translate(764.8125,569.625)"/>
<path d="M0 0 C6.93670578 4.16202347 9.85791827 10.8202652 11.94140625 18.4453125 C22.67743881 66.4722021 10.23154812 120.79069869 -15.50390625 162.0859375 C-20.65051328 170.08501748 -26.39604675 177.66563752 -32.1484375 185.234375 C-35.8451296 190.09883503 -39.42900769 195.04262244 -43 200 C-33.33346593 195.05932703 -25.41420653 187.49599248 -17.4453125 180.2265625 C-15.86894026 178.79120759 -14.28113039 177.3682661 -12.6796875 175.9609375 C-2.14325003 166.67635399 7.93988273 156.73623897 17 146 C18.4752206 144.32983953 19.95448461 142.66324296 21.4375 141 C22.11683594 140.236875 22.79617188 139.47375 23.49609375 138.6875 C23.99238281 138.130625 24.48867188 137.57375 25 137 C25.33 137.66 25.66 138.32 26 139 C25.32592773 140.77392578 25.32592773 140.77392578 24.18359375 142.9453125 C23.75651123 143.76249756 23.32942871 144.57968262 22.8894043 145.42163086 C22.41027588 146.31374268 21.93114746 147.20585449 21.4375 148.125 C20.69463745 149.52214233 20.69463745 149.52214233 19.93676758 150.94750977 C7.05106999 174.95786625 -6.84901662 198.69428094 -23.61816406 220.21679688 C-24.96896191 221.95994661 -26.29628247 223.71850196 -27.6171875 225.484375 C-32.35286156 231.78886101 -37.33320688 237.75054159 -42.7109375 243.51953125 C-44.65791807 245.62931395 -46.48857442 247.78523322 -48.3125 250 C-56.67914666 259.59007141 -69.84515383 271.82460731 -82.90234375 273.3359375 C-93.3010126 273.4697685 -93.3010126 273.4697685 -98 269 C-114.03437224 250.67500315 -111.04934833 216.56004471 -109.6750946 194.01493835 C-107.3866593 159.78954652 -100.84067441 126.33634335 -93 93 C-92.34 93 -91.68 93 -91 93 C-91.10393066 93.99918457 -91.10393066 93.99918457 -91.20996094 95.01855469 C-92.06797417 104.09639571 -92.24188561 113.14028693 -92.25 122.25 C-92.25100708 123.03935944 -92.25201416 123.82871887 -92.25305176 124.64199829 C-92.39167655 155.0940613 -92.39167655 155.0940613 -84 184 C-82.81705781 180.12838224 -82.64877416 176.18956018 -82.38671875 172.17578125 C-82.27494474 170.58564446 -82.16244825 168.99555834 -82.04931641 167.40551758 C-81.99076477 166.57404205 -81.93221313 165.74256653 -81.87188721 164.88589478 C-77.85029189 108.75861484 -61.56041 48.03206425 -19.76171875 7.5 C-13.79365304 2.41854272 -8.01728823 -0.81531745 0 0 Z M-18.53222656 38.46240234 C-26.74828795 47.06931429 -32.05448941 59.29531527 -37 70 C-37.33386719 70.71752441 -37.66773438 71.43504883 -38.01171875 72.17431641 C-48.97968274 96.05905407 -63.03107699 132.54468756 -55 159 C-52.11316386 160.01916913 -52.11316386 160.01916913 -49.24951172 159.22583008 C-45.16852737 156.17067657 -41.99990722 152.920103 -39.125 148.6875 C-38.70428223 148.07994873 -38.28356445 147.47239746 -37.85009766 146.84643555 C-21.88039561 123.3585879 -12.35766675 96.99963488 -8 69 C-7.86851562 68.18917969 -7.73703125 67.37835938 -7.6015625 66.54296875 C-5.42515426 50.72262211 -5.42515426 50.72262211 -10 36 C-13.65668557 33.80928297 -15.6633051 35.84471411 -18.53222656 38.46240234 Z M-67.3125 189.9375 C-79.86491186 203.42946364 -85.42494741 220.8667863 -85.203125 238.9453125 C-85.20345874 241.91548521 -85.20345874 241.91548521 -84 244 C-76.40288414 241.64318243 -72.96345459 234.5539876 -69.29296875 227.91015625 C-63.43676023 215.91604816 -59.72534209 203.43614811 -61 190 C-61.33 189.34 -61.66 188.68 -62 188 C-65.11955303 187.67889007 -65.11955303 187.67889007 -67.3125 189.9375 Z " fill="#000000" transform="translate(690,32)"/>
<path d="M0 0 C9.63351182 6.35401843 12.19723315 16.31437456 14.65625 27.0859375 C21.96549965 67.17932159 14.22426124 110.24686507 6.375 149.75 C6.23333405 150.46785675 6.09166809 151.1857135 5.94570923 151.92532349 C4.05880335 161.40771961 1.73666966 170.68275098 -1.0625 179.9375 C-2.04105723 176.78124444 -2.03679327 174.36901346 -1.640625 171.1015625 C0.86203048 146.72892737 2.17105936 111.40461872 -9.0625 88.9375 C-10.58328385 91.9790677 -10.46036277 95.22038764 -10.67578125 98.56640625 C-10.78760269 100.16296855 -10.90009771 101.75948379 -11.01318359 103.35595703 C-11.10101105 104.61548187 -11.10101105 104.61548187 -11.19061279 105.90045166 C-15.14501396 161.65083241 -30.33827722 219.43125601 -70.0625 260.9375 C-70.67996094 261.60652344 -71.29742187 262.27554687 -71.93359375 262.96484375 C-77.08493021 268.39153004 -81.48714432 272.08385404 -89.1875 272.4375 C-92.32835759 272.27594303 -94.01163564 271.96236702 -96.875 270.5625 C-112.13517054 252.25029535 -109.53472829 221.01899067 -107.6015625 198.6015625 C-104.68624624 171.63719354 -96.91432944 145.78094298 -84.0625 121.9375 C-83.44761719 120.77992188 -82.83273437 119.62234375 -82.19921875 118.4296875 C-73.21750229 102.10267498 -61.59977535 87.50832745 -50.0625 72.9375 C-53.16953237 73.53358456 -55.05385041 74.46135764 -57.49609375 76.45703125 C-58.13828857 76.9785376 -58.7804834 77.50004395 -59.44213867 78.03735352 C-60.12123291 78.60252686 -60.80032715 79.1677002 -61.5 79.75 C-62.20938721 80.33386475 -62.91877441 80.91772949 -63.6496582 81.51928711 C-69.79421385 86.62127218 -75.67448406 91.96929266 -81.47705078 97.45361328 C-83.09239086 98.96547608 -84.72776352 100.45223447 -86.37109375 101.93359375 C-97.95800706 112.402158 -108.07247634 123.95720083 -118.0625 135.9375 C-119.0625 132.9375 -119.0625 132.9375 -117.98950195 130.34399414 C-117.43222412 129.31395264 -116.87494629 128.28391113 -116.30078125 127.22265625 C-115.68275635 126.0718457 -115.06473145 124.92103516 -114.42797852 123.73535156 C-113.74439721 122.48982528 -113.06005291 121.24471749 -112.375 120 C-111.67808134 118.71984778 -110.98138709 117.43957336 -110.28491211 116.15917969 C-53.69390317 12.55844832 -53.69390317 12.55844832 -12.49609375 -0.4765625 C-7.85918764 -1.59299254 -4.49612816 -1.5598812 0 0 Z M-13.82421875 30.34375 C-26.29278784 43.89984134 -32.69393662 61.89426773 -32.30078125 80.20703125 C-32.23439106 82.90018574 -32.23439106 82.90018574 -31.0625 84.9375 C-22.86916595 82.19706745 -19.26807217 74.6693001 -15.375 67.375 C-9.7577304 55.99595013 -6.83726036 43.67195793 -8.0625 30.9375 C-8.3925 30.2775 -8.7225 29.6175 -9.0625 28.9375 C-12.04741935 28.62557532 -12.04741935 28.62557532 -13.82421875 30.34375 Z M-48.79296875 117.515625 C-73.21523289 143.57724938 -86.03344498 184.92731797 -86.4375 220.125 C-86.45143799 220.89070313 -86.46537598 221.65640625 -86.47973633 222.4453125 C-86.43387265 227.86794832 -85.19590952 231.9539005 -83.0625 236.9375 C-79.9504075 237.27423601 -78.51724303 237.27328428 -75.95703125 235.3828125 C-50.32432781 206.81653512 -35.69445713 158.62065808 -36.69140625 120.7890625 C-37.00745831 117.50877475 -37.26778699 115.63317336 -39.0625 112.9375 C-44.12282653 112.9375 -45.21641622 114.19785827 -48.79296875 117.515625 Z " fill="#000000" transform="translate(418.0625,704.0625)"/>
<path d="M0 0 C1.83148839 5.24308441 -0.72921899 9.23824104 -3 14 C-14.6955 36.25689092 -34.15315222 56.78230975 -54 72 C-54.53786133 72.41958984 -55.07572266 72.83917969 -55.62988281 73.27148438 C-63.08513901 79.06484852 -70.77865076 84.24385584 -78.9375 89 C-79.71802734 89.45681152 -80.49855469 89.91362305 -81.30273438 90.38427734 C-93.83183001 97.52350797 -93.83183001 97.52350797 -101 97.1875 C-102.1446875 97.14689453 -102.1446875 97.14689453 -103.3125 97.10546875 C-104.1478125 97.05326172 -104.1478125 97.05326172 -105 97 C-105.31083673 78.66063283 -81.89985739 59.34109958 -70 47 C-65.18292423 42.09016598 -60.22613766 37.47203054 -55 33 C-54.08734375 32.19820312 -53.1746875 31.39640625 -52.234375 30.5703125 C-11.90523613 -4.57893697 -11.90523613 -4.57893697 0 0 Z " fill="#000000" transform="translate(908,129)"/>
<path d="M0 0 C19.12609135 -1.59384095 37.81134631 14.76193715 52 26 C52.56960449 26.45101074 53.13920898 26.90202148 53.72607422 27.36669922 C67.81576272 38.6459779 80.36739261 51.41360072 91 66 C91.41507813 66.56493164 91.83015625 67.12986328 92.2578125 67.71191406 C105.32268383 85.61448539 105.32268383 85.61448539 106 96 C101.65266626 98.1013382 101.65266626 98.1013382 98.88671875 97.671875 C84.60565034 91.68549464 72.50880274 82.38383614 60.75878906 72.47070312 C58.39711802 70.49586882 55.97626785 68.5980957 53.5625 66.6875 C33.2867502 50.04004227 11.88322155 29.76644311 0 6 C-0.039992 4.00039988 -0.04346799 1.99952758 0 0 Z " fill="#000000" transform="translate(803,784)"/>
<path d="M0 0 C22.34245869 2.83713761 44.11410669 25.31493012 60 40 C61.02384814 40.92156426 62.04864474 41.84207553 63.07421875 42.76171875 C103.03950881 78.79795445 103.03950881 78.79795445 104.19921875 94.73828125 C104 97 104 97 103 98 C87.95867323 100.06449583 71.34962337 86.85295842 59.91674805 78.29321289 C57.24088728 76.24040295 54.61613834 74.12810755 52 72 C51.47873535 71.58169922 50.9574707 71.16339844 50.42041016 70.73242188 C36.30062549 59.36020059 23.68552256 46.65899125 13 32 C12.37738281 31.15260254 12.37738281 31.15260254 11.7421875 30.28808594 C-1.79718085 11.73531941 -1.79718085 11.73531941 -2 2 C-1.34 1.34 -0.68 0.68 0 0 Z " fill="#000000" transform="translate(115,128)"/>
<path d="M0 0 C1.21236328 0.01353516 1.21236328 0.01353516 2.44921875 0.02734375 C3.37154297 0.04474609 3.37154297 0.04474609 4.3125 0.0625 C5.02607929 10.34107831 -2.92336695 18.81914414 -9.23828125 26.28125 C-12.74519307 30.26358049 -16.30810035 34.18911127 -19.921875 38.07421875 C-22.61517357 40.9705535 -25.24237988 43.92339677 -27.875 46.875 C-31.24332469 50.58174349 -34.67873437 53.98074088 -38.51171875 57.19921875 C-40.68515493 59.06049175 -42.7731401 60.9985576 -44.85888672 62.95703125 C-82.39417614 98.0625 -82.39417614 98.0625 -99.6875 98.0625 C-100.3475 97.4025 -101.0075 96.7425 -101.6875 96.0625 C-101.6875 75.8232878 -77.50680945 53.73154666 -64.3125 40.375 C-57.20141547 33.30323799 -49.85868929 26.87453658 -41.6875 21.0625 C-40.99543457 20.56911133 -40.30336914 20.07572266 -39.59033203 19.56738281 C-11.60584318 -0.16820063 -11.60584318 -0.16820063 0 0 Z " fill="#000000" transform="translate(214.6875,783.9375)"/>
<path d="M0 0 C1.05708776 3.69980714 1.27922368 5.42941248 -0.4375 8.9375 C-9.46086871 19.72152602 -21.93503432 26.54500355 -36 28 C-42.32837721 28.3013513 -48.47634991 28.13554551 -54.0625 24.75 C-55.56113366 21.95255051 -54.78372805 20.00182631 -54 17 C-42.99470496 3.15686158 -17.13353658 -7.21412067 0 0 Z " fill="#000000" transform="translate(698,426)"/>
<path d="M0 0 C6.50585279 3.49700682 13.73179337 8.12900363 16.5625 15.25 C16.39551349 18.00527738 15.83123293 18.98126707 13.875 20.9375 C6.86263008 24.91749374 -2.74264837 23.65013333 -10.37890625 22.125 C-21.773475 18.86525109 -32.7840248 12.2302128 -39.4375 2.25 C-39.5625 -0.9375 -39.5625 -0.9375 -39.4375 -3.75 C-26.97773639 -10.25074623 -12.10068063 -5.65625685 0 0 Z " fill="#000000" transform="translate(355.4375,430.75)"/>
<path d="M0 0 C2.41721534 2.35360441 2.9743401 3.81182737 3.43359375 7.1796875 C3.45176798 24.37250826 -1.85334531 38.49996582 -13.32421875 51.4765625 C-16.01199866 53.91999878 -18.11549487 54.95979522 -21.75 55.125 C-22.4925 55.08375 -23.235 55.0425 -24 55 C-28.8626287 46.49039978 -28.04954122 37.01380676 -25.61181641 27.79199219 C-22.27658775 16.66036711 -16.28398653 8.05582976 -7 1 C-4.4254716 -0.2872642 -2.85291355 -0.34791629 0 0 Z " fill="#000000" transform="translate(445,635)"/>
<path d="M0 0 C8.31926769 2.45486588 12.93990079 9.02196433 17.2734375 16.21484375 C23.04299172 27.12428003 26.05727388 39.70709796 22.8125 51.875 C22.4825 52.6175 22.1525 53.36 21.8125 54.125 C18.05099055 55.19971698 16.36696142 55.40223071 12.8125 53.625 C6.66232774 48.49985645 3.13497307 43.22237448 -0.4375 36.1875 C-0.77894043 35.51944336 -1.12038086 34.85138672 -1.47216797 34.16308594 C-5.16416868 26.62471515 -6.53693198 19.68128735 -6.5 11.3125 C-6.51611328 10.56291016 -6.53222656 9.81332031 -6.54882812 9.04101562 C-6.55361842 3.68067677 -6.55361842 3.68067677 -4.8671875 1.12109375 C-3.1875 0.125 -3.1875 0.125 0 0 Z " fill="#000000" transform="translate(573.1875,634.875)"/>
<path d="M0 0 C11.96281512 8.19706805 11.96281512 8.19706805 13.8984375 13.8125 C14.1875 15.75 14.1875 15.75 14.1875 18.75 C11.1726543 21.69455137 8.66122897 22.14853942 4.50244141 22.21826172 C3.77976074 22.20811035 3.05708008 22.19795898 2.3125 22.1875 C1.18400635 22.17614014 1.18400635 22.17614014 0.03271484 22.16455078 C-14.26384692 21.75125073 -28.80571481 16.21163906 -38.8125 5.75 C-40.97181309 2.98338011 -41.77136545 1.61382562 -41.9375 -1.875 C-40.8125 -4.25 -40.8125 -4.25 -38.1875 -6.0625 C-25.55362334 -10.56720192 -11.05132842 -6.64295807 0 0 Z " fill="#000000" transform="translate(684.8125,562.25)"/>
<path d="M0 0 C1.125 1.875 1.125 1.875 1 4 C-4.90857434 15.17690068 -16.5751674 21.08645446 -28.1875 24.875 C-33.09330898 26.07993554 -37.90904586 26.30790424 -42.9375 26.375 C-44.03904419 26.39602783 -44.03904419 26.39602783 -45.1628418 26.41748047 C-49.38161125 26.3794867 -51.94824415 26.0119157 -55 23 C-54.78182496 17.65471152 -53.66809858 14.66987796 -49.98828125 10.76171875 C-42.96084192 4.53504854 -34.92900758 0.69172676 -26 -2 C-25.38640625 -2.19335938 -24.7728125 -2.38671875 -24.140625 -2.5859375 C-16.51354051 -4.06124946 -6.63289546 -4.42193031 0 0 Z " fill="#000000" transform="translate(371,558)"/>
<path d="M0 0 C6.98291633 1.58103766 11.14028517 7.14416254 15 12.875 C20.95486361 22.7407237 24.40791982 32.80725039 24.625 44.3125 C24.66238281 45.61316406 24.69976562 46.91382813 24.73828125 48.25390625 C24.3125 51.75 24.3125 51.75 22.29296875 54.21484375 C21.63941406 54.72144531 20.98585938 55.22804688 20.3125 55.75 C11.61200856 53.70282554 7.37264049 49.12214965 2.24609375 41.90234375 C-3.2393821 32.95935584 -5.8125823 23.65980874 -5.9375 13.25 C-5.96328125 11.9609375 -5.9890625 10.671875 -6.015625 9.34375 C-5.59034125 4.68588038 -4.76425774 1.3295603 0 0 Z " fill="#000000" transform="translate(423.6875,318.25)"/>
<path d="M0 0 C4.54830637 6.63294678 3.71732956 14.50139836 2.49609375 22.16015625 C-0.4214015 35.08049236 -6.82239621 46.42432674 -18 54 C-20.5 54.9375 -20.5 54.9375 -23 55 C-25.125 53.46875 -25.125 53.46875 -27 51 C-27.41067106 48.34573631 -27.57183523 46.20566014 -27.5 43.5625 C-27.48296021 42.50168213 -27.48296021 42.50168213 -27.46557617 41.41943359 C-27.21538363 34.52403415 -25.56997156 28.39956735 -23 22 C-22.649375 21.11699219 -22.29875 20.23398437 -21.9375 19.32421875 C-17.85156585 10.20180327 -10.7457652 -0.47758956 0 0 Z " fill="#000000" transform="translate(594,319)"/>
</svg>
