<?xml version="1.0" encoding="UTF-8"?>
<svg version="1.1" xmlns="http://www.w3.org/2000/svg" width="1024" height="1024">
<path d="M0 0 C3.88889425 1.29629808 4.166712 2.6003561 6.08203125 6.16015625 C6.97438477 7.79694336 6.97438477 7.79694336 7.88476562 9.46679688 C8.35523315 10.34452759 8.35523315 10.34452759 8.83520508 11.23999023 C10.50232181 14.34891514 12.20024539 17.44098048 13.89453125 20.53515625 C14.23936554 21.16676666 14.58419983 21.79837708 14.93948364 22.4491272 C18.17893543 28.3670254 21.57090559 34.1901217 25 40 C30.65616368 49.61363533 36.1215344 59.32241464 41.5 69.09399414 C44.48700796 74.5130662 47.50705512 79.90302946 50.6484375 85.234375 C51.49801025 86.68324097 51.49801025 86.68324097 52.36474609 88.16137695 C53.42751183 89.96560346 54.50023909 91.76401213 55.58447266 93.55541992 C56.05159668 94.35052979 56.5187207 95.14563965 57 95.96484375 C57.4125 96.6518335 57.825 97.33882324 58.25 98.04663086 C59.18170286 100.47324368 58.95914007 101.61260971 58 104 C56.1796875 105.45703125 56.1796875 105.45703125 53.875 106.8125 C38.19952192 116.7832946 31.48851488 133.25801163 27.578125 150.83203125 C22.7293498 177.40200888 27.26389077 204.46319564 30.98236418 230.86485624 C31.690357 235.92046568 32.37655307 240.97903971 33.06558228 246.03726196 C34.22125827 254.49882618 35.39113432 262.95832058 36.57128906 271.41650391 C38.08427846 282.26052238 39.57428544 293.10756928 41.05695152 303.95577049 C42.33855591 313.33242646 43.62923295 322.70782988 44.92206621 332.08294344 C45.33492826 335.07861458 45.74680118 338.07442068 46.15864182 341.07023239 C46.80513824 345.76785075 47.4572655 350.46465585 48.11374855 355.16088867 C48.35330919 356.87994228 48.59117639 358.59923288 48.82720375 360.31877518 C49.15018355 362.66921191 49.47947127 365.0186818 49.81039429 367.36801147 C49.90184231 368.0437746 49.99329034 368.71953772 50.08750951 369.41577852 C50.93617787 377.10892631 50.93617787 377.10892631 54.62109375 383.5234375 C64.54326078 388.17512011 72.2243122 387.87476465 82.58984375 384.37109375 C114.21503965 371.6558088 141.45551691 340.40492951 154.875 309.6875 C160.22077522 296.08007218 160.56209652 283.03315542 154.8984375 269.3359375 C154 267 154 267 154 264 C154.70680908 263.83508057 155.41361816 263.67016113 156.1418457 263.50024414 C181.62396701 257.49419817 206.13707119 249.87479447 230 239 C231.5585505 238.30849626 233.11714365 237.61708865 234.67578125 236.92578125 C259.14791609 225.8854879 281.6948394 211.12217279 302.92773438 194.78076172 C305.83957503 192.54922174 308.61406107 190.45111668 312 189 C308.75074069 192.88105974 305.4146001 196.64079031 301.94628906 200.32836914 C264.89655524 239.84209012 241.91498012 286.4489355 230 339 C225.89595065 338.23750854 222.27094887 337.01264832 218.375 335.5 C203.71863092 330.23834825 190.60367582 331.71376034 176.48046875 338.171875 C170.59076056 341.2654591 165.28800692 344.99516207 160 349 C159.14535156 349.63035156 158.29070313 350.26070313 157.41015625 350.91015625 C142.58676709 362.39885386 129.30607217 376.34520684 119 392 C118.40058594 392.8765625 117.80117188 393.753125 117.18359375 394.65625 C110.43439211 405.07607007 106.40467358 416.51788562 108 429 C110.22050689 435.5446519 114.93116226 439.87499228 121 443 C124.37909199 443.80150249 124.37909199 443.80150249 128.1862793 444.25830078 C128.91658922 444.36009014 129.64689915 444.4618795 130.39933968 444.56675339 C132.89380334 444.91186123 135.39014699 445.24082654 137.88671875 445.5703125 C139.72302835 445.82115543 141.5591792 446.0731627 143.39518738 446.32620239 C147.56567115 446.89974639 151.73693478 447.4672016 155.90863037 448.03186035 C163.64416496 449.08303892 171.37411906 450.17291752 179.10400391 451.26464844 C192.63416496 453.17440159 206.16773803 455.05833362 219.70404243 456.92403793 C227.57258039 458.00902982 235.43993825 459.10149303 243.30493164 460.21191406 C250.30625149 461.20038231 257.30940446 462.1744935 264.31497401 463.13239586 C267.97484088 463.63327133 271.63357648 464.14017751 275.29014015 464.66466904 C303.71661188 468.73288727 333.69330752 472.02842905 361 461 C361.98355469 460.60296875 362.96710937 460.2059375 363.98046875 459.796875 C375.53663839 454.5943562 384.77142812 446.06391057 391 435 C394.86935194 435.59138567 397.71555664 436.74230778 401.11328125 438.66796875 C402.59513916 439.5021936 402.59513916 439.5021936 404.10693359 440.35327148 C405.69368896 441.2612146 405.69368896 441.2612146 407.3125 442.1875 C408.42189941 442.815354 409.53129883 443.44320801 410.67431641 444.09008789 C419.1040485 448.87577303 427.47343516 453.76357316 435.83081055 458.67431641 C444.47933308 463.73930598 453.2383839 468.59196533 462.0144043 473.43164062 C472.80637083 479.40336813 483.42632087 485.65124959 494 492 C492.70370192 495.88889425 491.3996439 496.166712 487.83984375 498.08203125 C486.20305664 498.97438477 486.20305664 498.97438477 484.53320312 499.88476562 C483.65547241 500.35523315 483.65547241 500.35523315 482.76000977 500.83520508 C479.65108486 502.50232181 476.55901952 504.20024539 473.46484375 505.89453125 C472.83323334 506.23936554 472.20162292 506.58419983 471.5508728 506.93948364 C465.6329746 510.17893543 459.8098783 513.57090559 454 517 C444.38636467 522.65616368 434.67758536 528.1215344 424.90600586 533.5 C419.4869338 536.48700796 414.09697054 539.50705512 408.765625 542.6484375 C407.31675903 543.49801025 407.31675903 543.49801025 405.83862305 544.36474609 C404.03439654 545.42751183 402.23598787 546.50023909 400.44458008 547.58447266 C399.64947021 548.05159668 398.85436035 548.5187207 398.03515625 549 C397.00467163 549.61875 397.00467163 549.61875 395.95336914 550.25 C393.52675632 551.18170286 392.38739029 550.95914007 390 550 C388.54296875 548.1796875 388.54296875 548.1796875 387.1875 545.875 C377.2167054 530.19952192 360.74198837 523.48851488 343.16796875 519.578125 C316.63969481 514.73696034 289.54257308 519.22973518 263.16807532 522.88356948 C258.11533541 523.58033202 253.05999956 524.25781142 248.00508118 524.93855286 C239.54759652 526.0806841 231.09242179 527.23882576 222.63842773 528.40649414 C212.88502384 529.753388 203.12810612 531.07210636 193.36897153 532.37677592 C184.93580577 533.50492581 176.50477097 534.64806589 168.07533199 535.80373365 C163.06307893 536.49090007 158.05028109 537.17297712 153.03549767 537.84145164 C148.33856093 538.46840239 143.64458843 539.1141861 138.95221901 539.77442551 C137.23587049 540.01282447 135.51860855 540.24475447 133.8004303 540.46958733 C119.49122461 542.21055041 119.49122461 542.21055041 108.5625 551.125 C104.76787067 558.10711796 105.04963272 565.77183538 106.765625 573.40625 C116.46665804 603.19252047 145.22655442 632.29766722 172.46630859 646.56787109 C186.02559566 653.40594622 198.09365673 655.41091243 213 652 C216.27827157 650.81463627 219.41808979 649.50113793 222.57421875 648.0234375 C225 647 225 647 228 647 C228.1451001 647.64735107 228.2902002 648.29470215 228.43969727 648.96166992 C241.59166964 707.06705312 269.23419662 753.19797578 310 796 C306.01358006 796 304.40304834 794.07681978 301.5 791.625 C258.42984153 756.70625697 206.01774604 733.51764308 152 722 C152.57572854 717.50931741 153.76885017 713.48837526 155.28125 709.24609375 C159.5929443 695.77204907 156.17079194 682.04559099 150.10961914 669.70043945 C142.57278809 655.17898082 132.30794047 642.72799769 121 631 C120.22527344 630.16210938 119.45054687 629.32421875 118.65234375 628.4609375 C105.62838288 614.76294861 87.72314619 600.89643926 68.34765625 598.69921875 C67.59355469 598.69535156 66.83945312 598.69148437 66.0625 598.6875 C65.31097656 598.67074219 64.55945313 598.65398438 63.78515625 598.63671875 C61.0948353 598.98763018 58.88585921 599.64849404 56.32592773 600.52270508 C55.51574692 600.79786453 54.7055661 601.07302399 53.87083435 601.35652161 C53.25345901 601.56886948 52.63608368 601.78121735 52 602 C51.83999008 603.23109497 51.67998016 604.46218994 51.51512146 605.73059082 C48.15742845 631.5221867 44.70417826 657.29809119 41.09999359 683.05626488 C40.36368692 688.31976897 39.63112622 693.58378379 38.90097046 698.84814453 C38.74422975 699.97810065 38.74422975 699.97810065 38.58432257 701.13088417 C38.16019624 704.18905398 37.73620804 707.24724281 37.31260228 710.30548477 C36.13019293 718.84158956 34.94104998 727.37664059 33.7331543 735.90917969 C32.74947949 742.85820703 31.78026908 749.80909111 30.8269338 756.7623477 C30.32970938 760.38521314 29.8263003 764.00690534 29.3047657 767.62635803 C25.2341105 795.93569888 22.01765754 825.80741919 33 853 C33.39703125 853.98355469 33.7940625 854.96710937 34.203125 855.98046875 C39.4056438 867.53663839 47.93608943 876.77142812 59 883 C58.40861433 886.86935194 57.25769222 889.71555664 55.33203125 893.11328125 C54.77588135 894.10118652 54.21973145 895.0890918 53.64672852 896.10693359 C52.7387854 897.69368896 52.7387854 897.69368896 51.8125 899.3125 C51.184646 900.42189941 50.55679199 901.53129883 49.90991211 902.67431641 C45.12422697 911.1040485 40.23642684 919.47343516 35.32568359 927.83081055 C30.26069402 936.47933308 25.40803467 945.2383839 20.56835938 954.0144043 C14.59663187 964.80637083 8.34875041 975.42632087 2 986 C-1.88889425 984.70370192 -2.166712 983.3996439 -4.08203125 979.83984375 C-4.97438477 978.20305664 -4.97438477 978.20305664 -5.88476562 976.53320312 C-6.35523315 975.65547241 -6.35523315 975.65547241 -6.83520508 974.76000977 C-8.50232181 971.65108486 -10.20024539 968.55901952 -11.89453125 965.46484375 C-12.23936554 964.83323334 -12.58419983 964.20162292 -12.93948364 963.5508728 C-16.17893543 957.6329746 -19.57090559 951.8098783 -23 946 C-28.65616368 936.38636467 -34.1215344 926.67758536 -39.5 916.90600586 C-42.48700796 911.4869338 -45.50705512 906.09697054 -48.6484375 900.765625 C-49.21481934 899.79971436 -49.78120117 898.83380371 -50.36474609 897.83862305 C-51.42751183 896.03439654 -52.50023909 894.23598787 -53.58447266 892.44458008 C-54.05159668 891.64947021 -54.5187207 890.85436035 -55 890.03515625 C-55.61875 889.00467163 -55.61875 889.00467163 -56.25 887.95336914 C-57.18170286 885.52675632 -56.95914007 884.38739029 -56 882 C-54.1796875 880.54296875 -54.1796875 880.54296875 -51.875 879.1875 C-36.19952192 869.2167054 -29.48851488 852.74198837 -25.578125 835.16796875 C-20.6405848 808.11158291 -25.40244312 780.5342871 -29.18429327 753.65577698 C-29.92014703 748.39768082 -30.63444072 743.13664982 -31.35159302 737.87597656 C-32.55423563 729.07645575 -33.77128193 720.27903077 -34.99853516 711.48291016 C-36.57306942 700.19715517 -38.12312512 688.90817532 -39.66580009 677.61802673 C-40.99812645 667.8687514 -42.34146564 658.1209984 -43.68661737 648.37348557 C-44.116632 645.25402979 -44.54513931 642.13436966 -44.97344589 639.01467896 C-45.64504565 634.12812213 -46.32351258 629.24256527 -47.00734711 624.35770607 C-47.25706238 622.56692634 -47.50460824 620.77584256 -47.74982834 618.98444176 C-48.0847062 616.54115611 -48.42751779 614.09911285 -48.77243042 611.65722656 C-48.91543888 610.59398839 -48.91543888 610.59398839 -49.0613364 609.50927067 C-49.88604425 602.77397881 -49.88604425 602.77397881 -53.8125 597.63671875 C-63.2312857 593.54963853 -70.95837297 594.37335648 -80.58984375 597.62890625 C-111.71470634 610.14302626 -139.50658585 641.45951872 -152.78125 671.84375 C-158.1367945 685.71323704 -158.63958242 698.7794496 -152.8984375 712.6640625 C-152 715 -152 715 -152 718 C-152.70680908 718.16491943 -153.41361816 718.32983887 -154.1418457 718.49975586 C-179.62396701 724.50580183 -204.13707119 732.12520553 -228 743 C-229.5585505 743.69150374 -231.11714365 744.38291135 -232.67578125 745.07421875 C-257.14791609 756.1145121 -279.6948394 770.87782721 -300.92773438 787.21923828 C-303.83957503 789.45077826 -306.61406107 791.54888332 -310 793 C-306.75074069 789.11894026 -303.4146001 785.35920969 -299.94628906 781.67163086 C-262.89655524 742.15790988 -239.91498012 695.5510645 -228 643 C-223.89595065 643.76249146 -220.27094887 644.98735168 -216.375 646.5 C-201.71863092 651.76165175 -188.60367582 650.28623966 -174.48046875 643.828125 C-168.59076056 640.7345409 -163.28800692 637.00483793 -158 633 C-157.14535156 632.36964844 -156.29070312 631.73929688 -155.41015625 631.08984375 C-140.63728899 619.64030256 -127.1540641 605.70300708 -117 590 C-116.31550781 588.95328125 -115.63101562 587.9065625 -114.92578125 586.828125 C-108.31901792 576.13541789 -104.52468601 565.70505692 -106 553 C-107.18021764 549.45984528 -107.18021764 549.45984528 -109 547 C-109.66 546.01 -110.32 545.02 -111 544 C-113.48880279 543.3966546 -115.80376718 542.98926854 -118.33251953 542.67236328 C-119.47989169 542.51244762 -119.47989169 542.51244762 -120.65044308 542.34930134 C-123.22633618 541.99359669 -125.80438445 541.65711114 -128.3828125 541.3203125 C-130.22545576 541.06961714 -132.06793608 540.8177217 -133.91026306 540.56471252 C-138.93001903 539.87884159 -143.95186335 539.20959432 -148.97432327 538.54384995 C-154.24753127 537.84283138 -159.51907538 537.12951987 -164.79077148 536.41723633 C-171.39350506 535.52581482 -177.99644314 534.63602424 -184.6002655 533.75270081 C-199.18008768 531.80046356 -213.7492501 529.78135245 -228.31361389 527.71712494 C-234.77516613 526.80354076 -241.23832697 525.9014083 -247.7015419 524.99967194 C-252.84940656 524.28067333 -257.99618774 523.55530443 -263.14093018 522.81427002 C-311.58126116 515.43197313 -311.58126116 515.43197313 -359 525 C-359.98355469 525.39703125 -360.96710938 525.7940625 -361.98046875 526.203125 C-373.53663839 531.4056438 -382.77142812 539.93608943 -389 551 C-392.86935194 550.40861433 -395.71555664 549.25769222 -399.11328125 547.33203125 C-400.10118652 546.77588135 -401.0890918 546.21973145 -402.10693359 545.64672852 C-403.69368896 544.7387854 -403.69368896 544.7387854 -405.3125 543.8125 C-406.97659912 542.87071899 -406.97659912 542.87071899 -408.67431641 541.90991211 C-417.1040485 537.12422697 -425.47343516 532.23642684 -433.83081055 527.32568359 C-442.47933308 522.26069402 -451.2383839 517.40803467 -460.0144043 512.56835938 C-470.80637083 506.59663187 -481.42632087 500.34875041 -492 494 C-490.70370192 490.11110575 -489.3996439 489.833288 -485.83984375 487.91796875 C-484.20305664 487.02561523 -484.20305664 487.02561523 -482.53320312 486.11523438 C-481.65547241 485.64476685 -481.65547241 485.64476685 -480.76000977 485.16479492 C-477.65108486 483.49767819 -474.55901952 481.79975461 -471.46484375 480.10546875 C-470.83323334 479.76063446 -470.20162292 479.41580017 -469.5508728 479.06051636 C-463.6329746 475.82106457 -457.8098783 472.42909441 -452 469 C-442.38636467 463.34383632 -432.67758536 457.8784656 -422.90600586 452.5 C-417.4869338 449.51299204 -412.09697054 446.49294488 -406.765625 443.3515625 C-405.79971436 442.78518066 -404.83380371 442.21879883 -403.83862305 441.63525391 C-402.03439654 440.57248817 -400.23598787 439.49976091 -398.44458008 438.41552734 C-397.64947021 437.94840332 -396.85436035 437.4812793 -396.03515625 437 C-395.3481665 436.5875 -394.66117676 436.175 -393.95336914 435.75 C-391.52675632 434.81829714 -390.38739029 435.04085993 -388 436 C-386.54296875 437.8203125 -386.54296875 437.8203125 -385.1875 440.125 C-375.2167054 455.80047808 -358.74198837 462.51148512 -341.16796875 466.421875 C-314.12339088 471.35726036 -286.4996755 466.61870344 -259.62284541 462.88156986 C-254.36141333 462.15334104 -249.0973201 461.44480582 -243.83363342 460.73309326 C-235.02982855 459.53955863 -226.22829939 458.33026838 -217.42797852 457.11132812 C-207.26080901 455.70328302 -197.09029549 454.32171122 -186.91769022 452.95353436 C-177.0819955 451.62999276 -167.2489923 450.28739025 -157.41705513 448.93624115 C-153.2485269 448.36376615 -149.07915646 447.79812109 -144.9089489 447.23801422 C-140.01861601 446.58036512 -135.13085564 445.90612436 -130.24459839 445.21886826 C-128.45229 444.96952923 -126.65916689 444.72596895 -124.86523628 444.48858261 C-122.4199988 444.16404616 -119.97856975 443.81880564 -117.53697205 443.46807861 C-116.46936462 443.33380868 -116.46936462 443.33380868 -115.38018936 443.19682622 C-111.00669439 442.53932588 -108.73174368 441.5001577 -106 438 C-102.58020698 431.34615353 -103.1558981 423.72775964 -104.76953125 416.6015625 C-114.41410875 386.81583551 -143.25562008 357.68710603 -170.46630859 343.43212891 C-183.8206974 336.69738589 -196.32201198 334.37838493 -211 338 C-214.25353304 339.20084265 -217.39352193 340.51763886 -220.5390625 341.9765625 C-223 343 -223 343 -226 343 C-226.1451001 342.35264893 -226.2902002 341.70529785 -226.43969727 341.03833008 C-239.59166964 282.93294688 -267.23419662 236.80202422 -308 194 C-304.01358006 194 -302.40304834 195.92318022 -299.5 198.375 C-256.42984153 233.29374303 -204.01774604 256.48235692 -150 268 C-150.57572854 272.49068259 -151.76885017 276.51162474 -153.28125 280.75390625 C-157.593001 294.22812811 -154.17046877 307.95384883 -148.10986328 320.29931641 C-140.65731389 334.65686757 -130.55442331 347.03427381 -119.34033203 358.60839844 C-118.14504365 359.84940824 -116.97495474 361.11457684 -115.80859375 362.3828125 C-103.12499574 375.81250451 -85.21036851 389.16171079 -66.34765625 391.30078125 C-60.36342775 391.3314696 -55.55137012 390.17597889 -50 388 C-49.95575425 387.26930298 -49.9115085 386.53860596 -49.86592197 385.7857666 C-49.21051451 376.150261 -47.94295566 366.65181298 -46.59155273 357.09375 C-46.34470853 355.3261557 -46.09827042 353.55850465 -45.85220337 351.790802 C-45.32480224 348.00555364 -44.79530836 344.2206061 -44.26437187 340.43585205 C-43.42137485 334.42092596 -42.58784256 328.40471129 -41.75636292 322.38818359 C-41.61521181 321.36715986 -41.47406071 320.34613613 -41.3286323 319.29417229 C-41.04011262 317.20711976 -40.75160787 315.12006518 -40.46311772 313.03300858 C-38.52963425 299.04926663 -36.58954862 285.06649959 -34.6262207 271.08691406 C-33.29775831 261.62726157 -31.98364793 252.16572975 -30.68515354 242.70191574 C-30.00030369 237.71470336 -29.30870715 232.72866124 -28.59933281 227.74487305 C-21.45164075 179.85246753 -21.45164075 179.85246753 -31 133 C-31.59554687 131.52466797 -31.59554687 131.52466797 -32.203125 130.01953125 C-37.4056438 118.46336161 -45.93608943 109.22857188 -57 103 C-56.40861433 99.13064806 -55.25769222 96.28444336 -53.33203125 92.88671875 C-52.77588135 91.89881348 -52.21973145 90.9109082 -51.64672852 89.89306641 C-50.7387854 88.30631104 -50.7387854 88.30631104 -49.8125 86.6875 C-48.87071899 85.02340088 -48.87071899 85.02340088 -47.90991211 83.32568359 C-43.12422697 74.8959515 -38.23642684 66.52656484 -33.32568359 58.16918945 C-28.26069402 49.52066692 -23.40803467 40.7616161 -18.56835938 31.9855957 C-12.59663187 21.19362917 -6.34875041 10.57367913 0 0 Z M0 46 C-0.50861572 46.96188232 -1.01723145 47.92376465 -1.54125977 48.91479492 C-3.46231886 52.54754141 -5.38402495 56.17994533 -7.3059082 59.81225586 C-8.13127491 61.37238655 -8.95647544 62.93260517 -9.78149414 64.49291992 C-10.58299715 66.00871073 -11.38494639 67.52426567 -12.18734741 69.0395813 C-12.98062184 70.53976289 -13.77166577 72.04112609 -14.56045532 73.54367065 C-16.38750312 77.0136133 -18.24279432 80.45266343 -20.22216797 83.83837891 C-20.87975098 84.98097168 -21.53733398 86.12356445 -22.21484375 87.30078125 C-22.80257568 88.28860596 -23.39030762 89.27643066 -23.99584961 90.29418945 C-25.28265059 92.96219477 -25.28265059 92.96219477 -24.29443359 95.6394043 C-22.47467948 98.95800153 -20.62580819 102.24951821 -18.6875 105.5 C-18.25888672 106.22179443 -17.83027344 106.94358887 -17.38867188 107.68725586 C-15.93249796 110.12892903 -14.46727276 112.56498098 -13 115 C-12.43619629 115.93859863 -11.87239258 116.87719727 -11.29150391 117.84423828 C-9.53702518 120.75612183 -7.77057833 123.66038249 -6 126.5625 C-5.43627686 127.49707031 -4.87255371 128.43164062 -4.29174805 129.39453125 C-3.76234619 130.255625 -3.23294434 131.11671875 -2.6875 132.00390625 C-2.21699219 132.77549072 -1.74648438 133.5470752 -1.26171875 134.34204102 C-0.84535156 134.88916748 -0.42898438 135.43629395 0 136 C0.66 136 1.32 136 2 136 C3.43954483 134.09567266 3.43954483 134.09567266 4.87109375 131.6015625 C5.44085937 130.65531006 6.010625 129.70905762 6.59765625 128.73413086 C7.50837891 127.19511108 7.50837891 127.19511108 8.4375 125.625 C9.69568652 123.51376956 10.95481335 121.40309924 12.21484375 119.29296875 C12.84632324 118.23384277 13.47780273 117.1747168 14.12841797 116.08349609 C15.8509232 113.24560918 17.62617491 110.45497397 19.44140625 107.67578125 C19.95968994 106.87124512 20.47797363 106.06670898 21.01196289 105.23779297 C21.98369481 103.73563412 22.97060912 102.24315868 23.97436523 100.76220703 C24.40563721 100.08657715 24.83690918 99.41094727 25.28125 98.71484375 C25.66345703 98.13855225 26.04566406 97.56226074 26.43945312 96.96850586 C27.90052356 91.83757775 23.68636301 86.22463427 21.296875 81.80078125 C20.93660217 81.12508591 20.57632935 80.44939056 20.20513916 79.7532196 C19.05777143 77.6039563 17.90396091 75.45822916 16.75 73.3125 C15.99046859 71.89149876 15.23135046 70.47027654 14.47265625 69.04882812 C10.35540769 61.34389251 6.19999335 53.66019196 2 46 C1.34 46 0.68 46 0 46 Z M0 230 C-0.22142198 231.45856934 -0.22142198 231.45856934 -0.44731712 232.94660473 C-4.04464965 256.64321423 -7.64213103 280.33980113 -11.23976707 304.03636456 C-12.97957595 315.49599351 -14.71933705 326.95562972 -16.45898438 338.4152832 C-17.9758488 348.40738851 -19.4928042 358.39947999 -21.00986731 368.39155513 C-21.81259695 373.67872273 -22.61528207 378.96589708 -23.41785812 384.253088 C-24.17450789 389.23771712 -24.93128003 394.22232765 -25.68814278 399.20692444 C-25.96470757 401.0284845 -26.24122908 402.85005114 -26.5177021 404.67162514 C-26.77548493 406.37002579 -27.03334842 408.0684142 -27.29130101 409.76678908 C-27.53172545 411.35033924 -27.77184803 412.93393527 -28.01163363 414.5175823 C-28.53851307 417.99202037 -29.0735229 421.46462792 -29.62277603 424.93563271 C-29.8067683 426.09925016 -29.99076057 427.26286762 -30.18032837 428.46174622 C-30.33983789 429.45477155 -30.49934742 430.44779688 -30.66369057 431.47091389 C-31.75286908 439.66166321 -27.95688005 445.25250895 -23.9375 452.0625 C-23.38900391 453.01060547 -22.84050781 453.95871094 -22.27539062 454.93554688 C-21.14222004 456.89331899 -20.00460963 458.84852737 -18.86279297 460.80126953 C-16.74457617 464.4386059 -14.65260793 468.09033304 -12.56640625 471.74609375 C-12.21182846 472.36742691 -11.85725067 472.98876007 -11.4919281 473.62892151 C-10.66093228 475.0857463 -9.8304117 476.54284217 -9 478 C-9.53711609 477.78480209 -10.07423218 477.56960419 -10.62762451 477.34788513 C-16.2625451 475.09591699 -21.91047274 472.87927121 -27.56689453 470.68188477 C-29.67095432 469.85933585 -31.77163821 469.02809292 -33.86865234 468.18774414 C-36.89857309 466.97534362 -39.9396039 465.79562012 -42.984375 464.62109375 C-43.90675964 464.24407822 -44.82914429 463.86706268 -45.77947998 463.47862244 C-52.95569627 460.76427503 -58.4805699 460.85749969 -66 462 C-67.47823985 462.21015099 -68.95657993 462.41959762 -70.43499756 462.62849426 C-75.85927421 463.41116538 -81.27293967 464.25862975 -86.6875 465.10546875 C-88.75266571 465.4252213 -90.81789363 465.74457223 -92.88317871 466.06355286 C-97.29300572 466.74537634 -101.70243952 467.42966818 -106.11157227 468.1159668 C-113.04704601 469.19540885 -119.98337184 470.26929537 -126.91992188 471.34179688 C-128.08553398 471.52202456 -129.25114609 471.70225224 -130.45207977 471.88794136 C-132.82500875 472.25482633 -135.1979412 472.62168884 -137.57087708 472.98852921 C-141.17536106 473.54592407 -144.77976442 474.10383795 -148.38415527 474.66183472 C-172.06775125 478.32695482 -195.75944859 481.93827851 -219.45318604 485.53717422 C-222.50641232 486.00097406 -225.5596079 486.46497556 -228.61279297 486.92904663 C-239.74167759 488.62057983 -250.87071892 490.31107724 -262 492 C-262 492.66 -262 493.32 -262 494 C-238.35483345 497.59919666 -214.70962909 501.19814486 -191.06438065 504.79680347 C-180.08359283 506.46801638 -169.10281705 508.13930824 -158.12207031 509.81079102 C-148.54268268 511.26895953 -138.96327173 512.72697476 -129.38383365 514.18481177 C-124.31942268 514.95553931 -119.25502281 515.72633962 -114.19065094 516.49732399 C-109.40713558 517.22554914 -104.62358866 517.95356669 -99.84001923 518.68143654 C-98.10039653 518.94617353 -96.36078459 519.21098127 -94.6211853 519.47587204 C-93.81073761 519.59927586 -93.00028992 519.72267967 -92.1652832 519.849823 C-91.36993251 519.97104717 -90.57458181 520.09227135 -89.75512958 520.21716899 C-88.19476933 520.45411059 -86.63417886 520.68954164 -85.07334828 520.92336494 C-80.90948547 521.54831521 -76.75266211 522.20277376 -72.59919357 522.89368725 C-71.25124022 523.11164952 -71.25124022 523.11164952 -69.87605548 523.33401507 C-68.15664378 523.6122851 -66.43861852 523.89932294 -64.72243047 524.19682819 C-57.5928704 525.33248424 -52.18021028 524.22268605 -45.546875 521.35546875 C-44.50976379 520.9516951 -43.47265259 520.54792145 -42.40411377 520.13191223 C-39.16682173 518.86018021 -35.96010005 517.5261728 -32.75 516.1875 C-30.53035773 515.30233573 -28.30900684 514.42144356 -26.0859375 513.54492188 C-20.70330015 511.41204965 -15.3440224 509.22773897 -10 507 C-10.9826401 508.78049169 -11.96642199 510.56035919 -12.95466423 512.33774757 C-13.82119301 513.9096397 -14.67540395 515.48838281 -15.51739693 517.07355309 C-17.85695753 521.41569458 -20.23057105 525.42409591 -23.33786011 529.26187134 C-31.1489237 539.49006927 -32.90934368 548.54555909 -31.39264894 561.06841922 C-30.47868832 567.86667565 -29.35686095 574.62053665 -28.16416025 581.37481642 C-27.36770903 585.98031082 -26.65805174 590.59922401 -25.9382019 595.2171936 C-24.55952063 603.97777803 -23.10579007 612.72410316 -21.62353218 621.46769106 C-19.96495286 631.27221553 -18.38809703 641.08926311 -16.81954217 650.90852809 C-14.35176576 666.35081173 -11.83033369 681.78326267 -9.25830078 697.20849609 C-5.99519623 716.77865344 -2.96836022 736.38320732 0 756 C0.66 756 1.32 756 2 756 C5.89918874 730.52239286 9.79371517 705.04407681 13.68273067 679.5649147 C15.48867648 667.73385648 17.29613276 655.90303274 19.10717773 644.07275391 C20.68613957 633.75848459 22.262234 623.44378184 23.83492285 613.12855411 C24.66732714 607.66950023 25.50114115 602.21067029 26.33839226 596.75235748 C27.12740391 591.60823071 27.91256203 586.46353012 28.69484901 581.31837654 C28.98165449 579.43650767 29.26983183 577.55484726 29.55953217 575.67342186 C33.66830938 557.87124734 33.66830938 557.87124734 30.3515625 541.140625 C29.75730469 540.16867187 29.16304687 539.19671875 28.55078125 538.1953125 C27.91527344 537.22335937 27.27976562 536.25140625 26.625 535.25 C25.40699441 533.29803424 24.19088462 531.34488438 22.9765625 529.390625 C22.34782227 528.39611328 21.71908203 527.40160156 21.07128906 526.37695312 C17.18063625 520.0337766 13.60597842 513.50794727 10 507 C10.50808197 507.23882904 11.01616394 507.47765808 11.53964233 507.72372437 C17.04209894 510.28433242 22.59850948 512.68599476 28.20068359 515.02001953 C30.25748657 515.89798112 32.30012654 516.8102185 34.32373047 517.76220703 C49.58662941 524.90019436 61.22260614 525.31987174 77.4140625 522.58789062 C79.26837948 522.2960962 81.12311958 522.00697958 82.97824669 521.72038078 C86.79316899 521.12723247 90.60534701 520.51966511 94.41599655 519.89966965 C99.62626599 519.05460517 104.84256296 518.25703947 110.06338501 517.48013306 C111.69251796 517.23735726 113.32164802 516.99456201 114.95077515 516.75174713 C115.75353252 516.6321227 116.5562899 516.51249826 117.38337326 516.38924885 C121.5111944 515.77106395 125.63704114 515.14004353 129.7628479 514.50857544 C130.59267913 514.38159169 131.42251036 514.25460794 132.27748799 514.1237762 C133.97663849 513.86370374 135.67578126 513.60358084 137.37491655 513.34340906 C141.85879826 512.65729807 146.34304174 511.97355882 150.82723999 511.28952026 C159.24091966 510.00571805 167.65429292 508.71992 176.06754529 507.43332088 C185.67873011 505.96363348 195.29027371 504.49629887 204.9018414 503.02911782 C224.60161517 500.0219465 244.30095842 497.01196368 264 494 C264 493.34 264 492.68 264 492 C263.06922732 491.85846087 262.13845465 491.71692175 261.17947674 491.57109356 C238.45707814 488.1157579 215.73477452 484.65979819 193.01256847 481.20319653 C182.02396677 479.53157678 171.0353351 477.86015456 160.04663086 476.18920898 C150.46094088 474.73160564 140.87530916 473.27361983 131.28974515 471.81518823 C126.22151211 471.0440762 121.15325149 470.27314652 116.08492088 469.50267601 C111.29884643 468.77510691 106.51285096 468.04702029 101.72691154 467.31856346 C99.9852961 467.05356454 98.24365366 466.78874287 96.50197983 466.52412796 C94.87808242 466.27738713 93.25423448 466.03032049 91.6304394 465.78290713 C90.07409946 465.54608168 88.51758451 465.31040302 86.96088541 465.07595003 C82.91333307 464.4625013 78.87503412 463.8133587 74.84081459 463.11727333 C73.98832801 462.97337176 73.13584143 462.82947018 72.25752193 462.68120795 C70.63712458 462.40648013 69.01809059 462.12352504 67.40088862 461.83057326 C60.97615256 460.75248496 55.39611963 461.26911812 49.25805664 463.58227539 C48.39769302 463.90253189 47.53732941 464.22278839 46.65089417 464.55274963 C45.74645065 464.89756882 44.84200714 465.242388 43.91015625 465.59765625 C42.4933683 466.12823891 42.4933683 466.12823891 41.04795837 466.66954041 C38.05026451 467.79389862 35.05638156 468.92803472 32.0625 470.0625 C30.02303073 470.82942593 27.98331958 471.59570899 25.94335938 472.36132812 C20.95941531 474.23345183 15.97855829 476.11360382 11 478 C20.52302879 460.72143229 20.52302879 460.72143229 24.6015625 453.89453125 C25.11074219 453.03666016 25.61992188 452.17878906 26.14453125 451.29492188 C27.16067858 449.59106533 28.18730458 447.8934276 29.22265625 446.20117188 C29.96708984 444.93563477 29.96708984 444.93563477 30.7265625 443.64453125 C31.16564941 442.91596924 31.60473633 442.18740723 32.05712891 441.43676758 C34.46996707 435.20099913 32.49307815 427.90795767 31.43774414 421.52172852 C31.18561692 419.9515928 31.18561692 419.9515928 30.92839622 418.34973717 C30.55971252 416.05531708 30.18872381 413.76126649 29.81573296 411.46754265 C28.88495571 405.73743277 27.97043024 400.0047335 27.056831 394.27186453 C26.83800129 392.89873858 26.61900471 391.52563921 26.39984834 390.15256536 C23.74066737 373.48557331 21.19999143 356.80084112 18.67198896 340.11352491 C18.30868277 337.71543133 17.94512343 335.31737625 17.58150101 332.9193306 C16.23695897 324.05118624 14.89456664 315.18271783 13.55335391 306.31406939 C12.28983619 297.95972476 11.02418282 289.60570403 9.75841987 281.25169933 C7.17003735 264.16813869 4.58411391 247.08420683 2 230 C1.34 230 0.68 230 0 230 Z M237.14453125 250.60546875 C236.13986816 251.17096436 235.13520508 251.73645996 234.10009766 252.3190918 C233.01519043 252.9356665 231.9302832 253.55224121 230.8125 254.1875 C229.15033447 255.12686401 229.15033447 255.12686401 227.45458984 256.08520508 C225.72199097 257.06453749 223.98940723 258.04389885 222.25805664 259.0254364 C218.29214338 261.27365576 214.31521068 263.50119999 210.33203125 265.71875 C208.26299453 266.87495293 206.19398305 268.03120102 204.125 269.1875 C203.15151611 269.72721436 202.17803223 270.26692871 201.17504883 270.82299805 C200.27423584 271.32871338 199.37342285 271.83442871 198.4453125 272.35546875 C197.65656738 272.79528076 196.86782227 273.23509277 196.05517578 273.68823242 C192.25685117 276.11260854 190.41512627 278.77473063 188.3203125 282.734375 C187.80944092 283.69069824 187.29856934 284.64702148 186.7722168 285.63232422 C186.22863525 286.66115723 185.68505371 287.68999023 185.125 288.75 C179.89558795 298.54795201 174.51506458 308.2431563 168.96337891 317.86230469 C168.44308105 318.77141602 167.9227832 319.68052734 167.38671875 320.6171875 C166.92483154 321.41753418 166.46294434 322.21788086 165.98706055 323.04248047 C164.84991997 324.93225281 164.84991997 324.93225281 165 327 C169.66790222 325.59155431 173.85482923 323.64233297 178.12890625 321.33203125 C178.79985825 320.9741301 179.47081024 320.61622894 180.16209412 320.2474823 C182.29792458 319.10684033 184.43023338 317.95978764 186.5625 316.8125 C188.66261844 315.68909061 190.76340241 314.56694328 192.86471558 313.44577026 C194.24969227 312.70300072 195.63181106 311.95487763 197.01101685 311.20144653 C200.18772122 309.47004082 203.35290327 307.81099719 206.66162109 306.34521484 C215.82199802 302.07511245 219.27373933 297.02919211 223.5 288 C224.11439676 286.75980483 224.73303986 285.5217051 225.35571289 284.28564453 C226.30677445 282.39619184 227.25487585 280.50584248 228.1889801 278.60794067 C231.8428247 271.19479522 236.000323 264.0841612 240.140625 256.93359375 C240.64980469 256.04542969 241.15898438 255.15726563 241.68359375 254.2421875 C242.35733032 253.07985596 242.35733032 253.07985596 243.04467773 251.89404297 C244.15011375 250.0559361 244.15011375 250.0559361 244 248 C241.17796769 248 239.59960193 249.21656466 237.14453125 250.60546875 Z M-240 252 C-238.08340797 259.07845645 -234.08729161 265.13156797 -230.41113281 271.40771484 C-227.3724771 276.64511902 -224.55591121 281.83977757 -222.12890625 287.390625 C-214.81439087 303.60560205 -206.46157219 309.69431722 -190.26855469 316.546875 C-184.88747112 318.93918225 -179.80955059 321.85356398 -174.6875 324.75 C-172.90274632 325.75017602 -171.11521507 326.74542103 -169.32421875 327.734375 C-168.58260498 328.14913086 -167.84099121 328.56388672 -167.0769043 328.99121094 C-165.05357978 329.97397536 -163.1964977 330.5448894 -161 331 C-162.92346712 323.8760477 -166.96405639 317.77466604 -170.65258789 311.45385742 C-173.58527915 306.38930545 -176.35796299 301.36201632 -178.75390625 296.01953125 C-185.38066958 281.62194671 -192.64863802 275.85047463 -206.96679688 269.42578125 C-212.33399249 266.90288827 -217.42766584 263.89761943 -222.5625 260.9375 C-224.45924347 259.86258935 -226.35635307 258.78832438 -228.25390625 257.71484375 C-230.75815429 256.29356849 -233.22941557 254.85662313 -235.67163086 253.33032227 C-237.84248785 251.8346367 -237.84248785 251.8346367 -240 252 Z M103.58203125 383.140625 C102.49212891 383.79933594 101.40222656 384.45804687 100.27929688 385.13671875 C99.123586 385.8409622 97.96798788 386.54539072 96.8125 387.25 C94.56939208 388.61000469 92.32591232 389.96939631 90.08203125 391.328125 C89.01879639 391.98506348 87.95556152 392.64200195 86.86010742 393.31884766 C84.62473551 394.63278457 82.53936292 395.61455484 80.1640625 396.6015625 C74.73622514 400.71599724 72.41045242 407.07843962 69.5625 413.125 C68.92169306 414.43966689 68.27912991 415.75347928 67.63476562 417.06640625 C64.40641453 422.80095953 64.40641453 422.80095953 63 429 C77.26097793 424.36511643 92.28312522 419.0418974 99.79248047 405.3034668 C101.61840179 401.47820751 103.30210221 397.62140002 104.86523438 393.68164062 C106.33455326 390.2093948 108.152927 387.00826012 110.07324219 383.76855469 C111.15471773 382.03752563 111.15471773 382.03752563 111 380 C107.96753451 380 106.15801945 381.57541467 103.58203125 383.140625 Z M-107 384 C-105.08579446 390.23266254 -102.13095058 395.68304923 -99.0324707 401.39624023 C-98.06156882 403.18921963 -97.10167437 404.98779285 -96.14257812 406.78710938 C-95.52962891 407.92341797 -94.91667969 409.05972656 -94.28515625 410.23046875 C-93.72707275 411.26582764 -93.16898926 412.30118652 -92.59399414 413.36791992 C-89.75133103 418.06186248 -86.74421131 419.83292635 -81.87109375 422.35546875 C-80.98563622 422.81521843 -80.98563622 422.81521843 -80.08229065 423.28425598 C-78.83891205 423.92817104 -77.59408065 424.5692876 -76.34790039 425.20776367 C-74.43699916 426.18775685 -72.53175261 427.17813026 -70.62695312 428.16992188 C-65.06623534 431.52508967 -65.06623534 431.52508967 -59 433 C-63.131419 419.5671181 -68.24861632 404.85358512 -80.79638672 397.38623047 C-84.35774516 395.52099649 -87.95510342 393.77450256 -91.62011719 392.12255859 C-94.85988496 390.59440387 -97.71469808 388.74624825 -100.6875 386.75 C-103.61038784 384.59581227 -103.61038784 384.59581227 -107 384 Z M-403.890625 469.421875 C-404.90068604 469.9475708 -405.91074707 470.4732666 -406.95141602 471.01489258 C-408.58421509 471.87377075 -408.58421509 471.87377075 -410.25 472.75 C-411.91276978 473.61951294 -411.91276978 473.61951294 -413.60913086 474.5065918 C-424.47606748 480.20931908 -435.25459344 486.07200152 -446 492 C-446 492.66 -446 493.32 -446 494 C-445.03811768 494.50861572 -444.07623535 495.01723145 -443.08520508 495.54125977 C-439.45245859 497.46231886 -435.82005467 499.38402495 -432.18774414 501.3059082 C-430.62761345 502.13127491 -429.06739483 502.95647544 -427.50708008 503.78149414 C-425.99128927 504.58299715 -424.47573433 505.38494639 -422.9604187 506.18734741 C-421.46023711 506.98062184 -419.95887391 507.77166577 -418.45632935 508.56045532 C-414.9863867 510.38750312 -411.54733657 512.24279432 -408.16162109 514.22216797 C-407.01902832 514.87975098 -405.87643555 515.53733398 -404.69921875 516.21484375 C-403.21748169 517.09644165 -403.21748169 517.09644165 -401.70581055 517.99584961 C-399.03780523 519.28265059 -399.03780523 519.28265059 -396.3605957 518.29443359 C-393.04199847 516.47467948 -389.75048179 514.62580819 -386.5 512.6875 C-385.77820557 512.25888672 -385.05641113 511.83027344 -384.31274414 511.38867188 C-381.87107097 509.93249796 -379.43501902 508.46727276 -377 507 C-375.59210205 506.15429443 -375.59210205 506.15429443 -374.15576172 505.29150391 C-371.24387817 503.53702518 -368.33961751 501.77057833 -365.4375 500 C-364.50292969 499.43627686 -363.56835938 498.87255371 -362.60546875 498.29174805 C-361.744375 497.76234619 -360.88328125 497.23294434 -359.99609375 496.6875 C-359.22450928 496.21699219 -358.4529248 495.74648438 -357.65795898 495.26171875 C-357.11083252 494.84535156 -356.56370605 494.42898438 -356 494 C-356 493.34 -356 492.68 -356 492 C-357.90432734 490.56045517 -357.90432734 490.56045517 -360.3984375 489.12890625 C-361.34501221 488.55930176 -362.29158691 487.98969727 -363.2668457 487.40283203 C-364.29253662 486.79552246 -365.31822754 486.18821289 -366.375 485.5625 C-368.48069001 484.30115055 -370.58615589 483.03942687 -372.69140625 481.77734375 C-373.7498877 481.14554199 -374.80836914 480.51374023 -375.89892578 479.86279297 C-378.7680004 478.13936049 -381.62019288 476.39228476 -384.46484375 474.62890625 C-385.28742676 474.119646 -386.11000977 473.61038574 -386.95751953 473.08569336 C-388.50316166 472.12699785 -390.04716633 471.1656563 -391.58935547 470.20141602 C-397.05869684 466.82675687 -398.29255515 466.49913138 -403.890625 469.421875 Z M395.16796875 469.16796875 C394.37874023 469.64314941 393.58951172 470.11833008 392.77636719 470.60791016 C391.49487793 471.38980713 391.49487793 471.38980713 390.1875 472.1875 C388.87313965 472.98486572 388.87313965 472.98486572 387.53222656 473.79833984 C385.66187084 474.93507323 383.79293925 476.07415251 381.92529297 477.21533203 C378.95689349 479.02629849 375.9806964 480.82396038 373.00390625 482.62109375 C371.08549105 483.78832905 369.1675097 484.95627776 367.25 486.125 C366.32727295 486.68082764 365.4045459 487.23665527 364.45385742 487.80932617 C363.60799072 488.32857666 362.76212402 488.84782715 361.890625 489.3828125 C360.76188965 490.06947998 360.76188965 490.06947998 359.61035156 490.77001953 C359.07893555 491.17591309 358.54751953 491.58180664 358 492 C358 492.66 358 493.32 358 494 C359.90432734 495.43954483 359.90432734 495.43954483 362.3984375 496.87109375 C363.34468994 497.44085937 364.29094238 498.010625 365.26586914 498.59765625 C366.80488892 499.50837891 366.80488892 499.50837891 368.375 500.4375 C370.48623044 501.69568652 372.59690076 502.95481335 374.70703125 504.21484375 C375.76615723 504.84632324 376.8252832 505.47780273 377.91650391 506.12841797 C380.75439082 507.8509232 383.54502603 509.62617491 386.32421875 511.44140625 C387.12875488 511.95968994 387.93329102 512.47797363 388.76220703 513.01196289 C390.26436588 513.98369481 391.75684132 514.97060912 393.23779297 515.97436523 C393.91342285 516.40563721 394.58905273 516.83690918 395.28515625 517.28125 C395.86144775 517.66345703 396.43773926 518.04566406 397.03149414 518.43945312 C402.16242225 519.90052356 407.77536573 515.68636301 412.19921875 513.296875 C412.87491409 512.93660217 413.55060944 512.57632935 414.2467804 512.20513916 C416.3960437 511.05777143 418.54177084 509.90396091 420.6875 508.75 C422.10850124 507.99046859 423.52972346 507.23135046 424.95117188 506.47265625 C432.65610749 502.35540769 440.33980804 498.19999335 448 494 C448 493.34 448 492.68 448 492 C447.03811768 491.49138428 446.07623535 490.98276855 445.08520508 490.45874023 C441.45245859 488.53768114 437.82005467 486.61597505 434.18774414 484.6940918 C432.62761345 483.86872509 431.06739483 483.04352456 429.50708008 482.21850586 C427.24015468 481.01982624 424.97357682 479.82049139 422.70703125 478.62109375 C421.96647491 478.22973236 421.22591858 477.83837097 420.46292114 477.43515015 C416.98264277 475.59302856 413.51006356 473.73930391 410.05615234 471.84814453 C409.15276375 471.35484398 409.15276375 471.35484398 408.23112488 470.85157776 C406.62306435 469.97112099 405.01784388 469.08548271 403.4128418 468.19946289 C399.71690676 466.36215349 398.53607266 467.12895752 395.16796875 469.16796875 Z M-92 568 C-97.21559919 573.98004342 -100.17175415 580.98469334 -102.9296875 588.35058594 C-104.33717169 591.83462299 -106.14597138 595.00257062 -108.06445312 598.22705078 C-109.15556327 599.96069971 -109.15556327 599.96069971 -109 602 C-105.42208594 600.65858219 -102.22329677 599.0611528 -98.9453125 597.1015625 C-98.00042969 596.53953125 -97.05554688 595.9775 -96.08203125 595.3984375 C-95.10621094 594.81320312 -94.13039063 594.22796875 -93.125 593.625 C-91.190365 592.47091681 -89.25547482 591.31726127 -87.3203125 590.1640625 C-86.39968018 589.60219238 -85.47904785 589.04032227 -84.53051758 588.46142578 C-82 587 -82 587 -80.0065918 586.19091797 C-73.04599384 583.29710929 -70.58156143 575.28484629 -67.5625 568.875 C-66.92169306 567.56033311 -66.27912991 566.24652072 -65.63476562 564.93359375 C-62.40641453 559.19904047 -62.40641453 559.19904047 -61 553 C-70.26213965 553 -84.89590335 562.24561109 -92 568 Z M61 557 C65.131419 570.4328819 70.24861632 585.14641488 82.79638672 592.61376953 C86.35774516 594.47900351 89.95510342 596.22549744 93.62011719 597.87744141 C96.85988496 599.40559613 99.71469808 601.25375175 102.6875 603.25 C105.61038784 605.40418773 105.61038784 605.40418773 109 606 C107.08579446 599.76733746 104.13095058 594.31695077 101.0324707 588.60375977 C100.06156882 586.81078037 99.10167437 585.01220715 98.14257812 583.21289062 C97.52962891 582.07658203 96.91667969 580.94027344 96.28515625 579.76953125 C95.72707275 578.73417236 95.16898926 577.69881348 94.59399414 576.63208008 C91.75133103 571.93813752 88.74421131 570.16707365 83.87109375 567.64453125 C82.98563622 567.18478157 82.98563622 567.18478157 82.08229065 566.71574402 C80.83891205 566.07182896 79.59408065 565.4307124 78.34790039 564.79223633 C76.43699916 563.81224315 74.53175261 562.82186974 72.62695312 561.83007812 C67.06623534 558.47491033 67.06623534 558.47491033 61 557 Z M-169.453125 657.203125 C-170.83213989 657.92363037 -170.83213989 657.92363037 -172.23901367 658.65869141 C-173.7294519 659.44638916 -173.7294519 659.44638916 -175.25 660.25 C-176.26747314 660.78415527 -177.28494629 661.31831055 -178.33325195 661.86865234 C-188.24532279 667.09067349 -198.08031971 672.4528047 -207.89135742 677.86181641 C-210 679 -210 679 -212.07373047 679.80541992 C-214.84974248 681.52696957 -215.72413395 683.62482751 -217.21484375 686.51171875 C-217.81288818 687.65205566 -218.41093262 688.79239258 -219.02709961 689.96728516 C-219.66394951 691.20733121 -220.30074856 692.44740338 -220.9375 693.6875 C-222.26543191 696.23331126 -223.60142917 698.77485903 -224.9375 701.31640625 C-225.44209999 702.28003082 -225.44209999 702.28003082 -225.95689392 703.26312256 C-229.83128396 710.63632016 -233.96776198 717.85586623 -238.13842773 725.06518555 C-238.64833252 725.95375244 -239.1582373 726.84231934 -239.68359375 727.7578125 C-240.13275146 728.5327002 -240.58190918 729.30758789 -241.04467773 730.10595703 C-242.15011375 731.9440639 -242.15011375 731.9440639 -242 734 C-238.52450785 732.67108972 -235.27128126 731.15371762 -232 729.3828125 C-230.55983521 728.60429932 -230.55983521 728.60429932 -229.09057617 727.81005859 C-228.07068604 727.25398926 -227.0507959 726.69791992 -226 726.125 C-224.42085815 725.26575928 -224.42085815 725.26575928 -222.80981445 724.38916016 C-215.57277889 720.4369548 -208.36236974 716.43898982 -201.1875 712.375 C-200.30513672 711.87887207 -199.42277344 711.38274414 -198.51367188 710.87158203 C-197.69833984 710.40606934 -196.88300781 709.94055664 -196.04296875 709.4609375 C-194.97598755 708.85451416 -194.97598755 708.85451416 -193.88745117 708.23583984 C-190.20298843 705.82337698 -188.3675979 703.13543063 -186.3203125 699.265625 C-185.80944092 698.30930176 -185.29856934 697.35297852 -184.7722168 696.36767578 C-184.22863525 695.33884277 -183.68505371 694.31000977 -183.125 693.25 C-177.89558795 683.45204799 -172.51506458 673.7568437 -166.96337891 664.13769531 C-166.18293213 662.77402832 -166.18293213 662.77402832 -165.38671875 661.3828125 C-164.69388794 660.18229248 -164.69388794 660.18229248 -163.98706055 658.95751953 C-162.84991997 657.06774719 -162.84991997 657.06774719 -163 655 C-165.65331694 655 -167.10034774 655.96938567 -169.453125 657.203125 Z M163 659 C164.92346712 666.1239523 168.96405639 672.22533396 172.65258789 678.54614258 C175.58527915 683.61069455 178.35796299 688.63798368 180.75390625 693.98046875 C187.38066958 708.37805329 194.64863802 714.14952537 208.96679688 720.57421875 C214.33399249 723.09711173 219.42766584 726.10238057 224.5625 729.0625 C226.45924347 730.13741065 228.35635307 731.21167562 230.25390625 732.28515625 C232.75815429 733.70643151 235.22941557 735.14337687 237.67163086 736.66967773 C239.84248785 738.1653633 239.84248785 738.1653633 242 738 C240.08340797 730.92154355 236.08729161 724.86843203 232.41113281 718.59228516 C229.3724771 713.35488098 226.55591121 708.16022243 224.12890625 702.609375 C216.81439087 686.39439795 208.46157219 680.30568278 192.26855469 673.453125 C186.88747112 671.06081775 181.80955059 668.14643602 176.6875 665.25 C174.90274632 664.24982398 173.11521507 663.25457897 171.32421875 662.265625 C170.58260498 661.85086914 169.84099121 661.43611328 169.0769043 661.00878906 C167.05357978 660.02602464 165.1964977 659.4551106 163 659 Z M0 850 C-1.43954483 851.90432734 -1.43954483 851.90432734 -2.87109375 854.3984375 C-3.44085938 855.34468994 -4.010625 856.29094238 -4.59765625 857.26586914 C-5.20480469 858.29188232 -5.81195313 859.31789551 -6.4375 860.375 C-7.69568652 862.48623044 -8.95481335 864.59690076 -10.21484375 866.70703125 C-10.84632324 867.76615723 -11.47780273 868.8252832 -12.12841797 869.91650391 C-13.8509232 872.75439082 -15.62617491 875.54502603 -17.44140625 878.32421875 C-17.95968994 879.12875488 -18.47797363 879.93329102 -19.01196289 880.76220703 C-19.98369481 882.26436588 -20.97060912 883.75684132 -21.97436523 885.23779297 C-22.40563721 885.91342285 -22.83690918 886.58905273 -23.28125 887.28515625 C-23.66345703 887.86144775 -24.04566406 888.43773926 -24.43945312 889.03149414 C-25.90052356 894.16242225 -21.68636301 899.77536573 -19.296875 904.19921875 C-18.75646576 905.21276176 -18.75646576 905.21276176 -18.20513916 906.2467804 C-17.05777143 908.3960437 -15.90396091 910.54177084 -14.75 912.6875 C-13.99046859 914.10850124 -13.23135046 915.52972346 -12.47265625 916.95117188 C-8.35540769 924.65610749 -4.19999335 932.33980804 0 940 C0.66 940 1.32 940 2 940 C2.50861572 939.03811768 3.01723145 938.07623535 3.54125977 937.08520508 C5.46231886 933.45245859 7.38402495 929.82005467 9.3059082 926.18774414 C10.13127491 924.62761345 10.95647544 923.06739483 11.78149414 921.50708008 C12.58299715 919.99128927 13.38494639 918.47573433 14.18734741 916.9604187 C14.98062184 915.46023711 15.77166577 913.95887391 16.56045532 912.45632935 C18.38750312 908.9863867 20.24279432 905.54733657 22.22216797 902.16162109 C22.87975098 901.01902832 23.53733398 899.87643555 24.21484375 898.69921875 C25.09644165 897.21748169 25.09644165 897.21748169 25.99584961 895.70581055 C27.28265059 893.03780523 27.28265059 893.03780523 26.29443359 890.3605957 C24.47467948 887.04199847 22.62580819 883.75048179 20.6875 880.5 C20.25888672 879.77820557 19.83027344 879.05641113 19.38867188 878.31274414 C17.93249796 875.87107097 16.46727276 873.43501902 15 871 C14.43619629 870.06140137 13.87239258 869.12280273 13.29150391 868.15576172 C11.53702518 865.24387817 9.77057833 862.33961751 8 859.4375 C7.43627686 858.50292969 6.87255371 857.56835938 6.29174805 856.60546875 C5.76234619 855.744375 5.23294434 854.88328125 4.6875 853.99609375 C3.98173828 852.83871704 3.98173828 852.83871704 3.26171875 851.65795898 C2.84535156 851.11083252 2.42898438 850.56370605 2 850 C1.34 850 0.68 850 0 850 Z " fill="#000000" transform="translate(511,19)"/>
<path d="M0 0 C9.11040241 0.59423778 18.17468297 1.37904097 27.24633789 2.40429688 C29.11073769 2.6122715 29.11073769 2.6122715 31.01280212 2.82444763 C42.44167317 4.10956398 53.86197396 5.46701889 65.27927494 6.85089874 C72.91066622 7.7745042 80.5432738 8.67337514 88.18481445 9.50927734 C94.90596475 10.24452908 101.6194487 11.02863017 108.32846826 11.86760569 C111.8548936 12.30707232 115.38032195 12.72541522 118.9158802 13.08482361 C139.80815062 15.2325013 154.45110132 21.39436681 171.65959167 32.81049728 C177.27901157 36.49380002 183.05168818 39.91830247 188.8125 43.375 C190.10786162 44.16221192 191.40251261 44.95059721 192.69580078 45.74121094 C201.48608708 51.10425278 210.32837185 56.37661812 219.1875 61.625 C220.53761402 62.42518399 221.88771178 63.2253954 223.23779297 64.02563477 C224.23061783 64.61410439 224.23061783 64.61410439 225.24349976 65.21446228 C225.90048859 65.60388504 226.55747742 65.9933078 227.234375 66.39453125 C228.21248642 66.97425438 228.21248642 66.97425438 229.21035767 67.56568909 C235.79368398 71.46860315 242.36932154 75.3841376 248.9375 79.3125 C250.42769653 80.20026123 250.42769653 80.20026123 251.94799805 81.10595703 C257.74532002 84.57864744 263.41671155 88.19238882 269 92 C265.54829969 93.13585814 262.92881406 92.88067542 259.36071777 92.32542419 C258.21140778 92.15035843 257.06209778 91.97529266 255.87796021 91.79492188 C254.62079193 91.59503662 253.36362366 91.39515137 252.06835938 91.18920898 C250.72774783 90.98171876 249.38703663 90.77487146 248.04623413 90.56861877 C244.40400649 90.00591493 240.76350649 89.43271918 237.12338829 88.8565433 C234.84472204 88.49624745 232.56573905 88.13802818 230.28663635 87.78050423 C222.32219626 86.53083407 214.35925609 85.27202255 206.39746094 84.00561523 C198.99984649 82.82921874 191.59916754 81.67375268 184.1967597 80.52794403 C177.82653384 79.54086128 171.45887586 78.53823246 165.09292841 77.52392632 C161.29786281 76.91955262 157.50207857 76.32142052 153.70353699 75.73925591 C150.12188025 75.1898354 146.54383047 74.62093357 142.96751785 74.03777122 C141.0491933 73.72978159 139.12776185 73.44133549 137.20626831 73.15377808 C128.92865275 71.777756 122.28301349 69.13104086 115 65 C114.0577784 64.47858146 113.11555679 63.95716291 112.14478302 63.41994381 C109.49949318 61.94885822 106.87409327 60.4460435 104.25 58.9375 C96.11350616 54.29813574 87.93237718 49.75641165 79.6875 45.3125 C70.60618858 40.41599126 61.56571451 35.45497268 52.55761719 30.42529297 C49.60595606 28.78040965 46.65080949 27.14188723 43.6953125 25.50390625 C29.08959491 17.40696239 14.52301365 9.24438596 0 1 C0 0.67 0 0.34 0 0 Z " fill="#000000" transform="translate(713,602)"/>
<path d="M0 0 C0.33 0 0.66 0 1 0 C0.06130158 21.92922019 -3.06091751 43.73695265 -5.71880817 65.51112652 C-6.69952157 73.55178311 -7.64988956 81.59480304 -8.56061488 89.64369363 C-9.21002617 95.35883181 -9.89587496 101.06894223 -10.60708112 106.77671462 C-11.02767256 110.16032544 -11.43331541 113.54396862 -11.79866982 116.93402672 C-13.65780655 133.81713994 -17.01810062 146.76277147 -26.60305023 160.92121792 C-28.62446831 163.92926285 -30.4494602 167.03646401 -32.29296875 170.15625 C-33.5888903 172.27221638 -34.88707008 174.38680138 -36.1875 176.5 C-42.93361454 187.52137291 -49.52364263 198.62743127 -56.02807617 209.79296875 C-59.81058468 216.28181832 -63.63446635 222.74243434 -67.50843811 229.17686462 C-70.35560953 233.91131828 -73.16628067 238.66636649 -75.96484375 243.4296875 C-77.20521977 245.53612641 -78.4459755 247.64234131 -79.68676758 249.74853516 C-80.53476434 251.19027862 -81.38106553 252.63302046 -82.22583008 254.07666016 C-83.46740398 256.19718055 -84.7154636 258.31375965 -85.96484375 260.4296875 C-86.53041237 261.40130325 -86.53041237 261.40130325 -87.10740662 262.39254761 C-89.77241492 266.88620746 -89.77241492 266.88620746 -92 268 C-91.43599252 259.29178532 -90.4975951 250.71988132 -89.1809082 242.0949707 C-88.99842529 240.87662537 -88.81594238 239.65828003 -88.62792969 238.40301514 C-86.94098631 227.2019703 -85.19491631 216.00972838 -83.42905903 204.82087421 C-82.1321125 196.59818624 -80.86653379 188.37199516 -79.64287883 180.13807422 C-78.77150642 174.29412811 -77.86196225 168.45682344 -76.92626065 162.62283772 C-76.37282061 159.16561634 -75.8346948 155.70788702 -75.33876991 152.24190712 C-72.64572682 133.53493842 -67.55442506 118.98309226 -57.73606682 102.87041187 C-54.91644248 98.20844662 -52.2817162 93.44349643 -49.625 88.6875 C-48.55311994 86.80019214 -47.48047584 84.91331741 -46.40625 83.02734375 C-42.59019106 76.2988525 -38.85518897 69.5262898 -35.125 62.75 C-34.44712368 61.51911289 -33.76922653 60.28823724 -33.09130859 59.05737305 C-32.07265959 57.20777233 -31.05402155 55.35816561 -30.03549194 53.50849915 C-20.16676711 35.59046882 -10.20978582 17.72640507 0 0 Z " fill="#000000" transform="translate(697,42)"/>
<path d="M0 0 C-2.41548749 2.70715008 -4.97261957 4.21429696 -8.171875 5.8984375 C-9.21682129 6.45345947 -10.26176758 7.00848145 -11.33837891 7.58032227 C-12.46421387 8.17256592 -13.59004883 8.76480957 -14.75 9.375 C-17.12962314 10.638153 -19.50655635 11.90630726 -21.8828125 13.17578125 C-22.48406952 13.49665207 -23.08532654 13.81752289 -23.70480347 14.14811707 C-29.39754235 17.1949398 -35.01711357 20.36296245 -40.625 23.5625 C-49.48061667 28.60716902 -58.4076787 33.50349546 -67.37817383 38.34057617 C-75.41108716 42.67344128 -83.39850313 47.08202562 -91.36767578 51.53076172 C-96.38384683 54.33055001 -101.40214891 57.12649533 -106.42196655 59.91973877 C-108.21134437 60.9159784 -109.99985175 61.91376783 -111.78833008 62.91162109 C-113.44771606 63.83515381 -113.44771606 63.83515381 -115.140625 64.77734375 C-116.12579102 65.32640381 -117.11095703 65.87546387 -118.12597656 66.44116211 C-123.0766185 69.12633445 -127.32784337 71.30766756 -132.93362427 72.20269775 C-134.09724487 72.3933783 -135.26086548 72.58405884 -136.45974731 72.78051758 C-137.7222934 72.97701904 -138.98483948 73.17352051 -140.28564453 73.37597656 C-141.63976205 73.59395706 -142.99374246 73.81279072 -144.34759521 74.03240967 C-148.01124916 74.62403054 -151.67677789 75.20314537 -155.34285212 75.77955341 C-159.18300006 76.38505223 -163.02153592 77.00061698 -166.86032104 77.61468506 C-173.30340388 78.64370216 -179.74773419 79.66459712 -186.19287109 80.68066406 C-193.64390966 81.85541209 -201.09282047 83.04297108 -208.54072869 84.23739266 C-215.71032042 85.38688063 -222.88131898 86.5273474 -230.05300522 87.66368866 C-233.10362683 88.14721497 -236.15372043 88.6338956 -239.20343399 89.12311554 C-242.79247343 89.69843064 -246.38267573 90.2658402 -249.97393036 90.82715607 C-251.92056525 91.13333165 -253.86596054 91.44735616 -255.81130981 91.76159668 C-256.96929077 91.94099792 -258.12727173 92.12039917 -259.32034302 92.30523682 C-260.82961207 92.54412817 -260.82961207 92.54412817 -262.36937141 92.78784561 C-264.89535479 92.99156059 -266.61246239 92.78870834 -269 92 C-262.36754464 87.41328002 -255.50760849 83.29583121 -248.53134155 79.25592041 C-238.01218819 73.16056035 -227.56482868 66.95875915 -217.1875 60.625 C-205.89306954 53.73266305 -194.54006905 46.94445121 -183.15112305 40.20947266 C-182.58211588 39.87171027 -182.01310871 39.53394789 -181.4268589 39.18595028 C-180.16608106 38.44189008 -178.90166458 37.70394019 -177.63270569 36.97391987 C-173.57529742 34.61720763 -169.69324167 32.11322583 -165.85151672 29.41810608 C-149.7051667 18.43651495 -134.75808911 14.89702457 -115.62752867 12.84436727 C-111.81532808 12.4224411 -108.01175914 11.93266811 -104.20669556 11.45127869 C-97.03861981 10.5545429 -89.86494654 9.71752413 -82.68713629 8.90282768 C-74.5249406 7.97302474 -66.37221935 6.96997286 -58.21918368 5.96350873 C-46.19249812 4.48168573 -34.16266984 3.02411671 -22.12421989 1.64082527 C-20.22064735 1.42155574 -18.31749148 1.19867814 -16.41435242 0.97567749 C-10.90891279 0.35061771 -5.54176007 -0.18294421 0 0 Z " fill="#000000" transform="translate(311,602)"/>
<path d="M0 0 C-6.63245536 4.58671998 -13.49239151 8.70416879 -20.46865845 12.74407959 C-30.98781181 18.83943965 -41.43517132 25.04124085 -51.8125 31.375 C-63.10693046 38.26733695 -74.45993095 45.05554879 -85.84887695 51.79052734 C-86.41788412 52.12828973 -86.98689129 52.46605211 -87.5731411 52.81404972 C-88.83391894 53.55810992 -90.09833542 54.29605981 -91.36729431 55.02608013 C-95.42470258 57.38279237 -99.30675833 59.88677417 -103.14848328 62.58189392 C-119.2948333 73.56348505 -134.24191089 77.10297543 -153.37247133 79.15563273 C-157.18467192 79.5775589 -160.98824086 80.06733189 -164.79330444 80.54872131 C-171.96138019 81.4454571 -179.13505346 82.28247587 -186.31286371 83.09717232 C-194.4750594 84.02697526 -202.62778065 85.03002714 -210.78081632 86.03649127 C-222.80750188 87.51831427 -234.83733016 88.97588329 -246.87578011 90.35917473 C-248.77935265 90.57844426 -250.68250852 90.80132186 -252.58564758 91.02432251 C-258.09108721 91.64938229 -263.45823993 92.18294421 -269 92 C-266.58451251 89.29284992 -264.02738043 87.78570304 -260.828125 86.1015625 C-259.26070557 85.26902954 -259.26070557 85.26902954 -257.66162109 84.41967773 C-256.53578613 83.82743408 -255.40995117 83.23519043 -254.25 82.625 C-251.87037686 81.361847 -249.49344365 80.09369274 -247.1171875 78.82421875 C-246.21530197 78.34291252 -246.21530197 78.34291252 -245.29519653 77.85188293 C-239.60245765 74.8050602 -233.98288643 71.63703755 -228.375 68.4375 C-219.51938333 63.39283098 -210.5923213 58.49650454 -201.62182617 53.65942383 C-193.58891284 49.32655872 -185.60149687 44.91797438 -177.63232422 40.46923828 C-172.61615317 37.66944999 -167.59785109 34.87350467 -162.57803345 32.08026123 C-160.78865563 31.0840216 -159.00014825 30.08623217 -157.21166992 29.08837891 C-156.1054126 28.47269043 -154.99915527 27.85700195 -153.859375 27.22265625 C-152.87420898 26.67359619 -151.88904297 26.12453613 -150.87402344 25.55883789 C-145.9233815 22.87366555 -141.67215663 20.69233244 -136.06637573 19.79730225 C-134.90275513 19.6066217 -133.73913452 19.41594116 -132.54025269 19.21948242 C-131.2777066 19.02298096 -130.01516052 18.82647949 -128.71435547 18.62402344 C-127.36023795 18.40604294 -126.00625754 18.18720928 -124.65240479 17.96759033 C-120.98875084 17.37596946 -117.32322211 16.79685463 -113.65714788 16.22044659 C-109.81699994 15.61494777 -105.97846408 14.99938302 -102.13967896 14.38531494 C-95.69659612 13.35629784 -89.25226581 12.33540288 -82.80712891 11.31933594 C-75.35609034 10.14458791 -67.90717953 8.95702892 -60.45927131 7.76260734 C-53.28967958 6.61311937 -46.11868102 5.4726526 -38.94699478 4.33631134 C-35.89637317 3.85278503 -32.84627957 3.3661044 -29.79656601 2.87688446 C-26.20752657 2.30156936 -22.61732427 1.7341598 -19.02606964 1.17284393 C-17.07943475 0.86666835 -15.13403946 0.55264384 -13.18869019 0.23840332 C-12.03070923 0.05900208 -10.87272827 -0.12039917 -9.67965698 -0.30523682 C-8.67347761 -0.46449772 -7.66729824 -0.62375862 -6.63062859 -0.78784561 C-4.10464521 -0.99156059 -2.38753761 -0.78870834 0 0 Z " fill="#000000" transform="translate(982,328)"/>
<path d="M0 0 C22.08317332 2.51994164 44.02275435 6.23593399 65.97743607 9.6764183 C74.10054151 10.9490938 82.22547803 12.20843397 90.35333371 13.45042014 C96.11228864 14.33159677 101.86870399 15.22828489 107.62351108 16.1361506 C111.04275572 16.67512531 114.46270802 17.20746294 117.88559723 17.72283173 C121.70201827 18.30126877 125.51365162 18.90500787 129.32519531 19.51464844 C130.99006485 19.75809998 130.99006485 19.75809998 132.68856812 20.00646973 C140.62217145 21.31403737 147.00874421 24.08006684 154 28 C155.41583059 28.78257486 155.41583059 28.78257486 156.86026382 29.58095932 C159.50324213 31.05277251 162.12734967 32.55478602 164.75 34.0625 C172.88649384 38.70186426 181.06762282 43.24358835 189.3125 47.6875 C198.39381142 52.58400874 207.43428549 57.54502732 216.44238281 62.57470703 C219.39404394 64.21959035 222.34919051 65.85811277 225.3046875 67.49609375 C239.91040509 75.59303761 254.47698635 83.75561404 269 92 C269 92.33 269 92.66 269 93 C259.88959759 92.40576222 250.82531703 91.62095903 241.75366211 90.59570312 C239.88926231 90.3877285 239.88926231 90.3877285 237.98719788 90.17555237 C226.55832683 88.89043602 215.13802604 87.53298111 203.72072506 86.14910126 C196.08933378 85.2254958 188.4567262 84.32662486 180.81518555 83.49072266 C174.09403525 82.75547092 167.3805513 81.97136983 160.67153174 81.13239431 C157.1451064 80.69292768 153.61967805 80.27458478 150.0841198 79.91517639 C129.19184938 77.7674987 114.54889868 71.60563319 97.34040833 60.18950272 C91.72098843 56.50619998 85.94831182 53.08169753 80.1875 49.625 C78.89213838 48.83778808 77.59748739 48.04940279 76.30419922 47.25878906 C67.51391292 41.89574722 58.67162815 36.62338188 49.8125 31.375 C48.46238598 30.57481601 47.11228822 29.7746046 45.76220703 28.97436523 C45.10032379 28.58205215 44.43844055 28.18973907 43.75650024 27.78553772 C43.09951141 27.39611496 42.44252258 27.0066922 41.765625 26.60546875 C41.11355072 26.21898666 40.46147644 25.83250458 39.78964233 25.43431091 C33.20631602 21.53139685 26.63067846 17.6158624 20.0625 13.6875 C19.06903564 13.09565918 18.07557129 12.50381836 17.05200195 11.89404297 C4.69465771 4.49179224 4.69465771 4.49179224 0 1 C0 0.67 0 0.34 0 0 Z " fill="#000000" transform="translate(42,327)"/>
<path d="M0 0 C2.65287949 2.40516488 4.32048995 4.99124166 6.125 8.07421875 C6.73931885 9.11787598 7.3536377 10.1615332 7.98657227 11.23681641 C8.65100342 12.37554199 9.31543457 13.51426758 10 14.6875 C10.70642832 15.89011771 11.41339006 17.09242223 12.12084961 18.29443359 C13.63024935 20.85953848 15.13770487 23.4257719 16.64404297 25.99267578 C20.19477751 32.03806208 23.77520075 38.06584031 27.35580444 44.09356689 C28.56875767 46.13553459 29.78109666 48.17786613 30.9934082 50.22021484 C36.46468801 59.43414297 41.96947385 68.62753707 47.49047852 77.81176758 C52.18665372 85.62982114 56.85065873 93.46654065 61.5 101.3125 C62.14670654 102.40344971 62.79341309 103.49439941 63.4597168 104.6184082 C65.30991745 107.74363375 67.15894989 110.86937151 69 114 C69.81488939 115.23030142 69.81488939 115.23030142 70.64624119 116.48545742 C75.49673116 124.11595079 77.35819075 130.61404747 78.35522461 139.53613281 C78.5220575 140.83201324 78.68889038 142.12789368 78.86077881 143.46304321 C79.31237197 146.97659843 79.7307823 150.49335873 80.14255214 154.01177311 C80.58129572 157.7125915 81.05035705 161.40957438 81.51576233 165.1071167 C82.29206768 171.30825844 83.04871352 177.51152589 83.79125977 183.71679688 C84.83641028 192.45046035 85.91838255 201.17927727 87.00714481 209.90759516 C87.85463921 216.71352093 88.69138646 223.52077423 89.52734375 230.328125 C89.61657002 231.05326829 89.70579629 231.77841158 89.79772639 232.52552891 C90.39000077 237.34322919 90.97257058 242.16200728 91.55053711 246.98144531 C91.69850235 248.18682953 91.84646759 249.39221375 91.99891663 250.63412476 C92.69081003 256.46990151 93.16708152 262.1233008 93 268 C90.43330036 265.6806591 88.93371812 263.3153054 87.3203125 260.265625 C86.81072998 259.31147705 86.30114746 258.3573291 85.77612305 257.37426758 C85.23125244 256.34325928 84.68638184 255.31225098 84.125 254.25 C79.73896952 246.04869437 75.29011987 237.89431072 70.6875 229.8125 C65.76824122 221.16035667 60.92447323 212.46894688 56.125 203.75 C55.79000488 203.14146179 55.45500977 202.53292358 55.10986328 201.90594482 C54.60688721 200.99223114 54.60688721 200.99223114 54.09375 200.06005859 C53.41538477 198.82778837 52.73699934 197.59552926 52.05859375 196.36328125 C51.72246063 195.7526886 51.38632751 195.14209595 51.04000854 194.51300049 C46.87830785 186.95732904 42.68384413 179.4198819 38.48681641 171.88378906 C37.35438346 169.84873948 36.23420412 167.80682436 35.12619019 165.75837708 C33.66741629 163.11258615 32.09126666 160.587347 30.43029785 158.06419373 C21.42564276 143.85682447 18.85130119 129.05786325 16.44222665 112.70735407 C15.88234985 108.96365592 15.27885408 105.22696577 14.68070984 101.48922729 C13.6857973 95.23494249 12.71811813 88.97698853 11.77075195 82.71533203 C10.43593925 73.89302238 9.05184273 65.0789611 7.65777266 56.2658484 C5.68841038 43.79824997 3.74207132 31.32694782 1.8449707 18.84814453 C1.56231857 17.0200827 1.56231857 17.0200827 1.2739563 15.15509033 C1.02013435 13.46958572 1.02013435 13.46958572 0.76118469 11.75003052 C0.61323613 10.77862688 0.46528757 9.80722324 0.31285572 8.80638313 C-0.01686611 5.84870741 -0.05357176 2.97352935 0 0 Z " fill="#000000" transform="translate(605,712)"/>
<path d="M0 0 C0.33 0 0.66 0 1 0 C0.43599252 8.70821468 -0.5024049 17.28011868 -1.8190918 25.9050293 C-2.09281616 27.7325473 -2.09281616 27.7325473 -2.37207031 29.59698486 C-4.05901369 40.7980297 -5.80508369 51.99027162 -7.57094097 63.17912579 C-8.8678875 71.40181376 -10.13346621 79.62800484 -11.35712117 87.86192578 C-12.22849358 93.70587189 -13.13803775 99.54317656 -14.07373935 105.37716228 C-14.62717939 108.83438366 -15.1653052 112.29211298 -15.66123009 115.75809288 C-18.35427318 134.46506158 -23.44557494 149.01690774 -33.26393318 165.12958813 C-36.08355752 169.79155338 -38.7182838 174.55650357 -41.375 179.3125 C-42.44688006 181.19980786 -43.51952416 183.08668259 -44.59375 184.97265625 C-48.40980894 191.7011475 -52.14481103 198.4737102 -55.875 205.25 C-56.55287632 206.48088711 -57.23077347 207.71176276 -57.90869141 208.94262695 C-58.92734041 210.79222767 -59.94597845 212.64183439 -60.96450806 214.49150085 C-70.83323289 232.40953118 -80.79021418 250.27359493 -91 268 C-91.33 268 -91.66 268 -92 268 C-91.03519484 246.16128582 -88.04878362 224.4389503 -85.43662834 202.74793434 C-84.56168901 195.4738718 -83.70875103 188.19867402 -82.91259766 180.91552734 C-82.21155587 174.50252351 -81.46770586 168.0960932 -80.67518437 161.69372785 C-80.26000425 158.32917871 -79.87003039 154.96675556 -79.51852036 151.59462357 C-77.47596255 132.1975823 -72.30631485 118.65500714 -61.69776917 102.58014774 C-59.49439615 99.23161955 -57.45364782 95.80570859 -55.4140625 92.35546875 C-54.15353613 90.29794887 -52.89057554 88.24191801 -51.625 86.1875 C-45.64156441 76.41647751 -39.77844072 66.58107011 -34 56.6875 C-33.63666565 56.06564819 -33.2733313 55.44379639 -32.89898682 54.80310059 C-31.18119152 51.86297031 -29.46365771 48.9226873 -27.74609375 45.98242188 C-24.99558845 41.28441114 -22.21144344 36.60781675 -19.390625 31.95166016 C-17.52495815 28.86967693 -15.66568381 25.78392569 -13.80957031 22.69618225 C-12.27087338 20.13826648 -10.72829205 17.58270255 -9.18530273 15.02737427 C-8.39715691 13.72086631 -7.61020335 12.41363835 -6.82446289 11.10568237 C-5.71975001 9.2675707 -4.61043904 7.43231266 -3.5 5.59765625 C-2.8503125 4.52008057 -2.200625 3.44250488 -1.53125 2.33227539 C-0.77328125 1.17779907 -0.77328125 1.17779907 0 0 Z " fill="#000000" transform="translate(418,712)"/>
<path d="M0 0 C2.56669964 2.3193409 4.06628188 4.6846946 5.6796875 7.734375 C6.44406128 9.16559692 6.44406128 9.16559692 7.22387695 10.62573242 C8.04118286 12.17224487 8.04118286 12.17224487 8.875 13.75 C13.26103048 21.95130563 17.70988013 30.10568928 22.3125 38.1875 C27.23175878 46.83964333 32.07552677 55.53105312 36.875 64.25 C37.20999512 64.85853821 37.54499023 65.46707642 37.89013672 66.09405518 C38.2254541 66.70319763 38.56077148 67.31234009 38.90625 67.93994141 C39.58461523 69.17221163 40.26300066 70.40447074 40.94140625 71.63671875 C41.27753937 72.2473114 41.61367249 72.85790405 41.95999146 73.48699951 C46.12169215 81.04267096 50.31615587 88.5801181 54.51318359 96.11621094 C55.64561654 98.15126052 56.76579588 100.19317564 57.87380981 102.24162292 C59.33258371 104.88741385 60.90873334 107.412653 62.56970215 109.93580627 C71.57435724 124.14317553 74.14869881 138.94213675 76.55777335 155.29264593 C77.11765015 159.03634408 77.72114592 162.77303423 78.31929016 166.51077271 C79.3142027 172.76505751 80.28188187 179.02301147 81.22924805 185.28466797 C82.56406075 194.10697762 83.94815727 202.9210389 85.34222734 211.7341516 C87.31158962 224.20175003 89.25792868 236.67305218 91.1550293 249.15185547 C91.43768143 250.9799173 91.43768143 250.9799173 91.7260437 252.84490967 C91.89525833 253.96857941 92.06447296 255.09224915 92.23881531 256.24996948 C92.38676387 257.22137312 92.53471243 258.19277676 92.68714428 259.19361687 C93.01686611 262.15129259 93.05357176 265.02647065 93 268 C90.34712051 265.59483512 88.67951005 263.00875834 86.875 259.92578125 C86.26068115 258.88212402 85.6463623 257.8384668 85.01342773 256.76318359 C84.34899658 255.62445801 83.68456543 254.48573242 83 253.3125 C82.29357168 252.10988229 81.58660994 250.90757777 80.87915039 249.70556641 C79.36975065 247.14046152 77.86229513 244.5742281 76.35595703 242.00732422 C72.80522249 235.96193792 69.22479925 229.93415969 65.64419556 223.90643311 C64.43124233 221.86446541 63.21890334 219.82213387 62.0065918 217.77978516 C56.53531199 208.56585703 51.03052615 199.37246293 45.50952148 190.18823242 C40.81334628 182.37017886 36.14934127 174.53345935 31.5 166.6875 C30.52994019 165.05107544 30.52994019 165.05107544 29.5402832 163.3815918 C27.69008255 160.25636625 25.84105011 157.13062849 24 154 C23.45674041 153.17979905 22.91348082 152.3595981 22.35375881 151.51454258 C17.50326884 143.88404921 15.64180925 137.38595253 14.64477539 128.46386719 C14.4779425 127.16798676 14.31110962 125.87210632 14.13922119 124.53695679 C13.68762803 121.02340157 13.2692177 117.50664127 12.85744786 113.98822689 C12.41870428 110.2874085 11.94964295 106.59042562 11.48423767 102.8928833 C10.70793232 96.69174156 9.95128648 90.48847411 9.20874023 84.28320312 C8.16358972 75.54953965 7.08161745 66.82072273 5.99285519 58.09240484 C5.14536079 51.28647907 4.30861354 44.47922577 3.47265625 37.671875 C3.33881684 36.58416007 3.33881684 36.58416007 3.20227361 35.47447109 C2.60999923 30.65677081 2.02742942 25.83799272 1.44946289 21.01855469 C1.30149765 19.81317047 1.15353241 18.60778625 1.00108337 17.36587524 C0.30918997 11.53009849 -0.16708152 5.8766992 0 0 Z " fill="#000000" transform="translate(326,42)"/>
<path d="M0 0 C6.77725141 -0.76254788 10.36775284 0.90922312 15.59082031 4.99975586 C18.28330505 7.25308705 20.88724672 9.59034145 23.47167969 11.96630859 C25.34223335 13.59192044 27.27195498 14.99257356 29.31640625 16.390625 C30.31414063 17.11636719 31.311875 17.84210937 32.33984375 18.58984375 C32.33984375 19.24984375 32.33984375 19.90984375 32.33984375 20.58984375 C28.1284584 20.93473007 23.91803232 21.22077271 19.69946289 21.45654297 C18.27004415 21.54426497 16.84145747 21.64706038 15.41430664 21.76611328 C7.77601687 22.3930371 1.76867178 22.63745413 -4.7265625 17.89453125 C-6.38855504 16.47989707 -8.03498168 15.04662674 -9.66015625 13.58984375 C-10.93701968 12.67190305 -12.22931533 11.77462721 -13.54296875 10.91015625 C-14.61289062 10.18570313 -15.6828125 9.46125 -16.78515625 8.71484375 C-17.3471875 8.3384375 -17.90921875 7.96203125 -18.48828125 7.57421875 C-22.55198317 4.8061899 -22.55198317 4.8061899 -23.66015625 2.58984375 C-17.83397389 1.93926307 -12.00802631 1.35940362 -6.16845703 0.84326172 C-4.10369174 0.63465491 -2.04884262 0.33017635 0 0 Z " fill="#000000" transform="translate(665.66015625,576.41015625)"/>
<path d="M0 0 C0.83789062 0.07492676 1.67578125 0.14985352 2.5390625 0.22705078 C8.36771793 0.74909738 14.18423316 1.35058237 20 2 C15.66780232 6.74224109 10.68447724 10.17012519 5.375 13.75 C4.51648438 14.33910156 3.65796875 14.92820312 2.7734375 15.53515625 C-3.06149687 19.5010882 -6.42934004 21.16216568 -13.63671875 20.87890625 C-14.93544922 20.83056641 -16.23417969 20.78222656 -17.57226562 20.73242188 C-18.94401533 20.67590048 -20.31576007 20.61925831 -21.6875 20.5625 C-23.07094416 20.50925949 -24.45440766 20.45651922 -25.83789062 20.40429688 C-29.22548325 20.27445883 -32.61279314 20.13948625 -36 20 C-34.69273684 16.07821053 -32.20661032 14.60658987 -29 12.25 C-24.16208871 8.68593887 -24.16208871 8.68593887 -19.59375 4.7890625 C-13.3226858 -0.94381335 -8.22387682 -0.79771605 0 0 Z " fill="#000000" transform="translate(362,577)"/>
<path d="M0 0 C0.66894287 0.4122583 1.33788574 0.8245166 2.02709961 1.24926758 C4.33468279 2.76424034 6.63811088 4.28511462 8.9375 5.8125 C9.73607422 6.33392578 10.53464844 6.85535156 11.35742188 7.39257812 C15.70491159 10.27769764 19.47490204 13.14731718 23 17 C17.17381764 17.65058068 11.34787006 18.23044013 5.50830078 18.74658203 C3.44353549 18.95518884 1.38868637 19.2596674 -0.66015625 19.58984375 C-7.43740766 20.35239163 -11.02790909 18.68062063 -16.25097656 14.59008789 C-18.9434613 12.3367567 -21.54740297 9.9995023 -24.13183594 7.62353516 C-26.0023896 5.99792331 -27.93211123 4.59727019 -29.9765625 3.19921875 C-30.97429687 2.47347656 -31.97203125 1.74773437 -33 1 C-33 0.34 -33 -0.32 -33 -1 C-28.94371612 -1.19282973 -24.887077 -1.37145834 -20.82958984 -1.53710938 C-19.45018879 -1.59540761 -18.07094424 -1.65754312 -16.69189453 -1.72363281 C-14.70651227 -1.81810666 -12.7204313 -1.89751548 -10.734375 -1.9765625 C-8.94338379 -2.05511475 -8.94338379 -2.05511475 -7.11621094 -2.13525391 C-3.99425188 -1.99975051 -2.59033038 -1.64376429 0 0 Z " fill="#000000" transform="translate(359,426)"/>
<path d="M0 0 C1.94024048 0.07069702 1.94024048 0.07069702 3.91967773 0.14282227 C4.9496714 0.17823875 4.9496714 0.17823875 6.00047302 0.21437073 C8.20160776 0.29117032 10.40240492 0.37512354 12.60327148 0.45922852 C14.09218705 0.51243295 15.58111928 0.56517344 17.07006836 0.61743164 C20.72717821 0.74680703 24.3840182 0.8826009 28.04077148 1.02172852 C26.73350833 4.94351799 24.2473818 6.41513864 21.04077148 8.77172852 C16.2028602 12.33578964 16.2028602 12.33578964 11.63452148 16.23266602 C7.59236064 19.927925 4.76577879 21.46461273 -0.77172852 21.58422852 C-3.17113467 21.44997603 -5.56729593 21.25374598 -7.95922852 21.02172852 C-8.79711914 20.94680176 -9.63500977 20.871875 -10.49829102 20.79467773 C-16.32694644 20.27263114 -22.14346168 19.67114615 -27.95922852 19.02172852 C-23.60855725 14.23958572 -18.56891386 10.84753058 -13.20922852 7.27172852 C-11.48473703 6.11106193 -9.76075056 4.94964454 -8.03735352 3.78735352 C-7.27841797 3.27978516 -6.51948242 2.7722168 -5.73754883 2.24926758 C-2.50571709 0.01839855 -2.50571709 0.01839855 0 0 Z " fill="#000000" transform="translate(669.959228515625,423.978271484375)"/>
<path d="M0 0 C0.05434753 4.5953857 0.04813002 9.18536732 -0.00097656 13.78076172 C-0.00007717 15.82463353 0.07838102 17.86808096 0.1640625 19.91015625 C0.23104616 30.52706591 -3.65088302 35.9534149 -10.56201172 43.44140625 C-11.89828223 44.88975106 -13.18769153 46.38094939 -14.47265625 47.875 C-16.27309868 49.966258 -18.05912168 52.03836362 -20 54 C-20.33 54 -20.66 54 -21 54 C-21.24966236 49.4838 -21.42972484 44.97171324 -21.54931641 40.45019531 C-21.59921257 38.91725643 -21.66716622 37.38478388 -21.75439453 35.85351562 C-22.45907048 23.15276802 -22.45907048 23.15276802 -18.86791992 17.85424805 C-16.36152448 15.36073068 -13.76908689 13.19220484 -11 11 C-9.65472643 9.55057622 -8.33509488 8.07613554 -7.0625 6.5625 C-1.48643006 0 -1.48643006 0 0 0 Z " fill="#000000" transform="translate(445,642)"/>
<path d="M0 0 C2.90701813 2.24177287 5.51724625 4.3598654 7.75390625 7.27734375 C8.21603516 7.87353516 8.67816406 8.46972656 9.15429688 9.08398438 C9.61900391 9.69564453 10.08371094 10.30730469 10.5625 10.9375 C11.50116525 12.15505342 12.43996501 13.37250315 13.37890625 14.58984375 C13.82218262 15.17596436 14.26545898 15.76208496 14.72216797 16.3659668 C15.84629743 17.80345218 17.06367938 19.16696681 18.29296875 20.515625 C20.49939404 23.72680689 20.59887114 25.93772394 20.75 29.8125 C20.80542969 31.11960937 20.86085938 32.42671875 20.91796875 33.7734375 C21.07488058 40.5158914 21.07975176 47.25654586 21 54 C14.90717126 49.15343168 9.79457602 43.57438867 4.57421875 37.828125 C3.08191488 36.18862879 1.56762857 34.56762857 0 33 C-0.17495606 30.49079154 -0.23169569 28.09375059 -0.1953125 25.5859375 C-0.1924826 24.85629791 -0.18965271 24.12665833 -0.18673706 23.37490845 C-0.17553002 21.04143972 -0.1504251 18.70835297 -0.125 16.375 C-0.11497085 14.79427637 -0.10584489 13.21354673 -0.09765625 11.6328125 C-0.07558905 7.75506086 -0.04105615 3.87759522 0 0 Z " fill="#000000" transform="translate(424,326)"/>
<path d="M0 0 C6.09282874 4.84656832 11.20542398 10.42561133 16.42578125 16.171875 C17.91808512 17.81137121 19.43237143 19.43237143 21 21 C21.17495606 23.50920846 21.23169569 25.90624941 21.1953125 28.4140625 C21.1924826 29.14370209 21.18965271 29.87334167 21.18673706 30.62509155 C21.17553002 32.95856028 21.1504251 35.29164703 21.125 37.625 C21.11497085 39.20572363 21.10584489 40.78645327 21.09765625 42.3671875 C21.07558905 46.24493914 21.04105615 50.12240478 21 54 C18.09298187 51.75822713 15.48275375 49.6401346 13.24609375 46.72265625 C12.55290039 45.82836914 12.55290039 45.82836914 11.84570312 44.91601562 C11.38099609 44.30435547 10.91628906 43.69269531 10.4375 43.0625 C9.49883475 41.84494658 8.56003499 40.62749685 7.62109375 39.41015625 C7.17781738 38.82331055 6.73454102 38.23646484 6.27783203 37.63183594 C5.15857162 36.20250147 3.93935167 34.85262063 2.70703125 33.51953125 C0.42322552 30.14869671 0.39543207 27.67285927 0.25 23.625 C0.22107666 22.93470703 0.19215332 22.24441406 0.16235352 21.53320312 C-0.10558912 14.35983317 -0.0928015 7.17664968 0 0 Z " fill="#000000" transform="translate(579,642)"/>
<path d="M0 0 C0.33 0 0.66 0 1 0 C1.24966236 4.5162 1.42972484 9.02828676 1.54931641 13.54980469 C1.59921257 15.08274357 1.66716622 16.61521612 1.75439453 18.14648438 C2.45918415 30.84928074 2.45918415 30.84928074 -1.13427734 36.14575195 C-3.64032999 38.63732804 -6.23475466 40.8055841 -9 43 C-10.32624029 44.44824842 -11.6255382 45.92251419 -12.875 47.4375 C-15.0427509 50.04642634 -17.2274797 52.03763174 -20 54 C-20.0553333 49.72089174 -20.04695966 45.44724427 -19.99902344 41.16845703 C-19.99996186 39.08468322 -20.07612716 37.01523541 -20.1640625 34.93359375 C-20.22793313 24.04365069 -16.78364666 18.40822769 -9.43798828 10.54248047 C-7.34582318 8.29828707 -5.37478295 5.95142626 -3.375 3.625 C-2.27676629 2.39228869 -1.16118442 1.1736035 0 0 Z " fill="#000000" transform="translate(599,326)"/>
</svg>
