<?xml version="1.0" encoding="UTF-8"?>
<svg version="1.1" xmlns="http://www.w3.org/2000/svg" width="1024" height="1024">
<path d="M0 0 C0.495 0.99 0.495 0.99 1 2 C0.14233398 3.80224609 0.14233398 3.80224609 -1.25390625 6.0234375 C-1.77162598 6.86471191 -2.2893457 7.70598633 -2.82275391 8.57275391 C-3.39687012 9.49749512 -3.97098633 10.42223633 -4.5625 11.375 C-36.38789314 64.09700044 -53.10242194 123.13559202 -60 184 C-60.10602539 184.9278833 -60.21205078 185.8557666 -60.32128906 186.81176758 C-61.22200203 195.93108286 -61.22121847 205.07779067 -61.24023438 214.2331543 C-61.24989713 217.03269669 -61.28099386 219.83148951 -61.3125 222.63085938 C-61.41316066 239.73262515 -61.30063697 261.35215625 -49.8125 275.25 C-46.852255 278.14446178 -46.09107248 278.83396723 -42.125 279.4375 C-35.47257456 279.31224513 -28.9669326 275.44602077 -23.953125 271.3125 C-20.0171878 267.12379619 -17.35863051 262.26760403 -14.60351562 257.25537109 C-5.84086796 241.53869274 4.87083033 226.84625393 15.796875 212.578125 C21.35849019 205.28301937 26.13189518 197.57880064 30.88085938 189.74365234 C40.82641072 173.36214236 52.01515318 157.93607036 64 143 C64.7734375 142.030625 65.546875 141.06125 66.34375 140.0625 C70.86058664 134.46416726 75.56429303 129.08444374 80.4453125 123.80078125 C82.37929288 121.6805 84.25467962 119.53745894 86.12109375 117.359375 C90.36622745 112.49363117 94.91422647 107.93528417 99.48803711 103.3815918 C100.93524385 101.93974779 102.37702026 100.49262884 103.81835938 99.04492188 C109.04168193 93.81751488 114.36314984 88.77939176 120 84 C121.00960883 83.12296447 122.01875568 82.24539671 123.02734375 81.3671875 C148.24638936 59.77020616 175.69574804 41.46814087 204.66210938 25.30615234 C206.66093849 24.18942973 208.65142083 23.05949246 210.640625 21.92578125 C219.18100811 17.18884783 228.03443964 13.18219748 236.9375 9.1875 C237.57228271 8.90246613 238.20706543 8.61743225 238.86108398 8.32376099 C258.11072562 -0.29642479 258.11072562 -0.29642479 262 1 C260.40285156 1.90878906 260.40285156 1.90878906 258.7734375 2.8359375 C244.9196153 10.79987863 232.15502882 19.60189275 220 30 C218.62714844 31.15242188 218.62714844 31.15242188 217.2265625 32.328125 C212.08931963 36.78903617 207.59282317 41.44441553 203.4375 46.8125 C203.01976318 47.35165039 202.60202637 47.89080078 202.17163086 48.44628906 C199.89350164 51.49514985 198.23178719 54.39785476 197 58 C201.40366418 57.44959272 204.70440937 56.36465445 208.62109375 54.296875 C210.24736694 53.45419067 210.24736694 53.45419067 211.90649414 52.59448242 C213.65434204 51.68146362 213.65434204 51.68146362 215.4375 50.75 C257.67372949 29.10805818 313.88899517 2.92286698 362 17 C378.19703557 22.34678441 389.37395734 31.99278959 397.20263672 47.08154297 C416.31693892 85.6812065 412.53582509 136.55860725 407 178 C406.90525391 178.71899475 406.81050781 179.4379895 406.71289062 180.17877197 C398.7746838 240.03797494 383.48769205 298.299404 366 356 C365.70583191 356.97124817 365.41166382 357.94249634 365.10858154 358.94317627 C347.9514867 415.47310435 329.08434141 471.5629998 309.03399658 527.12908936 C307.58018224 531.16563178 306.13549258 535.20541978 304.69064331 539.24517822 C289.93603556 580.49603062 274.67941894 621.55732606 259.36227417 662.60192871 C258.26103671 665.55492413 257.16194482 668.50871078 256.06323242 671.46264648 C254.74659113 675.00196563 253.42108651 678.53771972 252.0871582 682.07055664 C248.12105887 692.62258355 244.60955333 703.2459658 241.4375 714.0625 C241.20288055 714.85815369 240.96826111 715.65380737 240.72653198 716.47357178 C236.59380719 730.52829999 232.78814842 744.60853368 230 759 C229.79262207 760.06766602 229.58524414 761.13533203 229.37158203 762.23535156 C223.19881834 795.25109792 222.82631765 829.19963877 240 859 C242.44992199 862.55459623 245.11066199 865.7958703 248 869 C248.58007812 869.67289063 249.16015625 870.34578125 249.7578125 871.0390625 C259.24423559 881.34682092 271.99120279 888.23963794 285 893 C286.17304688 893.43957031 287.34609375 893.87914062 288.5546875 894.33203125 C362.35531285 919.72496991 457.37084943 893.58311522 526 863 C527.0204541 862.55076172 528.0409082 862.10152344 529.09228516 861.63867188 C585.68996539 836.62331482 645.69482661 800.98357991 684 751 C684.43022461 750.44618652 684.86044922 749.89237305 685.30371094 749.32177734 C704.5886066 724.39101975 718.61320089 695.04419322 714.73193359 662.77099609 C711.77331385 645.0150929 701.97193012 628.94564909 689.7578125 616.06640625 C688 614 688 614 688 612 C687.40662842 611.73662842 686.81325684 611.47325684 686.2019043 611.2019043 C683.90668348 609.94906339 682.53965586 608.67787514 680.76953125 606.76953125 C677.04190582 602.93888349 673.02862353 599.79261252 668.6875 596.6875 C667.51562134 595.84783691 667.51562134 595.84783691 666.32006836 594.99121094 C658.2354712 589.30615914 649.79646745 584.48772445 641 580 C640.24638184 579.61360352 639.49276367 579.22720703 638.71630859 578.82910156 C612.98063054 565.78356771 585.42918253 557.61512703 557 553 C556.28070312 552.88140625 555.56140625 552.7628125 554.8203125 552.640625 C489.17470176 542.236415 411.62396396 566.59958917 356.11328125 600.77734375 C354 602 354 602 352 602 C360.56928449 583.49716681 378.13745644 566.44191409 391.76953125 551.4765625 C393.01916528 550.08905291 394.26237349 548.69544641 395.48114014 547.28074646 C399.68145646 542.40874077 404.06657831 537.7866533 408.62109375 533.24609375 C409.32468521 532.54154556 410.02827667 531.83699738 410.75318909 531.11109924 C412.23014648 529.63346633 413.70834742 528.15707543 415.18774414 526.68188477 C417.43165085 524.44333519 419.67016704 522.19949527 421.90820312 519.95507812 C423.35384618 518.51009596 424.79979945 517.06542408 426.24609375 515.62109375 C426.9046788 514.96048447 427.56326385 514.29987518 428.24180603 513.61924744 C442.87254958 499.06084806 442.87254958 499.06084806 449.875 498.18359375 C450.85082031 498.05960205 451.82664062 497.93561035 452.83203125 497.80786133 C453.87746094 497.68564209 454.92289063 497.56342285 456 497.4375 C457.07636719 497.30819092 458.15273438 497.17888184 459.26171875 497.0456543 C468.83368587 495.9390726 478.37033232 495.26705804 488 495 C489.85431641 494.938125 489.85431641 494.938125 491.74609375 494.875 C557.49035971 493.76186957 626.58806386 514.71205875 681.0012207 551.59033203 C691.6670597 558.66730622 705.41578465 565.11684307 718.5 562.5 C718.995 562.335 719.49 562.17 720 562 C723.92955848 550.21132456 717.51217894 537.58630491 712.3125 527.125 C710.91309946 524.39528871 709.46921871 521.69271443 708 519 C707.44119141 517.97519531 707.44119141 517.97519531 706.87109375 516.9296875 C695.2815211 495.95059666 680.4664139 477.33846697 664 460 C663.21496094 459.17242187 662.42992187 458.34484375 661.62109375 457.4921875 C656.11790675 451.84133001 650.21081208 446.85487569 644 442 C643.15187744 441.32928467 643.15187744 441.32928467 642.28662109 440.64501953 C627.88404309 429.30284334 612.31812916 419.36925125 596 411 C599.5197405 409.77692613 601.70478957 410.23389231 605.234375 411.30078125 C606.27126465 411.61321777 607.3081543 411.9256543 608.37646484 412.24755859 C609.48973145 412.59898926 610.60299805 412.95041992 611.75 413.3125 C612.90580566 413.67424316 614.06161133 414.03598633 615.25244141 414.40869141 C652.28381646 426.29163026 686.94099026 445.05089364 716 471 C716.5357666 471.47405273 717.0715332 471.94810547 717.62353516 472.43652344 C757.22096457 507.60552482 787.52084524 558.21374787 791 612 C792.61481917 654.30599184 786.21118615 695.45116918 765.98242188 733.1484375 C765.00463268 734.99126882 764.06884689 736.85053174 763.140625 738.71875 C753.70627923 757.44494361 740.38543413 773.8584204 726 789 C725.23961426 789.8034082 725.23961426 789.8034082 724.46386719 790.62304688 C717.07236136 798.3788253 709.3326674 805.31428664 700.73535156 811.70898438 C699.60478336 812.55007113 698.47885704 813.39744514 697.35839844 814.25195312 C685.04149396 823.64405793 671.51430608 831.54533906 657.5 838.125 C652.56852691 840.51074791 648.43945043 843.59638151 644.17871094 846.98803711 C628.90443269 859.06718573 611.42451048 868.42711732 594.72753906 878.35058594 C581.59740975 885.94559593 581.59740975 885.94559593 573 898 C573.33 898.99 573.66 899.98 574 901 C584.7986524 904.5995508 598.43312407 901.51340777 609.40234375 899.56640625 C610.16253248 899.4356476 610.92272121 899.30488895 611.70594597 899.17016792 C630.54311411 895.92725548 649.18001753 891.76460907 667.82017899 887.55527115 C672.49874444 886.50131622 677.18001501 885.45951666 681.86108398 884.41674805 C689.36425143 882.74412674 696.8662732 881.06648543 704.3671875 879.38378906 C717.50941386 876.43586436 730.65448581 873.50086881 743.80485439 870.58946705 C748.18785802 869.61878948 752.56886385 868.63942279 756.94946289 867.65795898 C759.17587688 867.16359732 761.40235381 866.66951896 763.62890625 866.17578125 C764.62051758 865.95175629 765.61212891 865.72773132 766.63378906 865.49691772 C767.54040283 865.29724396 768.4470166 865.09757019 769.38110352 864.8918457 C770.1587355 864.71820999 770.93636749 864.54457428 771.73756409 864.36567688 C774.19246245 863.96889235 776.51743477 863.93742238 779 864 C776.30883247 866.12915817 773.70593465 867.74153819 770.58984375 869.171875 C769.70176025 869.58074951 768.81367676 869.98962402 767.89868164 870.41088867 C766.9214917 870.85279541 765.94430176 871.29470215 764.9375 871.75 C763.88876709 872.22606689 762.84003418 872.70213379 761.75952148 873.19262695 C682.0383766 909.14890007 598.85284874 939.28441073 341 969 C339.33541748 968.80664062 339.33541748 968.80664062 337.63720703 968.609375 C309.83734823 965.26642747 283.92162213 958.34682955 257.54716492 949.23413086 C252.83987855 947.61267979 248.11715706 946.06618833 243.3671875 944.57421875 C220.37801836 937.3199927 201.66574274 927.60154137 184 911 C183.38511719 910.46117187 182.77023437 909.92234375 182.13671875 909.3671875 C167.96517912 896.4010432 161.89467305 876.68401916 156 859 C155.01 859.33 154.02 859.66 153 860 C143.45077644 880.23597218 141.96366306 905.81896724 141.42895508 927.86694336 C141.4008374 928.76550049 141.37271973 929.66405762 141.34375 930.58984375 C141.32505859 931.39284912 141.30636719 932.19585449 141.28710938 933.02319336 C141 935 141 935 139 937 C126.33917442 849.36018043 133.98758346 759.71392352 195.36328125 621.66162109 C202.33917144 610.05315692 207.44189562 597.89308068 212.58520508 585.40185547 C217.65049278 573.1117886 222.98357895 560.9690564 228.5 548.875 C229.30552906 547.10719038 230.11103041 545.33936814 230.91650391 543.5715332 C232.11330138 540.94498302 233.3101312 538.31844845 234.50769043 535.69224548 C238.5471192 526.82259947 242.49589874 517.9134399 246.4375 509 C250.82511966 499.07997897 255.27714331 489.19989376 259.875 479.375 C279.62678692 436.9272084 296.96819493 393.33375041 312 349 C312.4026709 347.81792969 312.8053418 346.63585937 313.22021484 345.41796875 C331.286391 291.99835033 343.39259546 236.12034508 349 180 C349.0942627 179.11787842 349.18852539 178.23575684 349.28564453 177.3269043 C350.11935437 168.71612835 350.22024655 160.11973336 350.24023438 151.47583008 C350.24989049 148.96596482 350.2809968 146.45693839 350.3125 143.94726562 C350.44222164 123.97074499 348.83221097 100.38254636 334.3125 85.1875 C317.27027775 73.93320229 297.1196831 74.16707745 277.6875 77.96484375 C219.63770557 90.32866418 167.92165474 124.36303309 122.76318359 161.55712891 C121.22448019 162.81630048 119.67014719 164.05632422 118.11328125 165.29296875 C104.47825372 176.15615212 92.26368437 188.64319512 79.9375 200.9375 C79.0546936 201.81628815 79.0546936 201.81628815 78.15405273 202.71282959 C71.8817556 208.96346642 65.70595099 215.21971087 60 222 C59.12334452 223.00993885 58.24578971 224.01909801 57.3671875 225.02734375 C49.89134911 233.75696695 42.87590015 242.79229046 36 252 C35.46084961 252.71816895 34.92169922 253.43633789 34.36621094 254.17626953 C-15.98455889 321.49733791 -44.01494756 402.93650199 -32.1875 487.1796875 C-27.49958914 517.32671578 -17.95573289 550.22752594 7.5625 569.375 C19.86943993 577.85311417 30.55132113 579.37844725 45.4375 579.3125 C46.0998465 579.31034485 46.76219299 579.3081897 47.4446106 579.30596924 C58.55902354 579.24810867 69.1588095 578.47082459 80 576 C81.30614258 575.70996094 81.30614258 575.70996094 82.63867188 575.4140625 C135.94118534 563.29475417 182.51462522 534.33435226 221.70825195 496.95043945 C222.67637817 496.02944458 222.67637817 496.02944458 223.6640625 495.08984375 C224.52185303 494.26794556 224.52185303 494.26794556 225.39697266 493.42944336 C227 492 227 492 230 490 C228.62679477 493.64694704 226.98376431 496.95824116 225.05078125 500.33984375 C224.16108643 501.91040527 224.16108643 501.91040527 223.25341797 503.51269531 C222.29266357 505.20797363 222.29266357 505.20797363 221.3125 506.9375 C206.23195737 533.81744763 192.41320435 561.50927689 182.28515625 590.671875 C181.85501221 591.89559814 181.42486816 593.11932129 180.98168945 594.38012695 C180.18917825 596.66906267 179.42127684 598.96674616 178.68432617 601.27416992 C176.03026736 608.99764382 172.52917572 613.16780757 166 618 C165.33081543 618.52037842 164.66163086 619.04075684 163.97216797 619.5769043 C162.03199168 621.05710181 160.06131877 622.47514979 158.0625 623.875 C157.33724121 624.38329346 156.61198242 624.89158691 155.86474609 625.4152832 C118.10360094 651.39582641 73.60223243 664.44261319 28 666 C26.84371094 666.04125 25.68742188 666.0825 24.49609375 666.125 C-15.47050283 666.82693803 -53.50023165 656.86623069 -83 629 C-84.12535156 627.97132813 -84.12535156 627.97132813 -85.2734375 626.921875 C-106.55507456 606.7603241 -122.30835879 574.10247456 -123.95703125 544.73828125 C-123.97830078 543.87783203 -123.97830078 543.87783203 -124 543 C-121.2753504 545.7246496 -119.96128827 549.00592995 -118.3125 552.4375 C-105.44193678 578.49487789 -84.88141197 597.51335962 -57.125 606.9375 C-48.24165874 609.67938635 -41.92673016 610.75917114 -33 608 C-32.06072336 604.004347 -31.55575541 601.83595641 -33.51953125 598.140625 C-34.27621094 597.18671875 -35.03289062 596.2328125 -35.8125 595.25 C-52.05188088 573.43073706 -59.9122639 547.25481457 -65.43017578 520.94921875 C-66.62684887 515.65729334 -68.67808642 511.01302841 -71 506.125 C-100.88498202 441.22771062 -116.63777545 366.57321064 -114 295 C-113.95359375 293.73704102 -113.9071875 292.47408203 -113.859375 291.17285156 C-111.40909009 228.38521229 -98.57710294 167.0735962 -72 110 C-71.21934457 108.2893852 -70.4393671 106.57846081 -69.66015625 104.8671875 C-52.10853406 66.68303255 -27.9247166 31.33673985 0 0 Z " fill="#000000" transform="translate(200,29)"/>
<path d="M0 0 C0.78100067 -0.00983917 1.56200134 -0.01967834 2.3666687 -0.02981567 C46.68852578 -0.47208613 89.66845737 8.65374905 129.63671875 28.23828125 C130.39065918 28.60566406 131.14459961 28.97304688 131.92138672 29.3515625 C154.99467305 40.72493943 178.39253542 57.20900206 187.63671875 82.23828125 C190.27998528 90.65261631 191.15354967 98.56833824 191.07421875 107.36328125 C191.06394653 109.12889404 191.06394653 109.12889404 191.0534668 110.93017578 C190.5131801 140.55083737 177.10927529 166.20636524 156.63671875 187.23828125 C150.33671875 193.23828125 150.33671875 193.23828125 147.63671875 193.23828125 C149.07964764 189.21869363 151.04695403 185.92734146 153.38671875 182.36328125 C163.74811815 165.97265991 168.79197926 146.76776813 168.88671875 127.48828125 C168.90734375 126.45445312 168.92796875 125.420625 168.94921875 124.35546875 C169.03139429 108.04362504 162.02110917 96.0960858 151.02734375 84.57421875 C148.86842121 82.22695296 148.86842121 82.22695296 146.63671875 81.23828125 C146.683125 81.97691406 146.72953125 82.71554687 146.77734375 83.4765625 C147.05596242 91.30773735 145.8472397 97.12497077 142.63671875 104.23828125 C142.22421875 105.18316406 141.81171875 106.12804687 141.38671875 107.1015625 C134.28270626 122.33886202 122.99370594 135.4513351 111.76171875 147.80078125 C111.25850098 148.36128174 110.7552832 148.92178223 110.23681641 149.49926758 C107.79194644 152.15990727 105.53820017 154.3078459 102.56640625 156.40625 C96.97341763 160.38100058 94.6235203 163.12936718 93.23828125 169.8203125 C92.33880434 175.26070376 91.70966495 180.73196434 91.05810547 186.20654297 C89.32378815 198.68438336 84.2701635 210.08503472 78.63671875 221.23828125 C78.30671875 221.23828125 77.97671875 221.23828125 77.63671875 221.23828125 C77.58660645 220.38186035 77.53649414 219.52543945 77.48486328 218.64306641 C77.29282138 215.41841721 77.09448423 212.19422957 76.89208984 208.97021484 C76.8062929 207.58364634 76.7228943 206.196927 76.64208984 204.81005859 C76.17505439 196.82432887 75.53021327 189.03297342 73.63671875 181.23828125 C72.79753906 181.8209375 71.95835937 182.40359375 71.09375 183.00390625 C44.8092228 201.02321089 12.41645533 220.94165849 -19.36328125 226.23828125 C-19.36328125 230.52828125 -19.36328125 234.81828125 -19.36328125 239.23828125 C-22.81131101 236.06246437 -24.78324439 233.63137438 -26.36328125 229.23828125 C-27.51054688 229.59019531 -28.6578125 229.94210937 -29.83984375 230.3046875 C-58.29995469 238.69954156 -87.93903146 242.87816389 -117.36328125 246.23828125 C-112.20843892 257.81761518 -106.97129081 268.66353403 -99.19921875 278.71875 C-97.36328125 281.23828125 -97.36328125 281.23828125 -97.36328125 283.23828125 C-115.2905274 277.70192582 -129.1874053 263.77777036 -140.36328125 249.23828125 C-140.69328125 248.57828125 -141.02328125 247.91828125 -141.36328125 247.23828125 C-143.21504596 246.83528457 -143.21504596 246.83528457 -145.45703125 246.74609375 C-146.74311279 246.65183105 -146.74311279 246.65183105 -148.05517578 246.55566406 C-148.98185059 246.49217773 -149.90852539 246.42869141 -150.86328125 246.36328125 C-164.91866419 245.19020381 -181.83382097 243.76774153 -192.36328125 233.23828125 C-196.14078057 250.55181982 -197.85698162 265.83717287 -188.203125 281.453125 C-176.13375495 299.7237425 -155.10057936 308.76612489 -134.36328125 313.23828125 C-133.5424707 313.42664551 -132.72166016 313.61500977 -131.87597656 313.80908203 C-121.85921246 315.81845412 -111.77827727 315.45876951 -101.61328125 315.36328125 C-99.74089022 315.35322858 -97.86849395 315.34410679 -95.99609375 315.3359375 C-91.45169135 315.31411163 -86.9075455 315.27970862 -82.36328125 315.23828125 C-85.13446426 317.08573659 -86.62272966 317.69574098 -89.765625 318.421875 C-90.64613525 318.62586914 -91.52664551 318.82986328 -92.43383789 319.04003906 C-93.3799292 319.24983398 -94.32602051 319.45962891 -95.30078125 319.67578125 C-96.76729126 320.00400879 -96.76729126 320.00400879 -98.26342773 320.33886719 C-136.05353344 328.58575302 -180.47185018 331.85197357 -214.98828125 310.98828125 C-229.59792673 301.24150048 -239.76280172 288.60212791 -243.67578125 271.23828125 C-253.71911863 202.69006591 -210.56368989 118.36527802 -171.36328125 64.23828125 C-170.68265625 63.25730469 -170.00203125 62.27632812 -169.30078125 61.265625 C-165.49318724 56.8034303 -160.13775736 54.35847351 -155.05078125 51.61328125 C-153.38994507 50.70304199 -153.38994507 50.70304199 -151.69555664 49.77441406 C-132.7111673 39.44794052 -113.48528499 30.13714741 -93.36328125 22.23828125 C-92.46464355 21.88282227 -91.56600586 21.52736328 -90.64013672 21.16113281 C-62.39539709 10.10003787 -30.56834847 0.31927272 0 0 Z M43.63671875 52.23828125 C46.75183993 55.94215776 49.84465297 59.55630833 53.38671875 62.86328125 C70.87286629 80.216201 81.95481105 102.805416 88.63671875 126.23828125 C89.62671875 126.23828125 90.61671875 126.23828125 91.63671875 126.23828125 C93.38050255 124.23232016 94.88163714 122.28928908 96.38671875 120.11328125 C96.82701416 119.48454102 97.26730957 118.85580078 97.72094727 118.20800781 C105.99736111 106.10441152 113.49401748 92.31263609 111.63671875 77.23828125 C109.84698292 69.29185417 105.38160737 62.83194495 98.63671875 58.23828125 C91.45052157 55.29402372 83.86451344 54.38565493 76.19921875 53.55078125 C75.07209473 53.42340576 73.9449707 53.29603027 72.78369141 53.16479492 C63.04027918 52.13608598 53.42135807 51.91998575 43.63671875 52.23828125 Z M13.63671875 82.23828125 C12.82332031 82.9653125 12.00992188 83.69234375 11.171875 84.44140625 C-5.67623629 99.30679924 -24.19325001 111.34786866 -44.36328125 121.23828125 C-42.83727546 127.29255182 -41.05221173 133.20509281 -39.00341797 139.10083008 C-31.8974733 159.65661682 -27.09337265 180.83080018 -23.36328125 202.23828125 C-16.85416389 200.94818592 -10.93642975 199.12326421 -4.80078125 196.61328125 C-3.93308105 196.26136719 -3.06538086 195.90945313 -2.17138672 195.546875 C5.98488055 192.18568548 13.86082763 188.39810388 21.63671875 184.23828125 C22.79300781 183.6246875 23.94929688 183.01109375 25.140625 182.37890625 C39.44312043 174.50358454 54.05238838 164.82261162 65.63671875 153.23828125 C65.31330158 148.66068443 63.12738573 144.76007305 61.07421875 140.73828125 C60.71634277 140.03340576 60.3584668 139.32853027 59.98974609 138.60229492 C49.32316115 117.88818877 33.59068353 94.88638049 13.63671875 82.23828125 Z M-78.4765625 134.41015625 C-79.30244873 134.66063721 -80.12833496 134.91111816 -80.97924805 135.16918945 C-82.31403198 135.57463989 -82.31403198 135.57463989 -83.67578125 135.98828125 C-94.14636817 139.09479747 -104.67394182 141.13215007 -115.44995117 142.8527832 C-117.43766372 143.16641229 -117.43766372 143.16641229 -119.36328125 144.23828125 C-125.5550314 160.89265871 -127.63075481 177.57825088 -127.61328125 195.23828125 C-127.61268707 195.9169223 -127.6120929 196.59556335 -127.61148071 197.29476929 C-128.00934373 204.47284019 -128.00934373 204.47284019 -126.36328125 211.23828125 C-101.79883717 219.9864677 -64.77581176 212.57690257 -40.36328125 207.23828125 C-40.81316406 206.37332031 -41.26304687 205.50835938 -41.7265625 204.6171875 C-51.82512185 184.9524167 -60.20721575 164.7153123 -67.44921875 143.83935547 C-68.69869235 140.28382884 -70.02307653 136.76050679 -71.36328125 133.23828125 C-74.16263551 133.23828125 -75.84788281 133.58999181 -78.4765625 134.41015625 Z M-158.36328125 165.23828125 C-157.36328125 167.23828125 -157.36328125 167.23828125 -157.36328125 167.23828125 Z M-159.36328125 167.23828125 C-164.25417468 172.37998973 -166.34243264 177.0435071 -166.67578125 184.23828125 C-166.45273661 191.4454113 -163.41317133 195.18839117 -158.36328125 200.23828125 C-158.36328125 189.34828125 -158.36328125 178.45828125 -158.36328125 167.23828125 C-158.69328125 167.23828125 -159.02328125 167.23828125 -159.36328125 167.23828125 Z " fill="#000000" transform="translate(706.36328125,593.76171875)"/>
<path d="M0 0 C14.80919031 18.10012149 9.73390327 49.01668111 7.69091797 70.57519531 C0.3342635 142.25816252 -15.35134827 215.77891804 -44.75 281.75 C-45.10271973 282.54792969 -45.45543945 283.34585937 -45.81884766 284.16796875 C-59.75621096 315.494116 -77.05410541 348.67958341 -103.1796875 371.48828125 C-105.95384997 373.92937558 -108.62567636 376.46325779 -111.3125 379 C-127.85193801 394.3240972 -147.1166175 407.70502752 -166.75 418.75 C-167.46349609 419.15460449 -168.17699219 419.55920898 -168.91210938 419.97607422 C-185.59056362 429.34959615 -203.06029955 436.51456429 -221.75 440.75 C-223.08417969 441.06904297 -223.08417969 441.06904297 -224.4453125 441.39453125 C-245.96473988 445.96823218 -268.92258857 444.55106607 -288.21875 433.43359375 C-296.14834233 428.15943589 -301.09649972 420.92277612 -305.75 412.75 C-306.32621094 411.74582031 -306.90242188 410.74164062 -307.49609375 409.70703125 C-322.09874586 382.48560626 -326.19893718 350.11814792 -326.0625 319.625 C-326.06067719 318.77349365 -326.05885437 317.9219873 -326.05697632 317.04467773 C-326.00801471 303.40942665 -325.27949754 290.17559966 -322.75 276.75 C-322.5943457 275.8616748 -322.43869141 274.97334961 -322.27832031 274.05810547 C-316.81544639 243.35806251 -304.11822169 193.78483288 -279.75 172.75 C-281.21988448 177.57612072 -283.17437373 182.12344712 -285.17749023 186.74389648 C-299.20007126 219.28032272 -304.46001526 251.62263425 -299.75 286.75 C-299.38952591 290.08141436 -299.0676962 293.41418992 -298.75 296.75 C-283.7337897 296.94306556 -268.75248566 296.34863468 -253.75 295.75 C-253.76885254 295.15356689 -253.78770508 294.55713379 -253.80712891 293.94262695 C-253.92196335 287.43807577 -253.27639619 281.33242418 -252.125 274.9375 C-251.9489624 273.9470166 -251.7729248 272.9565332 -251.59155273 271.93603516 C-248.98158347 257.91594419 -245.07190753 244.23802108 -239.6328125 231.05078125 C-238.63058819 228.84951225 -238.63058819 228.84951225 -238.75 226.75 C-239.33378418 226.47849121 -239.91756836 226.20698242 -240.51904297 225.92724609 C-261.91445493 215.94553663 -261.91445493 215.94553663 -269.75 210.75 C-265.95300919 209.35409 -263.25111074 210.1601679 -259.41015625 211.18359375 C-258.18232422 211.50263672 -256.95449219 211.82167969 -255.68945312 212.15039062 C-254.39692733 212.49531494 -253.10461116 212.84102567 -251.8125 213.1875 C-249.28398227 213.85827908 -246.75407778 214.52385778 -244.22265625 215.18359375 C-242.54055054 215.63303345 -242.54055054 215.63303345 -240.82446289 216.09155273 C-237.96392278 216.70418489 -235.65249312 217.10764112 -232.75 216.75 C-231.08221374 214.51287668 -229.84560068 212.50809582 -228.5625 210.0625 C-221.89282117 198.20576162 -213.54307308 188.04392111 -204.16210938 178.22949219 C-203.2256544 177.2483516 -202.29457769 176.26204753 -201.36914062 175.27050781 C-195.24434887 168.71810366 -188.74354815 162.96423767 -181.625 157.5 C-180.87782715 156.92644775 -180.1306543 156.35289551 -179.36083984 155.76196289 C-174.01525195 151.75 -174.01525195 151.75 -171.75 151.75 C-173.35155592 155.53145147 -175.77032915 158.1469051 -178.5 161.1875 C-193.68669483 178.67915844 -205.53962249 199.5586436 -214.75 220.75 C-210.17637149 222.41086958 -205.64006713 223.41022915 -200.8515625 224.1875 C-200.09894135 224.31310303 -199.34632019 224.43870605 -198.57089233 224.56811523 C-196.97945156 224.83257805 -195.38761336 225.09465907 -193.79541016 225.35449219 C-191.4159471 225.74330903 -189.03800876 226.14052868 -186.66015625 226.5390625 C-177.83526108 228.00416696 -169.0088002 229.28313189 -160.1262207 230.34472656 C-157.990823 230.60105458 -155.85765099 230.87740633 -153.72851562 231.18139648 C-151.05410862 231.53407445 -149.32836487 231.56731006 -146.75 230.75 C-143.28234549 227.7835527 -140.60111301 224.2956149 -137.75 220.75 C-130.9873899 214.02948083 -113.58733838 196.75 -103.75 196.75 C-103.78029297 195.95231201 -103.81058594 195.15462402 -103.84179688 194.33276367 C-104.53100883 175.79428737 -104.89821519 157.30426194 -104.75 138.75 C-98.19786302 147.1748231 -95.39033262 158.43528431 -92.4375 168.5625 C-92.18315186 169.42093506 -91.92880371 170.27937012 -91.66674805 171.16381836 C-90.01768993 177.00874465 -89.16141525 182.69354722 -88.75 188.75 C-87.65300781 188.32847656 -86.55601562 187.90695312 -85.42578125 187.47265625 C-83.97143235 186.91906538 -82.5170009 186.36569138 -81.0625 185.8125 C-80.34126953 185.53470703 -79.62003906 185.25691406 -78.87695312 184.97070312 C-75.81300243 183.8094798 -73.11950368 182.79836958 -69.85546875 182.37109375 C-69.16066406 182.16613281 -68.46585937 181.96117187 -67.75 181.75 C-66.5776061 179.45600881 -66.5776061 179.45600881 -65.75 176.75 C-64.61220326 175.10465667 -63.44164759 173.48177072 -62.25 171.875 C-53.45701377 158.84481388 -48.15659736 143.52652749 -43.0625 128.75 C-42.5355957 127.25581543 -42.5355957 127.25581543 -41.99804688 125.73144531 C-40.19716791 120.30095977 -39.11727001 116.31746218 -40.75 110.75 C-47.1230484 104.99871242 -55.0277314 104.32295464 -63.25390625 104.5078125 C-76.09769693 105.39754995 -88.02418057 108.47947384 -100.22192383 112.50024414 C-101.62607544 112.95645142 -101.62607544 112.95645142 -103.05859375 113.421875 C-103.89189209 113.7012793 -104.72519043 113.98068359 -105.58374023 114.26855469 C-107.75 114.75 -107.75 114.75 -110.75 113.75 C-90.31493034 97.4712157 -63.79790821 87.37235102 -37.6640625 87.8125 C-34.85785647 88.08845042 -34.85785647 88.08845042 -33.75 86.75 C-32.23064236 66.8160278 -32.76950231 44.84125179 -45.59765625 28.37890625 C-51.84674927 21.60802018 -59.48032794 18.12147739 -68.62890625 17.4765625 C-85.0011248 16.97138886 -99.34425894 20.66423247 -114.0625 27.7109375 C-116.75 28.75 -116.75 28.75 -119.75 27.75 C-97.31426418 12.81688966 -73.95908047 0.51383148 -47.75 -6.25 C-46.72648437 -6.51683594 -45.70296875 -6.78367188 -44.6484375 -7.05859375 C-29.82390783 -10.30565841 -12.15576383 -9.94562495 0 0 Z M-219.75 233.75 C-222.17227415 239.03112097 -223.85481112 244.23953117 -225.25 249.875 C-225.46358154 250.73593262 -225.67716309 251.59686523 -225.8972168 252.48388672 C-227.43104104 258.90565221 -228.6119649 265.342424 -229.5625 271.875 C-229.68625 272.71434082 -229.81 273.55368164 -229.9375 274.41845703 C-230.71908291 280.21941134 -230.8826865 285.90093071 -230.75 291.75 C-224.95587009 291.13905433 -219.49749588 290.07518407 -213.875 288.5625 C-213.05636475 288.34400391 -212.23772949 288.12550781 -211.39428711 287.90039062 C-204.11784061 285.91926628 -196.93850309 283.70261085 -189.83984375 281.15625 C-187.3191569 280.25255261 -185.01641471 279.59359248 -182.37890625 279.03125 C-176.37778256 277.47048961 -173.65827117 274.96047231 -170.45703125 269.75390625 C-167.30647544 264.20491671 -164.49174376 258.50936484 -161.75 252.75 C-161.14026443 251.51777041 -160.52773898 250.28690919 -159.91015625 249.05859375 C-159.52730469 248.29675781 -159.14445312 247.53492188 -158.75 246.75 C-159.40049316 246.63172852 -160.05098633 246.51345703 -160.72119141 246.39160156 C-162.65826566 246.03940624 -164.59527128 245.68683337 -166.53222656 245.33398438 C-168.60659497 244.95751326 -170.68143343 244.58361858 -172.75683594 244.21289062 C-187.07305014 241.64533392 -201.01180948 238.58422548 -214.89428711 234.22143555 C-216.9154965 233.6268879 -216.9154965 233.6268879 -219.75 233.75 Z M-189.38671875 302.10546875 C-203.39354462 306.34679018 -217.4026703 309.86555519 -231.75 312.75 C-230.52966753 328.06451022 -230.52966753 328.06451022 -223.5625 341.4375 C-219.28569739 343.43334122 -216.19872452 343.2650455 -211.75 341.75 C-204.06506037 337.36493358 -197.67199664 331.26073314 -191.75 324.75 C-191.16089844 324.12609375 -190.57179688 323.5021875 -189.96484375 322.859375 C-184.73130423 316.73857694 -182.75 308.73784467 -182.75 300.75 C-185.19141136 300.75 -187.04889156 301.38523242 -189.38671875 302.10546875 Z M-268.1171875 315.96875 C-269.13656906 316.00204407 -269.13656906 316.00204407 -270.17654419 316.03601074 C-272.32606074 316.10642482 -274.47552966 316.17819034 -276.625 316.25 C-278.09114288 316.29826675 -279.55728869 316.34644471 -281.0234375 316.39453125 C-284.59899274 316.51199439 -288.17450657 316.63066878 -291.75 316.75 C-290.94595985 322.56835529 -288.9888814 326.80813716 -286.25 331.9375 C-285.80003662 332.78030518 -285.35007324 333.62311035 -284.88647461 334.49145508 C-278.13616516 346.82217838 -269.30403073 358.40155304 -255.3125 362.75 C-249.48001917 364.07326516 -243.69878861 364.03030941 -237.75 363.75 C-238.636875 362.80125 -239.52375 361.8525 -240.4375 360.875 C-250.99778622 348.37659066 -253.03121654 331.49043805 -254.75 315.75 C-259.21132376 315.72598211 -263.65835168 315.82135047 -268.1171875 315.96875 Z " fill="#000000" transform="translate(518.75,147.25)"/>
<path d="M0 0 C5.81258257 0.60856569 10.94669888 2.15691005 16.4375 4.125 C17.76019897 4.59631348 17.76019897 4.59631348 19.10961914 5.07714844 C49.38476727 16.02662844 76.5066278 31.90581756 100 54 C100.55848633 54.5244873 101.11697266 55.04897461 101.69238281 55.58935547 C115.30784951 68.48340018 126.726646 82.67730838 136 99 C136.98033203 100.68222656 136.98033203 100.68222656 137.98046875 102.3984375 C162.29684688 145.18444005 167.28587695 199.6972031 155 247 C146.46299251 277.7437991 131.37330071 305.18040882 111.54785156 330.05078125 C110.03287606 331.95859897 108.54056195 333.88196239 107.0546875 335.8125 C101.64650752 342.81893213 95.99210166 349.47985873 90 356 C88.87060071 357.28782181 87.745415 358.57935422 86.625 359.875 C82.35094502 364.77500354 77.94982997 369.55771669 73.53759766 374.33300781 C71.99340267 376.00715252 70.45570596 377.68711189 68.91796875 379.3671875 C60.96583479 388.01018558 52.73339424 396.3442963 44.37158203 404.59155273 C40.65577033 408.27053602 36.98819758 411.93370569 33.58984375 415.91015625 C28.41287512 421.94881519 22.62835299 427.42699039 16.97021484 433.00927734 C11.62221843 438.29203335 6.32504244 443.56423548 1.46875 449.3125 C-0.11173106 451.12837186 -1.78127035 452.81512829 -3.5 454.5 C-6.47057406 457.42467115 -9.20729119 460.48619561 -11.92578125 463.64453125 C-14.01450391 466.01647054 -16.15563403 468.32922583 -18.3125 470.63891602 C-23.38146236 476.06824992 -28.21129494 481.6022463 -32.86328125 487.3984375 C-34.95882494 489.94986729 -37.13963155 492.38326773 -39.375 494.8125 C-43.89413633 499.77806748 -48.00728894 505.00195927 -52.1171875 510.3046875 C-54.03118606 512.77187992 -55.97267203 515.21225895 -57.9453125 517.6328125 C-65.41260389 526.79827296 -72.33911918 536.23408634 -79 546 C-80.09924805 547.6080249 -80.09924805 547.6080249 -81.22070312 549.24853516 C-107.49435222 587.76771783 -130.28027411 628.26608028 -149 671 C-149.33 671 -149.66 671 -150 671 C-149.38734541 661.68022405 -147.29813439 652.80095755 -145.125 643.75 C-144.92814606 642.92453674 -144.73129211 642.09907349 -144.5284729 641.24859619 C-137.19991817 610.64129661 -127.92651152 580.66025731 -117.66156006 550.9208374 C-117.04984345 549.14472028 -116.44385567 547.36663286 -115.83837891 545.58837891 C-106.33205075 517.73818134 -94.58295167 490.58627191 -82 464 C-81.49307617 462.92057129 -80.98615234 461.84114258 -80.46386719 460.72900391 C-78.87913559 457.35745109 -77.28526283 453.99039491 -75.6875 450.625 C-75.20772705 449.60833252 -74.7279541 448.59166504 -74.23364258 447.54418945 C-65.76264578 429.85825069 -65.76264578 429.85825069 -59.3125 424.4375 C-58.44882812 423.70015625 -57.58515625 422.9628125 -56.6953125 422.203125 C-53.11545529 419.27698084 -49.52465916 416.36457915 -45.9296875 413.45703125 C-41.47437849 409.7205121 -37.24831706 405.74935351 -33 401.78125 C-30.64983283 399.58932351 -28.25562396 397.46347694 -25.8125 395.375 C-21.81085817 391.92095127 -18.14419397 388.15986786 -14.43359375 384.3984375 C-12.3723062 382.36692778 -10.27813444 380.48268941 -8.0625 378.625 C-4.06843311 375.2118883 -0.58580271 371.37672223 2.92456055 367.48193359 C5.62546718 364.48739908 8.37364182 361.57618914 11.25 358.75 C15.04581663 355.0001005 18.53376449 351.05395945 22 347 C22.89403794 345.96962384 23.78861182 344.93971256 24.68359375 343.91015625 C62.913269 299.80825085 100.68740432 247.18071851 109 188 C109.13148438 187.10023438 109.26296875 186.20046875 109.3984375 185.2734375 C114.78445144 139.41953505 101.02006954 91.25586327 72.49755859 55.09521484 C69.12396471 50.94852832 65.60386528 46.94715043 62 43 C61.21367188 42.12988281 60.42734375 41.25976562 59.6171875 40.36328125 C43.3552704 23.24692444 21.70831144 10.02199644 0 1 C0 0.67 0 0.34 0 0 Z " fill="#000000" transform="translate(617,70)"/>
<path d="M0 0 C2.09694238 3.92666625 2.93512049 7.86628813 3.76953125 12.20703125 C3.93073456 13.02629089 4.09193787 13.84555054 4.25802612 14.68963623 C4.78554711 17.39555255 5.30094233 20.10352195 5.8125 22.8125 C5.99052155 23.75302216 6.16854309 24.69354431 6.35195923 25.66256714 C12.36694569 57.67171982 15.62532625 89.76676458 18.21362305 122.22094727 C18.69951403 148.32852359 18.69951403 148.32852359 28.9609375 170.75 C30.98409829 172.21583128 30.98409829 172.21583128 33.6875 172.125 C54.86549775 164.93247246 69.83752966 130.51200479 79.10791016 111.75878906 C81.13952657 107.53577661 83.09325819 103.2806985 85 99 C85.33 99 85.66 99 86 99 C89.16375017 151.46552372 62.94013318 204.64911676 33 246 C32.60329102 246.54833496 32.20658203 247.09666992 31.79785156 247.66162109 C24.49871551 257.68646135 16.70229566 267.26626279 8.3359375 276.41796875 C6.43326293 278.52109231 4.57500442 280.64991251 2.72265625 282.796875 C-0.9983841 287.05782515 -4.92695615 291.07516084 -8.9375 295.0625 C-9.60201172 295.73087891 -10.26652344 296.39925781 -10.95117188 297.08789062 C-25.56530688 311.67367619 -42.10429597 324.1953856 -59 336 C-59.5887793 336.41491699 -60.17755859 336.82983398 -60.78417969 337.25732422 C-64.75931609 340 -64.75931609 340 -67 340 C-66.33634492 335.81838567 -64.96274694 332.26023979 -63.296875 328.375 C-62.72886729 327.03468848 -62.16151556 325.69409882 -61.59472656 324.35327148 C-61.29441528 323.64596893 -60.994104 322.93866638 -60.68469238 322.20993042 C-37.99402122 268.56147306 -22.07516805 212.33568221 -12 155 C-11.88096313 154.32725037 -11.76192627 153.65450073 -11.63928223 152.96136475 C-2.7056278 102.29460534 -0.80396353 51.33601246 0 0 Z " fill="#000000" transform="translate(624,131)"/>
</svg>
