<?xml version="1.0" encoding="UTF-8"?>
<svg version="1.1" xmlns="http://www.w3.org/2000/svg" width="1024" height="1024">
<path d="M0 0 C0.66 0 1.32 0 2 0 C2.38976406 39.00938615 0.48082441 77.24771723 -4 116 C-3.18772949 116.08975098 -2.37545898 116.17950195 -1.53857422 116.27197266 C15.20124061 118.155935 31.68021822 120.47016052 48.16259766 123.98095703 C50.44008532 124.46576407 52.72018629 124.93851913 55.00317383 125.39672852 C56.82793842 125.76405995 58.64784909 126.15862932 60.45581055 126.60131836 C67.49514104 127.99673235 72.06629771 124.82532542 77.9375 121.1875 C79.95786076 119.98878648 81.97870076 118.79088036 84 117.59375 C85.00160156 116.99046875 86.00320313 116.3871875 87.03515625 115.765625 C91.44718979 113.13816892 95.93722662 110.65970018 100.4375 108.1875 C101.91560012 107.36891474 103.39349007 106.54994978 104.87109375 105.73046875 C105.90363281 105.15941406 106.93617188 104.58835937 108 104 C97.12757255 101.02865337 86.0771533 99.03766072 75 97 C75 96.34 75 95.68 75 95 C89.90618696 91.47285775 104.81387057 87.95209476 119.72335339 84.43891144 C126.64612126 82.80751413 133.56838585 81.17403652 140.48950195 79.53564453 C147.16670685 77.95499828 153.84526286 76.38017265 160.524683 74.80891418 C163.07485893 74.20800549 165.62457366 73.60513605 168.17381859 73.00028992 C171.73992808 72.15452853 175.30760246 71.31570553 178.87573242 70.47851562 C179.93309097 70.22604568 180.99044952 69.97357574 182.07984924 69.7134552 C183.05435028 69.48627304 184.02885132 69.25909088 185.03288269 69.02502441 C185.87632327 68.82591713 186.71976385 68.62680984 187.58876324 68.42166901 C190.1061374 67.98143905 192.44965504 67.92537965 195 68 C194.50183563 78.90034891 192.07459703 89.52035114 189.9375 100.1875 C189.55612497 102.11252812 189.17526123 104.03765761 188.79492188 105.96289062 C187.86917547 110.6431173 186.93650794 115.32191533 186 120 C175.49598403 119.08127675 175.49598403 119.08127675 170.89453125 117.7734375 C170.05599609 117.5465625 169.21746094 117.3196875 168.35351562 117.0859375 C166.64660489 116.60836985 164.94088333 116.12653308 163.23632812 115.640625 C162.40166016 115.41632813 161.56699219 115.19203125 160.70703125 114.9609375 C159.60065308 114.64842041 159.60065308 114.64842041 158.47192383 114.32958984 C151.95200888 113.46026785 147.12206203 115.66270935 141.703125 119.0078125 C140.69170441 119.61337479 140.69170441 119.61337479 139.65985107 120.23117065 C137.51646761 121.51825945 135.38336326 122.82138546 133.25 124.125 C131.83396103 124.97760588 130.41729878 125.82917748 129 126.6796875 C121.25945736 131.33845994 113.59134011 136.10138378 106 141 C106.66717041 141.27561768 107.33434082 141.55123535 108.02172852 141.83520508 C153.06860625 160.50754583 213.99584692 185.83872707 234.4375 234.3125 C242.88387118 256.38731549 237.9296647 281.88790902 228.90673828 302.97607422 C223.56359997 314.90246533 216.92518579 325.63530263 209 336 C207.99839844 337.32064453 207.99839844 337.32064453 206.9765625 338.66796875 C194.85010297 354.23438312 180.59829938 368.91743714 165 381 C163.59814453 382.12728516 163.59814453 382.12728516 162.16796875 383.27734375 C134.38695637 405.28104675 102.79248472 422.61902348 70.1875 436.3125 C69.51797302 436.59525787 68.84844604 436.87801575 68.15863037 437.16934204 C66.24861605 437.97204748 64.33452243 438.76383358 62.41796875 439.55078125 C61.32250732 440.00106689 60.2270459 440.45135254 59.09838867 440.9152832 C56.05445828 441.98093467 53.19092471 442.57404378 50 443 C52.93447324 440.651564 55.86107742 438.98999851 59.26171875 437.3984375 C60.80291382 436.67092285 60.80291382 436.67092285 62.37524414 435.92871094 C63.46828857 435.41598633 64.56133301 434.90326172 65.6875 434.375 C94.81966659 420.48928357 122.68944941 404.05472755 146.18359375 381.6640625 C148.42547736 379.54344582 150.69440909 377.53671952 153.0625 375.5625 C180.07682458 352.07425568 204.33089034 314.44029899 207.22167969 278.22265625 C208.23097418 253.79255378 202.73205875 234.32821201 186.0625 216.1484375 C181.73057922 211.60752054 177.07950256 207.68314529 172 204 C171.47132324 203.61424805 170.94264648 203.22849609 170.39794922 202.83105469 C147.47466502 186.29862518 121.23077421 176.19191529 94.5625 167.4375 C93.90614563 167.2193161 93.24979126 167.0011322 92.57354736 166.77633667 C80.4220649 162.14746201 80.4220649 162.14746201 67.87231445 162.75366211 C65.59377953 163.95402092 63.50506508 165.30246548 61.375 166.75 C59.62402206 167.86843546 57.87128959 168.98412695 56.1171875 170.09765625 C55.15264648 170.71914551 54.18810547 171.34063477 53.19433594 171.98095703 C47.72283838 175.43932487 42.13221678 178.69566615 36.55380249 181.97769165 C25.33687794 188.5851084 14.18099851 195.29104335 3.0625 202.0625 C-12.56526711 211.57403711 -12.56526711 211.57403711 -20.125 216.0625 C-20.81198975 216.47443604 -21.49897949 216.88637207 -22.20678711 217.31079102 C-26.76524418 220 -26.76524418 220 -29 220 C-29.0928125 220.63808594 -29.185625 221.27617187 -29.28125 221.93359375 C-30.2710469 226.15636856 -31.87521045 230.04775838 -33.5 234.0625 C-33.95246094 235.2081543 -33.95246094 235.2081543 -34.4140625 236.37695312 C-36.9899488 242.79131567 -39.8176322 249.08617942 -42.66210938 255.38452148 C-43.28844269 256.77374439 -43.28844269 256.77374439 -43.9274292 258.19103241 C-44.95095636 260.4609884 -45.97516412 262.73063464 -47 265 C-35.22292221 267.74451618 -23.4444873 270.48312186 -11.66428089 273.21417999 C-6.1943699 274.48248985 -0.72494817 275.75283459 4.7434082 277.02783203 C10.02018324 278.25808164 15.29817358 279.48298283 20.57705116 280.70417786 C22.59132451 281.17114292 24.60515167 281.64003694 26.61852074 282.11088562 C29.43747782 282.76978353 32.25793998 283.42181975 35.07885742 284.07226562 C35.91179825 284.26863113 36.74473907 284.46499664 37.60292053 284.66731262 C43.24336653 286.00938325 43.24336653 286.00938325 49 286 C51.70327682 283.95456847 54.0949149 281.80238462 56.5390625 279.46679688 C60.40702214 275.97075643 60.40702214 275.97075643 63.41088867 276.11889648 C66.58003625 277.19739282 68.04574611 278.60223025 70.36328125 281.0078125 C71.16830078 281.83023437 71.97332031 282.65265625 72.80273438 283.5 C74.04506836 284.799375 74.04506836 284.799375 75.3125 286.125 C80.42992625 291.40802567 85.52797419 296.57596831 91.11791992 301.36035156 C94.20531985 304.05006202 97.10395251 306.91982786 100 309.8125 C100.58394531 310.38419922 101.16789063 310.95589844 101.76953125 311.54492188 C103.22015204 312.99044681 104.61552317 314.49100467 106 316 C106 316.66 106 317.32 106 318 C92.93583861 320.22231872 79.87078887 322.4393308 66.80457878 324.64957428 C60.73743686 325.67604643 54.67061602 326.70434333 48.60449219 327.73681641 C42.75026727 328.7331545 36.89524764 329.7246914 31.03964615 330.71290588 C28.80585894 331.09075572 26.5723634 331.47033411 24.33916855 331.85166931 C21.2110794 332.38551077 18.0820093 332.9131951 14.95263672 333.43945312 C14.02978378 333.59841568 13.10693085 333.75737823 12.15611267 333.92115784 C7.71555401 334.66139427 3.52181191 335.18546619 -1 335 C0.94219077 331.53874798 2.96666141 328.79280517 5.79296875 326.01171875 C6.50517578 325.30595703 7.21738281 324.60019531 7.95117188 323.87304688 C8.68916016 323.15181641 9.42714844 322.43058594 10.1875 321.6875 C10.93708984 320.94693359 11.68667969 320.20636719 12.45898438 319.44335938 C14.30153282 317.62428288 16.14859662 315.81005611 18 314 C-10.24590761 307.56546709 -38.60132186 301.71851612 -67 296 C-67.40086319 296.48814178 -67.80172638 296.97628357 -68.21473694 297.47921753 C-70.05001452 299.71327993 -71.88632673 301.9464897 -73.72265625 304.1796875 C-74.66848572 305.33150513 -74.66848572 305.33150513 -75.63342285 306.5065918 C-81.92071783 314.14980912 -88.38905032 321.44430051 -95.46118164 328.37060547 C-112.64761284 345.25768067 -124.38661296 362.54032396 -125.375 387.25 C-124.87980575 399.54732386 -120.05126883 409.83416572 -112 419 C-102.7866791 426.02381439 -102.7866791 426.02381439 -92 429 C-92.45890625 428.47792969 -92.9178125 427.95585938 -93.390625 427.41796875 C-100.38575758 419.02674878 -103.76758612 410.86927313 -103.3125 399.84765625 C-102.26364167 390.2899347 -97.89989567 383.30723367 -90.70703125 376.984375 C-82.97351992 371.13198805 -73.81065753 367.72891116 -64 369 C-36.7185722 373.37606718 -13.91447009 397.85011545 2 419 C2.93551245 420.2075626 3.87176685 421.41455061 4.80859375 422.62109375 C16.3042231 437.5519007 26.26053496 453.30914589 35 470 C35.53536377 471.0194873 35.53536377 471.0194873 36.08154297 472.05957031 C53.40453806 505.56642507 63.3981494 546.6986302 52.16479492 583.62939453 C44.24301764 608.2680154 29.0347631 630.55109762 9 647 C8.5138623 647.41443359 8.02772461 647.82886719 7.52685547 648.25585938 C-39.24244184 688.12292495 -107.12753206 710.89845836 -168.23046875 711.203125 C-169.17558319 711.21013931 -170.12069763 711.21715363 -171.0944519 711.22438049 C-174.12551696 711.24178182 -177.15638683 711.24823199 -180.1875 711.25 C-181.73858963 711.25101212 -181.73858963 711.25101212 -183.3210144 711.25204468 C-198.09742816 711.23669576 -212.47578606 710.97932594 -227 708 C-228.29188232 707.75056641 -228.29188232 707.75056641 -229.60986328 707.49609375 C-256.04432297 702.28543187 -279.06672827 691.83361589 -300 675 C-300.88816406 674.28714844 -301.77632813 673.57429687 -302.69140625 672.83984375 C-308.57545149 667.85631326 -313.30001991 662.08975914 -318 656 C-318.65742188 655.18144531 -319.31484375 654.36289062 -319.9921875 653.51953125 C-331.06044988 639.18413118 -339.58927402 621.57479197 -343.07226562 603.74829102 C-343.24745728 602.8565065 -343.42264893 601.96472198 -343.60314941 601.0459137 C-343.73411011 600.37076218 -343.8650708 599.69561066 -344 599 C-345.21131592 599.01571045 -346.42263184 599.0314209 -347.6706543 599.04760742 C-371.28189961 599.32615499 -394.58960008 599.51225138 -418 596 C-419.68706055 595.75056641 -419.68706055 595.75056641 -421.40820312 595.49609375 C-439.56861664 592.7211579 -457.29723996 588.40543564 -475.05273438 583.76855469 C-477.36547955 583.16546309 -479.67983062 582.57366825 -482 582 C-482.99966797 583.09054687 -482.99966797 583.09054687 -484.01953125 584.203125 C-484.67997437 584.92350952 -484.67997437 584.92350952 -485.35375977 585.65844727 C-486.33498158 586.72900542 -487.315934 587.79981055 -488.29663086 588.87084961 C-490.89467611 591.70745282 -493.49701718 594.53984889 -496.109375 597.36328125 C-496.6046167 597.89985352 -497.0998584 598.43642578 -497.61010742 598.98925781 C-498.561746 600.02007963 -499.5149777 601.04943351 -500.4699707 602.07714844 C-502.5293694 604.31125387 -504.30869088 606.46303631 -506 609 C-495.11 614.445 -495.11 614.445 -484 620 C-485.24182988 623.72548963 -486.14148532 623.9042787 -489.5390625 625.6796875 C-490.49997803 626.18943115 -491.46089355 626.6991748 -492.45092773 627.22436523 C-494.02209351 628.04142944 -494.02209351 628.04142944 -495.625 628.875 C-497.8382118 630.04895019 -500.05042842 631.22477821 -502.26171875 632.40234375 C-503.39013184 633.00159668 -504.51854492 633.60084961 -505.68115234 634.21826172 C-510.64336642 636.88224865 -515.54309974 639.65138445 -520.4375 642.4375 C-522.34497655 643.52096631 -524.25252941 644.60429831 -526.16015625 645.6875 C-527.59319092 646.50154297 -527.59319092 646.50154297 -529.05517578 647.33203125 C-534.15160498 650.2186839 -539.26327978 653.07803831 -544.375 655.9375 C-545.41390381 656.51878662 -546.45280762 657.10007324 -547.52319336 657.69897461 C-549.62964707 658.87740911 -551.73617392 660.05571289 -553.84277344 661.23388672 C-559.06293711 664.15398137 -564.28138679 667.07713566 -569.5 670 C-571.58332501 671.16668154 -573.66665834 672.3333482 -575.75 673.5 C-577.296875 674.36625 -577.296875 674.36625 -578.875 675.25 C-582 677 -585.125 678.75 -588.25 680.5 C-589.28310303 681.07862793 -590.31620605 681.65725586 -591.38061523 682.25341797 C-593.44491981 683.40924758 -595.5095312 684.5645294 -597.57446289 685.71923828 C-602.4813277 688.46403884 -607.38472828 691.21457937 -612.27755737 693.98431396 C-614.03325188 694.97784675 -615.78990819 695.9696567 -617.546875 696.9609375 C-619.76888071 698.21529556 -621.98900718 699.47298975 -624.20703125 700.734375 C-625.19960938 701.29382813 -626.1921875 701.85328125 -627.21484375 702.4296875 C-628.53150024 703.17581299 -628.53150024 703.17581299 -629.87475586 703.93701172 C-632 705 -632 705 -634 705 C-633.41181938 697.59188342 -632.23076801 690.40761038 -630.77514648 683.12451172 C-630.55066833 681.9818837 -630.32619019 680.83925568 -630.09490967 679.66200256 C-629.35804679 675.91701294 -628.6146213 672.17335909 -627.87109375 668.4296875 C-627.35645036 665.82089018 -626.84217451 663.21202308 -626.3283844 660.60305786 C-625.11738783 654.45797803 -623.90165795 648.31384485 -622.68418127 642.17004597 C-621.29716539 635.16946884 -619.91549557 628.16783996 -618.53425109 621.1661222 C-615.69540491 606.77624584 -612.84992118 592.38768699 -610 578 C-608.586255 578.14404827 -607.17289604 578.29188772 -605.75970459 578.44126892 C-604.97259975 578.52317946 -604.18549492 578.60509001 -603.37453842 578.68948269 C-599.70890416 579.16883602 -596.20215274 580.09581983 -592.640625 581.06640625 C-591.51222198 581.36393044 -591.51222198 581.36393044 -590.36102295 581.66746521 C-587.98902637 582.29309464 -585.61930721 582.92676733 -583.25 583.5625 C-580.11119554 584.40419235 -576.97037314 585.23767519 -573.828125 586.06640625 C-573.11658264 586.26013321 -572.40504028 586.45386017 -571.67193604 586.65345764 C-566.39020512 588.1007157 -566.39020512 588.1007157 -561 588 C-558.6922463 586.36452161 -558.6922463 586.36452161 -556.6015625 584.0546875 C-555.79203125 583.22453125 -554.9825 582.394375 -554.1484375 581.5390625 C-552.89933594 580.22035156 -552.89933594 580.22035156 -551.625 578.875 C-549.97371103 577.16178769 -548.32010628 575.4508041 -546.6640625 573.7421875 C-545.48312012 572.52160645 -545.48312012 572.52160645 -544.27832031 571.27636719 C-541.32431322 568.32489246 -538.22453798 565.6509005 -535 563 C-535.58265625 562.68885254 -536.1653125 562.37770508 -536.765625 562.05712891 C-567.99661719 545.33062464 -601.22550754 527.05278504 -614.125 491.9375 C-623.70265139 459.78395604 -605.26198515 418.90761677 -590.60986328 391.19702148 C-572.50182329 357.93528935 -546.05927382 326.10889681 -516 303 C-514.54787109 301.80503906 -514.54787109 301.80503906 -513.06640625 300.5859375 C-502.004986 291.52735228 -490.02433109 283.71289596 -478 276 C-477.10804932 275.41412109 -476.21609863 274.82824219 -475.29711914 274.22460938 C-474.53906982 273.82048828 -473.78102051 273.41636719 -473 273 C-472.34 273.33 -471.68 273.66 -471 274 C-471.99257813 274.79921875 -472.98515625 275.5984375 -474.0078125 276.421875 C-498.51711146 296.15303126 -498.51711146 296.15303126 -519.79296875 319.234375 C-522.10761738 322.13485505 -524.51860927 324.93611156 -526.9375 327.75 C-553.06294182 359.12475779 -576.08986426 403.6860797 -576.4375 445.125 C-576.44765137 445.96522705 -576.45780273 446.8054541 -576.46826172 447.67114258 C-576.24399829 463.59542537 -567.71781861 474.93420027 -557 486 C-556.48421387 486.54422607 -555.96842773 487.08845215 -555.43701172 487.64916992 C-551.31829899 491.90711494 -546.99280931 495.44678367 -542.125 498.8125 C-541.38741455 499.32530518 -540.6498291 499.83811035 -539.88989258 500.36645508 C-528.82284289 507.96337795 -517.38518766 514.56681055 -505.25 520.3125 C-504.40397217 520.72846436 -503.55794434 521.14442871 -502.6862793 521.57299805 C-501.88746338 521.9369165 -501.08864746 522.30083496 -500.265625 522.67578125 C-499.56211914 523.00489502 -498.85861328 523.33400879 -498.13378906 523.6730957 C-495.87374402 524.22051058 -495.87374402 524.22051058 -493.50610352 522.84545898 C-490.97566966 520.98208349 -488.83214311 519.04372194 -486.63671875 516.796875 C-485.83169922 515.98089844 -485.02667969 515.16492188 -484.19726562 514.32421875 C-482.95493164 513.04998047 -482.95493164 513.04998047 -481.6875 511.75 C-476.57563134 506.52919649 -471.45807227 501.44075278 -465.90942383 496.68457031 C-462.61720549 493.7800432 -459.57058299 490.63522684 -456.5 487.5 C-452.78409976 483.70587028 -449.05687536 479.99863434 -445.03125 476.53125 C-440.8076119 472.88933509 -436.90341837 468.97965701 -433 465 C-428.47021287 460.38174047 -423.87040516 455.9680272 -418.96875 451.74609375 C-415.66244449 448.81371565 -412.59281885 445.65415868 -409.5 442.5 C-405.20047464 438.15419795 -400.8966892 433.93931722 -396.21875 430 C-392.84987939 426.96327156 -389.69090341 423.72188306 -386.5 420.5 C-382.19812143 416.15635562 -377.89692101 411.93951243 -373.21875 408 C-369.19090944 404.36927048 -365.42461585 400.46278673 -361.62890625 396.59179688 C-358.52474224 393.44497522 -355.38118135 390.41664009 -352.03125 387.53125 C-347.8076119 383.88933509 -343.90341837 379.97965701 -340 376 C-335.3875825 371.29749622 -330.7120547 366.76845401 -325.71289062 362.47583008 C-323.69709934 360.73902017 -321.76905817 358.99019044 -320 357 C-320 356.34 -320 355.68 -320 355 C-321.984562 353.78687597 -323.98855519 352.60550943 -326 351.4375 C-327.11375 350.77621094 -328.2275 350.11492187 -329.375 349.43359375 C-335.69971329 346.93233321 -342.08166069 349.14655128 -348.47436523 350.83496094 C-349.17800579 351.01928523 -349.88164635 351.20360952 -350.60660934 351.3935194 C-352.9252609 352.00223079 -355.24190337 352.61824557 -357.55859375 353.234375 C-359.2088131 353.66926619 -360.85915048 354.10370968 -362.50959778 354.53773499 C-366.00879964 355.45900377 -369.50711689 356.38353337 -373.00476074 357.31069946 C-378.44869655 358.75378592 -383.89464737 360.1891631 -389.34082031 361.6237793 C-405.25131249 365.81736903 -421.15539889 370.03465877 -437.05078125 374.28515625 C-438.21270493 374.59538727 -439.3746286 374.90561829 -440.57176208 375.22525024 C-445.81070195 376.62413433 -451.0482765 378.02764751 -456.28295898 379.44238281 C-458.08963631 379.92659901 -459.89635531 380.41065978 -461.703125 380.89453125 C-462.50031448 381.11222672 -463.29750397 381.32992218 -464.11885071 381.55421448 C-467.56825726 382.47311936 -470.40136855 383 -474 383 C-474.06058594 383.86882812 -474.12117187 384.73765625 -474.18359375 385.6328125 C-474.26738281 386.78523438 -474.35117187 387.93765625 -474.4375 389.125 C-474.55931641 390.83042969 -474.55931641 390.83042969 -474.68359375 392.5703125 C-474.97730965 395.7540478 -475.43124313 398.85510907 -476 402 C-483.12392882 401.40338305 -489.708476 399.9344593 -496.59765625 398.05859375 C-497.67252792 397.77146011 -498.7473996 397.48432648 -499.85484314 397.18849182 C-503.2590716 396.27761366 -506.66078345 395.35770948 -510.0625 394.4375 C-512.38200062 393.81515546 -514.7016606 393.19340453 -517.02148438 392.57226562 C-522.68285113 391.05503907 -528.34218405 389.53041132 -534 388 C-532.06139982 383.55561862 -528.95767751 381.64066573 -525 379.0625 C-523.53637888 378.08409478 -522.07419122 377.10354254 -520.61328125 376.12109375 C-519.85225098 375.61046387 -519.0912207 375.09983398 -518.30712891 374.57373047 C-514.54160665 372.00520598 -510.86773649 369.31362397 -507.1875 366.625 C-500.0658471 361.43940578 -492.84529518 356.41767046 -485.54370117 351.48876953 C-481.12242618 348.49497194 -476.83293314 345.39862267 -472.63330078 342.09936523 C-471 341 -471 341 -469 341 C-469 346.61 -469 352.22 -469 358 C-467.23934204 357.44977173 -467.23934204 357.44977173 -465.44311523 356.88842773 C-446.01713557 350.87370772 -426.43914134 345.3911447 -406.87219238 339.85742188 C-402.13763765 338.51791541 -397.40381477 337.17582754 -392.66992188 335.83398438 C-383.44731187 333.22019024 -374.22392014 330.60916668 -365 328 C-365 327.34 -365 326.68 -365 326 C-366.7191896 324.58084349 -368.5037681 323.24061434 -370.3125 321.9375 C-371.42716102 321.12167351 -372.54041407 320.30392027 -373.65234375 319.484375 C-374.49901611 318.86079102 -374.49901611 318.86079102 -375.36279297 318.22460938 C-392.96665676 305.05715027 -409.20513294 289.84706119 -424.7890625 274.38616943 C-426.20565861 272.98146903 -427.62620508 271.58075592 -429.046875 270.18017578 C-435.13500789 264.09969679 -440.68782441 257.76634308 -446 251 C-446.62616211 250.20746826 -447.25232422 249.41493652 -447.89746094 248.59838867 C-477.07110619 211.28720554 -497.5126955 168.61944909 -510 123 C-505.51008977 123.61342227 -501.89845645 125.42054735 -497.9375 127.5 C-415.94428323 169.25405149 -320.43462421 180.52073217 -231 159 C-229.90574707 158.73848145 -228.81149414 158.47696289 -227.68408203 158.20751953 C-178.49776261 146.22821161 -131.58673993 124.27860964 -91 94 C-90.45682129 93.59571777 -89.91364258 93.19143555 -89.35400391 92.77490234 C-77.36521991 83.80730613 -66.05714303 74.08751664 -55 64 C-53.98745685 63.091915 -52.97441282 62.18438828 -51.9609375 61.27734375 C-47.01663373 56.83146389 -42.23288734 52.37767076 -37.95703125 47.26953125 C-35.8538759 44.83054271 -33.65779122 42.50233837 -31.44262695 40.16552734 C-20.34216332 28.42302045 -7.26437441 14.52874883 0 0 Z M-9 147 C-10.51436083 151.31263628 -11.66246285 155.59496645 -12.625 160.0625 C-12.88539063 161.24972656 -13.14578125 162.43695313 -13.4140625 163.66015625 C-13.91935998 166.54035191 -14.12105088 169.08927647 -14 172 C-10.56213136 170.68580197 -7.34973178 169.19046518 -4.12109375 167.42578125 C-3.20473145 166.92602783 -2.28836914 166.42627441 -1.34423828 165.91137695 C-0.38501465 165.38374756 0.57420898 164.85611816 1.5625 164.3125 C2.54234863 163.77520264 3.52219727 163.23790527 4.53173828 162.68432617 C14.91516648 157.0944397 14.91516648 157.0944397 25 151 C25 150.67 25 150.34 25 150 C13.6745023 148.54001719 2.4063601 147.5424802 -9 147 Z M-216 225 C-216.87076172 225.22913086 -217.74152344 225.45826172 -218.63867188 225.69433594 C-252.44624856 234.78622522 -290.94973464 249.95360121 -317 274 C-317.88042969 274.78890625 -318.76085937 275.5778125 -319.66796875 276.390625 C-326.96264205 283.24352341 -333.75871848 291.43884021 -334.22265625 301.88671875 C-333.2172956 311.42882593 -324.59903758 319.02809848 -317.61108398 324.73535156 C-301.24520298 337.58203494 -282.70862653 344.37471385 -263.19287109 350.99780273 C-243.19870844 357.80683191 -226.26088632 366.27905889 -210 380 C-209.18917969 380.67546875 -208.37835938 381.3509375 -207.54296875 382.046875 C-181.44531041 404.56894865 -166.80070649 437.34512241 -155 469 C-153.49186667 465.0057981 -154.41524698 461.28490576 -155.14453125 457.21875 C-155.27392593 456.45670761 -155.40332062 455.69466522 -155.53663635 454.90953064 C-155.81314439 453.28110904 -156.09283872 451.65322583 -156.37542725 450.02584839 C-163.22879241 410.42017361 -166.57407643 371.15967152 -142.16015625 336.37890625 C-135.27364144 327.35179788 -126.70808507 320.25542461 -117.8125 313.3125 C-117.21131348 312.84320068 -116.61012695 312.37390137 -115.99072266 311.89038086 C-115.40726074 311.43542236 -114.82379883 310.98046387 -114.22265625 310.51171875 C-113.66465332 310.07649902 -113.10665039 309.6412793 -112.53173828 309.19287109 C-111.25079531 308.19531175 -109.96748071 307.20079873 -108.68359375 306.20703125 C-94.78561174 294.83595506 -84.51686356 276.55662596 -81 259 C-81.33 258.34 -81.66 257.68 -82 257 C-82.886875 257.94875 -83.77375 258.8975 -84.6875 259.875 C-116.35347576 291.35135914 -162.38818142 307.75783943 -206.5 308.1875 C-215.67457765 308.05571049 -224.84060333 307.52073727 -234 307 C-234 306.34 -234 305.68 -234 305 C-233.35160156 304.99742187 -232.70320313 304.99484375 -232.03515625 304.9921875 C-197.16254089 303.61744576 -161.58834006 286.99694202 -133 268 C-131.92613037 267.2889209 -131.92613037 267.2889209 -130.83056641 266.56347656 C-106.93568701 251.58661782 -106.93568701 251.58661782 -92.8125 228.6875 C-93.03845874 224.24364483 -93.97982612 223.16737563 -97 220 C-128.69325539 201.01348323 -183.14205947 216.34910308 -216 225 Z M-295 378 C-299.61269708 383.38245184 -304.38078359 388.59965838 -309.25 393.75 C-314.65236904 399.48814337 -320.01259914 405.25935409 -325.328125 411.078125 C-328.18877668 414.20644 -331.0611165 417.3236595 -333.9375 420.4375 C-334.68507568 421.24695068 -334.68507568 421.24695068 -335.44775391 422.07275391 C-337.47173051 424.26392574 -339.49612975 426.45470689 -341.52050781 428.64550781 C-346.85697495 434.42124684 -352.18935718 440.20049542 -357.5 446 C-362.81204208 451.80103264 -368.14594334 457.58169117 -373.48388672 463.35888672 C-375.99014104 466.07177586 -378.49500446 468.78594859 -381 471.5 C-381.99999324 472.58333957 -382.99999324 473.66667291 -384 474.75 C-384.495 475.28625 -384.99 475.8225 -385.5 476.375 C-402 494.25 -402 494.25 -403.50024414 495.87524414 C-404.49945738 496.95773871 -405.49864362 498.04025821 -406.49780273 499.12280273 C-409.00961835 501.84417508 -411.52191333 504.56510195 -414.03515625 507.28515625 C-419.80627774 513.53209324 -425.57233555 519.78350995 -431.30859375 526.0625 C-433.16773043 528.0916303 -435.03354654 530.1122404 -436.91015625 532.125 C-437.83595163 533.12498692 -438.76173339 534.12498645 -439.6875 535.125 C-440.51636719 536.01445313 -441.34523438 536.90390625 -442.19921875 537.8203125 C-444.21230572 539.78575411 -444.21230572 539.78575411 -444 542 C-411.27057514 548.82031671 -380.3298285 550.42674436 -347 550 C-346.88027832 549.26426758 -346.76055664 548.52853516 -346.63720703 547.77050781 C-339.80344901 506.212262 -326.00323943 453.579194 -290 427 C-279.90497889 421.03214564 -269.53886565 419.15195346 -258.00390625 421.6484375 C-250.5219294 424.37976758 -244.1033686 429.01806443 -240.5 436.25 C-237.73312954 444.04092472 -238.69924636 452.86294318 -239 461 C-231.54748175 454.22270992 -228.41090675 444.71181062 -227.93359375 434.74609375 C-228.16329674 425.24719948 -230.57493492 417.3570867 -235 409 C-235.43183594 408.16726563 -235.86367188 407.33453125 -236.30859375 406.4765625 C-245.60793211 389.77463469 -260.86235593 379.46919112 -278 372 C-279.28777344 371.42765625 -279.28777344 371.42765625 -280.6015625 370.84375 C-287.79157163 368.37295648 -290.66693468 372.67560608 -295 378 Z M-240 461 C-239 463 -239 463 -239 463 Z M-154 470 C-153 472 -153 472 -153 472 Z M-6 504 C-4.23703719 508.52630452 -2.19840936 512.89238141 -0.12109375 517.28125 C4.26634191 527.92116366 3.1251299 542.31902981 -0.66015625 552.9609375 C-3.88406086 560.27346749 -7.91460546 566.84399609 -13 573 C-12.54109375 573.556875 -12.0821875 574.11375 -11.609375 574.6875 C-3.81227021 584.38473957 -1.08507547 592.86865182 1 605 C13.25094506 596.17336423 20.04553453 577.83672458 22.67041016 563.38232422 C24.82409818 547.81514809 23.83587441 533.1136381 14.5625 520.03515625 C14.046875 519.36355469 13.53125 518.69195313 13 518 C12.12214844 516.78570313 12.12214844 516.78570313 11.2265625 515.546875 C8.56907468 512.50708191 5.70987804 510.42439922 2.375 508.1875 C1.78976562 507.78080078 1.20453125 507.37410156 0.6015625 506.95507812 C-2.4247517 504.71290955 -2.4247517 504.71290955 -6 504 Z M-244.15234375 531.3359375 C-245.42158917 532.00146387 -246.68292314 532.68221851 -247.9375 533.375 C-248.60555664 533.74004639 -249.27361328 534.10509277 -249.96191406 534.48120117 C-274.69642781 548.33028992 -290.16251395 569.18665159 -297.875 596.125 C-301.99203644 612.92149838 -300.15284219 629.30642747 -291.11572266 644.31396484 C-282.87168785 656.77201832 -268.85807356 668.24230847 -254.14453125 671.6640625 C-253.43683594 671.77492188 -252.72914063 671.88578125 -252 672 C-252.2165625 671.38898438 -252.433125 670.77796875 -252.65625 670.1484375 C-257.1602517 655.3436171 -256.54681825 639.36229725 -251 625 C-251 624.34 -251 623.68 -251 623 C-252.98261617 621.7299331 -255.01337472 620.53470788 -257.0625 619.375 C-265.12791953 614.58878297 -271.13472637 609.09036264 -274.3359375 600.015625 C-277.52153629 585.54925873 -274.31127096 571.75436759 -266.75 559.1875 C-262.98445158 553.67833894 -258.61127245 548.80889842 -254 544 C-253.401875 543.3503125 -252.80375 542.700625 -252.1875 542.03125 C-247.9464778 537.55461546 -243.23294891 534.23944456 -238 531 C-241.05607315 529.61390051 -241.05607315 529.61390051 -244.15234375 531.3359375 Z M-197 582 C-200.60545443 586.14522787 -203.83688855 590.50675963 -207 595 C-207.59772217 595.83120361 -207.59772217 595.83120361 -208.20751953 596.67919922 C-220.73195198 614.16978968 -236.17575786 637.52773246 -233 660 C-231.21563151 667.25938735 -227.11386328 671.8690113 -221 676 C-208.53838787 683.34915587 -194.21958778 684.53166706 -180.0625 684.375 C-179.39668915 684.37067963 -178.7308783 684.36635925 -178.04489136 684.36190796 C-165.21209972 684.26528324 -152.65101158 683.18039487 -140 681 C-139.03078613 680.83371094 -138.06157227 680.66742187 -137.06298828 680.49609375 C-99.0743819 673.74033961 -48.39687917 660.12864475 -23.0546875 628.578125 C-17.36990234 620.39423139 -16.07832789 612.88172502 -17 603 C-21.09426353 585.96099908 -36.87445726 571.95329271 -51.21777344 563.08105469 C-51.8059082 562.72430664 -52.39404297 562.36755859 -53 562 C-53.60875977 561.6277832 -54.21751953 561.25556641 -54.84472656 560.87207031 C-105.84486492 530.33446833 -157.70401515 538.97338368 -197 582 Z " fill="#000000" transform="translate(705,214)"/>
<path d="M0 0 C1.34034209 0.00192315 2.6806843 0.00376368 4.02102661 0.00552368 C23.01898854 0.04179588 41.69246101 0.4062704 60.5 3.3125 C61.65097168 3.47878906 62.80194336 3.64507813 63.98779297 3.81640625 C116.95618953 11.5710312 179.55476337 27.58472552 213.7578125 72.26171875 C225.63495921 90.2831037 229.56978609 110.1557524 225.69140625 131.42578125 C219.88202474 157.64461415 203.58704679 180.33087118 185.7734375 199.81640625 C184.28180459 201.45412692 182.80709219 203.10745423 181.3515625 204.77734375 C175.49858313 211.46495376 169.15194038 217.44384608 162.5 223.3125 C161.68571533 224.03590576 161.68571533 224.03590576 160.85498047 224.77392578 C132.51088873 249.87206836 100.18460378 269.29291072 66.5 286.3125 C65.69095215 286.72242188 64.8819043 287.13234375 64.04833984 287.5546875 C-26.822224 333.19096814 -140.17231035 339.93787656 -240.234375 308.421875 C-268.91948403 298.67717289 -295.78253983 285.72103471 -317.5 264.3125 C-318.31339844 263.51199219 -319.12679687 262.71148437 -319.96484375 261.88671875 C-335.09935997 246.07955736 -340.04381434 227.86193099 -339.7734375 206.4765625 C-339.53201872 198.62925706 -338.13469354 191.71294448 -335.5 184.3125 C-335.25862305 183.62639648 -335.01724609 182.94029297 -334.76855469 182.23339844 C-326.87836458 160.40883485 -313.26234962 142.12017123 -297.5 125.3125 C-296.28516182 123.92232435 -295.07626166 122.52692388 -293.875 121.125 C-287.92160974 114.29324069 -281.38879174 108.18376223 -274.5 102.3125 C-273.56542969 101.50039062 -272.63085938 100.68828125 -271.66796875 99.8515625 C-252.48703982 83.27507763 -231.4594213 68.95055938 -209.5 56.3125 C-208.86723145 55.9427002 -208.23446289 55.57290039 -207.58251953 55.19189453 C-184.9321643 41.99172441 -161.17594265 31.1181039 -136.5 22.3125 C-135.51257813 21.95462402 -134.52515625 21.59674805 -133.5078125 21.22802734 C-111.88952816 13.44730863 -89.74115346 8.07854071 -67.0625 4.5 C-65.83337891 4.30510986 -64.60425781 4.11021973 -63.33789062 3.90942383 C-42.23326786 0.75734451 -21.3239886 -0.06073409 0 0 Z M60.5 28.3125 C62.92405418 30.85964181 65.51765097 32.68529759 68.48828125 34.57275391 C76.63525329 39.75440771 83.66627086 45.50983326 90.5 52.3125 C91.49773437 53.25802734 91.49773437 53.25802734 92.515625 54.22265625 C99.99989689 61.89234929 106.66124295 74.53629525 107.5 85.3125 C107.57992188 86.33214844 107.65984375 87.35179687 107.7421875 88.40234375 C108.68489346 113.05133206 95.76872254 134.42827487 79.5625 152 C77.56087198 154.12315201 75.53403862 156.22044127 73.5 158.3125 C73.02916992 158.80379395 72.55833984 159.29508789 72.07324219 159.80126953 C65.61777611 166.53042566 58.85116605 172.58372347 51.5 178.3125 C50.87319336 178.80508301 50.24638672 179.29766602 49.60058594 179.80517578 C-21.40344547 235.50690639 -112.98997068 271.34630349 -241.5 276.3125 C-238.19323808 278.51700795 -235.67952411 279.15487048 -231.82421875 280.08203125 C-231.15568878 280.2433252 -230.48715881 280.40461914 -229.79837036 280.57080078 C-227.5967137 281.09762272 -225.39260524 281.61281348 -223.1875 282.125 C-222.4280307 282.30235687 -221.6685614 282.47971375 -220.88607788 282.66244507 C-205.52252037 286.23140284 -190.12881826 289.13878835 -174.5 291.3125 C-172.80327148 291.55806641 -172.80327148 291.55806641 -171.07226562 291.80859375 C-135.22125688 296.79190456 -96.26064936 297.11739212 -60.5 291.3125 C-59.39479004 291.14621094 -58.28958008 290.97992188 -57.15087891 290.80859375 C21.66133038 278.84889359 95.83898286 240.07075618 153.5 185.3125 C154.45132812 184.4153125 155.40265625 183.518125 156.3828125 182.59375 C174.26397027 165.27297039 191.87857639 141.77170018 192.90258789 116.07568359 C193.17354518 98.9959005 186.49893568 86.04368903 174.9296875 73.71484375 C166.43592218 65.31666743 156.93041004 58.99993271 146.5 53.3125 C145.89043457 52.97895508 145.28086914 52.64541016 144.65283203 52.30175781 C119.63674967 38.93235458 88.71270515 30.23185143 60.5 28.3125 Z " fill="#000000" transform="translate(479.5,20.6875)"/>
<path d="M0 0 C12.1409339 1.63014543 23.27498714 5.42812652 33 13 C33.76054688 13.58523438 34.52109375 14.17046875 35.3046875 14.7734375 C46.77892932 24.23872116 52.90372531 37.47098658 55 52 C57.7613407 88.10051039 45.45594492 117.73085895 22.42578125 145.046875 C9.26503004 160.35763122 -4.92023381 173.80769755 -21 186 C-21.58620117 186.44843262 -22.17240234 186.89686523 -22.77636719 187.35888672 C-73.47354958 226.01514029 -134.88342613 250.16451088 -198 258 C-198.67945679 258.08720306 -199.35891357 258.17440613 -200.05895996 258.26425171 C-215.19815048 260.16218172 -230.25726886 260.35893063 -245.5 260.3125 C-246.73945374 260.31067719 -247.97890747 260.30885437 -249.25592041 260.30697632 C-267.02187467 260.2629394 -284.44597165 259.96081604 -302 257 C-303.06557129 256.82839355 -304.13114258 256.65678711 -305.22900391 256.47998047 C-334.73824712 251.62611553 -363.6371873 243.30471704 -390 229 C-391.59908203 228.13761719 -391.59908203 228.13761719 -393.23046875 227.2578125 C-419.17588174 212.69078891 -438.36626143 191.76340111 -449 164 C-449.36351562 163.05125 -449.72703125 162.1025 -450.1015625 161.125 C-454.26674308 147.73413906 -454.19830397 129.64841403 -448 117 C-447.5875 116.08605469 -447.175 115.17210937 -446.75 114.23046875 C-441.81219668 104.20055575 -433.76290571 94.67109964 -424 89 C-423.34 89 -422.68 89 -422 89 C-421.84966309 89.66829834 -421.69932617 90.33659668 -421.54443359 91.02514648 C-414.68710717 121.23521984 -405.64425839 146.08694025 -384 169 C-383.31421875 169.75023437 -382.6284375 170.50046875 -381.921875 171.2734375 C-353.53327413 201.23918286 -307.02287842 213.90604944 -266.85400391 215.20507812 C-261.40243833 215.32652826 -255.95264841 215.33400981 -250.5 215.3125 C-249.53644592 215.31067719 -248.57289185 215.30885437 -247.58013916 215.30697632 C-232.19199083 215.25811748 -217.20180145 214.5628037 -202 212 C-200.94296875 211.82839355 -199.8859375 211.65678711 -198.796875 211.47998047 C-182.83715952 208.834998 -167.38481172 204.98511111 -152 200 C-151.1042627 199.71318359 -150.20852539 199.42636719 -149.28564453 199.13085938 C-113.65360248 187.52637885 -79.47639989 168.31010843 -51 144 C-49.8336399 143.01916658 -48.66695341 142.0387212 -47.5 141.05859375 C-37.28566455 132.44084167 -28.24760753 123.56599801 -20 113 C-19.56252441 112.44425293 -19.12504883 111.88850586 -18.67431641 111.31591797 C-2.81984286 91.03143511 8.41741088 67.6007707 8.375 41.4375 C8.37338867 40.39190918 8.37177734 39.34631836 8.37011719 38.26904297 C8.17978201 26.0894574 5.7091019 14.94002465 0.734375 3.78515625 C0 2 0 2 0 0 Z " fill="#000000" transform="translate(772,743)"/>
</svg>
