<?xml version="1.0" encoding="UTF-8"?>
<svg version="1.1" xmlns="http://www.w3.org/2000/svg" width="1024" height="1024">
<path d="M0 0 C0.85577637 0.36996094 1.71155273 0.73992188 2.59326172 1.12109375 C30.69916827 13.43469453 57.09993704 30.85259019 79.56640625 51.75390625 C81.60405276 53.63455913 83.68092606 55.41644596 85.8125 57.1875 C116.77625559 84.37518783 134.29270068 120.38387306 147.40673828 158.64550781 C158.66785387 191.37104716 174.70563484 228.26364442 207.6875 244.5 C212.07584698 246.24750246 215.29936315 246.69353659 220 246 C226.45005002 242.15477787 228.65902397 236.647701 230.6875 229.6171875 C234.0458649 215.11091691 231.79066366 200.70409359 224 188 C219.41543101 181.5659742 213.28493904 176.46370428 207 171.75 C197.89875415 164.07930228 189.96605481 149.8665451 188 138 C186.84098439 121.50777786 186.84098439 121.50777786 192 115 C196.96238151 110.03761849 202.87929864 107.65245732 209.84838867 107.53222656 C210.51717041 107.5422168 211.18595215 107.55220703 211.875 107.5625 C212.92554565 107.57168457 212.92554565 107.57168457 213.99731445 107.58105469 C219.77817652 107.75511654 224.15593047 108.89289082 229 112 C229.9075 112.5775 230.815 113.155 231.75 113.75 C241.39548669 123.39548669 243.93715494 136.80253637 244 150 C243.83272788 152.34180963 243.55936636 154.65053492 243.2734375 156.98046875 C242.22416846 168.56739681 241.44946092 180.45891688 247 191 C247.72896484 192.4540625 247.72896484 192.4540625 248.47265625 193.9375 C251.3853906 199.3360431 254.60269072 203.8515561 258.8125 208.3125 C294.06546435 245.75542123 300.21813073 305.31901747 300.25 354.375 C300.25101212 355.78679535 300.25101212 355.78679535 300.25204468 357.22711182 C300.14951994 447.98353856 269.01309626 538.50212061 206.5234375 605.2890625 C204.24929654 607.73217987 202.06126314 610.22867738 199.875 612.75 C185.38519997 628.88162989 168.3489515 642.13521915 151 655 C178.83604584 641.41512124 205.25248903 625.20883107 228 604 C229.22481033 602.9324811 230.45391083 601.86986215 231.6875 600.8125 C243.20287233 590.7307684 254.00061059 580.10362868 264.33544922 568.81738281 C265.83318565 567.18213054 267.33868715 565.55456527 268.84765625 563.9296875 C274.48395634 557.81425834 279.8248552 551.50828031 285 545 C285.7736792 544.03513672 285.7736792 544.03513672 286.56298828 543.05078125 C309.59652335 514.26385091 329.5730462 482.89394823 338 446.625 C340.78397999 434.88430421 346.14044602 422.65837266 356.70947266 415.90820312 C366.21389725 410.49438609 374.05020417 408.20632352 385 409 C390.22167216 410.70891089 392.81637302 413.57829585 396 418 C399.66316568 425.33909501 398.96506837 435.52112086 396.875 443.3125 C393.19807264 453.54689689 387.28832797 460.14470069 379 467 C367.85109074 476.31880529 359.09889976 487.15995769 350.57958984 498.84228516 C348.99007948 501.0135514 347.38134723 503.16947528 345.76953125 505.32421875 C331.20067407 524.94553118 319.70031784 546.19492151 309 568.125 C300.52286695 585.46816338 291.14954722 601.93620328 279 617 C278.57847656 617.52303711 278.15695312 618.04607422 277.72265625 618.58496094 C266.27691103 632.65990995 253.46924 646.02401959 239 657 C237.79021473 657.93860897 236.58059072 658.87742581 235.37109375 659.81640625 C177.5897294 704.28293447 98.32989901 737.23208839 25 739 C24.21592773 739.02046387 23.43185547 739.04092773 22.62402344 739.06201172 C-32.02933523 740.30366707 -78.89846315 722.97653721 -125.375 695.3125 C-146.89616301 682.54475398 -169.36199201 670.33810374 -193 662 C-194.25287196 661.53457439 -195.50548579 661.06845321 -196.7578125 660.6015625 C-233.66207289 647.44993623 -282.1610556 641.82872726 -318.66967773 658.90380859 C-324.87613084 661.9877333 -330.81413465 665.36807936 -336 670 C-336.6496875 670.55816406 -337.299375 671.11632812 -337.96875 671.69140625 C-352.27772992 684.87217814 -360.57217417 705.6434903 -361.40234375 724.86474609 C-361.70951971 742.42923803 -355.62229988 758.79508908 -344 772 C-343.09121094 773.03253906 -343.09121094 773.03253906 -342.1640625 774.0859375 C-329.58601527 787.48540822 -311.49668413 794.94361027 -293.32543945 795.9934082 C-278.7607832 796.44914045 -265.25628622 791.99911958 -252.08862305 786.15112305 C-248.52419738 784.57154569 -245.92884052 783.64283268 -242 784 C-245.99779669 795.33034086 -258.78274999 802.82020499 -269.0859375 808.06103516 C-282.23153941 814.25205167 -296.42862793 818.46115111 -311 819 C-311.78503906 819.0515625 -312.57007813 819.103125 -313.37890625 819.15625 C-338.95901813 820.11700538 -366.07865823 811.46870043 -385.0078125 794 C-394.37617116 784.85599685 -400.91448726 774.18632071 -407.05712891 762.72363281 C-408.88434647 759.3833542 -410.93541876 756.19677096 -413 753 C-417.97474088 760.46211131 -414.70747645 772.64048088 -413.09375 781.09375 C-408.23464997 804.09101731 -397.70451755 823.85964101 -383 842 C-382.36320313 842.80953125 -381.72640625 843.6190625 -381.0703125 844.453125 C-376.41435204 850.11156499 -370.77397392 854.53008005 -365 859 C-363.71802734 860.02287109 -363.71802734 860.02287109 -362.41015625 861.06640625 C-339.13330407 878.9528295 -308.41682551 886.6325104 -279.375 883.375 C-253.93150864 880.01692981 -230.39112749 869.81217282 -211 853 C-209.96875 852.21625 -208.9375 851.4325 -207.875 850.625 C-190.06644503 834.36501503 -180.01564488 811.04166744 -178.86083984 787.11694336 C-178.71297413 782.75287937 -178.58672159 778.38876204 -178.48242188 774.0234375 C-178.31217001 768.67817128 -178.16111182 763.98718112 -176 759 C-170.93814535 760.90910466 -169.68220476 764.63073355 -167.45703125 769.30078125 C-157.18090641 795.39056737 -158.53336763 826.22489411 -169.1796875 851.93359375 C-177.61041923 871.20451661 -188.94549758 887.4619937 -203 903 C-203.78761719 903.87269531 -204.57523437 904.74539063 -205.38671875 905.64453125 C-236.66476046 938.51568205 -284.10584653 956.41650493 -328.91308594 958.11010742 C-379.97909326 959.10768768 -429.26200503 944.88721987 -467.0234375 909.2265625 C-496.91530507 880.4577708 -515.88664925 842.42945489 -524.1875 801.9375 C-524.34250977 801.18339844 -524.49751953 800.42929687 -524.65722656 799.65234375 C-527.35489924 785.73493875 -528.38094863 772.0789135 -528.3125 757.9375 C-528.31034485 757.13018433 -528.3081897 756.32286865 -528.30596924 755.49108887 C-528.06257475 698.40734378 -506.91214908 642.70531795 -469 600 C-468.13246094 599.01 -467.26492188 598.02 -466.37109375 597 C-461.54454645 591.57658197 -456.63666108 586.57259751 -451 582 C-449.49179687 580.75283203 -449.49179687 580.75283203 -447.953125 579.48046875 C-412.14713205 550.29811841 -364.80091123 533.03616995 -318.9453125 529.6171875 C-300.00799376 528.14982216 -281.29099843 524.77322445 -267.7421875 510.15625 C-261.5930306 502.54563429 -255.30385396 492.30708627 -256 482.1875 C-256.51655171 478.01473069 -258.33532226 475.21741276 -261 472 C-264.76520531 469.55919972 -268.85578392 467.77185705 -272.9140625 465.87695312 C-279.92500015 462.44313696 -284.62600432 458.38184269 -287.875 451.1875 C-290.04239717 444.51759323 -289.90768408 437.39000517 -287.09375 430.94140625 C-282.92510681 423.5420646 -277.12546699 418.57781628 -269 416 C-260.2151539 414.58187484 -252.77423904 416.80243866 -245.46875 421.6953125 C-230.28351299 433.27171232 -218.87074737 449.84379796 -216 469 C-214.85950015 488.8080943 -217.39199137 505.75714606 -230.625 521.37109375 C-231.800625 522.67240234 -231.800625 522.67240234 -233 524 C-233.45761719 524.5067627 -233.91523438 525.01352539 -234.38671875 525.53564453 C-251.67110779 544.40216761 -273.82632431 554.49843272 -298 562 C-298.66 562 -299.32 562 -300 562 C-300 562.66 -300 563.32 -300 564 C-290.94708187 565.08460082 -281.9100376 566.07129586 -272.80859375 566.640625 C-254.35092713 567.81427059 -236.78413565 569.5538124 -219 575 C-218.17081055 575.2470166 -217.34162109 575.4940332 -216.48730469 575.74853516 C-196.04055478 581.96628428 -176.48766936 591.60762225 -157.5 601.3125 C-129.88098207 615.3586134 -100.41766654 622.90277348 -70 628 C-69.11570312 628.14840332 -68.23140625 628.29680664 -67.3203125 628.44970703 C-8.51128583 637.74381036 51.45563991 620.47817966 99.12890625 585.875 C108.64250832 578.86181218 117.40871361 571.09656343 126 563 C126.7321875 562.31035156 127.464375 561.62070312 128.21875 560.91015625 C133.62998284 555.65997201 138.36374834 549.93831585 143 544 C143.42152344 543.46552246 143.84304688 542.93104492 144.27734375 542.38037109 C157.46335729 525.54081448 167.29106189 506.90678297 175 487 C175.25861816 486.33339355 175.51723633 485.66678711 175.78369141 484.97998047 C178.75174708 477.14949679 180.79085223 469.14291326 182.6875 461 C182.89020508 460.1344751 183.09291016 459.2689502 183.30175781 458.37719727 C186.42338661 444.35722751 187.3790254 430.67796095 187.3125 416.375 C187.31034485 415.53862 187.3081897 414.70223999 187.30596924 413.84051514 C187.25302592 401.01568603 186.75696441 388.56851423 184 376 C183.79600586 375.05592285 183.59201172 374.1118457 183.38183594 373.13916016 C174.41627665 332.70279125 156.40404427 294.6325484 127.99609375 264.1484375 C126.17614754 262.18959128 124.46282627 260.17704125 122.75 258.125 C114.04602558 248.17760067 103.69733792 239.70518398 93 232 C92.44151367 231.59571777 91.88302734 231.19143555 91.30761719 230.77490234 C51.02165534 201.94861711 -3.96160616 186.19098495 -53.375 194.25 C-56.26581436 194.76997517 -59.13302806 195.3624371 -62 196 C-62.98347412 196.20882812 -62.98347412 196.20882812 -63.98681641 196.421875 C-83.351838 200.63526676 -102.07245465 210.00018402 -117 223 C-117.81984375 223.69867188 -118.6396875 224.39734375 -119.484375 225.1171875 C-140.92632932 243.82895509 -156.6102374 268.361258 -160 297 C-161.53865874 324.16324461 -153.08383488 349.50745761 -135 370 C-134.4946875 370.59941406 -133.989375 371.19882812 -133.46875 371.81640625 C-124.03833581 382.18505042 -111.21265207 388.18255646 -98.41015625 393.2109375 C-94.13247961 394.89479431 -90.08364706 396.89081255 -86 399 C-86.33 399.99 -86.66 400.98 -87 402 C-105.79766386 408.26588795 -130.16793215 400.52298242 -147.23046875 392.4765625 C-173.85009016 378.92822472 -192.95811488 354.92061233 -203 327 C-213.64851146 291.94553255 -205.41400279 260.36818473 -190.93286133 227.88867188 C-190.38214966 226.64633789 -190.38214966 226.64633789 -189.8203125 225.37890625 C-189.32942139 224.28944702 -189.32942139 224.28944702 -188.82861328 223.17797852 C-187.92633919 220.80638535 -187.43308264 218.4963847 -187 216 C-204.14120322 225.4155905 -213.96086971 240.16259705 -219.421875 258.77734375 C-219.92741891 260.51813175 -220.43262041 262.25901922 -220.9375 264 C-225.99591361 281.31583302 -234.2230641 294.81593566 -250.09765625 304.24609375 C-257.31088861 308.04033736 -264.94255169 310.46017586 -273.07421875 308.5 C-280.62330916 305.96925731 -285.48022024 301.57847267 -289.0703125 294.52734375 C-290.76495953 289.92046717 -291.08323313 285.79312958 -290 281 C-286.8785636 274.97204576 -281.63441762 271.63336124 -275.5078125 269.08203125 C-270.13037899 267.42329062 -264.63429676 266.41119585 -259.08129883 265.51855469 C-252.88371718 264.45876762 -248.40938691 262.85032047 -244.20703125 257.87890625 C-240.14151369 251.12581965 -238.46610351 244.69704342 -237 237 C-229.36676201 198.72053138 -204.64311935 172.50313251 -173 151 C-166.48268456 146.74095625 -159.7846392 142.81530047 -153 139 C-152.16774902 138.52965332 -151.33549805 138.05930664 -150.47802734 137.57470703 C-123.72775074 122.6112872 -95.25297975 112.76143691 -65 108 C-64.2570166 107.88140625 -63.5140332 107.7628125 -62.74853516 107.640625 C-10.51221442 99.72924174 39.50106638 111.92292783 82.80395508 141.50390625 C83.78001709 142.17035156 84.7560791 142.83679688 85.76171875 143.5234375 C86.62756592 144.12075684 87.49341309 144.71807617 88.38549805 145.33349609 C91.19712448 147.12564868 93.9309787 148.6906557 97 150 C97.99 149.67 98.98 149.34 100 149 C99.52459067 142.57100306 97.88669433 137.70495251 95.0625 131.9375 C94.66353516 131.11185547 94.26457031 130.28621094 93.85351562 129.43554688 C75.55681311 92.52913448 41.13292647 60.41823609 2 47 C-17.47883556 41.16321614 -34.45959476 42.33029495 -53.1875 50 C-54.05818115 50.35578125 -54.9288623 50.7115625 -55.82592773 51.078125 C-56.67098877 51.42359375 -57.5160498 51.7690625 -58.38671875 52.125 C-76.20577477 59.39081537 -93.99106596 58.86602543 -111.8984375 51.8671875 C-119.89165048 48.24263747 -125.5894416 43.17736225 -129 35 C-130.09594767 26.57798769 -129.4034799 19.28426114 -125 12 C-124.57589844 11.26394531 -124.15179688 10.52789062 -123.71484375 9.76953125 C-115.98512651 -2.74012255 -104.3488288 -11.82614648 -90.1875 -15.9375 C-59.28694747 -22.97470612 -28.08903826 -12.20312134 0 0 Z " fill="#000000" transform="translate(585,42)"/>
<path d="M0 0 C0.84675293 0.24137695 1.69350586 0.48275391 2.56591797 0.73144531 C45.18683379 13.22310543 86.04598842 41.57749287 113 77 C113.39783691 77.52142578 113.79567383 78.04285156 114.20556641 78.58007812 C141.09292392 114.12216445 154.63274184 157.70294139 149.17944336 202.28540039 C141.65762273 255.36853509 110.77054755 305.75758723 68 338 C67.47615723 338.39493652 66.95231445 338.78987305 66.41259766 339.19677734 C38.05208432 360.41133456 4.91491174 375.84307707 -31 377 C-32.04414062 377.03996094 -33.08828125 377.07992188 -34.1640625 377.12109375 C-59.59153384 377.61795239 -100.16474836 372.94118344 -119.69970703 354.38549805 C-120.12880371 353.92828369 -120.55790039 353.47106934 -121 353 C-119.78642822 353.10393066 -119.78642822 353.10393066 -118.54833984 353.20996094 C-61.46153973 357.73439778 -0.19277047 347.54055319 47 313 C47.53399414 312.61424805 48.06798828 312.22849609 48.61816406 311.83105469 C81.23000769 288.13934128 101.71003866 255.88152713 108.64038086 215.9519043 C109.31504157 210.41400704 109.20630946 204.88219808 109.125 199.3125 C109.11597656 198.12205078 109.10695313 196.93160156 109.09765625 195.70507812 C109.07434772 192.80316633 109.04163123 189.90169683 109 187 C105.78261446 189.92222444 103.94619285 192.67213199 102.08203125 196.5859375 C101.55448242 197.67511475 101.02693359 198.76429199 100.48339844 199.88647461 C99.65630371 201.61329468 99.65630371 201.61329468 98.8125 203.375 C91.87200385 217.53660273 84.43155983 230.07821734 74 242 C73.56929199 242.49242187 73.13858398 242.98484375 72.69482422 243.4921875 C49.61121311 269.71184235 19.26015737 289.0987181 -16 293 C-35.31506711 293.95766308 -61.44575136 294.54168412 -77 281 C-76.67 280.01 -76.34 279.02 -76 278 C-69.37171169 276.53505859 -62.88759829 275.63547044 -56.125 275.125 C-29.59161555 272.82012289 -4.08457837 266.31333996 16 248 C16.76699219 247.32582031 17.53398438 246.65164063 18.32421875 245.95703125 C32.76098824 232.52806417 42.26915335 212.9233866 47 194 C47.21269531 193.14921875 47.42539062 192.2984375 47.64453125 191.421875 C54.20924755 160.62910501 46.66724965 129.30570673 30 103 C22.16447785 91.61005751 11.7744454 81.25112474 0 74 C-1.02351562 73.35546875 -2.04703125 72.7109375 -3.1015625 72.046875 C-25.2441795 58.71040223 -53.21607569 49.97571862 -79 56 C-91.76249211 59.91720055 -102.57821236 67.11214769 -109 79 C-114.63881747 91.22495627 -116.31874966 102.2562735 -116.125 115.625 C-116.11597656 116.81996094 -116.10695313 118.01492188 -116.09765625 119.24609375 C-116.07431077 122.16427834 -116.04156656 125.08202776 -116 128 C-126.99219351 123.83878389 -134.31392624 114.13384543 -139.05859375 103.6640625 C-145.68869266 86.59710934 -142.34491438 67.72934124 -135.26416016 51.41723633 C-131.780537 43.75812938 -127.78864664 37.17171885 -122 31 C-121.21625 30.14921875 -120.4325 29.2984375 -119.625 28.421875 C-105.30038616 13.47055931 -86.76046486 4.4763413 -67 -1 C-65.81148437 -1.3403125 -64.62296875 -1.680625 -63.3984375 -2.03125 C-43.37099738 -6.74358885 -19.69311675 -5.67751382 0 0 Z " fill="#000000" transform="translate(589,267)"/>
<path d="M0 0 C0.67691895 0.23299805 1.35383789 0.46599609 2.05126953 0.70605469 C21.43489942 7.47100354 39.43855121 16.51515236 57.0390625 27 C110.94095124 59.44249717 110.94095124 59.44249717 170 80 C170.68868164 80.15936035 171.37736328 80.3187207 172.08691406 80.48291016 C227.385939 92.5601376 289.19569722 76.69805372 339.26171875 53.6015625 C355.08662567 46.33397077 355.08662567 46.33397077 362.0390625 48.69140625 C367.69458971 51.22262536 371.4771093 54.57497734 374.00390625 60.2578125 C376.4205585 67.17182208 376.78270345 73.50640865 374.0546875 80.3828125 C370.00999805 88.28468923 364.64058241 93.72232646 356.50390625 97.2734375 C349.26695205 99.37339613 343.35656303 98.80594954 336.0625 97.5625 C314.00684828 94.23657315 289.44150638 93.26028118 270 106 C267.13283527 108.44606926 265.45325623 110.96017688 263.9375 114.4375 C264.06361164 119.60807706 267.42409507 123.59273791 270.75 127.3125 C298.10311865 153.26886366 339.25053611 159.15391024 375.1968689 158.22851562 C432.99266009 156.37085973 485.03454993 129.37721869 531.21313477 96.73291016 C540.31248359 90.3137859 540.31248359 90.3137859 543 89 C543.99 89.33 544.98 89.66 546 90 C536.67886265 126.66314025 490.06103954 158.28929958 459.70703125 176.62109375 C427.72318916 195.39350873 390.75926588 205.51070986 354 209 C352.89398437 209.11085938 351.78796875 209.22171875 350.6484375 209.3359375 C295.02687981 213.98153035 237.11936492 203.60457448 187 179 C186.07590332 178.54753906 185.15180664 178.09507812 184.19970703 177.62890625 C161.56504095 166.4348144 141.08138831 152.8987338 122.68920898 135.56176758 C120.64090977 133.66800113 118.54876447 131.82666137 116.4609375 129.9765625 C110.61820201 124.72885473 105.06288102 119.21395479 99.52172852 113.65209961 C97.80792767 111.9329133 96.08880918 110.21917417 94.36914062 108.50585938 C89.21691677 103.35651741 84.12369014 98.20973236 79.41650391 92.64306641 C75.02591322 87.55022336 70.04402221 83.11913957 64.95703125 78.7421875 C63.1146332 77.10204871 61.40011364 75.39892439 59.6875 73.625 C55.61326921 69.49583577 51.1407095 65.91032847 46.61132812 62.29492188 C44.89139573 60.91272166 43.18747381 59.512254 41.484375 58.109375 C6.13543393 29.15093863 -40.03635529 3.44798386 -87 7 C-103.63522406 8.86886706 -118.633348 15.63405043 -131.58203125 26.1171875 C-133.67882352 27.74990781 -135.58180662 28.92900526 -138 30 C-133.40343854 14.93471484 -121.86184471 3.45783714 -108.4453125 -4.28125 C-74.61394495 -21.15857622 -33.90973803 -11.71082106 0 0 Z " fill="#000000" transform="translate(383,720)"/>
<path d="M0 0 C2.94014198 2.68357299 4.42392122 5.39116702 5.23046875 9.28125 C5.68767506 21.56275752 0.11886262 31.8395182 -7.65625 41.07421875 C-20.27792722 53.93322665 -37.50970595 59.57308601 -55.21875 59.82421875 C-65.90775575 59.77369166 -76.57693869 58.02308643 -85.34375 51.51171875 C-88.33267451 48.43222077 -88.62295739 45.54167696 -88.90625 41.38671875 C-88.48974833 29.42030531 -79.66475002 20.31723366 -71.34375 12.51171875 C-54.14452266 -2.49347226 -21.07933899 -13.44254456 0 0 Z " fill="#000000" transform="translate(892.34375,731.48828125)"/>
<path d="M0 0 C11.413605 4.891545 18.13507361 16.86408139 22.80664062 27.90673828 C30.27712538 47.17920917 32.3341161 69.89168749 24.640625 89.45703125 C22.10490668 94.86177106 19.99612854 98.55787722 15 102 C9.75817769 103.58243692 6.74026339 102.856376 2.08984375 100.3984375 C-10.93600959 91.68207209 -19.34261971 76.25597586 -22.4921875 61.10546875 C-25.105081 43.20760994 -24.5590322 21.44368144 -14 6 C-9.9190373 1.14590527 -6.55707584 -1.1709064 0 0 Z " fill="#000000" transform="translate(940,301)"/>
<path d="M0 0 C5.77604006 5.50851821 9.37073783 12.26918738 10.2265625 20.21484375 C10.43774627 31.91690925 8.05772427 41.46021624 -0.19140625 50.0859375 C-7.15386634 56.0875781 -15.55693898 59.28118502 -24.7578125 59.015625 C-34.50017756 58.01109309 -42.81839014 53.62809471 -49.45703125 46.45703125 C-56.00349368 38.2557686 -58.03963248 28.89881132 -56.90625 18.60546875 C-55.40996143 10.05093005 -50.93210906 2.36876407 -44.0625 -2.984375 C-29.59937715 -12.38098638 -13.2600553 -10.45453461 0 0 Z " fill="#000000" transform="translate(260.14453125,451.23046875)"/>
<path d="M0 0 C5.47778201 2.97705544 10.96240442 6.26588874 13.3359375 12.26953125 C14.9691728 18.29809095 14.39555146 23.10450663 11.82421875 28.77734375 C7.35314108 36.26434521 0.8135989 42.02760634 -7.6640625 44.26953125 C-20.50493345 46.85666875 -32.99201217 47.16563747 -44.6640625 40.26953125 C-51.23584468 35.55418472 -51.23584468 35.55418472 -52.6640625 31.26953125 C-53.63834817 23.85756054 -52.63471363 18.74544817 -48.42578125 12.5546875 C-36.95800165 -2.3203703 -17.53807044 -7.63580605 0 0 Z " fill="#000000" transform="translate(420.6640625,68.73046875)"/>
<path d="M0 0 C10.94509319 3.05400347 20.24865002 13.37202348 26.25390625 22.62890625 C31.07608791 31.26955756 34.49120886 38.58000262 33.25390625 48.62890625 C31.06263809 51.72690606 29.84334289 52.43242737 26.25390625 53.62890625 C17.56553636 54.41875806 9.07158672 51.94618014 1.94140625 46.87890625 C-7.30098095 39.17371443 -12.13579933 31.07192345 -13.62109375 19.00390625 C-13.99857281 12.39802274 -13.36420109 7.08058404 -9.68359375 1.50390625 C-6.04067583 -0.82136051 -4.16029895 -0.76077954 0 0 Z " fill="#000000" transform="translate(728.74609375,57.37109375)"/>
<path d="M0 0 C5.62674798 5.48838532 7.1299036 11.70652487 7.4296875 19.39453125 C6.58594571 25.20429616 4.76295596 30.30199993 0.4296875 34.39453125 C-5.72758952 38.62406266 -11.1163991 40.12770306 -18.5703125 39.39453125 C-25.83146289 37.76250126 -31.33692569 33.74461146 -35.4453125 27.58203125 C-38.23504124 19.67779981 -37.96060225 13.10809747 -34.5703125 5.39453125 C-31.19316672 -0.36140699 -26.07633487 -3.48991618 -19.8203125 -5.48046875 C-12.60903101 -5.75782573 -5.66604359 -4.70362949 0 0 Z " fill="#000000" transform="translate(216.5703125,364.60546875)"/>
<path d="M0 0 C4.39781402 4.06734245 7.72489941 7.70330278 8.23828125 13.85546875 C8.3906141 20.69441176 8.46542712 26.50908235 4 32 C-1.63097644 37.10627182 -6.61674624 38.36684185 -14.14453125 38.27734375 C-19.89773922 37.71855064 -24.09723709 35.32685636 -27.875 31 C-32.35950645 24.66893207 -32.79213048 19.71337053 -32 12 C-30.29402374 6.07754832 -27.06251865 2.37501243 -22 -1 C-14.51535299 -3.85777431 -6.99806011 -4.1632295 0 0 Z " fill="#000000" transform="translate(301,242)"/>
</svg>
