<?xml version="1.0" encoding="UTF-8" standalone="no"?>
<svg
   xmlns:dc="http://purl.org/dc/elements/1.1/"
   xmlns:cc="http://creativecommons.org/ns#"
   xmlns:rdf="http://www.w3.org/1999/02/22-rdf-syntax-ns#"
   xmlns:svg="http://www.w3.org/2000/svg"
   xmlns="http://www.w3.org/2000/svg"
   xmlns:sodipodi="http://sodipodi.sourceforge.net/DTD/sodipodi-0.dtd"
   xmlns:inkscape="http://www.inkscape.org/namespaces/inkscape"
   width="26mm"
   height="37mm"
   viewBox="0 0 26 37"
   version="1.1"
   id="svg1361"
   inkscape:version="1.0.2-2 (e86c870879, 2021-01-15)"
   sodipodi:docname="CircleCut.svg">
  <defs
     id="defs1355" />
  <sodipodi:namedview
     id="base"
     pagecolor="#ffffff"
     bordercolor="#666666"
     borderopacity="1.0"
     inkscape:pageopacity="0.0"
     inkscape:pageshadow="2"
     inkscape:zoom="5.6"
     inkscape:cx="18.646891"
     inkscape:cy="64.012128"
     inkscape:document-units="mm"
     inkscape:current-layer="layer1"
     inkscape:document-rotation="0"
     showgrid="false"
     inkscape:window-width="2560"
     inkscape:window-height="1369"
     inkscape:window-x="1432"
     inkscape:window-y="1104"
     inkscape:window-maximized="1" />
  <metadata
     id="metadata1358">
    <rdf:RDF>
      <cc:Work
         rdf:about="">
        <dc:format>image/svg+xml</dc:format>
        <dc:type
           rdf:resource="http://purl.org/dc/dcmitype/StillImage" />
        <dc:title></dc:title>
      </cc:Work>
    </rdf:RDF>
  </metadata>
  <g
     inkscape:label="Layer 1"
     inkscape:groupmode="layer"
     id="layer1">
    <path
       id="path1310"
       style="fill:#392300;fill-opacity:1;stroke:none;stroke-width:0.529;stroke-linecap:round;stroke-miterlimit:4;stroke-dasharray:none;stroke-dashoffset:0"
       d="m 8.6859783,22.988575 c -0.07119,0.153591 -0.105631,0.317884 -0.08946,0.501881 0.03966,0.453144 0.189567,0.864207 0.493829,1.211313 0.176415,0.201585 0.383557,0.280447 0.644126,0.191448 0.213635,-0.07366 0.4286237,-0.143108 0.6414407,-0.219181 0.220112,-0.07846 0.438334,-0.164113 0.675437,-0.252283 -0.009,0.07687 -0.01505,0.13105 -0.02147,0.185186 -0.01859,0.160222 -0.04575,0.321313 -0.05547,0.483094 -0.0251,0.421675 0.228954,0.685685 0.652176,0.6817 0.232243,-0.0045 0.449226,-0.0697 0.636969,-0.204868 0.426462,-0.306707 0.588023,-0.75968 0.607446,-1.25336 0.0048,-0.12643 0.0046,-0.253703 0.0072,-0.380213 -0.602666,-0.01039 -1.203397,-0.07147 -1.795499,-0.184292 -0.299484,0.111073 -0.630456,0.148671 -0.9975,0.100198 -0.4327057,-0.05739 -0.7031687,-0.310101 -0.8946177,-0.64681 -0.170003,-0.06689 -0.338253,-0.138183 -0.504565,-0.213813 z m 8.6124897,0.05726 c -0.184186,0.08074 -0.370642,0.155348 -0.559136,0.225444 -0.257032,0.396071 -0.642958,0.61035 -1.116484,0.604762 -0.227823,-0.0045 -0.448844,-0.04265 -0.65665,-0.114511 -0.610103,0.112008 -1.228884,0.170092 -1.849176,0.173556 0.01073,0.246518 0.02336,0.492915 0.04563,0.73806 0.05017,0.561608 0.460009,0.976939 0.995711,1.086961 0.368198,0.07612 0.702212,-0.08468 0.786369,-0.395421 0.03398,-0.125407 0.03499,-0.263505 0.02684,-0.395422 -0.01056,-0.17566 -0.04476,-0.348752 -0.07068,-0.542138 0.05341,0.01832 0.07867,0.02616 0.103776,0.03579 0.408648,0.144018 0.817059,0.29052 1.226522,0.432101 0.272711,0.09473 0.484628,4.1e-4 0.660229,-0.215603 0.242765,-0.297821 0.385294,-0.638737 0.458939,-1.011814 0.04427,-0.224533 0.022,-0.429618 -0.05189,-0.621759 z" />
    <path
       id="path1135"
       style="fill:#392300;fill-opacity:1;stroke:none;stroke-width:0.529;stroke-linecap:round;stroke-miterlimit:4;stroke-dasharray:none;stroke-dashoffset:0"
       d="m 18.286127,22.783707 c -0.06337,0.458832 0.0358,0.881319 0.405262,1.196999 0.237098,0.202273 0.51699,0.251089 0.804262,0.120774 0.264618,-0.119729 0.390021,-0.346422 0.432101,-0.64502 -0.508186,0.07122 -0.982948,0.05521 -1.226522,-0.472358 -0.0319,-0.06903 -0.01199,-0.132646 -0.02863,-0.200395 z" />
    <path
       id="path1131"
       style="fill:#392300;fill-opacity:1;stroke:none;stroke-width:0.529;stroke-linecap:round;stroke-miterlimit:4;stroke-dasharray:none;stroke-dashoffset:0"
       d="m 7.2867953,22.783707 c -0.01304,0.05257 0.01,0.102389 -0.01163,0.155664 -0.230635,0.568845 -0.725152,0.583622 -1.247098,0.517984 0.01132,0.06473 0.01572,0.111073 0.02863,0.154769 0.158607,0.537332 0.764959,0.730627 1.197894,0.372161 0.357678,-0.295347 0.482102,-0.702413 0.430311,-1.145112 -0.0022,-0.01853 -0.0064,-0.03697 -0.0089,-0.05547 z" />
    <path
       id="path1127"
       style="fill:#392300;fill-opacity:1;stroke:none;stroke-width:0.529;stroke-linecap:round;stroke-miterlimit:4;stroke-dasharray:none;stroke-dashoffset:0"
       d="m 1.6059684,13.101252 c -0.2986039,0.0045 -0.5828435,0.09376 -0.83288996,0.269281 -0.365767,0.25655 -0.5293956,0.607697 -0.4848828,1.051176 0.037239,0.368129 0.3750272,0.579948 0.78368536,0.497408 0.1796451,-0.03665 0.3576756,-0.07701 0.5510849,-0.119879 -0.020291,0.05661 -0.032892,0.09444 -0.047414,0.132404 -0.1440371,0.379536 -0.2975187,0.75613 -0.4294168,1.139743 -0.1092436,0.317196 -0.038018,0.50642 0.2209704,0.719274 0.3002207,0.245969 0.6454595,0.395055 1.0225488,0.467885 0.2912522,0.05619 0.5474009,-0.0059 0.7818963,-0.154769 -0.043157,-0.114691 -0.084316,-0.230087 -0.1234572,-0.346217 -0.1247113,-0.05775 -0.248229,-0.116946 -0.3641097,-0.188765 -0.2581402,-0.160222 -0.4196307,-0.39953 -0.4795155,-0.70138 -0.1055105,-0.53147 0.030094,-1.065599 0.3336929,-1.490435 -0.03248,-0.335411 -0.048904,-0.672149 -0.049204,-1.009129 4.154e-4,-0.08859 0.00183,-0.177155 0.00449,-0.265702 H 1.6059839 Z" />
    <path
       id="path1125"
       style="fill:#392300;fill-opacity:1;stroke:none;stroke-width:0.529;stroke-linecap:round;stroke-miterlimit:4;stroke-dasharray:none;stroke-dashoffset:0"
       d="m 23.910593,13.08336 c -0.09724,0 -0.194412,0.0045 -0.291645,0.0045 0.0024,0.09392 0.0036,0.187863 0.0036,0.281805 1.78e-4,0.414387 -0.02401,0.828395 -0.07246,1.239941 0.168237,0.32164 0.2517,0.690849 0.220076,1.075331 -0.02514,0.304141 -0.131141,0.576628 -0.365004,0.784581 -0.09937,0.08864 -0.207169,0.163689 -0.320273,0.228128 -0.05391,0.162714 -0.111782,0.324081 -0.173556,0.483988 0.117444,0.05722 0.241241,0.09324 0.380213,0.09214 0.552698,-0.005 1.026053,-0.212902 1.415286,-0.602972 0.135136,-0.135951 0.189972,-0.308993 0.125246,-0.498303 -0.08254,-0.244458 -0.174168,-0.486209 -0.264807,-0.727324 -0.07768,-0.208824 -0.16041,-0.415832 -0.247809,-0.642336 0.213633,0.04534 0.397891,0.08786 0.582397,0.123457 0.467731,0.08987 0.7824,-0.178195 0.770266,-0.653966 -0.01212,-0.505818 -0.344306,-0.934759 -0.885672,-1.077121 -0.282422,-0.07442 -0.58289,-0.109207 -0.875832,-0.110038 z" />
    <path
       id="path1123"
       style="fill:#392300;fill-opacity:1;stroke:none;stroke-width:0.529;stroke-linecap:round;stroke-miterlimit:4;stroke-dasharray:none;stroke-dashoffset:0"
       d="m 2.6025731,8.5887978 v 0.00179 C 2.0701146,8.6244794 1.6106028,8.8302798 1.2391745,9.2203955 1.0983665,9.3676504 1.0579239,9.538731 1.112139,9.7321169 1.14695,9.8559667 1.17964,9.9810358 1.2257556,10.101595 c 0.1076313,0.280001 0.2236426,0.55637 0.3336924,0.834678 0.021849,0.05583 0.036053,0.116515 0.055466,0.17803 -0.2168704,-0.04214 -0.4157043,-0.08737 -0.61639196,-0.118985 -0.3479627,-0.05346 -0.6440913,0.123041 -0.7031699,0.432995 -0.062307,0.328557 0.00581,0.634199 0.2299169,0.895513 0.3390675,0.394101 0.80165126,0.509807 1.28556626,0.51709 0.2308361,0.0045 0.4614978,0 0.6924347,0 C 2.522783,12.444653 2.564599,12.050684 2.6285168,11.659125 2.3660256,11.349356 2.1904159,10.962451 2.1677885,10.521171 2.1329771,9.8430347 2.3510617,9.4389716 2.8924297,9.1613508 3.0599407,9.0755595 3.2391644,9.0128115 3.4220437,8.9359067 3.1841303,8.7352374 2.9286917,8.5677712 2.6025731,8.588795 Z m 20.5959039,0.00984 v 0.00179 c -0.217545,0.02839 -0.406135,0.1364414 -0.576135,0.279121 0.01814,0.039245 0.03602,0.078619 0.05368,0.1180898 0.191824,0.096185 0.384302,0.1862533 0.565398,0.2934348 0.243576,0.1448832 0.398254,0.3671631 0.475937,0.6414411 0.147463,0.5222165 0.03537,1.0877225 -0.264807,1.5476905 0.0832,0.457643 0.136102,0.920253 0.158348,1.384869 0.208432,0 0.417018,0.0045 0.625338,0.0045 0.232246,0 0.479781,-0.07097 0.694224,-0.166398 0.463684,-0.207998 0.754252,-0.556474 0.73806,-1.099487 -0.01212,-0.411873 -0.312576,-0.663999 -0.722852,-0.598499 -0.20311,0.03253 -0.405319,0.07604 -0.626233,0.118089 0.02995,-0.08414 0.05372,-0.152995 0.07962,-0.22097 0.136765,-0.357687 0.278002,-0.713334 0.411525,-1.0717533 0.09631,-0.2589775 0.02813,-0.4745214 -0.171767,-0.6647015 -0.334208,-0.3180217 -0.732757,-0.4988183 -1.182685,-0.5627146 -0.09002,-0.012812 -0.175606,-0.013302 -0.25765,-0.00449 z" />
    <path
       id="path1121"
       style="fill:#392300;fill-opacity:1;stroke:none;stroke-width:0.529;stroke-linecap:round;stroke-miterlimit:4;stroke-dasharray:none;stroke-dashoffset:0"
       d="m 20.171983,5.3815905 c -0.05424,0 -0.10588,0.013705 -0.154769,0.03668 0.171059,0.1496614 0.337246,0.3048204 0.498302,0.4652015 0.0743,-0.1455588 0.04686,-0.2900343 -0.07962,-0.400789 -0.07486,-0.065128 -0.170471,-0.1000012 -0.263912,-0.1010923 z" />
    <path
       id="path1119"
       style="fill:#392300;fill-opacity:1;stroke:none;stroke-width:0.529;stroke-linecap:round;stroke-miterlimit:4;stroke-dasharray:none;stroke-dashoffset:0"
       d="m 9.2397463,3.5136279 c -0.138339,0.03161 -0.275809,0.070862 -0.411524,0.1180894 -0.118535,0.041219 -0.22433,0.1237687 -0.333693,0.2039727 0.244188,-0.1168554 0.492778,-0.2242966 0.745217,-0.3220621 z M 17.16696,3.6326118 c 0.01523,0.00658 0.03044,0.013137 0.04563,0.019682 -0.01506,-0.00693 -0.0301,-0.013659 -0.04563,-0.019682 z M 5.7829413,5.3753286 v 0.00179 c -0.155373,0.00449 -0.273044,0.083442 -0.342639,0.2218653 -0.06879,0.1367296 -0.0295,0.2670634 0.06441,0.3730558 h 0.0018 c 0.170384,-0.1739296 0.34673,-0.3419229 0.528719,-0.5036699 -0.06844,-0.057718 -0.149209,-0.09588 -0.252282,-0.09304 z" />
    <path
       id="path1117"
       style="fill:#392300;fill-opacity:1;stroke:none;stroke-width:0.529;stroke-linecap:round;stroke-miterlimit:4;stroke-dasharray:none;stroke-dashoffset:0"
       d="m 6.6721923,1.6304558 c -0.343236,0.042607 -0.647586,0.3664064 -0.619971,0.7112219 0.512227,-0.067188 1.002452,-0.049292 1.227416,0.5269299 0.16589,0.4239657 0.06329,0.8210349 -0.176239,1.1665824 -0.0963,-0.2184726 -0.16997,-0.4553664 -0.297014,-0.6593337 -0.269458,-0.4312953 -0.755777,-0.4502904 -1.093223,-0.063518 -0.169133,0.1942123 -0.252976,0.4266214 -0.310433,0.6718585 -0.01695,0.072831 -0.03394,0.1452024 -0.0501,0.2156029 C 5.2037333,4.0436116 5.0744443,3.8861519 4.9223183,3.7542799 4.7499553,3.6053284 4.5342681,3.5924912 4.3327651,3.6782372 4.1490709,3.7567987 3.9610775,3.8503447 3.8129917,3.9806185 c -0.2176811,0.19183 -0.3018684,0.4683859 -0.2970131,0.752374 0.00732,0.3892463 0.3252941,0.5506796 0.6271272,0.7416388 -0.075248,0.025655 -0.129481,0.039882 -0.1780291,0.061728 -0.1634624,0.074528 -0.3359024,0.1336675 -0.4839883,0.2308114 -0.4369791,0.2856366 -0.5597589,0.9364346 0.03668,1.2649905 0.084162,0.046898 0.1731954,0.087685 0.263018,0.1216681 0.11086,0.041219 0.2258512,0.073274 0.3569527,0.1145111 C 3.6918558,7.5248916 3.2466809,7.5795954 2.8056522,7.3327534 2.3071719,7.054445 2.3062292,6.592338 2.4227558,6.0954961 2.1152521,6.133981 1.8709604,6.2534688 1.7455295,6.5293862 1.6128198,6.8215266 1.6757487,7.1044433 1.8707763,7.3488564 2.1629034,7.7154744 2.5668589,7.8546178 3.0167824,7.8149525 3.4028269,7.7810572 3.7873407,7.7171897 4.1699454,7.6494481 4.4479432,7.2171663 4.7571093,6.8057437 5.0949803,6.4184533 5.0301803,6.3790706 4.9694253,6.3351107 4.9223193,6.2806822 4.6390966,5.9537762 4.6698533,5.4030467 4.9903103,5.0640012 5.1851353,4.8577904 5.4515663,4.74534 5.7122673,4.7356762 v 0.00449 c 0.202772,-0.00779 0.402335,0.047294 0.562715,0.1690826 0.07267,0.055156 0.131634,0.127057 0.180713,0.2066569 0.308661,-0.2468956 0.630932,-0.4762784 0.965293,-0.6870669 0.05502,-0.3149505 0.105875,-0.6250733 0.167294,-0.9321922 0.06798,-0.3407385 0.147297,-0.6776284 0.06799,-1.0288112 -0.10115,-0.4508075 -0.433308,-0.7878702 -0.834679,-0.8364682 -0.04977,-0.00589 -0.100367,-0.00589 -0.149401,0 z" />
    <path
       id="path1115"
       style="fill:#392300;fill-opacity:1;stroke:none;stroke-width:0.529;stroke-linecap:round;stroke-miterlimit:4;stroke-dasharray:none;stroke-dashoffset:0"
       d="m 19.211163,1.625983 c -0.21261,-0.00866 -0.406293,0.07651 -0.570767,0.2415471 -0.309932,0.3107384 -0.412193,0.6987351 -0.35069,1.1227456 0.06409,0.443755 0.147775,0.8845721 0.226338,1.3285085 0.362396,0.2186132 0.711328,0.4588081 1.044914,0.7192729 0.04158,-0.053909 0.08716,-0.1041873 0.14135,-0.1458226 0.146563,-0.1126314 0.336942,-0.16428 0.532298,-0.159242 0.251182,0.00589 0.511148,0.1063735 0.699591,0.2916457 0.332587,0.32773 0.40247,0.8681324 0.155664,1.2023671 -0.03601,0.048681 -0.07969,0.091235 -0.126141,0.1297196 0.369088,0.4163154 0.704717,0.8611303 1.003762,1.3302976 0.314653,0.048369 0.627403,0.094881 0.940244,0.1252463 0.428092,0.042135 0.818053,-0.082789 1.118272,-0.4097351 0.223343,-0.2434974 0.299924,-0.5373404 0.183397,-0.848993 -0.108442,-0.2904923 -0.354174,-0.4192739 -0.675436,-0.4589392 0.116526,0.5202925 0.09286,0.9960909 -0.442836,1.2623064 -0.4297,0.2136329 -0.857748,0.1595007 -1.288251,-0.092145 0.06554,-0.017397 0.111627,-0.023754 0.152085,-0.041151 C 22.15564,7.1329667 22.369422,7.0622881 22.549878,6.9409122 22.876809,6.7208223 22.929529,6.3243943 22.703753,6.0015631 22.574277,5.8170178 22.391739,5.7015425 22.190242,5.6141934 22.073715,5.5639541 21.951993,5.5253405 21.830605,5.4800005 21.990014,5.3473045 22.156747,5.2368008 22.28865,5.0935254 22.428634,4.9414056 22.484683,4.7411091 22.409423,4.5379677 22.341457,4.3542446 22.27385,4.1611527 22.15893,4.006564 22.000336,3.7921075 21.752927,3.684026 21.491545,3.6451384 21.051322,3.5804089 20.839219,3.9100838 20.600505,4.2248511 20.589077,4.1706649 20.584945,4.1492142 20.580823,4.1282321 20.523382,3.8295879 20.429587,3.547891 20.225659,3.3132352 19.876887,2.9134525 19.383079,2.9464491 19.1217,3.4044859 19.009225,3.6011235 18.941857,3.8239522 18.856893,4.0271403 18.628691,3.6864472 18.519623,3.3027881 18.680654,2.8820288 c 0.229017,-0.5972439 0.730005,-0.6101809 1.264095,-0.5430334 -0.05664,-0.3325862 -0.206985,-0.5715476 -0.5153,-0.671858 -0.07486,-0.024272 -0.147413,-0.037949 -0.218287,-0.041151 z" />
    <path
       id="path1113"
       style="fill:#392300;fill-opacity:1;stroke:none;stroke-width:0.529;stroke-linecap:round;stroke-miterlimit:4;stroke-dasharray:none;stroke-dashoffset:0"
       d="m 11.606907,0.16238717 c -0.29483,0.008309 -0.532563,0.17028037 -0.600289,0.43657376 -0.02752,0.11001727 -0.03395,0.23021322 -0.02505,0.34353345 0.01627,0.19498962 0.05146,0.38837692 0.08141,0.60118352 -0.106832,-0.043056 -0.19556,-0.078918 -0.285383,-0.1145112 -0.317213,-0.1262384 -0.633126,-0.255915 -0.9527687,-0.3757394 -0.278377,-0.10433891 -0.512617,-0.037578 -0.707643,0.1932375 -0.288889,0.3415172 -0.47152,0.7262293 -0.514405,1.1737393 -0.03239,0.3406482 0.106469,0.6126869 0.335482,0.8489926 0.08578,-0.1836759 0.153847,-0.360701 0.246914,-0.5233517 0.218487,-0.3811394 0.534325,-0.642103 0.9858697,-0.6825937 0.736865,-0.065093 1.398695,0.2397905 1.816075,0.7899479 0.298203,-0.030607 0.597576,-0.048518 0.897302,-0.053677 0.0085,-0.5002314 0.0042,-1.0004784 -0.05905,-1.4993806 -0.07202,-0.57131946 -0.46993,-1.00656077 -1.006445,-1.11827281 -0.07268,-0.014717 -0.143984,-0.0215189 -0.212025,-0.0196822 z m 2.704431,0.009839 c -0.377906,0.008657 -0.683503,0.17517916 -0.912511,0.47862088 -0.229009,0.30340874 -0.286533,0.66172415 -0.288962,1.02344295 -0.0027,0.3744968 -0.004,0.7497187 -0.0018,1.1245357 0.304364,0.00151 0.608519,0.016137 0.911616,0.043835 0.08052,-0.1004959 0.169366,-0.1963651 0.271964,-0.2862779 0.428079,-0.3754591 0.934632,-0.5404307 1.500275,-0.4911456 0.49282,0.043056 0.815604,0.3408864 1.033284,0.7648987 0.07444,0.1448837 0.132766,0.2978211 0.203973,0.4580446 C 17.242832,3.0308956 17.39193,2.7646741 17.361989,2.4239787 17.326394,2.025069 17.181939,1.6713972 16.942413,1.3558045 16.664041,0.9884074 16.490404,0.93257222 16.055847,1.0847351 c -0.296176,0.1035597 -0.583621,0.2296906 -0.874938,0.3462171 -0.09064,0.036648 -0.180779,0.071578 -0.291645,0.1145112 0.03398,-0.2225186 0.06472,-0.4138026 0.09304,-0.60476181 0.06556,-0.44506361 -0.221036,-0.77983559 -0.670964,-0.768477 z" />
    <path
       id="path1338"
       style="fill:#392300;fill-opacity:1;stroke:none;stroke-width:0.529;stroke-linecap:round;stroke-miterlimit:4;stroke-dasharray:none;stroke-dashoffset:0"
       d="m 12.564148,23.929713 a 10.662425,10.679639 0 0 0 0.537666,0.01431 10.662425,10.679639 0 0 0 0.526036,-0.01342 c -0.170281,0.0083 -0.341232,0.01252 -0.513511,0.01252 -0.184295,0 -0.368054,-0.0046 -0.550191,-0.01342 z" />
    <path
       id="path1450"
       style="fill:#392300;fill-opacity:1;stroke:none;stroke-width:0.529;stroke-linecap:round;stroke-miterlimit:4;stroke-dasharray:none;stroke-dashoffset:0"
       d="m 12.022009,23.888561 a 10.662425,10.679639 0 0 0 0.542139,0.04115 c -0.182137,-0.0092 -0.362654,-0.02284 -0.542139,-0.04115 z m 2.095197,0.0072 c -0.141906,0.01333 -0.284172,0.02489 -0.427628,0.03221 a 10.662425,10.679639 0 0 0 0.427628,-0.03221 z" />
    <path
       id="path1448"
       style="fill:#392300;fill-opacity:1;stroke:none;stroke-width:0.529;stroke-linecap:round;stroke-miterlimit:4;stroke-dasharray:none;stroke-dashoffset:0"
       d="m 11.504026,23.822359 a 10.662425,10.679639 0 0 0 0.517983,0.0662 c -0.174083,-0.0174 -0.346473,-0.04032 -0.517983,-0.0662 z m 3.011285,0.02684 c -0.05126,0.0069 -0.102389,0.01366 -0.153874,0.01968 a 10.662425,10.679639 0 0 0 0.153874,-0.01968 z" />
    <path
       id="path1446"
       style="fill:#392300;fill-opacity:1;stroke:none;stroke-width:0.529;stroke-linecap:round;stroke-miterlimit:4;stroke-dasharray:none;stroke-dashoffset:0"
       d="m 10.986041,23.731108 a 10.662425,10.679639 0 0 0 0.488462,0.08678 c -0.164031,-0.02519 -0.326988,-0.05413 -0.488462,-0.08678 z" />
    <path
       id="path1444"
       style="fill:#392300;fill-opacity:1;stroke:none;stroke-width:0.529;stroke-linecap:round;stroke-miterlimit:4;stroke-dasharray:none;stroke-dashoffset:0"
       d="m 10.46269,23.611229 a 10.662425,10.679639 0 0 0 0.479515,0.110933 c -0.161347,-0.03343 -0.320912,-0.07041 -0.479515,-0.110933 z" />
    <path
       id="path1442"
       style="fill:#392300;fill-opacity:1;stroke:none;stroke-width:0.529;stroke-linecap:round;stroke-miterlimit:4;stroke-dasharray:none;stroke-dashoffset:0"
       d="m 9.9903313,23.478825 a 10.662425,10.679639 0 0 0 0.4365737,0.123458 c -0.146666,-0.03802 -0.292417,-0.07943 -0.4365737,-0.123458 z" />
    <path
       id="path1440"
       style="fill:#392300;fill-opacity:1;stroke:none;stroke-width:0.529;stroke-linecap:round;stroke-miterlimit:4;stroke-dasharray:none;stroke-dashoffset:0"
       d="m 9.4428253,23.295429 a 10.662425,10.679639 0 0 0 0.456255,0.154769 c -0.153643,-0.04846 -0.305704,-0.09963 -0.456255,-0.154769 z" />
    <path
       id="path1438"
       style="fill:#392300;fill-opacity:1;stroke:none;stroke-width:0.529;stroke-linecap:round;stroke-miterlimit:4;stroke-dasharray:none;stroke-dashoffset:0"
       d="m 8.9686773,23.108453 a 10.662425,10.679639 0 0 0 0.474148,0.186976 c -0.15991,-0.05853 -0.317932,-0.1211 -0.474148,-0.186976 z" />
    <path
       id="path1436"
       style="fill:#392300;fill-opacity:1;stroke:none;stroke-width:0.529;stroke-linecap:round;stroke-miterlimit:4;stroke-dasharray:none;stroke-dashoffset:0"
       d="m 8.4954243,22.895534 a 10.662425,10.679639 0 0 0 0.448204,0.202184 c -0.151081,-0.06417 -0.300783,-0.131373 -0.448204,-0.202184 z" />
    <path
       id="path1434"
       style="fill:#392300;fill-opacity:1;stroke:none;stroke-width:0.529;stroke-linecap:round;stroke-miterlimit:4;stroke-dasharray:none;stroke-dashoffset:0"
       d="m 8.0346953,22.66025 a 10.662425,10.679639 0 0 0 0.441942,0.226338 c -0.149281,-0.07205 -0.296627,-0.147604 -0.441942,-0.226338 z" />
    <path
       id="path1432"
       style="fill:#392300;fill-opacity:1;stroke:none;stroke-width:0.529;stroke-linecap:round;stroke-miterlimit:4;stroke-dasharray:none;stroke-dashoffset:0"
       d="m 6.7249743,21.821992 a 10.662425,10.679639 0 0 0 0.61013,0.424049 c -0.208539,-0.134482 -0.411906,-0.275781 -0.61013,-0.424049 z" />
    <path
       id="path1430"
       style="fill:#392300;fill-opacity:1;stroke:none;stroke-width:0.529;stroke-linecap:round;stroke-miterlimit:4;stroke-dasharray:none;stroke-dashoffset:0"
       d="m 6.3215013,21.505297 a 10.662425,10.679639 0 0 0 0.403473,0.316695 c -0.137042,-0.102466 -0.271624,-0.207863 -0.403473,-0.316695 z" />
    <path
       id="path1428"
       style="fill:#392300;fill-opacity:1;stroke:none;stroke-width:0.529;stroke-linecap:round;stroke-miterlimit:4;stroke-dasharray:none;stroke-dashoffset:0"
       d="m 5.9341313,21.169815 a 10.662425,10.679639 0 0 0 0.38737,0.335482 c -0.131844,-0.108786 -0.260949,-0.220558 -0.38737,-0.335482 z" />
    <path
       id="path1426"
       style="fill:#392300;fill-opacity:1;stroke:none;stroke-width:0.529;stroke-linecap:round;stroke-miterlimit:4;stroke-dasharray:none;stroke-dashoffset:0"
       d="m 5.5736003,20.826282 a 10.662425,10.679639 0 0 0 0.360531,0.343533 c -0.122984,-0.111762 -0.242887,-0.226182 -0.360531,-0.343533 z" />
    <path
       id="path1424"
       style="fill:#392300;fill-opacity:1;stroke:none;stroke-width:0.529;stroke-linecap:round;stroke-miterlimit:4;stroke-dasharray:none;stroke-dashoffset:0"
       d="m 5.2103853,20.445174 a 10.662425,10.679639 0 0 0 0.349796,0.367689 c -0.119522,-0.119641 -0.236027,-0.242551 -0.349796,-0.367689 z" />
    <path
       id="path1422"
       style="fill:#392300;fill-opacity:1;stroke:none;stroke-width:0.529;stroke-linecap:round;stroke-miterlimit:4;stroke-dasharray:none;stroke-dashoffset:0"
       d="m 4.9133723,20.102536 a 10.662425,10.679639 0 0 0 0.297013,0.342638 c -0.101558,-0.111763 -0.200205,-0.226661 -0.297013,-0.342638 z" />
    <path
       id="path1420"
       style="fill:#392300;fill-opacity:1;stroke:none;stroke-width:0.529;stroke-linecap:round;stroke-miterlimit:4;stroke-dasharray:none;stroke-dashoffset:0"
       d="m 4.6092019,19.720534 a 10.662425,10.679639 0 0 0 0.2290224,0.29254 c -0.07825,-0.09596 -0.154022,-0.193831 -0.2290224,-0.29254 z" />
    <path
       id="path1418"
       style="fill:#392300;fill-opacity:1;stroke:none;stroke-width:0.529;stroke-linecap:round;stroke-miterlimit:4;stroke-dasharray:none;stroke-dashoffset:0"
       d="M 4.2236218,7.3524351 A 10.662425,10.679639 0 0 0 4.0285946,7.6557105 C 4.0918039,7.5535702 4.1571,7.4522435 4.2236218,7.3524351 Z" />
    <path
       id="path1416"
       style="fill:#392300;fill-opacity:1;stroke:none;stroke-width:0.529;stroke-linecap:round;stroke-miterlimit:4;stroke-dasharray:none;stroke-dashoffset:0"
       d="M 4.5331596,6.9095989 A 10.662425,10.679639 0 0 0 4.2764041,7.2719195 C 4.3596258,7.1494375 4.4450502,7.0283708 4.5331596,6.9095989 Z" />
    <path
       id="path1414"
       style="fill:#392300;fill-opacity:1;stroke:none;stroke-width:0.529;stroke-linecap:round;stroke-miterlimit:4;stroke-dasharray:none;stroke-dashoffset:0"
       d="M 4.8641683,6.4855499 A 10.662425,10.679639 0 0 0 4.562682,6.8702355 C 4.6604649,6.7396864 4.7606453,6.6113281 4.8641683,6.4855499 Z" />
    <path
       id="path1412"
       style="fill:#392300;fill-opacity:1;stroke:none;stroke-width:0.529;stroke-linecap:round;stroke-miterlimit:4;stroke-dasharray:none;stroke-dashoffset:0"
       d="m 5.2408033,6.0507653 a 10.662425,10.679639 0 0 0 -0.376635,0.4347846 c 0.121926,-0.1482246 0.24703,-0.2933862 0.376635,-0.4347846 z" />
    <path
       id="path1410"
       style="fill:#392300;fill-opacity:1;stroke:none;stroke-width:0.529;stroke-linecap:round;stroke-miterlimit:4;stroke-dasharray:none;stroke-dashoffset:0"
       d="m 5.6406973,5.6374515 a 10.662425,10.679639 0 0 0 -0.388265,0.400789 c 0.125963,-0.1369434 0.255374,-0.2705692 0.388265,-0.400789 z" />
    <path
       id="path1408"
       style="fill:#392300;fill-opacity:1;stroke:none;stroke-width:0.529;stroke-linecap:round;stroke-miterlimit:4;stroke-dasharray:none;stroke-dashoffset:0"
       d="m 7.2044903,4.3697774 a 10.662425,10.679639 0 0 0 -1.563793,1.2676741 c 0.479361,-0.4697243 1.002913,-0.894377 1.563793,-1.2676741 z" />
    <path
       id="path1406"
       style="fill:#392300;fill-opacity:1;stroke:none;stroke-width:0.529;stroke-linecap:round;stroke-miterlimit:4;stroke-dasharray:none;stroke-dashoffset:0"
       d="M 8.9892533,3.4134306 A 10.662425,10.679639 0 0 0 7.2044903,4.3697774 C 7.7644813,3.9970715 8.3615383,3.6764792 8.9892533,3.4134306 Z" />
    <path
       id="path1402"
       style="fill:#392300;fill-opacity:1;stroke:none;stroke-width:0.529;stroke-linecap:round;stroke-miterlimit:4;stroke-dasharray:none;stroke-dashoffset:0"
       d="m 9.9608093,22.352501 h -0.308644 c -5.95e-4,1.19e-4 -0.0021,0.0054 -0.0027,0.0054 -0.0012,0 -0.0093,-0.0052 -0.01074,-0.0054 h -0.534086 c 0.352029,0.151167 0.72145,0.319379 0.750584,0.319379 0.0224,0 0.05155,-0.160323 0.105565,-0.319379 z" />
    <path
       id="path1398"
       style="fill:#392300;fill-opacity:1;stroke:none;stroke-width:0.529;stroke-linecap:round;stroke-miterlimit:4;stroke-dasharray:none;stroke-dashoffset:0"
       d="m 11.29379,22.352501 h -0.293435 c -0.07148,0.323549 -0.116917,0.566052 -0.08409,0.585975 0.104945,0.06476 0.853348,0.172556 1.195211,0.177134 l 0.339954,0.0045 0.017,-0.32743 c 0.01506,-0.316464 0.01073,-0.326536 -0.112722,-0.326536 -0.140971,0 -0.190557,0.08494 -0.190554,0.323852 0,0.149921 -0.0092,0.156766 -0.169977,0.128825 -0.09338,-0.0161 -0.277759,-0.04443 -0.409735,-0.06262 -0.344892,-0.04814 -0.361674,-0.108994 -0.291646,-0.50367 z" />
    <path
       id="path1396"
       style="fill:#392300;fill-opacity:1;stroke:none;stroke-width:0.529;stroke-linecap:round;stroke-miterlimit:4;stroke-dasharray:none;stroke-dashoffset:0"
       d="m 11.879765,22.352501 h -0.23439 c -0.008,0.09391 -0.04,0.202331 -0.02684,0.223655 0.01593,0.02611 0.07188,0.04652 0.124352,0.04652 0.07292,0 0.104317,-0.05444 0.130614,-0.229917 z" />
    <path
       id="path1392"
       style="fill:#392300;fill-opacity:1;stroke:none;stroke-width:0.529;stroke-linecap:round;stroke-miterlimit:4;stroke-dasharray:none;stroke-dashoffset:0"
       d="m 14.273764,22.352501 h -0.244231 c 0.01767,0.159986 0.03491,0.302183 0.03937,0.307749 0.0047,0.0059 0.06136,-0.0045 0.126141,-0.01968 0.105707,-0.02747 0.113853,-0.05376 0.08409,-0.252283 z" />
    <path
       id="path1390"
       style="fill:#392300;fill-opacity:1;stroke:none;stroke-width:0.529;stroke-linecap:round;stroke-miterlimit:4;stroke-dasharray:none;stroke-dashoffset:0"
       d="m 14.871369,22.352501 c -5.04e-4,4.6e-5 -4e-4,-0.0064 -9.16e-4,-0.0063 -0.0101,0.0037 -0.04275,0.0039 -0.0662,0.0063 z" />
    <path
       id="path1388"
       style="fill:#392300;fill-opacity:1;stroke:none;stroke-width:0.529;stroke-linecap:round;stroke-miterlimit:4;stroke-dasharray:none;stroke-dashoffset:0"
       d="m 14.871369,22.352501 h -0.0671 c -0.02663,0.0027 -0.04527,0.0072 -0.07515,0.0072 -0.09156,0 -0.09944,0.02653 -0.07246,0.254966 l 0.03042,0.254967 -0.454466,0.03757 c -0.250071,0.02062 -0.468278,0.02451 -0.483989,0.0089 -0.01484,-0.01467 -0.03688,-0.27386 -0.05189,-0.56361 h -0.273753 c 0.0023,0.260422 0.01367,0.549131 0.03042,0.650388 h -9.15e-4 l 0.0331,0.198605 0.346217,-0.03131 c 0.502004,-0.04534 1.123959,-0.139566 1.165688,-0.177135 0.04629,-0.04129 -0.07371,-0.645312 -0.126142,-0.640546 z" />
    <path
       id="path1382"
       style="fill:#392300;fill-opacity:1;stroke:none;stroke-width:0.529;stroke-linecap:round;stroke-miterlimit:4;stroke-dasharray:none;stroke-dashoffset:0"
       d="m 16.260711,22.352501 h -0.384685 l 0.115405,0.383791 0.159242,-0.02952 c 0.100635,-0.02023 0.543146,-0.205813 0.904459,-0.354269 h -0.585975 c -0.07133,0.02376 -0.168606,0.06083 -0.18787,0.06083 -0.0047,0 -0.01428,-0.05477 -0.02058,-0.06083 z" />
    <path
       id="path1380"
       style="fill:#392300;fill-opacity:1;stroke:none;stroke-width:0.529;stroke-linecap:round;stroke-miterlimit:4;stroke-dasharray:none;stroke-dashoffset:0"
       d="m 21.879809,17.890144 c 0.0022,3.17e-4 0.03437,0.01759 0.03489,0.017 0.0011,-0.0012 0.006,-0.0155 0.0072,-0.017 z" />
    <path
       id="path1378"
       style="fill:#392300;fill-opacity:1;stroke:none;stroke-width:0.529;stroke-linecap:round;stroke-miterlimit:4;stroke-dasharray:none;stroke-dashoffset:0"
       d="m 20.559353,17.890144 h 0.567187 c -0.185089,-0.10445 -0.407092,-0.231432 -0.412418,-0.225443 -0.0034,0.0037 -0.103004,0.150124 -0.154769,0.225443 z" />
    <path
       id="path1374"
       style="fill:#392300;fill-opacity:1;stroke:none;stroke-width:0.529;stroke-linecap:round;stroke-miterlimit:4;stroke-dasharray:none;stroke-dashoffset:0"
       d="m 5.6192263,17.890144 h 0.732692 a 8.188254,8.188254 0 0 1 -1.443914,-4.643068 8.188254,8.188254 0 0 1 8.1884417,-8.1884426 8.188254,8.188254 0 0 1 8.188442,8.1884426 8.188254,8.188254 0 0 1 -1.444808,4.643068 h 0.411524 c 0.04715,-0.07112 0.119772,-0.162517 0.150296,-0.214708 0.109377,-0.186974 0.218388,-0.352137 0.242441,-0.366793 0.02386,-0.01472 0.315889,0.118053 0.648598,0.295224 0.314188,0.167319 0.550111,0.28096 0.58687,0.286277 h 0.04205 c 0.09735,-0.124194 0.597606,-1.30563 0.597606,-1.414391 3e-6,-0.03253 -0.133599,-0.101356 -0.297014,-0.15298 -0.2861,-0.09065 -0.299561,-0.09065 -0.365899,0 -0.103525,0.141715 -0.08732,0.168869 0.140456,0.237074 0.115089,0.03482 0.20934,0.08393 0.20934,0.110038 0,0.109792 -0.327956,0.825733 -0.378423,0.825733 -0.05761,0 -1.034179,-0.458754 -1.034179,-0.485778 0,-0.0087 0.09201,-0.239418 0.203973,-0.513511 0.111818,-0.273957 0.251845,-0.66997 0.311327,-0.880305 0.05962,-0.210334 0.121602,-0.396386 0.137771,-0.412418 0.0161,-0.0161 0.324544,0.03663 0.685278,0.117195 0.36074,0.08043 0.666718,0.134963 0.67991,0.121668 0.03902,-0.03893 0.167632,-0.767652 0.206657,-1.169266 l 0.03579,-0.371267 -0.20129,-0.0331 c -0.111228,-0.01832 -0.267008,-0.034 -0.346217,-0.034 -0.125026,-4.12e-4 -0.144033,0.02016 -0.144033,0.156558 0,0.147394 0.01246,0.156558 0.200394,0.156558 0.110226,0 0.213008,0.01312 0.228128,0.02773 0.02374,0.02382 -0.09899,0.917234 -0.12972,0.944717 -0.03902,0.03482 -1.159803,-0.234297 -1.151373,-0.276437 0.05718,-0.284217 0.120773,-1.021284 0.120773,-1.405446 V 12.96079 l 0.431206,-0.0331 c 0.237345,-0.01832 0.567302,-0.034 0.733587,-0.034 h 0.302381 l -0.02594,-0.248704 c -0.07763,-0.736215 -0.149625,-1.261834 -0.179819,-1.310616 -0.02346,-0.03802 -0.128746,-0.03297 -0.33906,0.01611 -0.167856,0.03893 -0.314486,0.07983 -0.324747,0.09036 -0.01039,0.01056 -0.0043,0.07353 0.01342,0.140455 0.02877,0.109602 0.05319,0.117848 0.254072,0.09036 0.256358,-0.03526 0.256031,-0.03574 0.3158,0.55198 0.04172,0.410684 0.08204,0.386404 -0.689751,0.427628 l -0.475937,0.02505 -0.06173,-0.506354 c -0.03376,-0.278353 -0.107983,-0.691239 -0.16461,-0.917878 -0.05678,-0.226596 -0.102881,-0.43805 -0.102881,-0.47057 1.45e-4,-0.03253 0.267283,-0.137452 0.593132,-0.233495 0.325993,-0.0961 0.623815,-0.194032 0.662017,-0.217392 0.05576,-0.03435 0.04036,-0.123842 -0.07604,-0.4526772 -0.0798,-0.2256382 -0.211659,-0.5589724 -0.293442,-0.7398546 L 22.054265,8.8097676 21.736676,8.9699042 c -0.296561,0.1496963 -0.313374,0.1677941 -0.256756,0.2764367 0.0332,0.064089 0.06727,0.1241402 0.07515,0.1332983 0.0078,0.00917 0.08831,-0.021519 0.179818,-0.068885 0.09151,-0.047539 0.196232,-0.07503 0.232601,-0.060834 0.05819,0.022453 0.343534,0.7012915 0.343534,0.8176808 0,0.02474 -0.248434,0.127381 -0.55198,0.229023 -0.497134,0.166454 -0.555559,0.176404 -0.584186,0.09662 -0.141838,-0.3973557 -0.2702,-0.686571 -0.510828,-1.1486922 l -0.279121,-0.536771 0.348006,-0.224549 C 20.92465,8.3592437 21.192295,8.1923753 21.327835,8.1128597 L 21.57475,7.9688262 21.437873,7.7505395 C 21.255861,7.4601837 20.762326,6.8036299 20.665818,6.7235174 20.602612,6.6712527 20.541661,6.7001205 20.326757,6.8854435 l -0.261228,0.2263381 0.22097,0.2334956 0.15298,-0.128825 c 0.08422,-0.071048 0.173872,-0.1288251 0.198605,-0.1288251 0.03944,0 0.437983,0.489384 0.54035,0.663807 0.02405,0.04077 -0.128595,0.1745731 -0.432995,0.3793181 C 20.486648,8.3048097 20.256482,8.447447 20.233717,8.447447 20.211147,8.4471736 20.133877,8.360153 20.06195,8.2542095 19.868924,7.9695806 19.622331,7.6772803 19.26574,7.310387 L 18.94815,6.9838512 19.202222,6.7083089 c 0.13969,-0.1512889 0.267269,-0.2872645 0.282699,-0.3023808 0.01541,-0.015061 0.121962,-0.1279383 0.237074,-0.2513882 L 19.931336,5.9299909 19.747939,5.7734326 C 19.647288,5.6874965 19.365301,5.4637779 19.120812,5.276025 L 18.676186,4.9342807 18.540204,5.0979959 c -0.07463,0.089312 -0.166665,0.2203272 -0.204867,0.2916457 -0.06146,0.1148299 -0.05852,0.1389153 0.03042,0.2066564 0.09236,0.070494 0.114895,0.060761 0.266597,-0.1154057 l 0.164609,-0.191448 0.371267,0.3032755 0.371267,0.3032754 -0.165505,0.1905539 c -0.09094,0.1045295 -0.267451,0.3035443 -0.391843,0.4428362 L 18.756703,6.7825621 18.346968,6.4739188 C 18.121919,6.3042101 17.75771,6.0533894 17.538233,5.9165715 l -0.399,-0.248704 0.09215,-0.1663989 c 0.05105,-0.091511 0.202403,-0.3679459 0.336377,-0.6146029 L 17.811085,4.4377686 17.616058,4.3286248 C 17.42275,4.2205295 16.635961,3.887864 16.419059,3.8222711 c -0.09966,-0.030226 -0.124493,-1.69e-5 -0.221866,0.2907507 -0.06035,0.1785449 -0.103681,0.3304018 -0.09662,0.3372711 0.0069,0.00693 0.07369,0.027927 0.147612,0.04652 0.120092,0.030226 0.14336,0.011414 0.218286,-0.1789237 l 0.0841,-0.2138138 0.26928,0.1064596 c 0.340575,0.1342538 0.575239,0.2553525 0.575239,0.2961185 0,0.03161 -0.466978,0.9670755 -0.50188,1.0055513 C 16.883,5.5231108 16.643902,5.4369908 16.361806,5.3198618 16.079702,5.2027814 15.673277,5.0605384 15.458239,5.0040619 15.199153,4.9358527 15.068995,4.8764251 15.072658,4.827822 c 0.0033,-0.040303 0.06974,-0.3499493 0.148507,-0.6888561 0.07879,-0.3387702 0.135097,-0.6242282 0.125246,-0.63339 -0.02076,-0.019701 -0.883076,-0.1617978 -1.278409,-0.2111297 -0.248783,-0.031142 -0.270269,-0.02565 -0.300592,0.087673 -0.01787,0.066928 -0.0331,0.2204298 -0.0331,0.3408497 -4.58e-4,0.1758438 0.02101,0.2256942 0.108249,0.2531769 0.139828,0.044439 0.156151,0.024263 0.190554,-0.2326006 0.03229,-0.2410688 0.01472,-0.2361229 0.56182,-0.1547691 0.252796,0.037569 0.393632,0.082642 0.393632,0.1252468 0,0.075064 -0.203797,1.0842841 -0.22276,1.1030644 -0.0068,0.00693 -0.118411,-0.00786 -0.247809,-0.033103 -0.129389,-0.025188 -0.552803,-0.062604 -0.941139,-0.082305 -0.415065,-0.02107 -0.721693,-0.059144 -0.744322,-0.093041 -0.02121,-0.03161 -0.03937,-0.3492663 -0.03937,-0.7058535 l -9.16e-4,-0.6503877 -0.458044,0.032205 c -0.42322,0.032512 -1.115307,0.1316072 -1.154058,0.1655043 -0.0092,0.00779 0.01195,0.1582553 0.04652,0.3336924 0.05905,0.3001561 0.07126,0.3193789 0.210235,0.3193789 0.146009,0 0.147232,-0.00449 0.117195,-0.2567555 l -0.03042,-0.2567556 0.359636,-0.033996 c 0.197884,-0.018784 0.406684,-0.04012 0.464307,-0.045626 0.0895,-0.00831 0.109617,0.032072 0.138666,0.2782264 0.01868,0.1581619 0.03661,0.4213754 0.03936,0.5850805 l 0.0054,0.2979077 -0.248703,0.031312 c -0.482691,0.061786 -0.880278,0.1328847 -1.273042,0.2272327 l -0.397211,0.095724 -0.1995,-0.6700694 c -0.1946,-0.6525294 -0.203001,-0.66903 -0.330114,-0.6369682 -0.2803817,0.070304 -1.3696597,0.5221868 -1.3696597,0.5680829 0,0.053996 0.286552,0.6002885 0.314905,0.6002885 0.01731,0 0.07707,-0.033002 0.132404,-0.073359 0.09738,-0.071221 0.09701,-0.079952 0.0072,-0.2683852 -0.05105,-0.1069535 -0.08537,-0.2006382 -0.07694,-0.2093411 0.06577,-0.064902 0.849405,-0.3340084 0.87762,-0.3014863 0.04361,0.050741 0.3667937,0.9642168 0.3667937,1.0368627 0,0.02839 -0.147707,0.1074096 -0.32743,0.1753455 -0.1798607,0.06788 -0.5712097,0.2506291 -0.8704637,0.4070509 -0.299117,0.1562404 -0.560109,0.2653439 -0.579713,0.2424416 -0.01946,-0.022902 -0.182954,-0.2768527 -0.36411,-0.5645037 -0.181152,-0.2876983 -0.338366,-0.5329139 -0.348901,-0.544823 -0.04576,-0.051157 -1.274831,0.8423147 -1.274831,0.9268248 0,0.021537 0.09962,0.1528042 0.221865,0.2916457 0.221621,0.2519245 0.222869,0.2524623 0.319379,0.1458226 0.09446,-0.1045294 0.09299,-0.1111953 -0.04383,-0.2907511 l -0.13956,-0.1833965 0.356953,-0.2639124 c 0.196481,-0.1448273 0.373615,-0.2639084 0.394547,-0.2639084 0.04219,0 0.686863,0.941059 0.659334,0.9635041 -0.0095,0.00779 -0.122429,0.090437 -0.251388,0.182502 -0.320416,0.2289293 -1.151374,0.9566142 -1.151374,1.0082349 0,0.1008248 -0.127509,0.01922 -0.483093,-0.3086433 C 6.2431033,6.801598 6.0113033,6.58915 5.9368153,6.5222292 L 5.8008333,6.4005611 5.4662463,6.8031393 c -0.337144,0.4053708 -0.623549,0.8005094 -0.623549,0.8633069 -1.51e-4,0.018317 0.117999,0.1096568 0.262124,0.2021836 0.214465,0.137647 0.276327,0.1567154 0.339954,0.1037755 0.119101,-0.098626 0.09398,-0.1932618 -0.07873,-0.2952239 -0.08622,-0.051018 -0.157453,-0.1173854 -0.157453,-0.1476118 0,-0.065907 0.512779,-0.7075964 0.565399,-0.7076432 0.02029,0 0.232397,0.1668149 0.471464,0.3703722 0.301393,0.2568256 0.419018,0.3886082 0.38558,0.4312059 -0.39018,0.4956038 -0.683998,0.9069191 -0.85615,1.1969992 -0.116384,0.1957683 -0.224114,0.3551637 -0.238863,0.3551637 -0.01475,0 -0.295306,-0.1429154 -0.624443,-0.3184844 C 4.5825881,8.681751 4.3052009,8.5456193 4.2960858,8.5556967 c -0.00916,0.01004 -0.09759,0.1834675 -0.1968163,0.384686 -0.2552178,0.5178204 -0.4304519,1.0178814 -0.3748449,1.0681743 0.025605,0.02336 0.1639085,0.08199 0.3077487,0.12972 0.2450676,0.07965 0.2650567,0.07987 0.3265355,-0.0045 C 4.4587961,9.9969716 4.441913,9.9648554 4.2155698,9.8743485 4.1006189,9.8283164 4.0062247,9.7698177 4.0062292,9.7446289 c 0,-0.036648 0.3020759,-0.7585072 0.3435335,-0.8212598 0.00573,-0.00866 0.2500772,0.095577 0.5430336,0.2317065 0.402062,0.186562 0.526187,0.2669726 0.506354,0.3292195 -0.01456,0.045342 -0.118431,0.3063521 -0.230812,0.5797129 -0.112243,0.27336 -0.246755,0.655768 -0.298802,0.849887 -0.0519,0.194165 -0.120342,0.35069 -0.152086,0.35069 -0.03161,0 -0.3401312,-0.06814 -0.685277,-0.149401 -0.3451595,-0.08116 -0.6327812,-0.143703 -0.6396524,-0.138666 -0.028903,0.02245 -0.2227599,1.257749 -0.2227599,1.41976 v 0.178029 h 0.3399552 c 0.3276805,0 0.3399548,-0.0045 0.3399548,-0.130615 0,-0.107143 -0.026516,-0.129622 -0.1440335,-0.134193 -0.3076823,-0.0078 -0.3167466,-0.02797 -0.2343902,-0.519773 0.040903,-0.244503 0.081953,-0.452004 0.091251,-0.461623 0.021162,-0.02199 1.0809125,0.192465 1.1138,0.225444 0.01333,0.01333 -0.0032,0.232 -0.035787,0.486673 -0.032613,0.25449 -0.059045,0.677693 -0.059045,0.940243 0,0.262506 -0.017813,0.489034 -0.040258,0.502776 -0.022444,0.01368 -0.3506501,0.04214 -0.729114,0.06262 l -0.6879615,0.03757 0.024153,0.267491 c 0.049318,0.539576 0.1400788,1.173949 0.1771346,1.233678 0.02904,0.04873 0.1138547,0.04851 0.3596364,0 0.1767274,-0.03482 0.3202735,-0.07786 0.3202735,-0.09572 -3.206e-4,-0.01787 -0.01425,-0.08179 -0.030419,-0.142244 -0.026292,-0.09816 -0.052787,-0.105512 -0.2478095,-0.06978 -0.119961,0.02062 -0.225919,0.03065 -0.2361792,0.02057 -0.027757,-0.02747 -0.1270218,-0.916031 -0.1046706,-0.93756 0.010439,-0.01004 0.2803128,-0.03481 0.600289,-0.05547 l 0.5815023,-0.03757 0.03668,0.359636 c 0.020566,0.197554 0.084945,0.582788 0.1431392,0.85615 0.171144,0.805426 0.216792,0.720611 -0.5072489,0.940244 -0.5899615,0.179004 -0.6270617,0.197308 -0.6146029,0.31759 0.019009,0.185691 0.4892068,1.357136 0.5448225,1.357136 0.02588,0 0.1641596,-0.05915 0.3068542,-0.131509 C 4.7383425,17.333964 4.7778645,17.271069 4.6879225,17.1288 4.6458745,17.06262 4.6134785,17.06496 4.4454809,17.1449 4.338817,17.19524 4.2324787,17.21835 4.2093021,17.195 4.1559721,17.14168 3.9001793,16.46669 3.9015529,16.380898 c 4.306e-4,-0.05218 0.9138516,-0.378424 1.0601236,-0.378424 0.02258,0 0.120456,0.193549 0.217392,0.430312 0.09694,0.2369 0.2851,0.630361 0.417787,0.874042 l 0.241547,0.442836 z" />
    <path
       id="path1372"
       style="fill:#392300;fill-opacity:1;stroke:none;stroke-width:0.529;stroke-linecap:round;stroke-miterlimit:4;stroke-dasharray:none;stroke-dashoffset:0"
       d="m 4.4007559,17.890144 h 0.5573474 c 0.228153,-0.135066 0.459834,-0.276481 0.459834,-0.297013 4e-6,-0.02611 -0.103524,-0.251858 -0.229917,-0.502775 -0.126251,-0.251101 -0.24534,-0.509578 -0.264807,-0.574345 -0.04191,-0.139933 -0.08996,-0.144682 -0.4115245,-0.03489 -0.2412063,0.08218 -0.2834701,0.140121 -0.2003945,0.27107 0.033758,0.05322 0.08191,0.04973 0.2397575,-0.0161 0.1089509,-0.04581 0.2050405,-0.07491 0.2129195,-0.0662 0.08965,0.100669 0.389382,0.79858 0.356953,0.831101 -0.04192,0.04172 -0.427825,0.238668 -0.7201684,0.389159 z" />
    <path
       id="path1364"
       style="fill:#392300;fill-opacity:1;stroke:none;stroke-width:0.529;stroke-linecap:round;stroke-miterlimit:4;stroke-dasharray:none;stroke-dashoffset:0"
       d="m 18.107203,22.352501 h -0.42047 c -0.353998,0.207231 -1.680068,0.741638 -1.888539,0.741638 -0.04044,0 -0.09745,-0.08801 -0.127036,-0.195921 -0.08915,-0.32545 -0.111393,-0.385665 -0.157453,-0.545717 h -0.278226 c 0.02262,0.0775 0.035,0.06124 0.05994,0.171767 0.06591,0.292736 0.130565,0.560546 0.144034,0.595816 0.01541,0.03985 -0.06018,0.08504 -0.20129,0.120773 -0.36173,0.09125 -1.426286,0.219181 -1.825916,0.219181 h -0.367688 l 0.0098,-0.169977 c 0.0055,-0.09354 0.0076,-0.406942 0.0045,-0.696013 l -0.0027,-0.241547 h -0.250493 c 0.01279,0.08173 0.01991,0.250168 0.0045,0.520668 h -9.16e-4 l -0.0331,0.586869 -0.240652,-0.0054 c -0.540032,-0.01229 -2.012918,-0.266742 -2.069252,-0.357847 -0.01201,-0.01951 0.101184,-0.421895 0.184291,-0.744323 h -0.306854 c -0.08954,0.321617 -0.175636,0.655974 -0.191448,0.675437 -0.02029,0.02519 -0.7408437,-0.238715 -1.1782127,-0.432101 -0.228431,-0.101049 -0.269016,-0.149066 -0.446414,-0.243336 h -0.408841 c 1.180528,0.647271 2.4672157,1.105501 3.8361237,1.259623 h 9.16e-4 c 1.911677,0.21464 3.97723,-0.14788 5.726452,-1.006446 0.158521,-0.07783 0.276811,-0.172675 0.424944,-0.253177 z" />
    <path
       id="path1360"
       style="fill:#392300;fill-opacity:1;stroke:none;stroke-width:0.529;stroke-linecap:round;stroke-miterlimit:4;stroke-dasharray:none;stroke-dashoffset:0"
       d="M 10.963676,2.8033005 A 10.662425,10.679639 0 0 0 8.9955153,3.4107465 C 9.6233103,3.1481435 10.281751,2.9427284 10.963676,2.8033005 Z" />
    <path
       id="path1358"
       style="fill:#392300;fill-opacity:1;stroke:none;stroke-width:0.529;stroke-linecap:round;stroke-miterlimit:4;stroke-dasharray:none;stroke-dashoffset:0"
       d="m 13.072292,2.5850139 a 10.662425,10.679639 0 0 0 -2.108616,0.2182866 c 0.683145,-0.139677 1.390091,-0.2140121 2.113983,-0.2164975 h 0.03668 c 0.367961,0 0.73127,0.019233 1.089645,0.055466 a 10.662425,10.679639 0 0 0 -1.10217,-0.057256 10.662425,10.679639 0 0 0 -0.02952,0 z m 1.142427,0.05815 c 0.15901,0.016444 0.316383,0.037569 0.473253,0.060834 a 10.662425,10.679639 0 0 0 -0.473253,-0.060834 z m 0.587765,0.077832 c 0.110986,0.017396 0.221188,0.038013 0.331008,0.059045 a 10.662425,10.679639 0 0 0 -0.331008,-0.059045 z m -1.694408,0.077832 C 11.370723,2.7989642 9.9337953,3.1312399 8.4390633,3.8786317 3.2208705,6.4869658 1.2691952,12.831619 3.8255164,17.890144 h 0.1905535 c -0.2122345,-0.37187 -0.7944207,-1.796117 -0.7944207,-1.984263 0,-0.04169 0.2146681,-0.123148 0.5618201,-0.212919 0.3092626,-0.08021 0.6110563,-0.163639 0.6709639,-0.186081 l 0.1091433,-0.04115 -0.094829,-0.488462 C 4.4165566,14.70858 4.3602203,14.3988 4.3435003,14.288412 4.3204607,14.13676 4.2935176,14.095536 4.2334624,14.118435 c -0.043606,0.01697 -0.1833209,0.03042 -0.3104324,0.03042 -0.2190374,0 -0.2308119,0.0077 -0.2308119,0.148506 0,0.146112 0.00321,0.148431 0.2308119,0.113616 l 0.231706,-0.03489 0.082305,0.444625 c 0.045255,0.244504 0.070996,0.455933 0.057256,0.469675 -0.038613,0.03893 -1.1396461,0.273896 -1.1647927,0.248704 -0.051765,-0.0519 -0.21825,-1.199979 -0.2522827,-1.742716 l -0.03668,-0.588659 h 1.4179701 l 0.033103,-0.405263 c 0.018322,-0.22293 0.051281,-0.538155 0.073359,-0.700485 l 0.040257,-0.295225 -0.232601,-0.03131 c -0.3568763,-0.04901 -0.4135882,-0.04028 -0.4419411,0.06799 -0.027437,0.104945 0.078378,0.160137 0.3140106,0.160137 0.1328242,0 0.1366764,0.02798 0.0832,0.594027 l -0.033103,0.356952 -0.5895538,-0.017 c -0.3241307,-0.0092 -0.6050682,-0.03252 -0.6244435,-0.05189 -0.068917,-0.06921 0.1832925,-1.901434 0.3131166,-2.275015 0.015028,-0.04306 0.2248426,-0.0078 0.7085377,0.120774 0.3783261,0.100496 0.6921439,0.175129 0.6969075,0.165504 0.00459,-0.0092 0.092868,-0.264168 0.1968156,-0.566293 0.103944,-0.302081 0.204692,-0.5840502 0.223655,-0.6280225 C 5.0453013,9.6432335 4.9797113,9.585077 4.7666543,9.4807312 4.4888539,9.3441096 4.4774206,9.3421744 4.4258036,9.4386867 c -0.07435,0.1387032 -0.07739,0.1351149 0.1556637,0.2120247 0.115097,0.038018 0.209341,0.074959 0.209341,0.0832 0,0.00831 -0.0612,0.1870141 -0.1359824,0.3972106 -0.074781,0.210151 -0.1441641,0.409399 -0.1538746,0.442835 -0.012134,0.0426 -0.1410645,0.02247 -0.4267327,-0.0662 -0.2247625,-0.06991 -0.4958823,-0.1505 -0.6029731,-0.179819 L 3.2762188,10.275155 3.4605103,9.7661171 C 3.5614579,9.4864346 3.7738724,8.9929232 3.9328688,8.6693151 4.2069581,8.1113257 4.228101,8.0839822 4.3363415,8.1405956 c 0.062908,0.032979 0.3290038,0.185777 0.5922378,0.3399552 0.26322,0.1542319 0.498942,0.2782259 0.523351,0.2782259 0.02446,0 0.180076,-0.2065978 0.346218,-0.45715 0.166146,-0.2504583 0.336558,-0.5039943 0.378423,-0.5627147 0.0712,-0.099803 0.06047,-0.1189977 -0.170872,-0.297908 -0.220759,-0.1707128 -0.256615,-0.1832211 -0.326535,-0.1127221 -0.06992,0.070494 -0.05877,0.096418 0.09751,0.2370743 l 0.175345,0.1583474 -0.249598,0.3614256 c -0.137263,0.1990213 -0.265206,0.3623206 -0.284489,0.3623206 -0.06906,0 -0.9640197,-0.564775 -0.9822911,-0.6199707 C 4.3997335,7.720249 5.2509413,6.5845155 5.6755853,6.1733298 l 0.214708,-0.2075515 0.522457,0.520668 c 0.287249,0.2862316 0.522054,0.4967215 0.522458,0.4687798 9.16e-4,-0.044421 0.141103,-0.1690235 0.880304,-0.7881587 L 7.9461273,6.0570295 7.7716763,5.8136933 c -0.18001,-0.2506095 -0.249395,-0.2866434 -0.352478,-0.1833987 -0.04489,0.044888 -0.02524,0.1051395 0.07873,0.241547 l 0.138666,0.1816074 -0.181607,0.1583474 c -0.09951,0.086889 -0.254998,0.2241285 -0.346217,0.305065 L 6.9432613,6.6635791 6.6829273,6.3916151 C 6.5396643,6.2420502 6.3477363,6.0369314 6.2570893,5.9362542 l -0.16461,-0.1825024 0.251388,-0.2236545 c 0.539178,-0.4803972 1.598607,-1.2188984 1.659517,-1.1567412 0.01073,0.010906 0.175269,0.2837897 0.365004,0.6056563 l 0.344428,0.5850805 0.614603,-0.2934348 c 0.337863,-0.1610874 0.62104,-0.2968844 0.628916,-0.3023809 0.008,-0.00554 -0.03696,-0.1437916 -0.0993,-0.3068541 -0.09837,-0.2570542 -0.128143,-0.2923337 -0.223655,-0.263018 -0.152275,0.04676 -0.150606,0.03619 -0.05368,0.2782264 0.04788,0.1198158 0.07881,0.2226101 0.06799,0.2290223 -0.123814,0.072104 -0.739378,0.3506904 -0.774739,0.3506904 -0.04877,0 -0.578818,-0.9495136 -0.578818,-1.0368627 0,-0.070944 0.714843,-0.4046467 1.35982,-0.6351792 0.9084887,-0.3243872 0.7948647,-0.3724709 1.0001827,0.4213653 0.171856,0.6653093 0.180641,0.6827398 0.307749,0.6593337 0.07191,-0.013329 0.377793,-0.065986 0.67991,-0.1171948 0.30197,-0.051157 0.556374,-0.099142 0.565398,-0.1055651 0.009,-0.0064 -4.4e-4,-0.1565239 -0.02058,-0.3336924 -0.03262,-0.2890261 -0.04762,-0.320159 -0.146717,-0.3059596 -0.09551,0.013677 -0.109477,0.048343 -0.102881,0.2549664 l 0.0072,0.238863 -0.394527,0.066202 c -0.217323,0.036648 -0.423001,0.076634 -0.456255,0.089462 -0.06835,0.026108 -0.358105,-1.1331401 -0.297908,-1.1916319 0.110848,-0.1075938 1.697954,-0.2961538 2.158714,-0.2755422 v -9.161e-4 c 0.06582,0.00449 0.108499,0.00997 0.120773,0.022366 0.02927,0.02931 0.06284,0.3559396 0.07425,0.7255353 l 0.02058,0.6718585 0.556453,0.033996 c 0.305983,0.018317 0.607407,0.047932 0.669174,0.064412 0.11895,0.03161 0.120511,0.027959 0.204868,-0.4625178 0.03187,-0.1849122 0.0261,-0.1968163 -0.101987,-0.1968158 -0.11895,0 -0.140558,0.027002 -0.170872,0.2164975 l -0.034,0.2164975 -0.443731,-0.030419 c -0.243779,-0.017397 -0.452855,-0.04029 -0.464306,-0.051888 -0.01143,-0.011424 -0.0045,-0.2864533 0.01521,-0.6110242 l 0.03579,-0.5895533 0.527824,0.030419 c 0.598803,0.036181 1.808919,0.255724 1.808919,0.328325 0,0.010558 -0.08135,0.317992 -0.180713,0.6843828 -0.09951,0.3662529 -0.175881,0.6681725 -0.169977,0.672753 0.07434,0.042135 1.306095,0.4453842 1.319562,0.4321009 0.0219,-0.021986 0.23439,-0.512387 0.23439,-0.5412442 0,-0.010906 -0.04906,-0.04622 -0.108249,-0.077832 -0.09638,-0.051624 -0.115785,-0.035732 -0.190554,0.1547692 -0.04603,0.1169419 -0.102343,0.2129192 -0.125246,0.2129192 -0.04448,0 -0.791036,-0.267263 -0.826628,-0.2961189 -0.03532,-0.02839 0.322451,-1.1683715 0.366794,-1.1683715 0.196163,0 2.139032,0.8580536 2.139032,0.944717 0,0.02107 -0.156237,0.3017062 -0.347112,0.6244435 -0.190735,0.3225559 -0.325207,0.6016475 -0.297907,0.6199707 0.0273,0.018317 0.14263,0.091265 0.25586,0.1610315 0.113099,0.069767 0.348484,0.2375204 0.523352,0.3730558 l 0.318484,0.2460199 0.192343,-0.2361792 c 0.218049,-0.2690999 0.22331,-0.2884509 0.107354,-0.3846861 -0.07335,-0.06092 -0.105327,-0.044875 -0.238863,0.1216681 L 18.591195,6.0874244 18.36754,5.920131 C 18.244433,5.8280342 18.077521,5.7053273 17.997166,5.6472926 L 17.851343,5.5417275 18.074103,5.1758287 C 18.196637,4.9750691 18.34327,4.7457784 18.399744,4.6658959 l 0.101986,-0.1458227 0.191448,0.1154057 c 0.469689,0.2832562 1.629995,1.2504142 1.629995,1.3589254 0,0.023823 -0.210382,0.2575429 -0.467885,0.5197734 l -0.46878,0.4768313 0.273753,0.3220626 c 0.149991,0.1772638 0.339293,0.4109183 0.421365,0.5188789 0.08206,0.1078187 0.171389,0.1959213 0.198606,0.1959213 0.02702,0 0.152586,-0.078469 0.279121,-0.175345 0.208892,-0.1594948 0.223824,-0.1849635 0.158347,-0.2746481 -0.0702,-0.096185 -0.077,-0.095541 -0.231706,0.018789 -0.0875,0.064764 -0.179402,0.1171948 -0.204868,0.1171948 -0.02532,0 -0.149299,-0.1236807 -0.275542,-0.2746477 -0.1261,-0.1510118 -0.248005,-0.2820272 -0.270175,-0.2916457 -0.09679,-0.041687 -0.01281,-0.1572384 0.391843,-0.5403492 l 0.431206,-0.407946 0.225444,0.2469144 c 0.295251,0.3239754 0.71986,0.8929992 0.991237,1.3285085 l 0.217392,0.3489012 -0.622654,0.3480063 -0.62176,0.3489013 0.251388,0.5063541 c 0.138391,0.2784 0.269108,0.5608257 0.289856,0.6280222 0.04133,0.1342541 0.106746,0.1311921 0.461623,-0.016998 0.195961,-0.081902 0.217329,-0.1133276 0.163715,-0.2531769 -0.02647,-0.069074 -0.05213,-0.069237 -0.207551,-0.00449 -0.09752,0.04077 -0.201152,0.074253 -0.229917,0.074254 -0.0466,0 -0.443035,-0.7857467 -0.409735,-0.8123137 0.152414,-0.121374 1.053662,-0.5487365 1.086961,-0.5153002 0.08249,0.08282 0.503973,1.081016 0.678121,1.6076299 0.121322,0.366892 0.153347,0.526765 0.110932,0.552873 -0.03289,0.02015 -0.343455,0.114534 -0.68975,0.209341 -0.413637,0.11322 -0.621367,0.194519 -0.605657,0.235284 0.0246,0.06421 0.159441,0.741737 0.216498,1.088751 0.03161,0.191737 0.03746,0.196816 0.261228,0.196816 0.308691,0 0.393632,-0.04075 0.393632,-0.18787 0,-0.117357 -0.01333,-0.12284 -0.235284,-0.09215 -0.129407,0.01878 -0.235285,0.02059 -0.235285,0.0045 0,-0.01558 -0.03481,-0.21236 -0.07783,-0.436574 -0.043,-0.224303 -0.06074,-0.422702 -0.03936,-0.441941 0.05476,-0.0492 1.106461,-0.279393 1.13706,-0.248704 0.07749,0.07737 0.288067,1.641965 0.288067,2.140822 v 0.203973 h -1.400078 l -0.03131,0.274648 c -0.01697,0.15115 -0.04585,0.465643 -0.06441,0.698696 l -0.034,0.423155 0.300592,0.03579 c 0.165571,0.02107 0.308035,0.02835 0.314906,0.02058 0.0068,-0.0078 0.02605,-0.06436 0.04473,-0.125246 0.02987,-0.09788 0.0087,-0.114372 -0.180712,-0.139561 -0.118241,-0.01558 -0.223743,-0.03757 -0.235285,-0.0492 -0.0116,-0.01143 -0.0065,-0.213755 0.01163,-0.449098 l 0.034,-0.427628 h 0.590448 c 0.324855,0 0.603801,0.0206 0.61997,0.04652 0.07463,0.120976 -0.225821,2.155917 -0.335482,2.271437 -0.02257,0.02382 -0.310227,-0.02883 -0.639652,-0.117196 -0.329567,-0.08864 -0.636973,-0.161031 -0.682594,-0.161031 -0.05119,0 -0.09698,0.06517 -0.119879,0.169978 -0.02043,0.09348 -0.117804,0.379384 -0.215603,0.636074 -0.196601,0.515848 -0.203647,0.490673 0.183397,0.640546 0.193885,0.07506 0.233583,0.07713 0.273753,0.01342 0.07721,-0.121841 0.05788,-0.149358 -0.161031,-0.237074 -0.115089,-0.04631 -0.208926,-0.08668 -0.207551,-0.09125 9.16e-4,-0.0045 0.06932,-0.195762 0.152085,-0.425838 0.09094,-0.252931 0.178555,-0.417 0.220971,-0.41242 0.03875,0.0045 0.29933,0.07112 0.579712,0.151191 0.33457,0.09537 0.509933,0.169969 0.509933,0.218287 0,0.194434 -0.469319,1.168328 -0.740744,1.665779 h 0.305065 c 0.480669,-0.959753 0.812221,-2.000408 0.993921,-3.133848 0.116042,-0.720733 0.113502,-2.321797 -0.0036,-3.072119 C 22.906851,8.2622628 20.822097,5.4040934 17.731464,3.8580559 16.290345,3.137139 14.814188,2.7989642 13.108971,2.7988277 Z" />
  </g>
</svg>
